<svg width="572" height="493" viewBox="0 0 572 493" fill="none" xmlns="http://www.w3.org/2000/svg">
<path d="M283.253 181.32C283.861 181.239 283.923 178.338 283.575 178.303C282.335 178.199 281.864 181.516 283.253 181.32Z" stroke="white" stroke-miterlimit="10"/>
<path d="M151.576 223.377C152.593 223.03 159.153 224.313 159.153 222.371C159.153 221.123 152.407 219.482 151.576 220.06C151.642 220.891 152.014 221.675 152.63 222.279C152.63 222.891 149.791 222.209 149.542 222.857C149.74 223.175 150.064 223.409 150.445 223.506C150.826 223.603 151.232 223.557 151.576 223.377Z" stroke="white" stroke-miterlimit="10"/>
<path d="M211.09 261.607C208.337 261.745 205.683 258.452 202.67 258.059C199.991 257.712 199.83 257.446 197.474 258.348C200.103 257.342 193.232 254.384 193.195 254.372C192.042 254.083 190.864 256.995 189.822 256.579C190.033 256.66 191.062 254.268 190.008 253.366C188.954 252.465 187.081 254.638 186.982 254.58C187.156 254.672 189.921 248.131 186.548 246.421C183.299 244.433 180.633 244.803 177.681 243.427C174.928 242.133 174.68 238.955 170.811 239.186C172.386 239.093 167.76 235.337 169.037 235.811C166.979 235.048 162.998 236.666 160.357 236.112C159.302 235.904 158.62 233.384 157.095 233.384C154.764 233.384 155.396 237.279 155.024 238.007C153.945 240.214 153.511 232.228 154.602 232.876C153.821 232.413 148.402 235.927 147.794 236.343C146.554 237.198 146.083 238.862 144.818 239.209C146.951 238.619 137.997 237.695 139.857 238.354C134.19 236.343 136.782 235.661 135.244 231.003C134.798 229.686 136.273 229.062 135.07 227.86C133.867 226.658 129.093 226.473 127.63 227.351C126.588 227.883 127.766 223.699 128.225 223.26C130.073 221.515 130.705 217.481 127.803 217.389C123.053 217.273 125.397 221.191 122.446 222.555C113.566 226.669 113.17 215.031 113.455 210.142C113.346 210.07 113.23 210.008 113.108 209.958C113.23 210.008 113.346 210.07 113.455 210.142C113.939 201.532 120.598 203.867 126.154 204.468C124.69 204.306 125.931 202.249 127.617 202.156C129.19 202.211 130.74 202.528 132.193 203.093C134.996 203.867 134.289 203.093 136.372 206.386C137.191 207.704 137.513 211.009 139.349 211.552C139.51 211.552 139.25 199.51 140.304 198.065C141.631 196.239 144.805 193.974 145.81 192.772C148.104 190.033 145.897 193.119 146.182 189.94C146.182 189.605 145.264 185.075 146.827 185.075C146.219 185.075 147.36 189.328 147.298 189.363C148.861 188.357 147.844 186.878 147.918 185.734C147.918 184.821 152.978 183.26 153.387 182.428C153.561 182.081 150.969 182.428 150.969 182.359C150.969 181.134 155.036 181.342 155.632 180.96C155.868 179.393 156.456 177.889 157.355 176.546C159.191 174.777 163.767 175.17 165.181 172.466C165.007 172.801 165.788 174.142 166.768 173.876C163.159 174.858 161.435 176.65 165.764 176.049C167.971 175.737 171.319 173.737 172.969 172.581C173.068 172.512 172.212 171.518 172.336 170.825C172.262 171.264 169.608 173.217 168.988 173.136C164.771 172.42 166.78 169.785 165.143 168.768C164.707 168.962 164.224 169.045 163.742 169.01C163.296 167.6 168.839 166.537 163.506 165.89C159.786 165.439 157.988 170.432 155.458 170.432C156.698 170.432 162.291 164.098 164.933 163.497C165.987 163.174 180.868 162.168 179.628 159.106C179.287 158.922 178.935 158.756 178.574 158.609C177.545 157.719 181.265 156.84 177.136 156.39C177.036 155.969 176.999 155.537 177.024 155.107C176.627 154.853 172.46 156.459 172.46 156.448C172.138 155.038 176.317 154.876 176.788 154.136C176.788 154.194 167.847 150.149 168.653 149.155C170.302 147.167 170.29 149.386 169.223 146.3C168.926 145.457 164.945 140.256 165.23 140.013C163.296 141.643 164.387 145.353 161.014 145.364C157.293 145.364 157.653 141.388 157.653 139.112C157.653 138.106 148.414 135.541 147.732 135.564C142.511 135.691 144.657 136.003 144.334 139.863C144.272 140.522 143.503 143.261 143.578 143.654C144.198 146.647 146.852 147.606 145.227 151.443C144.731 152.599 141.767 152.934 141.507 153.616C141.221 154.529 142.66 155.454 142.437 156.54C142.35 156.979 142.92 161.105 142.623 160.978C140.651 160.111 141.519 161.822 139.312 159.984C136.831 157.915 138.555 154.922 137.104 153.35C136.534 152.715 129.329 150.172 127.729 149.49C125.622 148.379 123.155 148.017 120.784 148.473C121.417 148.381 120.189 145.006 119.916 144.625C118.353 142.151 116.667 144.902 117.609 140.002C117.845 138.777 123.723 132.894 123.81 133.067C123.81 132.825 118.998 131.149 119.035 131.068C119.705 129.577 123.785 133.726 124.901 130.594C124.393 132.039 131.362 129.184 129.626 128.017C128.894 127.531 124.802 128.017 125.05 126.225C124.889 127.381 133.818 127.843 130.271 124.896C130.147 124.792 133.52 124.896 134.202 124.896C134.673 124.896 132.962 123.371 133.074 123.221C133.582 122.747 135.368 125.532 137.712 123.105C139.522 121.221 136.769 121.025 136.658 119.199C136.658 118.991 139.448 118.286 138.518 116.98C137.811 115.986 134.103 114.795 132.875 115.165C132.02 115.419 133.185 119.303 130.866 120.562C130.558 120.279 130.321 119.936 130.172 119.557C129.192 119.615 131.052 122.932 129.8 122.388C128.547 121.845 128.436 119.488 128.237 119.326C127.741 118.921 127.084 117.43 126.253 116.737C125.422 116.043 124.628 119.314 124.306 119.372C123.066 119.58 124.467 116.54 124.554 116.402C125.124 115.408 121.541 115.731 121.603 115.789C120.462 114.865 122.384 114.356 122.582 114.067C122.334 114.437 119.829 110.265 119.829 110.288C118.18 106.821 119.296 110.288 118.874 106.347C119.073 108.185 126.538 103.284 123.946 102.487C121.355 101.689 117.547 101.424 116.964 103.377C116.642 104.532 116.828 108.924 116.344 110.692C116.183 111.259 114.149 112.172 114.856 114.425C115.141 115.304 120.573 116.448 118.019 118.378C118.038 118.134 118.159 117.906 118.356 117.744C118.553 117.582 118.81 117.498 119.073 117.511C119.147 117.661 116.295 122.527 116.592 122.319C115.434 121.341 114.341 120.299 113.318 119.199C113.17 118.944 116.952 118.401 117.15 118.228C118.614 116.899 115.005 116.922 115.005 116.725C115.005 116.344 116.94 116.575 116.245 116.078C115.781 115.754 115.252 115.521 114.688 115.393C114.125 115.266 113.539 115.246 112.968 115.336C112.396 115.426 111.849 115.623 111.362 115.915C110.874 116.208 110.456 116.589 110.131 117.037C109.462 117.87 115.451 119.996 108.246 120.863C104.96 121.256 103.621 119.707 100.806 119.095C99.9747 118.91 100.012 118.101 98.5113 117.939C97.9905 117.939 94.4189 119.349 95.5102 119.811C96.3039 120.135 99.2306 118.262 99.7143 118.736C97.7797 116.76 97.42 124.307 96.1675 123.694C95.6094 123.417 95.9567 121.603 94.2577 121.082C91.9263 120.354 86.6433 122.596 84.9071 120.817C84.0638 119.961 87.127 119.753 86.8913 119.245C86.0356 117.396 81.1743 117.269 79.4506 116.876C77.7268 116.483 76.4122 115.57 74.8373 115.408C72.9399 115.223 72.2206 116.483 70.4596 116.483C70.1992 116.483 70.8193 114.287 70.0008 114.171C69.4359 115.049 68.7146 115.831 67.8677 116.483C66.1812 116.367 66.4044 112.507 64.3954 112.796C65.7595 112.599 61.5307 115.593 61.8159 115.443C60.0203 116.507 58.1613 117.475 56.2477 118.343C55.1936 118.286 62.188 114.287 62.1756 114.437C62.25 113.651 56.1237 116.067 55.4417 116.413C54.7596 116.76 55.4417 115.408 54.2015 115.801C51.2748 116.783 53.3582 117.627 52.6514 118.343C52.9366 118.066 34.5579 114.31 33.3426 114.217C31.5444 114.079 20.3708 112.9 19.7011 112.183C18.461 110.935 15.2739 112.264 13.8105 113.755C12.6324 114.911 3.8895 116.748 3.50506 118.517C2.61217 122.227 11.9007 122.92 12.6076 124.943C12.6076 125.104 2.15332 124.573 1 127.138C1.39684 126.26 3.92671 129.947 4.18713 130.039C5.42726 130.455 11.7767 129.184 11.8015 129.219C13.5873 130.871 9.7057 133.114 8.75081 133.946C7.59749 134.94 7.51068 133.333 6.12173 135.02C5.30376 135.739 4.42908 136.4 3.50506 136.997C3.80269 136.742 5.61328 140.522 5.67529 140.568C6.779 141.469 10.1646 141.458 9.76771 141.088C10.8342 142.082 9.6685 144.162 10.6606 144.648C11.3303 144.983 13.6493 144.717 14.9266 145.202C13.7857 144.775 18.4362 143.319 18.1634 144.047C17.5309 145.826 9.90413 154.448 8.78801 153.292C10.1273 154.668 23.8804 146.011 23.8804 143.966C23.5155 143.678 23.0944 143.458 22.6402 143.319C22.3302 142.59 30.081 136.581 29.8082 138.915C29.8082 138.673 25.1825 142.209 26.249 143.122C26.5715 143.388 31.6932 141.735 32.4497 141.458C33.2061 141.18 30.5895 139.019 32.4497 138.707C33.0821 138.603 35.5252 139.944 35.6244 139.863C35.5077 139.83 35.3849 139.821 35.2642 139.836C35.1434 139.851 35.0275 139.89 34.9242 139.95C34.8209 140.01 34.7325 140.091 34.6651 140.185C34.5976 140.28 34.5526 140.387 34.5331 140.499C34.7687 141.192 45.471 140.753 46.1407 141.308C45.8183 141.042 53.011 146.832 52.9366 145.214C52.6309 144.641 52.5518 143.986 52.7134 143.365C56.1361 145.676 51.1136 146.323 51.126 146.185C51.126 146.347 53.7303 149.767 53.6063 149.802C54.0899 149.559 52.9366 146.705 53.7179 146.971C53.8936 147.333 53.9662 147.731 53.9287 148.126C54.7968 149.167 54.9456 145.815 54.834 146.046C55.02 145.595 55.1068 150.461 54.5612 150.392C53.7675 150.288 59.1124 149.964 57.5375 150.681C58.0335 150.449 55.5905 149.097 56.9422 148.993C59.0256 148.831 57.3887 150.634 55.9997 150.75C55.99 151.699 56.073 152.646 56.2477 153.581C56.6694 153.87 58.5792 152.195 59.5465 152.356C60.5138 152.518 60.3402 155.823 60.8734 156.517C61.2579 157.014 63.9365 159.522 64.2838 159.984C65.9598 161.612 67.8518 163.033 69.914 164.214C69.7279 164.075 76.9579 169.761 72.9771 169.761C72.8283 169.761 68.6614 159.302 64.0358 162.342C65.0031 161.706 70.2364 168.721 70.596 169.623C72.5306 174.8 69.3559 180.822 71.5137 186.473C72.9895 190.345 76.8835 192.795 79.5126 195.453C81.1238 197.276 82.5246 199.251 83.6918 201.347C85.5396 204.26 85.9488 204.999 85.5768 206.664C85.5768 206.745 93.9105 214.869 93.588 215.089C94.3817 214.557 85.3288 199.325 85.5892 199.29C88.8631 198.978 89.1484 203.751 89.756 204.63C91.4302 207.045 94.4809 209.253 96.3163 211.495C99.4538 215.251 99.8755 219.192 102.678 221.896C104.538 223.688 108.879 225.248 111.359 225.976C114.633 226.947 118.093 226.034 120.734 228.438C121.975 229.512 123.847 229.593 124.69 230.344C127.009 232.332 127.964 231.338 130.135 233.419C131.598 234.817 132.02 236.1 132.863 236.886C134.252 238.157 136.583 240.573 138.679 240.711C140.775 240.85 140.105 238.562 141.159 238.793C145.822 239.821 144.979 245.646 143.094 249.194C141.06 253.066 138.456 253.736 140.75 257.643C140.911 257.92 138.481 261.595 138.716 262.739C139.163 264.912 144.371 271.35 145.587 273.603C147.918 277.879 150.894 278.319 154.193 281.809C157.207 284.999 156.252 287.587 155.731 291.933C154.974 298.301 154.776 304.565 153.325 310.737C152.742 313.198 147.732 326.015 149.605 328.477C150.46 329.633 150.845 325.252 151.638 325.01C152.432 324.767 151.13 334.568 150.299 334.024C149.865 333.735 150.783 330.846 149.642 331.32C150.684 330.892 147.509 335.4 147.496 335.446C147.62 334.175 149.121 336.995 149.183 337.445C149.282 338.231 151.018 336.925 150.932 338.069C151.056 336.359 145.723 340.034 148.241 339.676C148.657 339.449 149.041 339.173 149.381 338.855C149.753 338.786 146.752 341.779 148.761 342.08C149.158 342.138 149.369 340.161 149.927 340.681C151.105 341.779 147.682 344.149 148.489 345.05C148.65 345.235 150.324 344.345 150.646 344.969C150.746 345.166 149.518 346.055 149.716 346.125C150.386 346.356 151.911 345.512 152.197 346.414C152.482 347.315 149.22 346.483 150.336 347.962C150.758 348.517 153.412 346.171 153.908 347.708C153.771 347.269 150.932 349.095 150.832 349.211C151.982 348.897 153.149 348.647 154.33 348.459C154.578 348.968 150.448 350.459 150.336 350.02C150.46 350.517 152.817 351.892 153.213 351.545C153.858 350.933 152.358 351.233 152.891 350.586C153.263 350.124 156.438 348.483 156.611 348.043C156.331 348.201 156.102 348.425 155.947 348.694C155.792 348.962 155.717 349.264 155.731 349.569C156.205 349.649 156.689 349.673 157.169 349.638C156.773 349.222 156.215 351.58 156.363 351.511C156.164 351.341 156.003 351.137 155.89 350.908C155.777 350.68 155.714 350.433 155.706 350.181C154.999 349.892 155.359 351.568 155.26 351.499C155.188 351.28 155.027 351.095 154.813 350.983C154.598 350.871 154.345 350.84 154.106 350.898C154.689 350.135 153.387 353.209 153.387 352.158C153.387 351.568 155.396 353.88 155.346 353.833C155.619 353.456 155.808 353.031 155.904 352.585C156.974 353.358 158.087 354.076 159.24 354.735C159.861 354.908 158.794 353.383 159.154 353.429C160.791 353.299 162.406 352.988 163.965 352.504C161.733 351.742 159.005 348.043 158.583 347.882C158.248 347.801 156.983 348.055 157.169 347.257C157.355 346.46 158.546 347.535 158.856 347.257C159.166 346.98 157.455 344.518 157.814 343.79C158.372 342.635 159.352 342.311 159.985 341.236C160.828 339.803 162.911 338.705 163.035 337.11C163.147 335.85 161.088 335.827 161.187 335.469C161.572 334.082 162.527 330.684 164.065 328.881C164.647 328.188 166.632 326.374 166.619 326.362C166.136 325.981 162.341 326.293 164.337 323.484C163.705 324.363 168.864 322.721 168.603 322.86C169.31 322.479 168.504 320.26 168.864 319.901C170.625 318.156 177.111 320.687 177.842 316.03C178.004 315.001 174.965 311.407 174.903 311.476C175.933 310.471 180.732 312.632 183.373 310.02C184.031 309.373 187.317 303.952 187.305 304.114C186.985 304.907 186.569 305.663 186.064 306.368C186.064 305.293 189.921 302.323 190.417 301.075C191.137 299.295 190.268 296.972 191.261 295.296C193.257 292.037 197.734 292.661 200.214 291.205C203.401 289.321 204.319 286.582 205.299 283.115C205.906 280.965 205.299 275.487 206.539 273.765C206.365 274.112 218.965 261.191 211.09 261.607Z" stroke="white" stroke-miterlimit="10"/>
<path d="M149.865 219.863C151.688 217.552 131.077 213.414 133.657 216.916C132.417 215.24 141.879 217.483 142.338 217.714C143.876 218.534 147.621 222.672 149.865 219.863Z" stroke="white" stroke-miterlimit="10"/>
<path d="M143.293 223.017C143.578 223.514 146.244 224.173 146.517 223.595C146.79 223.017 142.945 222.393 143.293 223.017Z" stroke="white" stroke-miterlimit="10"/>
<path d="M161.337 223.156C161.957 224.162 163.817 223.561 163.929 223.156C164.214 222.44 160.704 222.162 161.337 223.156Z" stroke="white" stroke-miterlimit="10"/>
<path d="M171.369 346.888C172.213 347.315 173.961 345.166 173.192 345.027C172.423 344.888 170.563 346.483 171.369 346.888Z" stroke="white" stroke-miterlimit="10"/>
<path d="M173.427 347.039C173.985 347.316 176.292 346.334 176.019 345.813C175.511 344.739 172.907 346.75 173.427 347.039Z" stroke="white" stroke-miterlimit="10"/>
<path d="M122.656 253.067C121.95 254.141 123.351 255.193 123.636 254.719C123.921 254.245 123.363 251.992 122.656 253.067Z" stroke="white" stroke-miterlimit="10"/>
<path d="M185.668 115.998C185.817 113.409 181.563 114.669 180.931 114.842C180.298 115.015 185.469 119.165 185.668 115.998Z" stroke="white" stroke-miterlimit="10"/>
<path d="M233.338 114.229C232.83 114.518 226.567 113.605 226.53 113.709C226.691 113.316 228.799 111.063 228.527 110.97C229.903 111.456 233.859 115.836 234.045 111.779C234.194 109.41 230.474 109.41 229.928 107.445C229.767 106.902 234.764 108.948 233.76 106.058C233.202 104.417 228.291 107.214 228.489 105.457C228.415 106.07 230.188 103.308 229.878 103.62C231.441 102.013 238.559 107.549 233.958 101.99C233.772 101.771 238.088 101.84 238.299 101.019C238.51 100.199 234.008 100.314 235.025 98.708C236.265 96.7432 239.527 99.5979 237.505 95.5759C237.58 95.7146 232.309 94.0388 233.115 93.2645C233.921 92.4902 240.109 93.2645 239.874 92.3746C239.279 90.2712 236.215 92.4902 235.967 90.6872C235.831 89.7511 237.828 90.6872 238.125 90.2018C239.241 88.5607 233.289 89.8898 233.5 90.04C231.887 88.8843 240.097 81.7535 240.333 82.054C238.832 80.1817 237.456 83.3022 236.389 82.3198C235.323 81.3374 242.329 80.5169 242.515 80.4013C243.111 80.0546 238.795 79.2456 238.584 79.5114C239.341 78.3557 249.448 78.4597 249.448 75.8593C249.448 72.3921 239.861 75.7206 238.795 76.0442C237.952 76.2869 236.736 75.2699 236.153 75.4779C234.231 76.1598 232.433 79.0722 230.399 79.3496C232.421 79.0722 234.715 74.5187 231.416 73.9755C230.895 73.8946 225.315 77.7316 224.967 76.5759C224.695 75.6628 228.328 75.2352 228.241 74.4724C228.068 72.8544 216.386 75.3855 216.361 75.1428C216.187 72.9353 232.631 73.8252 234.281 71.7449C235.199 70.5892 213.372 67.307 211.4 67.7808C210.904 67.8964 207.94 68.8787 207.606 68.9365C206.923 68.858 206.235 68.8233 205.547 68.8325C201.827 69.2255 198.218 68.9943 194.51 69.6531C194.051 69.734 196.122 71.0284 196.097 71.144C196.072 71.2595 192.848 71.456 193.295 71.9992C193.195 71.8836 197.858 75.085 197.536 75.1543C194.919 75.6744 190.095 70.1038 187.491 71.9067C186.846 72.3459 189.413 73.8137 189.413 74.1488C189.413 75.4895 184.155 72.6233 184.304 72.6233C183.919 72.6233 184.068 75.5473 183.324 75.9864C185.593 74.6689 180.521 72.8082 179.728 72.7389C178.869 72.6728 178.009 72.852 177.263 73.2525C176.516 73.653 175.918 74.2559 175.548 74.981C174.37 75.3623 172.634 74.0333 171.109 74.6111C170.017 75.0272 172.076 76.7377 170.563 77.512C170.154 77.72 159.551 77.9627 160.964 80.9792C162.031 83.2906 167.76 80.8752 162.676 84.7468C161.287 85.7985 157.269 85.3709 155.52 86.4804C147.397 91.6465 163.035 88.2371 162.874 91.1033C162.874 91.4269 154.578 91.4385 154.739 92.155C154.95 93.2067 160.543 95.6222 162.031 95.7493C165.044 96.0151 167.934 93.9117 171.952 95.7493C175.474 97.3326 179.033 100.58 180.087 104.244C181.327 108.532 178.401 109.075 183.225 109.075C184.429 110.588 185.81 111.972 187.342 113.201C187.168 113.328 181.96 111.282 181.96 112.519C181.96 115.408 189.227 113.293 187.292 118.448C186.995 119.211 184.7 118.124 184.018 119.684C183.486 120.716 183.206 121.845 183.2 122.99C183.088 125.07 186.437 132.235 188.905 135.425C190.889 137.956 192.067 138.349 194.87 139.528C199.26 141.366 198.243 141.597 200.723 138.176C201.678 136.835 200.202 135.541 200.587 134.501C200.785 133.958 202.682 133.969 202.968 132.802C203.327 131.299 203.104 128.815 203.315 128.179C203.845 128.123 204.382 128.19 204.877 128.375C205.088 128.26 207.816 124.839 208.139 124.839C208.343 125.008 208.476 125.239 208.515 125.491C208.553 125.742 208.495 125.999 208.35 126.214C208.883 127.774 215.146 122.574 215.27 122.481C217.663 120.863 217.316 120.759 219.449 119.881C224.174 117.997 229.494 116.344 233.338 114.229Z" stroke="white" stroke-miterlimit="10"/>
<path d="M73.4484 96.3494C74.8126 95.656 74.8126 96.3494 75.8419 95.344C76.132 95.8316 76.5095 96.2694 76.958 96.6384C78.5826 96.6384 79.2399 93.3792 80.2568 93.1712C81.2737 92.9632 80.5668 96.0605 82.9106 93.9455C83.8035 93.1481 83.6051 92.4084 84.4732 91.5185C84.7088 91.2758 79.5127 91.4376 78.8182 91.6572C76.8464 92.3044 73.374 96.3957 73.4484 96.3494Z" stroke="white" stroke-miterlimit="10"/>
<path d="M83.8405 95.0552C81.4967 95.2286 85.0807 96.6501 85.0062 96.3034C84.045 96.3111 83.1048 96.5671 82.2904 97.0431C81.8687 97.5978 84.6342 97.3898 84.3366 97.4938C83.3198 97.5408 82.3405 97.8664 81.5215 98.4299C83.022 100.476 85.5767 98.5339 86.7672 97.8405C86.1472 98.1988 90.4132 99.1811 90.6984 98.7766C90.2892 99.3429 86.2836 99.863 86.3456 100.464C86.5688 102.406 94.3444 99.8283 95.4977 99.3083C99.3545 97.7365 100.458 99.0078 98.6725 95.8411C98.8337 96.0954 94.5056 93.3101 93.8236 93.6452C91.8146 94.616 95.0637 96.5576 94.58 97.2395C93.4267 99.0078 89.5327 95.2517 88.615 95.0321C86.2464 94.5698 85.7999 94.9165 83.8405 95.0552Z" stroke="white" stroke-miterlimit="10"/>
<path d="M110.094 110.472C112.934 112.459 116.294 105.028 114.459 104.936C114.217 105.119 114.051 105.375 113.99 105.66C113.929 105.944 113.977 106.24 114.124 106.496C114.323 106.103 111.793 105.34 111.842 105.34C111.297 104.543 115.451 103.815 112.76 102.116C110.763 100.844 110.999 103.202 111.036 103.19C111.384 103.029 105.059 102.509 107.068 104.196C107.746 104.371 108.439 104.495 109.139 104.566C111.52 106.496 104.997 105.456 105.667 105.34C103.769 105.71 109.511 110.067 110.094 110.472Z" stroke="white" stroke-miterlimit="10"/>
<path d="M70.2982 109.191C71.0956 109.995 71.8449 110.84 72.5429 111.722C74.2542 111.722 76.0524 109.41 76.8957 108.809C79.1031 107.272 82.2407 105.77 84.4729 104.048C85.3038 103.412 74.2914 100.465 72.8529 100.881C68.2396 102.233 72.2576 101.308 70.7571 103.678C70.2858 104.406 67.8056 108.22 68.1156 108.578C68.7924 108.915 69.5343 109.123 70.2982 109.191V109.191Z" stroke="white" stroke-miterlimit="10"/>
<path d="M78.7188 97.4246C79.959 97.5633 81.1991 96.4192 81.1991 95.772C81.1991 95.1248 78.0864 97.3553 78.7188 97.4246Z" stroke="white" stroke-miterlimit="10"/>
<path d="M153.189 111.722C153.369 111.722 153.547 111.688 153.713 111.623C153.879 111.557 154.029 111.461 154.154 111.34C154.279 111.219 154.376 111.076 154.441 110.919C154.505 110.762 154.535 110.595 154.528 110.427C154.826 111.375 149.233 108.648 148.724 108.486C147.484 108.093 148.265 107.03 146.244 106.602C144.867 106.313 142.759 108.22 142.821 108.232C140.961 107.619 141.742 108.359 139.634 108.359C138.084 108.359 140.701 100.442 133.967 104.233C129.899 106.544 133.272 107.7 133.458 110.15C133.458 110.555 130.42 109.306 130.544 107.469C130.656 105.805 132.888 104.314 132.888 103.262C132.888 101.32 125.559 105.573 125.199 107.122C124.715 109.156 127.865 113.224 129.155 111.629C128.82 112.034 125.72 111.248 125.807 112.011C126.253 116.183 142.387 113.583 142.734 114.426C142.52 114.296 142.337 114.127 142.196 113.928C142.055 113.729 141.96 113.505 141.916 113.27C142.139 112.577 147.596 116.426 147.633 116.738C147.006 117.07 146.474 117.537 146.083 118.101C147.124 118.91 148.278 117.281 150.014 118.957C151.973 120.852 151.936 120.459 152.407 123.337C152.507 123.938 158.335 122.181 157.281 124.689C156.227 127.197 154.677 124.042 153.908 124.273C153.139 124.504 151.142 124.573 150.076 124.874C150.156 125.517 150.376 126.138 150.721 126.7C149.071 127.451 146.393 126.781 145.128 127.856C140.477 131.566 150.088 129.312 151.415 129.705C152.742 130.098 160.778 139.251 162.862 136.639C163.383 135.969 159.327 131.878 158.571 132.016C161.646 131.184 166.16 135.923 164.548 131.126C163.829 128.988 158.348 127.336 160.753 124.666C161.746 123.51 165.888 128.283 166.582 128.26C166.582 128.26 170.65 124.285 170.65 124.308C170.65 121.649 159.414 120.216 159.774 117.639C160.457 117.348 161.194 117.18 161.944 117.142C161.449 116.669 160.814 116.344 160.121 116.206C159.935 114.623 161.919 114.704 159.067 114.704C161.138 114.704 156.202 112.612 156.016 112.542C155.433 112.369 153.189 111.722 153.189 111.722Z" stroke="white" stroke-miterlimit="10"/>
<path d="M56.6943 155.523C55.3922 156.228 58.3189 159.568 59.1002 159.071C59.3358 158.91 58.6041 154.483 56.6943 155.523Z" stroke="white" stroke-miterlimit="10"/>
<path d="M103.286 98.8588C103.77 98.281 102.232 97.0675 101.81 98.073C101.389 99.0784 102.741 99.4483 103.286 98.8588Z" stroke="white" stroke-miterlimit="10"/>
<path d="M141.184 137.31C141.681 137.229 142.66 135.438 141.395 135.507C140.13 135.576 140.428 137.414 141.184 137.31Z" stroke="white" stroke-miterlimit="10"/>
<path d="M148.203 122.03C152.035 121.371 144.483 118.794 145.723 119.788C146.554 120.423 143.59 122.816 148.203 122.03Z" stroke="white" stroke-miterlimit="10"/>
<path d="M134.983 135.725C136.112 136.442 137.786 134.512 137.65 133.934C137.513 133.356 133.657 134.835 134.983 135.725Z" stroke="white" stroke-miterlimit="10"/>
<path d="M121.528 99.0089C122.173 100.858 138.208 101.621 140.068 100.361C147.509 95.3569 124.355 97.8648 124.665 96.2352C125.022 95.8 125.439 95.4113 125.906 95.0795C126.476 94.3745 113.318 91.9013 114.323 93.3575C117.088 97.2869 119.68 93.5771 121.528 99.0089Z" stroke="white" stroke-miterlimit="10"/>
<path d="M105.394 115.074C105.766 114.623 107.564 115.999 107.639 115.005C107.639 114.3 102.294 110.752 101.823 109.619C101.56 108.091 101.439 106.544 101.463 104.996C102.095 104.465 102.033 103.841 101.252 103.32C100.718 103.147 100.142 103.122 99.5933 103.249C99.0448 103.376 98.548 103.65 98.1642 104.037C98.9013 104.522 99.561 105.102 100.124 105.759C100.124 105.424 96.614 104.245 96.2668 104.892C95.7707 105.817 97.8665 109.168 97.1969 109.515C97.0728 109.515 92.4596 104.684 92.2363 105.782C92.7264 106.171 93.1453 106.632 93.4765 107.146C93.4765 107.319 90.9218 107.215 91.0582 107.55C89.2104 102.997 87.6851 108.452 86.0109 106.984C85.8373 106.822 88.888 104.673 85.2916 104.673C83.9027 104.673 80.3311 106.533 79.8723 107.62C77.7888 112.243 82.4641 108.845 84.4235 110.255C84.5227 110.324 80.2815 111.353 80.2815 111.896C80.2815 114.323 90.3142 111.653 90.3142 113.699C90.3142 114.196 81.2736 113.699 81.6332 115.063C82.5633 118.83 94.0345 118.079 96.366 117.779C97.5845 117.498 98.8317 117.339 100.086 117.305C100.868 117.305 107.292 119.362 106.523 116.923C105.903 115.016 104.427 117.501 103.918 116.207C104.338 115.754 104.837 115.371 105.394 115.074V115.074Z" stroke="white" stroke-miterlimit="10"/>
<path d="M165.751 164.422C165.887 164.988 169.967 166.734 170.104 165.925C170.24 165.116 165.627 163.925 165.751 164.422Z" stroke="white" stroke-miterlimit="10"/>
<path d="M125.062 90.5381C123.822 89.8909 122.21 91.2546 123.524 91.7631C124.69 92.1907 126.377 91.1853 125.062 90.5381Z" stroke="white" stroke-miterlimit="10"/>
<path d="M114.162 89.6135C122.421 89.6135 112.674 85.3258 112.128 86.1464C111.582 86.9669 113.195 89.6135 114.162 89.6135Z" stroke="white" stroke-miterlimit="10"/>
<path d="M115.005 82.5059C115.079 82.5059 121.516 85.3143 121.206 84.3666C121.379 84.852 118.242 85.5223 118.403 85.7303C120.461 87.8453 123.698 89.1975 126.613 88.4579C126.811 88.4579 132.677 83.5345 132.503 84.3666C132.268 85.5223 128.175 80.5065 127.952 80.3447C127.729 80.1829 119.035 75.9298 118.192 76.5308C118.256 76.7518 118.39 76.9499 118.575 77.1002C118.761 77.2504 118.99 77.3458 119.234 77.3745C119.234 77.8252 117.101 77.4669 116.902 77.8368C117.299 78.1295 117.684 78.43 118.056 78.7382C117.634 79.501 115.179 78.3684 115.265 79.8939C115.786 80.4769 116.443 80.9397 117.188 81.2461C117.237 82.0551 112.537 81.2461 115.005 82.5059Z" stroke="white" stroke-miterlimit="10"/>
<path d="M139.435 103.376C137.662 107.282 146.591 106.381 146.591 105.526C146.591 104.22 139.944 102.267 139.435 103.376Z" stroke="white" stroke-miterlimit="10"/>
<path d="M119.854 89.9706C119.705 89.5314 114.385 90.1902 115.216 90.8258C116.617 91.9006 119.99 90.3982 119.854 89.9706Z" stroke="white" stroke-miterlimit="10"/>
<path d="M87.4867 89.8902C87.8464 89.0349 85.1677 89.1736 85.3909 89.4626C85.8746 90.1098 87.1395 90.757 87.4867 89.8902Z" stroke="white" stroke-miterlimit="10"/>
<path d="M118.304 97.7134C117.175 96.8466 113.839 98.9269 114.298 99.2852C116.121 100.73 122.433 100.88 118.304 97.7134Z" stroke="white" stroke-miterlimit="10"/>
<path d="M102.095 91.9694C102.653 91.2528 99.8379 88.9645 99.7014 90.0393C99.565 91.1141 101.5 92.7321 102.095 91.9694Z" stroke="white" stroke-miterlimit="10"/>
<path d="M108.272 93.2311C106.598 92.5723 108.979 95.5425 108.718 95.5425C107.942 94.9636 107.027 94.5673 106.052 94.3868C105.457 94.8376 106.92 96.2013 106.436 96.4209C105.68 96.7561 103.832 93.4507 102.79 93.3929C100.558 93.2773 103.584 96.3516 103.683 96.4093C105.556 97.461 107.032 96.652 108.904 97.1259C108.644 97.0565 110.975 102.662 113.17 97.7038C114.77 94.0401 110.182 93.9476 108.272 93.2311Z" stroke="white" stroke-miterlimit="10"/>
<path d="M93.3151 89.531C94.5552 89.3461 88.3546 87.9708 88.3546 90.1783C88.3298 93.9228 93.3275 89.531 93.3151 89.531Z" stroke="white" stroke-miterlimit="10"/>
<path d="M89.88 88.1675C90.4505 88.4102 94.4437 88.364 94.4437 87.6012C94.4437 84.8159 87.8214 87.9017 87.9826 88.0288C88.6052 88.1561 89.2437 88.2028 89.88 88.1675V88.1675Z" stroke="white" stroke-miterlimit="10"/>
<path d="M111.21 82.5739C111.706 81.7187 108.259 81.0368 109.114 81.788C109.598 82.2157 110.726 83.4407 111.21 82.5739Z" stroke="white" stroke-miterlimit="10"/>
<path d="M101.599 85.9497C102.728 85.603 103.434 85.9497 103.707 86.9552C103.571 87.2672 101.103 87.1748 101.227 87.3828C101.351 87.5908 114.732 92.5026 107.899 86.2271C106.992 85.4285 105.876 84.8665 104.662 84.5975C98.6227 83.9041 102.095 85.6145 101.599 85.9497Z" stroke="white" stroke-miterlimit="10"/>
<path d="M140.068 131.785C140.204 131.033 133.21 126.572 132.838 126.619C132.168 126.699 128.907 130.779 129.328 132.074C129.75 133.368 140.13 131.438 140.068 131.785Z" stroke="white" stroke-miterlimit="10"/>
<path d="M123.5 75.4101C125.98 73.7458 123.934 76.1035 123.959 76.1382C124.462 76.1586 124.961 76.2322 125.447 76.3577C122.644 79.4204 130.68 78.9235 130.643 78.3456C131.003 83.1072 140.887 76.7507 142.077 77.5366C144.359 79.0506 136.075 80.5415 136.273 80.7957C136.273 80.7957 138.94 82.8991 138.605 82.9107C137.03 83.0263 128.795 77.5713 130.184 82.4253C130.507 83.581 136.98 85.8925 136.98 86.9557C136.98 86.9557 128.82 84.6443 128.622 87.9612C128.498 90.0184 133.123 87.5914 133.173 87.7185C132.454 86.2276 133.892 92.3414 133.892 91.1857C133.892 92.5725 127.568 87.5798 127.828 90.3304C128.406 90.8258 129.028 91.2743 129.688 91.6711C129.688 92.1449 124.256 92.561 125.534 93.7629C126.997 95.1614 143.503 95.589 144.334 93.7629C145.165 91.9369 138.133 92.3992 137.823 91.9138C138.803 93.3469 144.024 89.3134 144.433 89.1285C147.062 87.7763 148.154 89.7641 149.543 85.9387C149.952 84.783 144.991 84.783 145.041 84.783C147.93 82.876 151.738 83.6272 154.367 82.4715C155.967 81.7319 165.441 77.1667 165.528 76.4964C165.615 75.8261 161.088 76.3231 160.828 76.2191C163.01 77.109 170.749 72.3127 170.873 72.3358C170.253 72.1509 161.274 69.3078 161.125 71.4575C161.482 70.9518 161.985 70.551 162.576 70.3018C160.815 70.949 151.998 70.5098 150.808 70.5676C146.765 70.764 142.858 70.0706 139.299 70.9836C138.58 71.1685 122.037 76.2306 121.727 75.6065C122.008 75.7465 122.329 75.8028 122.646 75.7677C122.963 75.7325 123.261 75.6077 123.5 75.4101V75.4101Z" stroke="white" stroke-miterlimit="10"/>
<path d="M179.628 161.419C178.135 162.283 176.959 163.548 176.255 165.048C176.081 165.395 172.993 168.284 174.246 168.977C177.086 170.526 179.702 166.666 180 170.133C179.901 168.977 184.117 170.561 184.303 170.226C184.229 170.376 183.063 167.221 183.621 167.452C184.378 167.775 178.028 163.684 178.115 164.366C178.339 163.279 178.86 162.264 179.628 161.419V161.419Z" stroke="white" stroke-miterlimit="10"/>
<path d="M1.92987 156.794C2.77316 156.436 3.17 155.997 2.77316 155.569C2.37632 155.142 1.285 157.095 1.92987 156.794Z" stroke="white" stroke-miterlimit="10"/>
<path d="M7.89489 153.581C6.91518 153.223 5.92308 154.679 5.78667 154.668C5.36502 154.598 8.83738 153.939 7.89489 153.581Z" stroke="white" stroke-miterlimit="10"/>
<path d="M24.4632 145.619C22.851 147.514 21.524 151.143 24.9592 147.93C25.4677 147.445 26.2117 143.573 24.4632 145.619Z" stroke="white" stroke-miterlimit="10"/>
<path d="M3.33152 140.928C2.67425 140.558 2.203 140.732 1.93018 141.425C2.1908 141.722 2.53674 141.944 2.92762 142.065C3.31849 142.185 3.73815 142.2 4.13761 142.107C6.51865 141.298 3.31912 140.801 3.33152 140.928Z" stroke="white" stroke-miterlimit="10"/>
<path d="M273.878 184.717C273.767 183.908 272.155 184.96 272.502 185.191C273.209 185.688 274.002 185.526 273.878 184.717Z" stroke="white" stroke-miterlimit="10"/>
<path d="M309.52 192.842C309.52 192.31 304.981 192.842 305.08 192.842C304.497 192.796 309.656 194.229 309.52 192.842Z" stroke="white" stroke-miterlimit="10"/>
<path d="M321.387 193.442C321.744 192.961 322.134 192.501 322.553 192.066C321.305 192.304 320.096 192.692 318.957 193.222C318.337 194.332 321.524 194.204 321.387 193.442Z" stroke="white" stroke-miterlimit="10"/>
<path d="M244.388 130.49C249.348 130.236 244.685 123.174 242.304 124.469C241.759 124.758 238.261 126.572 237.629 126.399C237.551 126.176 237.403 125.981 237.204 125.838C237.005 125.696 236.764 125.613 236.513 125.601C233.4 129.069 236.624 124.608 232.334 124.608C231.441 124.608 232.792 125.763 232.557 125.763C231.689 125.671 230.374 125.428 230.163 126.919C230.064 127.578 233.735 127.427 233.599 127.3C233.462 127.173 233.239 128.525 233.363 128.456C233.264 128.514 230.424 128.572 230.672 129.046C230.759 129.207 233.264 129.288 233.698 129.762C234.491 130.617 232.842 131.681 232.668 131.507C235.67 134.605 241.176 130.664 244.388 130.49Z" stroke="white" stroke-miterlimit="10"/>
<path d="M253.676 160.712C257.843 160.712 258.984 157.915 258.575 154.934C258.438 153.917 260.671 153.778 258.166 152.495C257.042 152.534 255.935 152.753 254.892 153.142C254.817 155.223 255.053 153.385 252.672 154.599C252.597 154.668 252.647 160.712 253.676 160.712Z" stroke="white" stroke-miterlimit="10"/>
<path d="M266.437 141.298C266.834 140.893 267.305 139.333 266.698 139.507C266.09 139.68 266.276 141.471 266.437 141.298Z" stroke="white" stroke-miterlimit="10"/>
<path d="M258.451 145.052C258.141 144.74 256.925 146.496 257.397 146.485C257.868 146.473 258.748 145.364 258.451 145.052Z" stroke="white" stroke-miterlimit="10"/>
<path d="M258.053 147.203C259.579 145.955 258.14 151.999 258.14 151.225C258.14 150.138 260.149 151.756 259.926 151.791C260.365 151.473 260.683 151.031 260.831 150.531C261.538 150.635 260.372 153.12 260.385 153.282C260.521 154.253 263.063 152.669 263.212 152.924C264.886 155.64 261.873 156.772 261.972 158.564C261.532 158.65 261.131 158.858 260.821 159.162C260.511 159.465 260.307 159.849 260.236 160.263C261.518 160.552 262.825 160.73 264.142 160.794C264.229 161.233 258.624 162.308 260 164.019C260 164.019 270.07 161.961 270.665 161.395C271.261 160.829 269.636 161.187 269.686 160.783C269.958 158.899 271.546 159.777 270.665 157.72C269.908 157.381 269.239 156.892 268.706 156.287C267.577 154.507 266.474 150.682 263.745 150.866C263.745 150.866 265.506 148.139 265.32 147.711C264.551 145.885 263.101 147.966 262.009 146.741C261.637 146.336 264.254 144.706 263.485 144.036C262.952 143.481 258.165 147.11 258.053 147.203Z" stroke="white" stroke-miterlimit="10"/>
<path d="M286.738 153.107C286.44 153.038 290.706 152.032 288.672 150.738C286.936 149.628 286.564 153.072 286.738 153.107Z" stroke="white" stroke-miterlimit="10"/>
<path d="M298.086 146.394C297.193 146.394 296.845 148.197 297.007 148.497C297.168 148.798 298.966 146.325 298.086 146.394Z" stroke="white" stroke-miterlimit="10"/>
<path d="M303.045 145.862C303.672 145.615 304.232 145.24 304.682 144.764C305.823 143.585 301.284 145.955 303.045 145.862Z" stroke="white" stroke-miterlimit="10"/>
<path d="M304.373 143.758C304.559 143.4 303.021 143.561 303.368 143.885C303.439 143.946 303.524 143.992 303.616 144.019C303.709 144.046 303.807 144.054 303.903 144.042C303.999 144.03 304.09 143.998 304.172 143.949C304.253 143.9 304.322 143.835 304.373 143.758V143.758Z" stroke="white" stroke-miterlimit="10"/>
<path d="M297.502 81.5353C298.829 82.5986 301.421 81.3735 303.07 82.3328C303.008 82.3328 299.759 83.4885 299.772 83.4885C300.578 85.4301 312.173 84.4362 311.392 81.4429C311.292 81.0846 303.827 80.1022 304.125 80.0098C303.9 80.2071 303.751 80.4682 303.701 80.7524C303.652 81.0367 303.705 81.3282 303.852 81.5815C303.232 82.0092 300.231 79.7093 299.561 79.7902C299.144 80.1631 298.799 80.6012 298.544 81.0846L297.304 80.2178C295.977 80.2062 297.304 81.3851 297.502 81.5353Z" stroke="white" stroke-miterlimit="10"/>
<path d="M287.779 84.4451C285.398 83.9251 289.019 87.9123 289.59 88.1781C290.694 88.7675 291.574 86.2712 292.368 85.9823C293.161 85.6933 292.033 87.346 292.802 87.2998C293.325 86.9988 293.893 86.7728 294.488 86.6295C295.17 87.6234 289.528 89.5419 290.284 89.7268C291.711 90.062 293.248 89.1952 294.724 89.5303C293.231 89.8279 291.773 90.2615 290.371 90.8247C290.235 92.1191 292.851 92.0614 293.496 92.2925C293.433 92.4459 293.329 92.5822 293.195 92.6891C293.061 92.796 292.9 92.8702 292.727 92.905C292.368 93.3558 294.699 93.5754 295.071 93.3673C295.974 92.2607 296.803 91.1027 297.552 89.9002C297.837 89.565 300.094 84.526 301.495 86.5948C301.123 86.04 302.066 90.9865 301.557 90.8941C302.152 91.0097 307.51 91.8533 307.299 89.5303C307.411 90.6861 301.756 85.6818 301.855 85.7511C300.094 84.4105 297.465 84.1909 296.212 83.902C296.944 84.0638 295.046 81.7061 294.141 81.4287C292.827 81.0242 294.439 85.7858 294.526 85.4044C295.766 80.5041 290.867 84.3527 290.904 84.3411C290.462 83.9087 289.971 83.5213 289.441 83.1854C289.857 82.962 290.304 82.791 290.768 82.6769C290.359 82.8271 281.715 83.1392 287.779 84.4451Z" stroke="white" stroke-miterlimit="10"/>
<path d="M286.341 87.3469C286.68 87.6473 287.054 87.9109 287.457 88.1328C286.936 88.1328 286.366 85.6249 285.349 85.9138C285.288 86.2254 285.357 86.5468 285.541 86.8129C285.726 87.079 286.011 87.2699 286.341 87.3469V87.3469Z" stroke="white" stroke-miterlimit="10"/>
<path d="M568.098 132.79C567.384 132.747 566.68 132.967 566.139 133.403C566.449 133.761 571 134.755 571 133.796C570.194 133.146 569.164 132.789 568.098 132.79Z" stroke="white" stroke-miterlimit="10"/>
<path d="M490.901 177.829C490.665 176.373 487.18 182.614 488.929 181.712C488.619 181.874 490.392 180.788 490.343 181.03C490.045 180.626 489.735 180.221 489.413 179.875C489.413 180.221 499.507 180.14 498.999 176.049C499.272 178.268 490.554 174.593 491.558 173.957C491.657 173.876 490.901 177.598 490.901 177.829Z" stroke="white" stroke-miterlimit="10"/>
<path d="M472.224 197.963C472.72 198.899 473.191 196.657 473.464 197.778C473.464 197.94 472.794 201.314 473.96 201.072C474.915 200.875 476.639 197.662 475.2 197.084C474.779 196.957 470.959 195.594 472.224 197.963Z" stroke="white" stroke-miterlimit="10"/>
<path d="M477.792 197.58C478.139 196.159 480.272 197.846 480.272 195.616C480.272 194.46 477.792 195.616 477.668 195.824C477.259 196.529 477.445 198.967 477.792 197.58Z" stroke="white" stroke-miterlimit="10"/>
<path d="M481.252 192.748C481.252 192.748 473.539 193.072 474.134 195.591C474.208 195.915 480.632 195.025 481.091 194.933C479.653 195.245 482.468 195.88 482.803 195.857C483.894 195.776 483.063 194.378 483.261 194.262C484.502 193.557 488.222 194.886 489.462 193.28C490.454 192.02 492.711 183.352 490.963 182.416C488.768 181.26 487.676 187.825 486.647 189.165C485.816 190.229 481.488 190.518 481.252 192.748Z" stroke="white" stroke-miterlimit="10"/>
<path d="M441.432 222.44C441.758 221.823 442.04 221.186 442.275 220.533C442.089 219.875 438.12 220.372 438.927 221.793C439.013 221.966 441.295 224.856 441.432 222.44Z" stroke="white" stroke-miterlimit="10"/>
<path d="M457.851 216.66C458.62 216.117 460.431 212.465 459.823 211.633C457.789 208.871 456.177 217.897 457.851 216.66Z" stroke="white" stroke-miterlimit="10"/>
<path d="M456.4 226.645C455.321 229.974 466.854 234.423 464.473 236.978C468.305 232.875 460.071 231.199 459.228 229.327C458.384 227.454 462.191 224.773 459.228 223.167C457.243 222.069 456.45 226.507 456.4 226.645Z" stroke="white" stroke-miterlimit="10"/>
<path d="M454.391 237.07C453.556 237.845 452.876 238.753 452.382 239.751C452.184 239.393 456.438 236.897 455.656 235.302C455.317 235.49 455.028 235.746 454.809 236.052C454.59 236.358 454.447 236.706 454.391 237.07V237.07Z" stroke="white" stroke-miterlimit="10"/>
<path d="M457.293 231.523C457.429 232.193 457.764 233.58 458.794 233.245C459.823 232.91 457.194 231.049 457.293 231.523Z" stroke="white" stroke-miterlimit="10"/>
<path d="M463.891 237.268C463.519 236.794 462.589 237.672 462.725 238.031C462.861 238.389 464.263 237.696 463.891 237.268Z" stroke="white" stroke-miterlimit="10"/>
<path d="M465.441 238.075C465.441 238.075 458.62 242.201 459.773 242.097C460.927 241.993 461.398 240.491 462.576 241.265C463.754 242.039 463.035 244.536 465.292 244.536C463.605 244.536 467.09 241.173 466.929 241.762C467.099 241.079 467.049 240.365 466.784 239.708C466.519 239.052 466.052 238.484 465.441 238.075V238.075Z" stroke="white" stroke-miterlimit="10"/>
<path d="M459.823 233.962C459.529 234.269 459.374 234.67 459.39 235.082C459.406 235.493 459.593 235.883 459.91 236.169C462.849 235.568 458.881 238.25 461.15 238.747C463.097 239.186 463.233 233.268 459.823 233.962Z" stroke="white" stroke-miterlimit="10"/>
<path d="M507.085 261.456C507.085 263.352 501.864 262.173 501.789 262.751C501.504 265.501 509.825 262.843 508.114 260.844C507.544 260.682 507.196 260.878 507.085 261.456Z" stroke="white" stroke-miterlimit="10"/>
<path d="M509.192 261.272C510.594 260.891 508.101 259.238 507.803 259.169C508.262 259.261 508.733 261.388 509.192 261.272Z" stroke="white" stroke-miterlimit="10"/>
<path d="M500.201 264.612C501.442 264.693 496.171 260.52 494.956 259.873C492.227 258.429 486.932 256.187 484.204 256.337C483.41 256.337 482.306 258.648 481.339 258.486C479.392 258.151 480.508 256.175 479.119 255.678C477.879 255.227 477.879 253.991 475.783 254.28C475.424 254.337 473.39 255.828 474.109 255.978C474.506 256.059 478.623 258.197 478.648 257.539C478.648 257.839 476.168 257.828 475.895 257.862C474.754 258.059 480.186 260.544 480.533 260.694C482.926 261.78 484.663 261.549 486.052 263.826C487.44 266.103 484.105 265.975 484.663 267.004C485.692 268.888 493.257 267.224 494.063 267.235C496.27 267.235 496.233 267.166 499.023 268.449C498.949 268.449 505.807 271.639 505.075 270.506C504.74 270.055 498.825 264.542 500.201 264.612Z" stroke="white" stroke-miterlimit="10"/>
<path d="M395.2 237.603C394.183 237.719 394.158 243.232 395.336 243.671C398.622 244.919 397.891 237.303 395.2 237.603Z" stroke="white" stroke-miterlimit="10"/>
<path d="M345.458 272.888C345.458 272.945 343.263 276.459 342.891 276.817C341.899 277.742 339.295 278.308 338.514 279.129C336.356 281.44 337.807 282.492 337.435 285.913C337.162 288.328 334.111 298.082 341.155 294.904C345.185 293.078 344.355 282.341 345.868 278.817C346.066 278.354 347.108 279.857 347.108 277.904C347.108 275.95 345.917 274.587 345.458 272.888Z" stroke="white" stroke-miterlimit="10"/>
<path d="M519.931 269.026C520.068 269.743 521.171 270.182 521.543 269.928C521.915 269.674 519.782 268.287 519.931 269.026Z" stroke="white" stroke-miterlimit="10"/>
<path d="M514.947 264.612C514.947 264.797 516.026 265.906 516.274 265.768C516.522 265.629 515.009 264.277 514.947 264.612Z" stroke="white" stroke-miterlimit="10"/>
<path d="M520.205 267.49C520.589 267.236 518.035 265.803 517.997 266.265C517.96 266.727 519.82 267.744 520.205 267.49Z" stroke="white" stroke-miterlimit="10"/>
<path d="M511.982 262.613C511.896 263.04 513.396 265.317 513.954 264.924C514.946 264.277 512.044 262.185 511.982 262.613Z" stroke="white" stroke-miterlimit="10"/>
<path d="M521.581 267.422C521.221 268.208 522.622 269.571 522.821 269.606C523.019 269.641 521.903 266.809 521.581 267.422Z" stroke="white" stroke-miterlimit="10"/>
<path d="M522.809 270.609C522.809 270.782 523.789 271.649 524.248 271.326C524.706 271.002 522.685 270.297 522.809 270.609Z" stroke="white" stroke-miterlimit="10"/>
<path d="M472.658 272.898C473.005 273.187 474.754 272.829 474.692 272.401C474.63 271.973 472.125 272.47 472.658 272.898Z" stroke="white" stroke-miterlimit="10"/>
<path d="M509.85 300.486C509.85 300.486 509.007 295.747 509.441 295.932C506.452 294.626 502.099 288.825 499.942 285.762C498.317 283.451 497.821 280.989 496.519 278.111C495.849 276.62 494.46 277.741 494.039 276.77C493.344 275.349 494.039 272.379 492.538 271.073C491.397 270.079 490.789 278.18 490.777 278.215C489.19 282.422 490.132 282.491 486.065 281.151C484.899 280.758 481.389 279.082 481.104 277.684C480.844 276.47 483.907 274.424 483.498 273.662C483.808 274.239 476.131 271.628 475.97 271.697C475.772 272.159 475.97 272.517 476.565 272.772C474.457 270.46 470.985 278.689 472.026 278.55C472.522 278.493 468.889 278.019 469.893 278.55C467.289 277.14 467.686 275.742 464.573 277.822C462.552 279.186 463.271 281.012 462.093 282.226C461.783 282.549 461.572 280.573 461.088 280.873C459.414 281.925 460.716 283.277 459.203 284.433C457.331 285.854 456.388 285.947 454.33 286.906C451.626 288.143 449.704 288.524 447.36 290.581C447.244 290.44 447.168 290.274 447.137 290.099C447.107 289.924 447.124 289.744 447.187 289.576C447.187 290.096 446.517 291.726 446.442 292.592C446.368 293.459 447.335 296.811 447.075 297.319C446.666 297.159 446.332 296.868 446.132 296.499C446.322 296.87 446.476 297.257 446.591 297.654C446.207 297.377 445.835 297.088 445.463 296.799C445.016 297.839 448.389 303.375 448.712 304.612C448.873 305.248 448.836 311.234 448.551 310.679C450.709 314.805 453.834 311.985 457.405 311.003C460.332 310.206 462.217 309.628 465.044 308.634C467.227 307.871 471.865 306.322 474.246 306.692C475.71 306.912 483.026 312.251 481.352 312.956C481.861 312.748 484.874 309.258 485.072 309.42C486.015 310.24 483.547 312.459 483.423 312.968C482.977 314.967 485.903 311.396 485.11 311.974C486.164 311.188 485.668 314.412 485.569 314.158C485.469 313.904 489.029 318.423 489.363 318.677C491.372 320.295 496.37 318.793 496.32 318.769C496.395 319.128 496.395 319.497 496.32 319.856C495.862 319.324 497.982 320.515 498.491 321.012C497.461 320.099 504.369 318.088 504.17 318.296C505.225 317.14 505.832 312.066 506.651 310.414C507.159 309.061 509.243 300.948 509.85 300.486Z" stroke="white" stroke-miterlimit="10"/>
<path d="M482.591 314.863C482.975 315.222 484.265 315.118 484.476 314.609C484.687 314.1 482.219 314.54 482.591 314.863Z" stroke="white" stroke-miterlimit="10"/>
<path d="M498.453 324.837C497.523 324.666 496.616 324.399 495.75 324.04C496.221 323.913 495.836 330.812 499.792 328.871C501.789 327.842 502.558 324.375 498.453 324.837Z" stroke="white" stroke-miterlimit="10"/>
<path d="M532.42 336.879C532.668 336.949 533.474 336.741 533.015 336.163C532.556 335.585 531.825 336.718 532.42 336.879Z" stroke="white" stroke-miterlimit="10"/>
<path d="M548.281 318.734C547.339 320.341 545.28 316.319 545.094 316.33C545.003 316.465 544.954 316.621 544.954 316.781C544.954 316.941 545.003 317.097 545.094 317.232C545.256 317.001 541.982 312.852 541.3 312.852C541.225 312.852 543.656 317.336 543.867 317.891C544.598 319.878 542.192 319.797 542.279 320.884C542.279 320.803 544.028 325.507 543.929 325.403C545.938 328.916 550.216 315.429 548.281 318.734Z" stroke="white" stroke-miterlimit="10"/>
<path d="M542.564 324.513C540.592 323.08 528.736 332.949 532.32 335.191C535.904 337.434 544.226 325.761 542.564 324.513Z" stroke="white" stroke-miterlimit="10"/>
<path d="M550.352 281.612C550.737 281.762 552.002 281.334 552.002 280.722C552.002 280.109 549.769 281.438 550.352 281.612Z" stroke="white" stroke-miterlimit="10"/>
<path d="M548.183 283.556C548.778 284.134 549.969 284.088 550.006 283.059C550.043 282.031 547.65 283.048 548.183 283.556Z" stroke="white" stroke-miterlimit="10"/>
<path d="M344.751 80.0427C344.161 80.1598 343.635 80.4666 343.263 80.9095C343.92 82.2502 349.985 79.5573 350.009 79.1759C350.109 77.3961 345.111 79.5342 344.751 80.0427Z" stroke="white" stroke-miterlimit="10"/>
<path d="M353.506 80.8058C353.506 80.043 351.026 80.8867 351.547 81.0485C352.068 81.2103 353.506 81.5685 353.506 80.8058Z" stroke="white" stroke-miterlimit="10"/>
<path d="M342.507 79.6605C343.345 79.3082 344.254 79.1269 345.173 79.1288C345.483 78.343 339.766 79.1288 339.94 79.568C340.094 79.7421 340.287 79.8838 340.504 79.9839C340.721 80.084 340.959 80.1403 341.201 80.149C341.444 80.1577 341.685 80.1187 341.91 80.0345C342.135 79.9504 342.338 79.8229 342.507 79.6605V79.6605Z" stroke="white" stroke-miterlimit="10"/>
<path d="M344.9 117.871C346.264 119.154 347.095 117.293 347.802 117.016C348.769 116.658 342.383 115.49 344.9 117.871Z" stroke="white" stroke-miterlimit="10"/>
<path d="M354.958 103.424C353.046 105.158 351.265 107.011 349.625 108.972C349.625 109.11 352.328 111.214 352.105 111.283C351.87 110.832 351.956 110.497 352.366 110.289C352.118 110.289 359.137 115.767 359.447 112.601C359.534 111.757 356.359 109.942 356.222 108.764C356.086 107.585 357.463 106.371 357.996 105.296C358.861 103.861 359.933 102.542 361.183 101.378C363.266 99.5871 378.371 93.6813 377.702 93.1497C376.089 91.8668 362.622 95.9697 360.439 97.241C359.261 98.0037 354.995 103.424 354.958 103.424Z" stroke="white" stroke-miterlimit="10"/>
<path d="M502.682 100.42C503.335 100.582 504.02 100.596 504.68 100.462C505.34 100.327 505.956 100.047 506.477 99.6458C506.799 96.352 491.211 99.6458 502.682 100.42Z" stroke="white" stroke-miterlimit="10"/>
<path d="M490.702 102.082C490.702 101.366 488.222 102.348 489.214 102.706C489.772 102.903 490.702 102.799 490.702 102.082Z" stroke="white" stroke-miterlimit="10"/>
<path d="M424.306 89.2764C425.248 89.8196 433.656 88.5137 433.941 86.965C434.227 85.4163 429.068 84.9772 429.229 86.1791C428.299 79.3603 425.521 89.9814 424.306 89.2764Z" stroke="white" stroke-miterlimit="10"/>
<path d="M417.051 82.5274C416.586 82.928 416.218 83.4166 415.972 83.9605C418.328 86.064 424.07 87.682 424.566 83.9605C424.988 80.8054 417.051 81.6722 417.051 82.5274Z" stroke="white" stroke-miterlimit="10"/>
<path d="M414.57 81.1868C416.096 81.8456 413.231 81.9149 413.058 82.0074C412.239 82.3888 416.096 82.1807 416.778 81.9149C417.46 81.6491 422.582 80.2507 421.639 79.1759C417.857 74.7379 413.839 80.8748 414.57 81.1868Z" stroke="white" stroke-miterlimit="10"/>
<path d="M444.519 101.228C443.44 103.436 446.417 101.887 446.441 101.517C446.35 101.365 446.223 101.233 446.07 101.133C445.916 101.033 445.74 100.966 445.555 100.939C445.37 100.911 445.181 100.922 445.002 100.973C444.822 101.023 444.657 101.11 444.519 101.228V101.228Z" stroke="white" stroke-miterlimit="10"/>
<path d="M354.585 79.037C355.342 79.8229 359.905 79.9038 360.104 78.517C360.166 78.0431 356.309 77.3612 356.073 77.4421C356.731 77.3497 354.994 79.4531 354.585 79.037Z" stroke="white" stroke-miterlimit="10"/>
<path d="M413.355 77.8019C413.541 77.0853 410.441 77.3973 411.247 78.0792C411.532 78.3219 413.169 78.5184 413.355 77.8019Z" stroke="white" stroke-miterlimit="10"/>
<path d="M553.316 112.414C553.527 112.565 557.656 112.299 556.838 111.397C554.903 109.236 550.761 112.31 551.071 112.461C551.815 112.426 552.559 112.414 553.316 112.414Z" stroke="white" stroke-miterlimit="10"/>
<path d="M484.7 99.1249C486.223 100.008 488.037 100.349 489.809 100.084C491.049 99.8645 494.286 98.0847 493.058 97.6802C493.641 97.8767 495.352 101.517 496.357 98.6973C497.2 96.3858 494.819 96.9174 492.636 96.2587C492.45 96.2009 488.606 96.1084 488.581 96.1084C489.164 96.0044 481.066 97.2873 484.7 99.1249Z" stroke="white" stroke-miterlimit="10"/>
<path d="M494.448 105.237C496.928 104.682 488.024 101.909 489.772 104.474C490.33 105.306 493.617 105.434 494.448 105.237Z" stroke="white" stroke-miterlimit="10"/>
<path d="M561.014 129.447L562.788 129.829C563.247 129.829 562.205 129.262 562.341 129.182C561.808 129.494 565.479 128.315 564.636 128.026C564.698 128.026 557.443 124.004 557.344 125.402C557.455 123.842 558.075 127.922 557.827 127.171C556.488 123.045 547.435 118.526 542.363 117.509C539.548 116.942 534.748 117.035 533.037 117.775C533.174 117.705 534.19 119.797 532.801 120.595C532.157 120.964 529.081 118.445 529.8 118.133C530.52 117.821 531.425 119.231 531.611 117.89C531.747 116.804 525.671 118.329 524.79 118.445C523.313 118.432 521.838 118.327 520.375 118.133C518.453 117.96 519.482 119.543 518.689 119.901C519.371 119.601 516.209 117.058 516.209 117.081C513.443 114.897 513.84 114.492 508.693 114.123C507.118 114.007 499.417 114.123 498.636 111.938C498.413 111.291 500.98 112.065 500.298 111.002C498.785 108.691 492.646 111.337 492.572 111.58C493.004 111.345 493.418 111.082 493.812 110.794C493.249 110.539 492.653 110.352 492.038 110.239C491.505 109.43 494.519 110.239 494.519 109.812C494.965 107.338 481.708 108.795 483.01 110.482C483.203 110.572 483.415 110.62 483.63 110.62C483.846 110.62 484.058 110.572 484.25 110.482C483.407 110.043 484.399 113.475 484.312 112.435C484.312 112.632 481.299 112.112 480.803 112.435C481.06 112.677 481.368 112.866 481.708 112.99C481.708 112.99 473.337 111.511 472.767 111.383C472.196 111.256 471.241 114.643 469.977 114.573C468.092 114.469 466.653 110.286 465.698 110.343C466.225 110.584 466.811 110.692 467.397 110.655C469.791 109.349 461.432 104.726 459.646 105.073C458.344 105.327 458.071 107.928 457.6 107.997C456.893 108.113 450.159 107.847 449.973 107.119C449.849 106.726 450.879 106.24 450.445 106.136C446.972 105.293 444.244 106.807 442.086 107.003C441.516 107.003 442.198 105.119 441.354 104.981C440.945 104.911 435.29 104.981 435.799 105.57C436.109 105.674 436.431 105.755 436.754 105.836C436.84 106.529 429.672 107.593 429.524 107.963C431.061 104.276 442.657 103.34 441.714 99.4448C441.429 98.2891 442.198 97.3299 439.631 96.1857C436.357 94.7526 433.889 97.0409 430.95 96.3591C431.263 95.8167 431.646 95.3121 432.091 94.8566C432.091 95.1571 427.986 94.1169 427.477 94.3134C427.825 94.1747 430.305 93.7933 429.759 92.9959C427.887 90.3377 423.559 93.724 421.996 94.7873C422.802 94.2441 418.982 98.9594 418.846 96.7404C419.159 97.0447 419.504 97.3196 419.875 97.561C420.049 97.0525 415.485 98.0002 415.25 97.9193C415.386 97.6072 415.535 97.3067 415.696 97.0063C413.969 97.1802 412.26 97.4855 410.587 97.9193C410.809 98.2469 411.154 98.4858 411.554 98.5896C411.48 98.0464 403.915 100.462 403.357 100.705C401.571 101.479 402.489 101.41 401.72 102.369C401.273 102.369 400.815 102.369 400.368 102.288C400.207 102.45 401.918 103.201 401.931 103.34C401.52 103.398 401.106 103.425 400.691 103.421C400.691 103.421 402.576 104.461 401.72 105.189C401.211 105.616 398.272 105.385 397.429 105.547C385.673 107.858 397.429 108.598 395.147 111.499C394.242 112.655 388.364 107.882 386.64 109.477C386.491 109.615 388.537 110.944 388.078 111.06C387.186 111.291 385.821 110.077 385.177 111.233C384.668 112.158 389.331 113.626 388.971 114.03C388.971 114.03 384.011 113.071 384.011 113.001C383.031 111.961 385.697 108.991 383.614 108.379C381.531 107.766 380.303 117.104 381.134 118.168C383.378 121.011 387.57 119.508 388.984 123.842C389.728 126.154 384.681 120.629 386.876 121.531C385.375 120.93 385.859 119.716 383.874 120.04C381.047 120.491 383.738 121.993 382.634 123.241C381.394 124.709 379.72 126.835 377.996 127.194C377.525 127.298 373.296 127.09 373.681 126.038C373.619 126.177 379.261 125.506 380.204 122.571C380.799 120.71 379.807 119.219 379.373 117.093C379.249 116.48 379.559 110.066 379.608 110.158C376.272 105.039 370.717 110.875 370.431 114.504C370.506 113.498 370.307 118.272 370.059 117.671C370.059 117.671 376.086 121.276 372.54 121.808C370.059 122.201 360.138 114.042 357.075 115.671C357.881 115.244 362.457 122.998 358.043 121.334C356.306 120.675 358.105 120.525 354.111 120.86C354.111 120.86 347.725 121.854 348.221 121.484C348.717 121.115 349.597 120.733 349.461 119.809C349.461 120.398 341.115 122.941 339.949 123.415C338.325 124.073 338.709 126.882 335.708 125.021C332.707 123.16 337.208 123.241 337.58 122.837C338.932 121.323 332.074 119.682 332.322 120.641C332.322 120.375 333.934 125.437 332.645 124.559C335.857 126.72 332.136 126.512 331.925 126.662C328.205 129.436 328.205 126.443 327.473 131.401C327.349 132.233 324.398 130.557 323.939 130.892C323.331 130.534 322.699 130.164 322.141 129.794C321.05 130.268 320.901 130.88 321.645 131.643C323.443 130.696 324.026 135.284 320.888 132.972C320.119 132.406 315.866 123.727 314.13 124.489C315.37 123.935 332.98 131.747 327.585 122.744C326.556 121.011 315.581 116.688 314.65 117.775C315.067 117.741 315.468 117.61 315.816 117.393C315.667 116.237 312.976 117.393 312.679 117.127C311.947 116.376 310.198 118.064 309.665 116.214C309.764 116.573 312.517 115.879 312.592 115.521C313.175 112.528 307.532 115.197 308.227 115.22C307.669 115.22 308.524 113.602 308.475 113.522C307.334 111.476 306.366 115.255 305.734 115.255C305.511 115.255 305.883 113.464 305.486 113.706C304.729 114.458 303.985 115.22 303.229 116.018C302.41 116.168 304.829 113.545 304.816 113.487C304.581 112.123 302.076 114.735 302.088 114.735C302.869 114.111 298.938 116.815 300.091 116.492C298.578 116.919 300.488 113.314 300.674 113.984C300.773 114.296 298.38 114.238 298.417 114.77C298.757 115.084 298.986 115.487 299.074 115.925C298.487 115.808 297.883 115.789 297.289 115.868C297.491 116.216 297.802 116.498 298.182 116.677C297.448 116.564 296.739 116.337 296.086 116.006C296.185 116.006 296.755 118.006 296.086 117.624C294.92 116.908 295.168 115.752 293.605 116.411C293.481 116.411 290.208 118.722 290.27 119.069C290.332 119.416 291.869 118.769 291.621 119.982C291.621 119.982 288.856 119.982 288.955 120.098C289.067 119.647 289.191 119.208 289.339 118.757C287.843 120.132 286.27 121.432 284.627 122.652C285.867 122.652 288.633 119.809 289.947 120.941C289.947 120.941 289.749 122.189 289.724 122.201C286.003 123.588 284.962 129.216 281.527 130.615C281.229 130.742 282.928 131.77 282.357 132.002C280.398 132.707 280.386 133.412 278.761 134.66C278.637 134.752 277.521 133.331 277.447 134.221C277.261 136.047 276.293 134.637 275.314 136C275.398 136.157 275.517 136.295 275.662 136.407C275.807 136.518 275.976 136.6 276.157 136.648C275.115 134.498 272.436 140.115 272.536 139.676C271.94 143.073 274.321 141.987 274.508 142.53C275.041 144.275 272.337 143.455 272.461 143.362C272.328 143.863 272.237 144.374 272.188 144.888C272.188 145.524 273.639 144.194 273.912 144.888C274.098 145.35 273.007 145.836 272.858 146.044C271.023 148.656 279.059 146.633 278.104 146.829C279.344 146.564 280.076 144.657 280.82 144.252C281.266 143.998 284.739 154.099 285.086 154.215C286.723 154.792 290.133 150.158 290.679 150.008C290.456 150.539 290.17 150.666 289.811 150.389C290.133 147.673 293.618 145.524 293.531 143.455C293.531 140.75 290.245 142.033 291.311 138.058C291.919 135.746 293.791 135.55 295.032 133.92C296.036 132.591 297.686 128.754 299.583 128.141C308.4 125.425 297.537 135.006 297.264 135.492C296.582 136.648 297.078 141.34 297.686 141.906C300.166 144.218 304.816 142.507 307.507 141.825C307.732 141.48 307.985 141.152 308.264 140.843C307.982 141.15 307.729 141.478 307.507 141.825C308.617 141.947 309.672 142.346 310.558 142.981C311.153 143.628 302.993 144.46 303.353 144.298C298.12 146.61 303.167 146.541 301.852 147.951C300.29 150.262 299.967 148.505 299.372 149.002C299.161 149.176 295.28 149.441 296.718 152.146C298.12 155.081 295.342 155.798 293.593 156.387C293.742 156.387 289.029 156.815 287.901 156.954C285.421 157.231 286.735 157.555 285.545 155.96C285.036 155.289 282.159 157.809 281.626 157.439C281.52 157.08 281.52 156.7 281.626 156.341C280.944 156.168 278.873 156.341 279.146 154.665C279.146 154.365 280.944 155.555 281.093 154.816C281.365 153.417 280.237 154.342 279.852 153.66C279.642 153.348 281.787 149.973 280.671 148.829C279.914 148.055 278.662 150.69 278.662 150.69C277.856 151.441 277.075 150.1 276.951 153.232C276.951 154.238 279.022 156.526 278.488 157.508C278.091 158.26 273.59 159.034 272.747 159.542C271.235 160.758 269.822 162.075 268.518 163.483C267.652 164.449 266.693 165.339 265.653 166.142C264.413 166.685 261.709 166.373 261.3 166.592C260.37 167.078 262.156 168.395 261.3 169.054C260.444 169.713 257.989 167.667 257.419 168.673C255.856 171.365 258.187 169.32 259.564 171.365C261.449 174.174 264.376 177.525 259.998 179.594C257.964 180.565 252.979 178.069 251.317 178.901C248.204 180.484 250.635 180.345 249.965 183.038C248.601 188.528 248.725 190.828 253.574 192.284C256.96 193.313 260.544 192.665 263.359 189.152C265.591 186.355 266.93 181.501 270.341 179.525C269.572 179.976 277.471 178.693 276.814 178.67C280.2 178.831 278.054 178.381 280.981 180.473C280.894 180.403 292.142 190.019 288.967 190.019C290.766 190.019 290.208 185.777 290.332 185.673C290.699 185.614 291.076 185.641 291.429 185.752C291.782 185.863 292.1 186.054 292.353 186.309C291.113 185.962 279.952 174.752 285.408 175.029C286.152 175.029 292.018 181.247 293.891 182.229C293.915 182.092 293.952 181.956 294.002 181.825C293.952 181.956 293.915 182.092 293.891 182.229C292.055 181.224 298.789 191.787 298.789 189.325C298.789 187.153 295.751 194.711 299.719 192.677C299.728 192.123 299.636 191.572 299.446 191.047C299.804 191.14 300.181 191.14 300.538 191.047C301.121 190.377 299.298 190.47 299.695 190.123C300.091 189.776 301.964 190.77 301.691 189.36C301.369 187.65 300.377 189.36 299.695 188.678C299.918 188.909 299.409 185.211 299.087 185.396C299.715 185.564 300.359 185.68 301.009 185.743C302.063 185.304 307.693 185.338 309.057 184.067C308.698 184.402 306.8 181.258 306.924 180.6C307.663 179.188 308.57 177.858 309.628 176.636C310.273 175.78 310.57 173.816 311.91 173.238C312.753 172.868 316.523 173.007 316.734 174.07C316.096 174.549 315.385 174.939 314.626 175.226C314.551 174.856 316.337 177.26 316.287 177.213C316.238 177.167 321.136 176.058 321.248 175.919C321.533 175.457 316.833 175.711 319.09 173.457C319.623 172.937 324.906 171.146 325.291 171.851C325.378 172.024 321.57 175.318 321.707 175.942C322.203 178.15 329.458 179.352 329.222 181.721C328.9 184.98 324.733 183.836 322.29 183.79C321.248 183.79 320.417 182.692 319.4 182.634C316.064 182.437 314.105 183.154 310.955 183.974C306.912 185.026 302.435 186.979 307.123 191.429C309.318 193.521 311.463 192.585 313.944 192.677C314.762 192.677 319.747 191.672 320.417 192.076C321.087 192.481 318.966 197.982 318.706 198.571L319.537 198.929C319.537 199.08 319.537 199.253 319.475 199.403C319.475 199.253 319.475 199.08 319.537 198.929L318.73 198.583C316.25 204.003 311.538 202.894 305.399 201.819C303.775 201.541 302.46 200.813 300.835 200.605C298.206 200.27 299.595 198.294 296.098 199.97C294.945 200.536 295.267 202.709 295.143 202.755C293.072 203.518 284.143 200.686 281.837 198.479C279.53 196.271 283.436 194.387 281.688 192.088C280.621 190.689 273.354 191.949 271.296 192.157C268.759 192.546 266.268 193.158 263.855 193.983C261.313 194.653 259.254 194.457 256.885 195.035C254.876 195.532 255.645 194.746 253.921 195.624C255.782 194.7 249.916 199.692 250.635 198.617C249.742 199.947 249.048 201.414 248.155 202.755C247.51 203.795 247.684 205.159 246.617 206.65C245.923 207.632 244.509 207.805 243.728 208.545C241.545 210.808 239.803 213.409 238.581 216.231C237.217 219.455 238.023 219.975 237.911 222.795C237.8 225.419 236.919 228.215 237.006 230.804C237.105 233.647 238.482 234.792 239.97 237.034C243.318 242.107 247.287 246.8 253.711 247.435C257.119 247.553 260.524 247.111 263.768 246.129C264.19 246.025 268.493 243.818 268.939 244.315C270.12 244.981 271.337 245.59 272.585 246.141C273.156 246.395 272.933 247.678 273.664 247.99C274.396 248.302 275.214 247.262 275.822 247.62C279.232 249.619 277.918 247.886 279.654 251.55C279.989 252.359 278.984 254.947 278.997 255.352C279.071 258.646 280.398 259.131 282.457 262.471C284.156 265.21 286.314 270.561 285.855 273.739C285.359 277.103 282.717 280.015 282.556 283.702C282.283 286.175 286.065 292 286.648 294.589C287.702 299.212 289.228 302.043 290.89 306.435C293.147 312.41 291.212 313.704 298.33 312.872C305.25 312.086 309.182 310.064 312.803 303.626C313.367 301.947 313.782 300.227 314.043 298.483C316.523 295.155 317.986 296.969 318.668 292.624C319.152 289.538 317.081 289.55 318.879 286.591C320.318 284.21 324.274 283.852 325.812 281.714C328.986 277.264 325.688 272.353 324.782 267.845C323.803 263.026 326.444 259.547 330.003 255.964C331.467 254.474 348.99 237.265 343.545 235.393C339.825 234.087 335.621 239.091 331.33 236.548" stroke="white" stroke-miterlimit="10"/>
<path d="M367.545 79.2791C368.971 77.4068 361.345 78.4354 363.056 79.8454C363.874 80.5157 366.888 80.1343 367.545 79.2791Z" stroke="white" stroke-miterlimit="10"/>
<path d="M359.546 80.1831C358.826 80.4721 358.107 80.7148 357.375 80.9459C356.421 81.9398 362.212 81.778 362.584 80.6223C362.82 79.9173 359.446 79.9982 359.546 80.1831Z" stroke="white" stroke-miterlimit="10"/>
<path d="M359.311 77.6036C360.322 77.368 361.297 77.0147 362.213 76.5519C361.605 75.7776 357.339 77.2916 357.252 77.0257C357.527 77.2598 357.854 77.4333 358.211 77.5333C358.567 77.6334 358.943 77.6574 359.311 77.6036V77.6036Z" stroke="white" stroke-miterlimit="10"/>
<path d="M492.302 161.765C493.294 164.076 490.33 170.675 491.88 172.524C490.826 171.265 494.236 172.651 494.261 172.663C494.286 172.675 492.897 168.861 493.021 168.699C494.261 166.122 495.501 167.324 495.923 166.815C496.667 165.879 492.289 155.489 492.909 155.119C491.148 156.171 491.768 160.563 492.302 161.765Z" stroke="white" stroke-miterlimit="10"/>
<path d="M379.996 105.63C380.868 105.701 381.742 105.498 382.476 105.052C383.443 103.238 377.887 105.295 379.996 105.63Z" stroke="white" stroke-miterlimit="10"/>
<path d="M394.878 105.816C394.778 105.053 393.067 106.036 393.637 106.348C394.208 106.66 394.964 106.579 394.878 105.816Z" stroke="white" stroke-miterlimit="10"/>
<path d="M370.968 79.0371L372.381 78.3437C372.84 76.8759 368.165 78.6904 368.338 78.8985C369.167 79.2418 370.102 79.2912 370.968 79.0371V79.0371Z" stroke="white" stroke-miterlimit="10"/>
<path d="M526.963 287.391C527.062 287.969 530.993 291.032 531.551 290.65C532.109 290.269 526.864 286.848 526.963 287.391Z" stroke="white" stroke-miterlimit="10"/>
<path d="M144.036 211.436C143.156 209.887 144.235 214.498 144.632 213.643C144.377 212.922 144.178 212.184 144.036 211.436V211.436Z" stroke="white" stroke-miterlimit="10"/>
<path d="M169.917 236.782C171.083 237.025 171.468 236.655 171.046 235.696C170.215 234.979 169.533 236.424 169.917 236.782Z" stroke="white" stroke-miterlimit="10"/>
<path d="M437.822 258.164C437.822 257.736 436.582 257.944 436.992 258.545C437.401 259.146 437.822 258.591 437.822 258.164Z" stroke="white" stroke-miterlimit="10"/>
<path d="M447.495 267.386C448.106 267.543 448.748 267.563 449.368 267.443C450.199 266.796 444.866 265.941 445.015 266.01C445.062 265.661 445.255 265.343 445.552 265.127C445.85 264.91 446.228 264.812 446.602 264.855C445.214 265.721 433.073 261.919 433.879 264.6C434.189 265.733 446.95 268.148 447.495 267.386Z" stroke="white" stroke-miterlimit="10"/>
<path d="M461.881 267.443C463.121 267.443 463.258 267.292 462.39 266.957C461.769 266.865 455.966 267.443 456.077 267.674C456.834 269.211 460.827 267.5 461.881 267.443Z" stroke="white" stroke-miterlimit="10"/>
<path d="M452.457 266.865C452.01 267.894 450.919 266.507 450.349 267.212C449.183 268.668 454.354 268.634 454.801 267.628C455.074 267.05 452.68 266.392 452.457 266.865Z" stroke="white" stroke-miterlimit="10"/>
<path d="M438.716 252.432C442.251 255.795 440.527 258.696 446.355 258.985C451.204 259.216 451.477 255.621 454.627 251.946C454.416 252.189 452.544 248.063 452.569 247.682C452.668 245.925 454.9 246.179 455.284 245.012C455.669 243.845 450.783 243.012 450.522 243.07C448.947 243.394 449.741 245.983 447.038 245.786C446.951 245.786 442.288 250.767 442.275 250.802C442.623 250.028 436.261 250.085 438.716 252.432Z" stroke="white" stroke-miterlimit="10"/>
<path d="M420.213 251.137C420.114 251.61 420.635 252.997 421.193 252.431C421.751 251.865 420.325 250.663 420.213 251.137Z" stroke="white" stroke-miterlimit="10"/>
<path d="M422.532 255.25C422.433 255.481 422.954 256.406 423.276 256.152C423.599 255.897 422.817 254.488 422.532 255.25Z" stroke="white" stroke-miterlimit="10"/>
<path d="M434.176 260.556C434.04 258.545 435.255 259.077 435.243 257.782C435.243 257.216 433.271 255.471 433.234 256.546C433.612 256.893 433.946 257.281 434.226 257.701C433.817 258.661 429.018 251.842 428.769 251.588C427.653 250.432 417.956 243.497 417.522 244.399C417.211 245.069 424.962 255.471 425.992 256.788C427.021 258.106 434.623 266.936 434.176 260.556Z" stroke="white" stroke-miterlimit="10"/>
<path d="M457.714 270.054C457.714 268.759 454.949 269.453 454.813 269.245C454.676 269.037 457.714 271.209 457.714 270.054Z" stroke="white" stroke-miterlimit="10"/>
<path d="M454.577 257.689C454.354 258.07 457.528 262.392 456.214 262.901C457.454 262.427 456.35 257.631 457.566 258.186C459.872 259.237 457.318 262.208 460.406 259.965C458.769 261.121 460.492 252.06 461.745 254.626C461.906 254.973 454.763 256.718 456.549 254.002C458.496 251.032 462.836 254.43 464.548 251.136C463.518 253.124 459.265 250.697 457.851 251.586C455.643 252.973 455.805 255.655 454.577 257.689Z" stroke="white" stroke-miterlimit="10"/>
<path d="M469.323 258.786C470.673 259.258 472.068 259.61 473.49 259.838C475.226 259.838 468.48 256.186 469.323 258.786Z" stroke="white" stroke-miterlimit="10"/>
<path d="M469.557 251.276C469.557 248.063 466.693 254.685 469.322 254.2C471.058 253.876 469.557 251.218 469.557 251.276Z" stroke="white" stroke-miterlimit="10"/>
<path d="M464.287 269.2C465.094 268.206 467.797 268.045 468.157 267.108C468.355 266.554 464.002 268.345 463.593 268.391C462.961 268.484 461.113 269.743 462.353 270.356C462.76 270.354 463.158 270.245 463.5 270.04C463.843 269.835 464.116 269.544 464.287 269.2Z" stroke="white" stroke-miterlimit="10"/>
<path d="M466.099 258.879C466.297 259.642 467.649 260.035 468.021 259.411C468.393 258.787 465.875 257.989 466.099 258.879Z" stroke="white" stroke-miterlimit="10"/>
<path d="M281.542 182.567C281.108 183.318 282.088 187.617 283.886 185.502C285.362 183.757 282.67 180.579 281.542 182.567Z" stroke="white" stroke-miterlimit="10"/>
<path d="M291.736 187.698C292.071 187.629 288.14 187.374 288.487 188.345C289.498 189.213 290.665 189.909 291.934 190.402C292.233 189.516 292.589 188.648 293.001 187.802C292.836 187.65 292.62 187.556 292.389 187.537C292.158 187.518 291.927 187.575 291.736 187.698V187.698Z" stroke="white" stroke-miterlimit="10"/>
<path d="M12.2109 491.998H553.081" stroke="#473C4B" stroke-linecap="round" stroke-linejoin="round"/>
<mask id="path-138-inside-1_374_1183" fill="white">
<path d="M46.7767 451.386C46.7767 451.386 13.9257 397.622 21.5029 383.95C29.0801 370.278 48.4633 394.871 48.4633 394.871C48.4633 394.871 31.61 344.748 40.8861 322.87C50.1623 300.992 66.1475 322.87 66.9288 338.368C67.7101 353.866 63.5681 380.286 63.5681 380.286C63.5681 380.286 70.302 325.609 86.2996 342.009C102.297 358.408 66.0855 413.097 66.0855 413.097C66.0855 413.097 90.5161 400.384 89.648 416.749C88.7799 433.114 60.1701 447.734 60.1701 447.734"/>
</mask>
<path d="M46.7767 451.386C46.7767 451.386 13.9257 397.622 21.5029 383.95C29.0801 370.278 48.4633 394.871 48.4633 394.871C48.4633 394.871 31.61 344.748 40.8861 322.87C50.1623 300.992 66.1475 322.87 66.9288 338.368C67.7101 353.866 63.5681 380.286 63.5681 380.286C63.5681 380.286 70.302 325.609 86.2996 342.009C102.297 358.408 66.0855 413.097 66.0855 413.097C66.0855 413.097 90.5161 400.384 89.648 416.749C88.7799 433.114 60.1701 447.734 60.1701 447.734" fill="white"/>
<path d="M48.4633 394.871L47.6779 395.49L49.4112 394.553L48.4633 394.871ZM63.5681 380.286L62.5756 380.164L64.556 380.441L63.5681 380.286ZM66.0855 413.097L65.2517 412.545L63.1169 415.769L66.5471 413.984L66.0855 413.097ZM46.7767 451.386C47.63 450.865 47.63 450.865 47.6298 450.864C47.6295 450.864 47.6292 450.863 47.6288 450.863C47.6278 450.861 47.6264 450.859 47.6245 450.856C47.6207 450.849 47.6149 450.84 47.6072 450.827C47.5917 450.802 47.5685 450.764 47.5378 450.713C47.4765 450.612 47.3854 450.461 47.2667 450.264C47.0292 449.869 46.6814 449.287 46.2411 448.541C45.3606 447.049 44.1103 444.901 42.6333 442.281C39.6785 437.039 35.8202 429.911 32.2 422.363C28.5764 414.807 25.2076 406.862 23.2159 399.977C22.2198 396.533 21.5783 393.389 21.4115 390.711C21.2435 388.014 21.5642 385.902 22.3776 384.435L20.6282 383.465C19.5473 385.415 19.2371 387.974 19.4153 390.835C19.5947 393.714 20.2766 397.013 21.2947 400.533C23.3315 407.574 26.7547 415.633 30.3967 423.227C34.0421 430.829 37.923 437.997 40.891 443.263C42.3754 445.897 43.6324 448.056 44.5188 449.558C44.962 450.309 45.3126 450.895 45.5526 451.294C45.6726 451.494 45.7651 451.647 45.8276 451.75C45.8589 451.802 45.8827 451.841 45.8987 451.867C45.9068 451.88 45.9129 451.89 45.917 451.897C45.9191 451.9 45.9206 451.903 45.9217 451.905C45.9222 451.906 45.9227 451.906 45.9229 451.907C45.9232 451.907 45.9234 451.908 46.7767 451.386ZM22.3776 384.435C23.2488 382.862 24.2474 381.913 25.2888 381.386C26.3296 380.858 27.4973 380.709 28.7804 380.88C31.3953 381.227 34.3558 382.885 37.2163 385.077C40.0499 387.249 42.6664 389.851 44.5823 391.921C45.538 392.954 46.3146 393.85 46.8513 394.486C47.1196 394.804 47.3277 395.057 47.468 395.23C47.5382 395.316 47.5914 395.382 47.6267 395.426C47.6444 395.448 47.6575 395.465 47.6661 395.475C47.6704 395.481 47.6735 395.485 47.6755 395.487C47.6765 395.489 47.6772 395.489 47.6776 395.49C47.6778 395.49 47.6779 395.49 47.678 395.49C47.678 395.49 47.6779 395.49 48.4633 394.871C49.2487 394.252 49.2485 394.252 49.2482 394.252C49.248 394.251 49.2476 394.251 49.2473 394.251C49.2465 394.25 49.2454 394.248 49.244 394.246C49.2413 394.243 49.2374 394.238 49.2323 394.232C49.2222 394.219 49.2075 394.2 49.1882 394.176C49.1497 394.128 49.0932 394.058 49.0195 393.967C48.8722 393.786 48.6565 393.524 48.38 393.196C47.8271 392.541 47.0301 391.622 46.0503 390.563C44.095 388.45 41.3921 385.758 38.4328 383.49C35.5004 381.242 32.1943 379.316 29.0438 378.897C27.4441 378.684 25.8544 378.857 24.3849 379.602C22.916 380.346 21.6512 381.619 20.6282 383.465L22.3776 384.435ZM48.4633 394.871C49.4112 394.553 49.4111 394.553 49.4111 394.552C49.4109 394.552 49.4108 394.552 49.4106 394.551C49.4101 394.55 49.4094 394.547 49.4085 394.545C49.4066 394.539 49.4036 394.53 49.3997 394.518C49.3919 394.495 49.3802 394.46 49.3646 394.413C49.3335 394.319 49.2873 394.178 49.2272 393.994C49.1071 393.625 48.9317 393.079 48.7115 392.376C48.2711 390.97 47.6515 388.935 46.9367 386.424C45.5066 381.4 43.697 374.478 42.1767 366.879C40.6557 359.275 39.429 351.016 39.156 343.314C38.8824 335.591 39.5725 328.53 41.8068 323.26L39.9655 322.479C37.5617 328.149 36.8799 335.557 37.1573 343.385C37.4354 351.234 38.6828 359.609 40.2156 367.271C41.7491 374.937 43.5731 381.913 45.0131 386.971C45.7333 389.501 46.358 391.553 46.803 392.974C47.0255 393.684 47.2031 394.237 47.3254 394.612C47.3865 394.8 47.4338 394.944 47.4659 395.041C47.4819 395.09 47.4942 395.126 47.5025 395.151C47.5067 395.164 47.5098 395.173 47.512 395.18C47.5131 395.183 47.5139 395.186 47.5145 395.187C47.5148 395.188 47.515 395.189 47.5152 395.189C47.5153 395.19 47.5154 395.19 48.4633 394.871ZM41.8068 323.26C44.0808 317.897 46.6486 315.507 49.0269 314.846C51.3754 314.192 53.9244 315.123 56.4285 317.35C58.9207 319.567 61.2085 322.941 62.9229 326.743C64.6352 330.54 65.7422 334.691 65.9301 338.418L67.9276 338.318C67.7248 334.296 66.5407 329.9 64.7461 325.92C62.9537 321.945 60.5189 318.311 57.7576 315.856C55.0082 313.411 51.7728 312.006 48.4907 312.919C45.2384 313.824 42.3295 316.904 39.9655 322.479L41.8068 323.26ZM65.9301 338.418C66.3164 346.082 65.4847 356.493 64.5474 365.03C64.0797 369.289 63.5876 373.067 63.2125 375.779C63.0249 377.135 62.8667 378.224 62.7554 378.974C62.6997 379.349 62.6558 379.639 62.6259 379.835C62.6109 379.933 62.5994 380.007 62.5917 380.057C62.5879 380.082 62.5849 380.101 62.583 380.113C62.582 380.119 62.5813 380.124 62.5808 380.127C62.5806 380.128 62.5804 380.13 62.5803 380.13C62.5802 380.131 62.5802 380.131 62.5802 380.131C62.5802 380.131 62.5801 380.131 63.5681 380.286C64.556 380.441 64.556 380.441 64.5561 380.441C64.5561 380.44 64.5562 380.44 64.5562 380.44C64.5564 380.439 64.5566 380.437 64.5568 380.436C64.5574 380.432 64.5581 380.427 64.5592 380.421C64.5612 380.408 64.5642 380.388 64.5682 380.363C64.5761 380.312 64.5878 380.236 64.6029 380.137C64.6333 379.938 64.6776 379.645 64.7337 379.267C64.8459 378.512 65.0051 377.416 65.1936 376.053C65.5707 373.327 66.0653 369.531 66.5355 365.248C67.4739 356.701 68.3225 346.153 67.9276 338.318L65.9301 338.418ZM63.5681 380.286C64.5606 380.408 64.5606 380.408 64.5606 380.408C64.5607 380.408 64.5607 380.407 64.5608 380.407C64.561 380.405 64.5613 380.403 64.5617 380.4C64.5624 380.394 64.5636 380.384 64.5652 380.371C64.5684 380.346 64.5732 380.308 64.5797 380.257C64.5927 380.156 64.6124 380.005 64.6387 379.809C64.6914 379.417 64.771 378.841 64.878 378.114C65.0921 376.66 65.4159 374.599 65.8542 372.177C66.732 367.327 68.0647 361.052 69.888 355.3C71.7278 349.495 74.0108 344.416 76.6983 341.785C78.0167 340.495 79.3379 339.885 80.6865 339.944C82.0514 340.003 83.681 340.756 85.5838 342.707L87.0155 341.31C84.9189 339.161 82.8385 338.035 80.7732 337.946C78.6914 337.855 76.8619 338.827 75.2993 340.356C72.2249 343.365 69.8248 348.88 67.9815 354.695C66.1216 360.563 64.771 366.932 63.8862 371.821C63.4433 374.268 63.116 376.351 62.8993 377.823C62.791 378.559 62.7102 379.143 62.6565 379.543C62.6296 379.743 62.6095 379.898 62.596 380.002C62.5893 380.055 62.5842 380.095 62.5808 380.122C62.5791 380.135 62.5778 380.146 62.577 380.153C62.5765 380.156 62.5762 380.159 62.576 380.161C62.5758 380.162 62.5757 380.162 62.5757 380.163C62.5756 380.164 62.5756 380.164 63.5681 380.286ZM85.5838 342.707C89.2424 346.457 90.034 352.534 88.9019 359.883C87.7767 367.186 84.7915 375.465 81.2793 383.293C77.7722 391.111 73.7643 398.426 70.6302 403.791C69.0639 406.473 67.7175 408.664 66.7633 410.183C66.2863 410.943 65.9074 411.535 65.6483 411.936C65.5187 412.137 65.4191 412.29 65.3521 412.392C65.3186 412.443 65.2933 412.482 65.2764 412.508C65.268 412.52 65.2617 412.53 65.2576 412.536C65.2555 412.539 65.254 412.542 65.253 412.543C65.2525 412.544 65.2522 412.544 65.252 412.545C65.2518 412.545 65.2517 412.545 66.0855 413.097C66.9193 413.649 66.9196 413.649 66.9199 413.648C66.9202 413.648 66.9207 413.647 66.9213 413.646C66.9226 413.644 66.9243 413.642 66.9267 413.638C66.9313 413.631 66.9381 413.621 66.947 413.607C66.9648 413.58 66.9912 413.54 67.0257 413.487C67.0948 413.382 67.1966 413.225 67.3283 413.022C67.5918 412.614 67.9753 412.014 68.4572 411.247C69.4209 409.712 70.7786 407.502 72.3571 404.8C75.5128 399.398 79.558 392.017 83.1041 384.112C86.6452 376.219 89.7133 367.75 90.8785 360.187C92.0368 352.669 91.3557 345.76 87.0155 341.31L85.5838 342.707ZM66.0855 413.097C66.5471 413.984 66.547 413.984 66.547 413.984C66.5471 413.984 66.5471 413.984 66.5474 413.984C66.5478 413.984 66.5486 413.983 66.5498 413.983C66.5522 413.982 66.556 413.98 66.5612 413.977C66.5717 413.971 66.588 413.963 66.6098 413.952C66.6535 413.93 66.7193 413.896 66.8059 413.853C66.9791 413.767 67.2351 413.641 67.5617 413.487C68.2152 413.177 69.15 412.752 70.2695 412.291C72.5167 411.367 75.4728 410.317 78.3778 409.769C81.3253 409.212 84.0169 409.213 85.8771 410.165C86.7772 410.625 87.498 411.316 87.9833 412.326C88.4758 413.353 88.7518 414.765 88.6494 416.696L90.6466 416.802C90.7612 414.642 90.4636 412.872 89.7863 411.461C89.1017 410.035 88.0563 409.033 86.7881 408.384C84.3117 407.117 81.0584 407.227 78.0068 407.804C74.9127 408.388 71.8154 409.493 69.509 410.442C68.3517 410.917 67.3846 411.357 66.7055 411.679C66.3658 411.84 66.0977 411.972 65.9135 412.063C65.8213 412.109 65.7501 412.145 65.7014 412.17C65.677 412.183 65.6582 412.192 65.6452 412.199C65.6388 412.202 65.6337 412.205 65.6302 412.207C65.6284 412.208 65.627 412.208 65.6259 412.209C65.6254 412.209 65.6249 412.21 65.6246 412.21C65.6242 412.21 65.6239 412.21 66.0855 413.097ZM88.6494 416.696C88.4472 420.509 86.621 424.3 83.8811 427.888C81.1467 431.468 77.5595 434.771 73.966 437.592C70.3769 440.41 66.8097 442.726 64.1374 444.338C62.8022 445.143 61.6928 445.772 60.9188 446.198C60.5318 446.411 60.2289 446.574 60.0237 446.682C59.9211 446.737 59.8429 446.777 59.7909 446.804C59.7649 446.818 59.7454 446.828 59.7327 446.835C59.7264 446.838 59.7217 446.84 59.7188 446.842C59.7173 446.843 59.7162 446.843 59.7156 446.843C59.7153 446.844 59.7152 446.844 59.715 446.844C59.715 446.844 59.7151 446.844 60.1701 447.734C60.6252 448.625 60.6255 448.624 60.6259 448.624C60.6262 448.624 60.6267 448.624 60.6272 448.624C60.6284 448.623 60.6299 448.622 60.6319 448.621C60.6359 448.619 60.6416 448.616 60.649 448.612C60.6638 448.605 60.6854 448.594 60.7136 448.579C60.7699 448.55 60.8525 448.506 60.9596 448.45C61.1739 448.336 61.4865 448.169 61.8835 447.95C62.6775 447.513 63.81 446.871 65.1705 446.05C67.8896 444.41 71.5292 442.048 75.201 439.165C78.8685 436.286 82.5965 432.865 85.4706 429.102C88.3392 425.345 90.4148 421.172 90.6466 416.802L88.6494 416.696Z" fill="black" mask="url(#path-138-inside-1_374_1183)"/>
<path d="M47.0616 441.366C47.0616 441.366 16.6537 414.934 31.4608 403.088C46.268 391.242 54.0684 415.801 54.0684 415.801C54.0684 415.801 37.6987 340.159 64.2126 337.42C90.7266 334.681 71.2193 403.042 71.2193 403.042C71.2193 403.042 93.8269 373.872 92.3015 397.575C90.7762 421.279 57.1935 441.366 57.1935 441.366" fill="#D9D9D9"/>
<path d="M47.0616 441.366C47.0616 441.366 16.6537 414.934 31.4608 403.088C46.2679 391.242 54.0684 415.801 54.0684 415.801C54.0684 415.801 37.6987 340.159 64.2126 337.42C90.7266 334.681 71.2193 403.042 71.2193 403.042C71.2193 403.042 93.8269 373.872 92.3015 397.575C90.7762 421.279 57.1935 441.366 57.1935 441.366" stroke="#473C4B" stroke-miterlimit="10"/>
<path d="M61.9928 436.547L41.4438 415.802" stroke="#473C4B" stroke-miterlimit="10"/>
<path d="M57.7144 438.153L63.2701 377.512" stroke="#473C4B" stroke-miterlimit="10"/>
<path d="M56.8464 433.762L75.2623 411.018" stroke="#473C4B" stroke-miterlimit="10"/>
<path d="M83.4719 429.532H26.6492L32.329 491.999H77.7921L83.4719 429.532Z" fill="#473C4B"/>
<path d="M352.602 144.634C352.602 138.338 351.271 132.104 348.686 126.288C346.101 120.472 342.312 115.187 337.535 110.735C332.759 106.284 327.088 102.753 320.847 100.344C314.606 97.9343 307.917 96.6943 301.161 96.6943H283.254C269.611 96.6943 256.527 101.745 246.88 110.735C237.233 119.726 231.813 131.919 231.813 144.634" stroke="#473C4B" stroke-width="3" stroke-linecap="round" stroke-linejoin="round"/>
<path d="M352.602 180.139V144.635" stroke="#473C4B" stroke-width="6" stroke-linecap="round" stroke-linejoin="round"/>
<path d="M231.813 144.635V180.139" stroke="#473C4B" stroke-width="6" stroke-linecap="round" stroke-linejoin="round"/>
<path d="M268.756 233.405C268.756 233.405 271.968 254.312 271.323 259.686C270.678 265.06 269.401 270.434 253.379 264.459C237.356 258.484 208.523 269.244 189.934 290.139C171.344 311.035 136.112 380.921 136.112 389.277C136.112 397.633 143.156 408.925 155.954 410.774C168.752 412.623 198.887 378.529 198.887 378.529C198.887 378.529 211.698 446.012 211.698 451.34C211.698 456.668 205.956 491.952 205.956 491.952H387.313L380.256 448.358L393.079 352.202C393.079 352.202 446.268 419.684 457.801 422.701C469.335 425.717 487.279 420.309 491.769 407.769C496.258 395.229 489.202 382.089 480.223 372.531C471.245 362.973 414.868 278.767 404.575 271.012C394.282 263.257 365.486 262.645 355.23 265.037C344.975 267.429 327.675 271.012 323.186 268.62C318.696 266.227 318.709 243.541 323.186 233.382C323.223 233.405 284.134 242.963 268.756 233.405Z" fill="#83F4BA" stroke="#473C4B" stroke-linecap="round" stroke-linejoin="round"/>
<path d="M243.706 415.247C245.773 415.99 247.88 416.635 250.018 417.177" stroke="#473C4B" stroke-linecap="round" stroke-linejoin="round"/>
<path d="M210.631 376.935C210.631 376.935 213.484 400.141 236.947 412.3" stroke="#473C4B" stroke-linecap="round" stroke-linejoin="round"/>
<path d="M283.613 308.966L296.088 325.955" stroke="#473C4B" stroke-linecap="round" stroke-linejoin="round"/>
<path d="M406.981 325.204L410.28 318.802" stroke="#473C4B" stroke-linecap="round" stroke-linejoin="round"/>
<path d="M401.636 317.011L393.079 352.249L403.596 331.804" stroke="#473C4B" stroke-linecap="round" stroke-linejoin="round"/>
<path d="M440.056 380.507C440.056 380.507 453.598 372.417 466.929 372.417" stroke="#473C4B" stroke-linecap="round" stroke-linejoin="round"/>
<path d="M412.499 404.741C421.087 400.414 429.293 395.46 437.041 389.925C448.171 381.964 462.149 378.275 476.105 379.616C488.891 380.898 495.811 395.715 496.146 410.543C496.481 425.371 487.849 434.374 472.298 436.627C456.747 438.881 438.418 435.668 427.021 433.091C420.989 431.663 414.867 430.586 408.692 429.866C408.692 429.866 393.835 408.601 412.499 404.741Z" fill="white" stroke="#473C4B" stroke-linecap="round" stroke-linejoin="round"/>
<path d="M496.146 410.543C495.812 395.715 488.892 380.898 476.106 379.616C462.15 378.275 448.172 381.964 437.042 389.925L435.306 391.161C450.187 391.635 480.273 397.298 475.56 436.026C489.053 433.01 496.469 424.284 496.146 410.543Z" fill="#D9D9D9" stroke="#473C4B" stroke-linecap="round" stroke-linejoin="round"/>
<path d="M268.756 233.405C268.756 233.405 271.968 254.312 271.323 259.687C270.84 263.72 269.996 267.777 262.853 266.991C273.072 282.558 302.748 319.102 330.44 269.302C327.216 269.487 324.612 269.302 323.223 268.586C318.746 266.193 318.746 243.506 323.223 233.348C323.223 233.405 284.134 242.963 268.756 233.405Z" fill="white" stroke="#473C4B" stroke-linecap="round" stroke-linejoin="round"/>
<path d="M268.756 233.406C268.756 233.406 269.587 238.838 270.319 244.871C277.754 248.541 285.972 250.625 294.377 250.973C303.665 251.112 312.784 248.652 320.557 243.912C320.971 240.32 321.866 236.79 323.223 233.406C323.223 233.406 284.134 242.964 268.756 233.406Z" fill="#473C4B" stroke="#473C4B" stroke-linecap="round" stroke-linejoin="round"/>
<path d="M233.536 161.128H230.002C225.66 161.128 222.14 164.408 222.14 168.455V196.493C222.14 200.54 225.66 203.82 230.002 203.82H233.536C237.879 203.82 241.399 200.54 241.399 196.493V168.455C241.399 164.408 237.879 161.128 233.536 161.128Z" fill="#473C4B" stroke="#473C4B" stroke-linecap="round" stroke-linejoin="round"/>
<path d="M233.735 161.163C233.449 161.163 233.152 161.163 232.854 161.163H230.672C230.374 161.163 230.089 161.163 229.791 161.163V203.786C230.089 203.786 230.374 203.786 230.672 203.786H232.854C233.152 203.786 233.449 203.786 233.735 203.786V161.163Z" fill="white" stroke="#473C4B" stroke-linecap="round" stroke-linejoin="round"/>
<path d="M354.721 161.128H351.187C346.845 161.128 343.324 164.408 343.324 168.455V196.493C343.324 200.54 346.845 203.82 351.187 203.82H354.721C359.064 203.82 362.584 200.54 362.584 196.493V168.455C362.584 164.408 359.064 161.128 354.721 161.128Z" fill="#473C4B" stroke="#473C4B" stroke-linecap="round" stroke-linejoin="round"/>
<path d="M354.933 161.163C354.648 161.163 354.35 161.163 354.052 161.163H351.87C351.572 161.163 351.274 161.163 350.989 161.163V203.786C351.274 203.786 351.572 203.786 351.87 203.786H354.052C354.35 203.786 354.648 203.786 354.933 203.786V161.163Z" fill="white" stroke="#473C4B" stroke-linecap="round" stroke-linejoin="round"/>
<path d="M201.492 194.839C199.991 194.966 198.548 195.441 197.294 196.22C196.04 196.999 195.014 198.058 194.311 199.3C191.434 203.762 182.344 220.265 183.299 225.177C184.254 230.089 223.988 264.876 223.988 267.107C223.988 269.337 192.402 309.487 171.332 327.332C150.262 345.176 133.52 365.239 130.643 381.304C127.766 397.368 137.824 410.74 148.365 413.421C158.906 416.103 171.815 410.301 186.647 392.896C201.479 375.491 242.18 299.664 248.406 273.856C248.406 273.856 249.832 262.299 244.09 255.561C238.348 248.823 223.988 233.256 223.988 233.256C223.988 233.256 226.865 202.479 224.471 200.248C222.078 198.018 219.684 202.929 219.684 202.929C219.684 202.929 217.465 192.609 214.414 193.106C211.078 193.661 210.111 197.567 210.111 197.567C210.111 197.567 207.717 188.587 201.492 194.839Z" fill="white" stroke="#473C4B" stroke-linecap="round" stroke-linejoin="round"/>
<path d="M219.685 202.871C219.685 202.871 212.815 228.493 213.484 232.816" stroke="#473C4B" stroke-linecap="round" stroke-linejoin="round"/>
<path d="M210.111 197.509C210.111 197.509 202.831 222.426 201.901 225.893C201.591 227.027 201.535 228.208 201.736 229.364C201.936 230.519 202.389 231.623 203.067 232.608" stroke="#473C4B" stroke-linecap="round" stroke-linejoin="round"/>
<path d="M201.492 194.839C201.492 194.839 191.211 221.559 191.211 224.379C191.211 227.199 193.542 230.655 193.542 230.655" stroke="#473C4B" stroke-linecap="round" stroke-linejoin="round"/>
<path d="M192.34 306.495C185.796 313.82 178.78 320.767 171.332 327.298C150.25 345.131 133.52 365.206 130.643 381.27C127.766 397.335 137.824 410.707 148.365 413.388C158.906 416.069 171.815 410.268 186.647 392.862C195.192 382.854 212.281 353.498 226.443 325.449C204.865 320.11 195.961 311.788 192.34 306.495Z" fill="#D9D9D9" stroke="#473C4B" stroke-linecap="round" stroke-linejoin="round"/>
<path d="M240.977 138.007C240.977 138.007 240.146 200.104 242.652 211.753C245.157 223.403 267.64 243.189 293.497 243.963C319.354 244.738 339.729 222.617 342.221 210.967C344.714 199.318 342.221 152.754 341.812 134.123C341.403 115.493 312.657 98.8044 283.526 103.069C254.396 107.334 239.316 123.248 240.977 138.007Z" fill="white" stroke="#473C4B" stroke-linecap="round" stroke-linejoin="round"/>
<path d="M304.286 164.237C304.286 164.237 305.948 175.101 307.622 177.424C309.296 179.747 312.198 182.868 306.382 185.191C300.565 187.514 295.965 184.798 295.965 182.082" stroke="#473C4B" stroke-linecap="round" stroke-linejoin="round"/>
<path d="M310.536 202.651C310.536 202.651 288.04 205.333 278.045 196.087C278.045 196.087 280.525 210.453 288.04 212.787C295.555 215.122 310.536 202.651 310.536 202.651Z" fill="white" stroke="#473C4B" stroke-linecap="round" stroke-linejoin="round"/>
<path d="M281.381 164.616L283.464 170.822" stroke="#473C4B" stroke-linecap="round" stroke-linejoin="round"/>
<path d="M272.216 170.443C272.216 170.443 278.045 173.911 288.871 170.825" stroke="#473C4B" stroke-width="2" stroke-linecap="round" stroke-linejoin="round"/>
<path d="M322.193 164.616L324.277 170.822" stroke="#473C4B" stroke-linecap="round" stroke-linejoin="round"/>
<path d="M313.029 170.443C313.029 170.443 318.858 173.911 329.696 170.825" stroke="#473C4B" stroke-width="2" stroke-linecap="round" stroke-linejoin="round"/>
<path d="M269.302 153.753C271.337 151.223 273.977 149.17 277.012 147.755C280.047 146.341 283.394 145.605 286.788 145.605" stroke="#473C4B" stroke-width="2" stroke-linecap="round" stroke-linejoin="round"/>
<path d="M309.284 144.819C309.284 144.819 321.363 141.722 329.696 150.598" stroke="#473C4B" stroke-width="2" stroke-linecap="round" stroke-linejoin="round"/>
<path d="M293.72 161.417C294.778 163.101 295.324 165.021 295.297 166.972C295.271 168.923 294.674 170.831 293.571 172.489L293.336 172.836C291.595 175.441 289.171 177.591 286.291 179.081C283.412 180.572 280.173 181.354 276.879 181.353H274.275C271.628 181.353 269.027 180.705 266.734 179.474C264.44 178.242 262.533 176.472 261.204 174.338V174.338C260.229 172.774 259.657 171.021 259.532 169.216C259.408 167.411 259.734 165.604 260.485 163.937C261.388 161.932 262.875 160.202 264.776 158.942C266.678 157.682 268.92 156.942 271.249 156.806L283.105 156.112C285.228 155.992 287.345 156.425 289.22 157.362C291.094 158.299 292.652 159.703 293.72 161.417V161.417Z" stroke="#473C4B" stroke-linecap="round" stroke-linejoin="round"/>
<path d="M307.361 161.417C306.303 163.101 305.758 165.021 305.784 166.972C305.81 168.923 306.407 170.83 307.51 172.489L307.746 172.836C309.486 175.441 311.911 177.591 314.79 179.081C317.669 180.571 320.909 181.353 324.202 181.353H326.807C329.454 181.353 332.054 180.705 334.348 179.473C336.642 178.242 338.549 176.471 339.878 174.338V174.338C340.855 172.775 341.429 171.022 341.554 169.216C341.678 167.411 341.351 165.603 340.597 163.936V163.936C339.693 161.931 338.207 160.201 336.305 158.941C334.403 157.682 332.161 156.942 329.833 156.806L317.989 156.112C315.864 155.993 313.746 156.425 311.869 157.362C309.993 158.299 308.432 159.702 307.361 161.417V161.417Z" stroke="#473C4B" stroke-linecap="round" stroke-linejoin="round"/>
<path d="M295.121 163.45C295.121 163.45 298.842 160.734 305.948 163.45" stroke="#473C4B" stroke-linecap="round" stroke-linejoin="round"/>
<path d="M290.124 157.637H310.537" stroke="#473C4B" stroke-linecap="round" stroke-linejoin="round"/>
<path d="M260.46 163.923H240.978" stroke="#473C4B" stroke-linecap="round" stroke-linejoin="round"/>
<path d="M315.534 122.699C315.534 122.699 326.323 154.99 342.705 163.335C342.346 152.263 341.924 141.861 341.775 135.123C341.353 116.493 312.62 99.8044 283.489 104.069C254.358 108.334 239.34 124.248 241.002 139.007C241.002 139.007 240.866 149.142 240.878 162.005C254.941 156.354 291.972 140.613 315.534 122.699Z" fill="#473C4B"/>
<path d="M247.541 151C247.541 151 291.353 136.885 315.035 118.964" stroke="#D9D9D9" stroke-linecap="round" stroke-linejoin="round"/>
<path d="M244 139.598C244 139.598 289.941 131.452 316.447 110" stroke="#D9D9D9" stroke-linecap="round" stroke-linejoin="round"/>
<path d="M318.207 121.402C318.207 121.402 318.913 135.25 338 148.013" stroke="#D9D9D9" stroke-linecap="round" stroke-linejoin="round"/>
<path d="M319.76 239.099C319.76 239.099 319.76 253.166 308.372 275.582C296.983 297.998 296.496 320.414 304.093 337.113C311.69 353.813 332.109 360.419 353.988 352.947C375.868 345.475 378.674 312.064 376.304 291.842C373.934 271.621 352.604 247.888 347.814 236.016C343.024 224.144 339.743 218 339.743 218C339.743 218 327.394 233.822 319.785 237.333L319.76 239.099Z" fill="#473C4B"/>
<path d="M325.819 241.314C327.923 256.855 325.816 272.663 319.71 287.155C309.519 311.086 317.329 336.682 329.222 341.996C341.115 347.31 352.654 345.326 358.428 338.01" stroke="#D9D9D9" stroke-linecap="round" stroke-linejoin="round"/>
<path d="M330.236 236C330.236 236 341.784 262.588 337.033 282.533C332.281 302.478 334.318 327.784 348.581 332.724C362.845 337.664 371 327.784 371 327.784" stroke="#D9D9D9" stroke-linecap="round" stroke-linejoin="round"/>
<path d="M344.165 253.28C344.165 253.28 354.012 289.841 354.012 308.785C354.012 327.729 365.904 324.745 368.964 315.437" stroke="#D9D9D9" stroke-linecap="round" stroke-linejoin="round"/>
<path d="M319.998 239.069C319.998 239.069 319.998 253.146 308.676 275.578C297.354 298.011 296.87 320.444 304.422 337.155C311.975 353.867 332.276 360.478 354.027 353C375.779 345.523 378.57 312.088 376.213 291.851C373.857 271.614 352.651 247.864 347.889 235.983C343.127 224.103 339.865 217.954 339.865 217.954C339.865 217.954 327.588 233.788 320.023 237.301L319.998 239.069Z" stroke="#473C4B" stroke-linecap="round" stroke-linejoin="round"/>
<path d="M378.248 363.583L297.73 360.556C294.178 360.423 291.183 362.998 291.039 366.308L286.555 469.915C286.411 473.225 289.175 476.017 292.726 476.15L373.244 479.177C376.796 479.311 379.792 476.736 379.935 473.425L384.42 369.818C384.563 366.508 381.8 363.717 378.248 363.583Z" fill="#473C4B" stroke="#473C4B" stroke-linecap="round" stroke-linejoin="round"/>
<path d="M419.271 405.492C419.271 405.492 378.049 393.542 371.017 391.531C363.986 389.52 323.483 417.708 321.871 421.73C320.259 425.752 326.187 425.764 326.187 425.764C326.187 425.764 323.706 429.786 327.427 431.797C328.6 432.533 329.846 433.164 331.147 433.68C331.147 433.68 328.989 438.211 333.305 439.725C337.621 441.239 343.573 437.205 343.573 437.205L353.296 430.664C353.296 430.664 341.614 443.99 344.106 446.775C347.542 450.589 349.737 446.497 349.737 446.497L363.167 431.67L376.66 425.625C376.66 425.625 387.461 431.67 404.749 432.166C422.036 432.663 425.831 425.625 425.831 425.625" fill="white"/>
<path d="M419.271 405.492C419.271 405.492 378.049 393.542 371.017 391.531C363.986 389.52 323.483 417.708 321.871 421.73C320.259 425.752 326.187 425.764 326.187 425.764C326.187 425.764 323.706 429.786 327.427 431.797C328.6 432.533 329.846 433.164 331.147 433.68C331.147 433.68 328.989 438.211 333.305 439.725C337.621 441.239 343.573 437.205 343.573 437.205L353.296 430.664C353.296 430.664 341.614 443.99 344.106 446.775C347.542 450.589 349.737 446.497 349.737 446.497L363.167 431.67L376.66 425.625C376.66 425.625 387.461 431.67 404.749 432.166C422.036 432.663 425.831 425.625 425.831 425.625" stroke="#473C4B" stroke-linecap="round" stroke-linejoin="round"/>
<path d="M331.234 433.682C331.234 433.682 346.376 423.997 350.146 420.495C353.916 416.993 366.131 409.678 369.901 409.678" stroke="#473C4B" stroke-linecap="round" stroke-linejoin="round"/>
<path d="M353.383 430.699C353.383 430.699 360.823 422.863 363.626 421.695C366.429 420.528 370.521 418.771 370.521 418.771" stroke="#473C4B" stroke-linecap="round" stroke-linejoin="round"/>
<path d="M326.186 425.764C326.186 425.764 347.268 411.895 354.486 407.815C358.802 405.361 363.308 403.209 367.966 401.378" stroke="#473C4B" stroke-linecap="round" stroke-linejoin="round"/>
</svg>
