<svg width="420" height="74" viewBox="0 0 420 74" fill="none" xmlns="http://www.w3.org/2000/svg">
<path d="M393.568 1.06938H360.494C353.807 1.06938 347.395 3.54482 342.666 7.95115C337.938 12.3575 335.282 18.3337 335.282 24.5652V33.2447L318.801 32.6553L335.332 42.7101V49.2168C335.332 55.4494 337.988 61.4268 342.715 65.835C347.443 70.2431 353.856 72.7212 360.544 72.7242H393.618C400.305 72.7212 406.718 70.2431 411.446 65.835C416.174 61.4268 418.83 55.4494 418.83 49.2168V24.5652C418.83 21.4758 418.176 18.4167 416.906 15.5631C415.636 12.7094 413.774 10.1172 411.428 7.93479C409.081 5.75239 406.296 4.02268 403.232 2.84462C400.167 1.66656 396.883 1.0633 393.568 1.06938Z" fill="white" stroke="#83F4BA" stroke-width="2" stroke-miterlimit="10"/>
<path d="M364.003 44.9072H365.107C365.148 44.9056 365.189 44.912 365.228 44.9259C365.266 44.9398 365.301 44.9611 365.33 44.9882C365.359 45.0154 365.382 45.0479 365.397 45.0837C365.412 45.1195 365.419 45.1578 365.417 45.1962V60.5904C365.421 60.6297 365.415 60.6693 365.401 60.7065C365.387 60.7437 365.364 60.7776 365.335 60.8061C365.306 60.8345 365.27 60.8568 365.231 60.8714C365.192 60.886 365.149 60.8927 365.107 60.8909H364.003C363.96 60.8944 363.916 60.8891 363.876 60.8752C363.835 60.8614 363.798 60.8393 363.767 60.8107C363.736 60.7821 363.713 60.7475 363.698 60.7094C363.683 60.6714 363.677 60.6308 363.681 60.5904V53.6561C363.683 53.6404 363.681 53.6246 363.675 53.6097C363.67 53.5949 363.661 53.5814 363.649 53.5702C363.637 53.5591 363.623 53.5506 363.607 53.5455C363.591 53.5403 363.574 53.5386 363.557 53.5405H355.794C355.777 53.5386 355.76 53.5403 355.744 53.5455C355.728 53.5506 355.713 53.5591 355.702 53.5702C355.69 53.5814 355.681 53.5949 355.675 53.6097C355.669 53.6246 355.668 53.6404 355.67 53.6561V60.5904C355.673 60.6308 355.668 60.6714 355.653 60.7094C355.638 60.7475 355.614 60.7821 355.584 60.8107C355.553 60.8393 355.516 60.8614 355.475 60.8752C355.434 60.8891 355.39 60.8944 355.347 60.8909H354.243C354.2 60.8944 354.157 60.8891 354.116 60.8752C354.075 60.8614 354.038 60.8393 354.007 60.8107C353.976 60.7821 353.953 60.7475 353.938 60.7094C353.923 60.6714 353.917 60.6308 353.921 60.5904V45.1962C353.919 45.1568 353.926 45.1174 353.942 45.0808C353.958 45.0441 353.982 45.011 354.012 44.9837C354.043 44.9563 354.079 44.9354 354.119 44.9222C354.159 44.909 354.201 44.9039 354.243 44.9072H355.347C355.389 44.9039 355.432 44.909 355.472 44.9222C355.512 44.9354 355.548 44.9563 355.579 44.9837C355.609 45.011 355.633 45.0441 355.649 45.0808C355.664 45.1174 355.672 45.1568 355.67 45.1962V52.0265C355.668 52.0421 355.669 52.058 355.675 52.0728C355.681 52.0877 355.69 52.1012 355.702 52.1123C355.713 52.1235 355.728 52.1319 355.744 52.1371C355.76 52.1422 355.777 52.1439 355.794 52.1421H363.557C363.574 52.1439 363.591 52.1422 363.607 52.1371C363.623 52.1319 363.637 52.1235 363.649 52.1123C363.661 52.1012 363.67 52.0877 363.675 52.0728C363.681 52.058 363.683 52.0421 363.681 52.0265V45.1962C363.679 45.1568 363.686 45.1174 363.702 45.0808C363.717 45.0441 363.741 45.011 363.772 44.9837C363.802 44.9563 363.839 44.9354 363.879 44.9222C363.919 44.909 363.961 44.9039 364.003 44.9072Z" fill="#473C4B"/>
<path d="M377.571 57.9654C377.585 57.9275 377.608 57.893 377.638 57.8646C377.668 57.8361 377.705 57.8144 377.746 57.8011C377.786 57.7877 377.829 57.7831 377.872 57.7875C377.915 57.792 377.956 57.8054 377.992 57.8267L378.699 58.1966C378.873 58.289 378.947 58.4277 378.848 58.5779C378.436 59.3642 377.785 60.0201 376.975 60.4639C376.166 60.9078 375.235 61.1201 374.297 61.0743C373.301 61.1363 372.312 60.89 371.482 60.3737C370.652 59.8575 370.029 59.1002 369.708 58.2197C369.348 57.203 369.189 56.1341 369.237 55.0645C369.191 54.1771 369.266 53.2878 369.46 52.4179C369.721 51.4455 370.335 50.5875 371.2 49.9908C372.064 49.3942 373.124 49.096 374.198 49.1472C375.406 49.0644 376.6 49.4316 377.519 50.1682C378.437 50.9048 379.004 51.9508 379.096 53.0767C379.226 53.8409 379.275 54.615 379.245 55.3881C379.249 55.428 379.243 55.4683 379.229 55.5059C379.214 55.5435 379.19 55.5775 379.159 55.6053C379.128 55.6331 379.09 55.654 379.049 55.6664C379.009 55.6788 378.965 55.6825 378.923 55.6771H371.085C371.068 55.6752 371.051 55.6769 371.035 55.6821C371.019 55.6872 371.005 55.6957 370.993 55.7068C370.981 55.7179 370.972 55.7314 370.966 55.7463C370.961 55.7612 370.959 55.777 370.961 55.7926C370.941 56.3547 370.991 56.917 371.11 57.4684C371.29 58.1472 371.723 58.7443 372.332 59.1529C372.94 59.5615 373.685 59.755 374.433 59.699C375.08 59.7221 375.72 59.5709 376.276 59.2634C376.833 58.9559 377.282 58.5052 377.571 57.9654ZM371.159 52.7069C371.025 53.2175 370.959 53.7414 370.961 54.2671C370.959 54.2827 370.961 54.2986 370.966 54.3134C370.972 54.3283 370.981 54.3418 370.993 54.3529C371.005 54.3641 371.019 54.3725 371.035 54.3777C371.051 54.3828 371.068 54.3845 371.085 54.3827H377.385C377.4 54.3828 377.416 54.3797 377.431 54.3738C377.445 54.3679 377.458 54.3591 377.468 54.3482C377.479 54.3373 377.487 54.3244 377.492 54.3104C377.497 54.2965 377.498 54.2817 377.496 54.2671C377.483 53.7757 377.438 53.2855 377.36 52.7993C377.202 52.1384 376.798 51.5513 376.218 51.1427C375.639 50.7341 374.923 50.5307 374.198 50.5688C373.5 50.524 372.808 50.7157 372.25 51.1086C371.691 51.5014 371.304 52.069 371.159 52.7069Z" fill="#473C4B"/>
<path d="M382.692 60.5896V45.1953C382.69 45.1559 382.697 45.1165 382.713 45.0799C382.729 45.0433 382.753 45.0102 382.783 44.9828C382.814 44.9555 382.85 44.9345 382.89 44.9213C382.93 44.9081 382.972 44.9031 383.014 44.9064H384.118C384.16 44.9028 384.202 44.9079 384.241 44.9211C384.281 44.9344 384.316 44.9556 384.346 44.9831C384.375 45.0107 384.398 45.044 384.412 45.0807C384.427 45.1173 384.432 45.1565 384.428 45.1953V60.5896C384.434 60.6293 384.43 60.6697 384.417 60.7078C384.403 60.746 384.381 60.7808 384.351 60.8097C384.321 60.8386 384.285 60.8608 384.245 60.8747C384.204 60.8887 384.161 60.8939 384.118 60.89H383.014C382.971 60.8935 382.928 60.8882 382.887 60.8744C382.846 60.8605 382.809 60.8385 382.778 60.8098C382.747 60.7812 382.724 60.7466 382.709 60.7086C382.694 60.6705 382.688 60.6299 382.692 60.5896Z" fill="#473C4B"/>
<path d="M388.385 60.5904V45.1962C388.383 45.1578 388.39 45.1195 388.405 45.0837C388.42 45.0479 388.443 45.0154 388.472 44.9882C388.501 44.9611 388.536 44.9398 388.574 44.9259C388.613 44.912 388.654 44.9056 388.695 44.9072H389.799C389.841 44.9039 389.883 44.909 389.923 44.9222C389.963 44.9354 389.999 44.9563 390.03 44.9837C390.061 45.011 390.084 45.0441 390.1 45.0808C390.116 45.1174 390.123 45.1568 390.121 45.1962V60.5904C390.125 60.6308 390.119 60.6714 390.104 60.7094C390.089 60.7475 390.066 60.7821 390.035 60.8107C390.004 60.8393 389.967 60.8614 389.926 60.8752C389.886 60.8891 389.842 60.8944 389.799 60.8909H388.695C388.653 60.8927 388.61 60.886 388.571 60.8714C388.532 60.8568 388.496 60.8345 388.467 60.8061C388.438 60.7776 388.415 60.7437 388.401 60.7065C388.387 60.6693 388.381 60.6297 388.385 60.5904Z" fill="#473C4B"/>
<path d="M394.015 57.8962C393.755 56.9804 393.638 56.0346 393.668 55.0878C393.64 54.1501 393.748 53.2131 393.99 52.3025C394.346 51.3843 394.998 50.5907 395.855 50.0298C396.713 49.4689 397.735 49.168 398.783 49.168C399.831 49.168 400.853 49.4689 401.711 50.0298C402.568 50.5907 403.22 51.3843 403.576 52.3025C403.828 53.2195 403.941 54.1648 403.911 55.1109C403.944 56.0571 403.831 57.0029 403.576 57.9193C403.232 58.8454 402.586 59.6484 401.729 60.2167C400.873 60.785 399.847 61.0904 398.795 61.0904C397.744 61.0904 396.718 60.785 395.861 60.2167C395.005 59.6484 394.359 58.8454 394.015 57.9193V57.8962ZM401.952 57.4224C402.108 56.6609 402.174 55.8858 402.15 55.1109C402.182 54.3358 402.115 53.56 401.952 52.7995C401.761 52.1556 401.349 51.5879 400.779 51.1832C400.209 50.7786 399.512 50.5595 398.795 50.5595C398.079 50.5595 397.382 50.7786 396.812 51.1832C396.242 51.5879 395.83 52.1556 395.639 52.7995C395.478 53.5603 395.412 54.3359 395.441 55.1109C395.411 55.886 395.477 56.6617 395.639 57.4224C395.83 58.0662 396.242 58.634 396.812 59.0386C397.382 59.4432 398.079 59.6623 398.795 59.6623C399.512 59.6623 400.209 59.4432 400.779 59.0386C401.349 58.634 401.761 58.0662 401.952 57.4224Z" fill="#473C4B"/>
<path d="M398.281 11.3203H356.178V36.0297H398.281V11.3203Z" fill="white" stroke="#473C4B" stroke-linecap="round" stroke-linejoin="round"/>
<path d="M398.504 11.3203H356.401V13.7127H398.504V11.3203Z" fill="#473C4B"/>
<path d="M398.504 15.0654H356.401V17.4578H398.504V15.0654Z" fill="#473C4B"/>
<path d="M398.504 18.7969H356.401V21.1892H398.504V18.7969Z" fill="#473C4B"/>
<path d="M398.504 22.542H356.401V24.9343H398.504V22.542Z" fill="#473C4B"/>
<path d="M398.504 26.2881H356.401V28.6804H398.504V26.2881Z" fill="#473C4B"/>
<path d="M398.504 30.0312H356.401V32.4236H398.504V30.0312Z" fill="#473C4B"/>
<path d="M398.504 33.7764H356.401V36.1687H398.504V33.7764Z" fill="#473C4B"/>
<path d="M376.591 11.3203H356.178V24.484H376.591V11.3203Z" fill="#473C4B"/>
<path d="M356.972 12.4297L357.158 12.7995L357.555 12.8573L357.269 13.1462L357.331 13.5507L356.972 13.3658L356.625 13.5507L356.687 13.1462L356.401 12.8573L356.798 12.7995L356.972 12.4297Z" fill="white"/>
<path d="M356.972 14.8701L357.158 15.2399L357.555 15.2977L357.269 15.5867L357.331 15.9912L356.972 15.7947L356.625 15.9912L356.687 15.5867L356.401 15.2977L356.798 15.2399L356.972 14.8701Z" fill="white"/>
<path d="M356.972 17.2949L357.158 17.6647L357.555 17.7225L357.269 18.0115L357.331 18.416L356.972 18.2195L356.625 18.416L356.687 18.0115L356.401 17.7225L356.798 17.6647L356.972 17.2949Z" fill="white"/>
<path d="M356.972 19.7227L357.158 20.0925L357.555 20.1618L357.269 20.4392L357.331 20.8437L356.972 20.6588L356.625 20.8437L356.687 20.4392L356.401 20.1618L356.798 20.0925L356.972 19.7227Z" fill="white"/>
<path d="M356.972 22.1602L357.158 22.53L357.555 22.5878L357.269 22.8767L357.331 23.2812L356.972 23.0847L356.625 23.2812L356.687 22.8767L356.401 22.5878L356.798 22.53L356.972 22.1602Z" fill="white"/>
<path d="M358.844 13.8516L359.018 14.2214L359.415 14.2792L359.129 14.5681L359.191 14.9726L358.844 14.7877L358.484 14.9726L358.546 14.5681L358.261 14.2792L358.658 14.2214L358.844 13.8516Z" fill="white"/>
<path d="M358.844 16.29L359.018 16.6599L359.415 16.7177L359.129 17.0066L359.191 17.4111L358.844 17.2146L358.484 17.4111L358.546 17.0066L358.261 16.7177L358.658 16.6599L358.844 16.29Z" fill="white"/>
<path d="M358.844 18.7178L359.018 19.0876L359.415 19.1454L359.129 19.4343L359.191 19.8388L358.844 19.6539L358.484 19.8388L358.546 19.4343L358.261 19.1454L358.658 19.0876L358.844 18.7178Z" fill="white"/>
<path d="M358.844 21.1445L359.018 21.5144L359.415 21.5722L359.129 21.8611L359.191 22.2656L358.844 22.0807L358.484 22.2656L358.546 21.8611L358.261 21.5722L358.658 21.5144L358.844 21.1445Z" fill="white"/>
<path d="M360.705 12.4297L360.891 12.7995L361.288 12.8573L360.99 13.1462L361.065 13.5507L360.705 13.3658L360.345 13.5507L360.42 13.1462L360.122 12.8573L360.531 12.7995L360.705 12.4297Z" fill="white"/>
<path d="M360.705 14.8701L360.891 15.2399L361.288 15.2977L360.99 15.5867L361.065 15.9912L360.705 15.7947L360.345 15.9912L360.42 15.5867L360.122 15.2977L360.531 15.2399L360.705 14.8701Z" fill="white"/>
<path d="M360.705 17.2949L360.891 17.6647L361.288 17.7225L360.99 18.0115L361.065 18.416L360.705 18.2195L360.345 18.416L360.42 18.0115L360.122 17.7225L360.531 17.6647L360.705 17.2949Z" fill="white"/>
<path d="M360.705 19.7227L360.891 20.0925L361.288 20.1618L360.99 20.4392L361.065 20.8437L360.705 20.6588L360.345 20.8437L360.42 20.4392L360.122 20.1618L360.531 20.0925L360.705 19.7227Z" fill="white"/>
<path d="M360.705 22.1602L360.891 22.53L361.288 22.5878L360.99 22.8767L361.065 23.2812L360.705 23.0847L360.345 23.2812L360.42 22.8767L360.122 22.5878L360.531 22.53L360.705 22.1602Z" fill="white"/>
<path d="M362.577 13.8516L362.75 14.2214L363.147 14.2792L362.862 14.5681L362.924 14.9726L362.577 14.7877L362.217 14.9726L362.279 14.5681L361.994 14.2792L362.391 14.2214L362.577 13.8516Z" fill="white"/>
<path d="M362.577 16.29L362.75 16.6599L363.147 16.7177L362.862 17.0066L362.924 17.4111L362.577 17.2146L362.217 17.4111L362.279 17.0066L361.994 16.7177L362.391 16.6599L362.577 16.29Z" fill="white"/>
<path d="M362.577 18.7178L362.75 19.0876L363.147 19.1454L362.862 19.4343L362.924 19.8388L362.577 19.6539L362.217 19.8388L362.279 19.4343L361.994 19.1454L362.391 19.0876L362.577 18.7178Z" fill="white"/>
<path d="M362.577 21.1445L362.75 21.5144L363.147 21.5722L362.862 21.8611L362.924 22.2656L362.577 22.0807L362.217 22.2656L362.279 21.8611L361.994 21.5722L362.391 21.5144L362.577 21.1445Z" fill="white"/>
<path d="M364.438 12.4297L364.611 12.7995L365.008 12.8573L364.723 13.1462L364.797 13.5507L364.438 13.3658L364.078 13.5507L364.14 13.1462L363.855 12.8573L364.252 12.7995L364.438 12.4297Z" fill="white"/>
<path d="M364.438 14.8701L364.611 15.2399L365.008 15.2977L364.723 15.5867L364.797 15.9912L364.438 15.7947L364.078 15.9912L364.14 15.5867L363.855 15.2977L364.252 15.2399L364.438 14.8701Z" fill="white"/>
<path d="M364.438 17.2949L364.611 17.6647L365.008 17.7225L364.723 18.0115L364.797 18.416L364.438 18.2195L364.078 18.416L364.14 18.0115L363.855 17.7225L364.252 17.6647L364.438 17.2949Z" fill="white"/>
<path d="M364.438 19.7227L364.611 20.0925L365.008 20.1618L364.723 20.4392L364.797 20.8437L364.438 20.6588L364.078 20.8437L364.14 20.4392L363.855 20.1618L364.252 20.0925L364.438 19.7227Z" fill="white"/>
<path d="M364.438 22.1602L364.611 22.53L365.008 22.5878L364.723 22.8767L364.797 23.2812L364.438 23.0847L364.078 23.2812L364.14 22.8767L363.855 22.5878L364.252 22.53L364.438 22.1602Z" fill="white"/>
<path d="M366.298 13.8516L366.484 14.2214L366.881 14.2792L366.596 14.5681L366.658 14.9726L366.298 14.7877L365.938 14.9726L366.013 14.5681L365.728 14.2792L366.124 14.2214L366.298 13.8516Z" fill="white"/>
<path d="M366.298 16.29L366.484 16.6599L366.881 16.7177L366.596 17.0066L366.658 17.4111L366.298 17.2146L365.938 17.4111L366.013 17.0066L365.728 16.7177L366.124 16.6599L366.298 16.29Z" fill="white"/>
<path d="M366.298 18.7178L366.484 19.0876L366.881 19.1454L366.596 19.4343L366.658 19.8388L366.298 19.6539L365.938 19.8388L366.013 19.4343L365.728 19.1454L366.124 19.0876L366.298 18.7178Z" fill="white"/>
<path d="M366.298 21.1445L366.484 21.5144L366.881 21.5722L366.596 21.8611L366.658 22.2656L366.298 22.0807L365.938 22.2656L366.013 21.8611L365.728 21.5722L366.124 21.5144L366.298 21.1445Z" fill="white"/>
<path d="M368.17 12.4297L368.344 12.7995L368.741 12.8573L368.456 13.1462L368.517 13.5507L368.17 13.3658L367.811 13.5507L367.873 13.1462L367.587 12.8573L367.984 12.7995L368.17 12.4297Z" fill="white"/>
<path d="M368.17 14.8701L368.344 15.2399L368.741 15.2977L368.456 15.5867L368.517 15.9912L368.17 15.7947L367.811 15.9912L367.873 15.5867L367.587 15.2977L367.984 15.2399L368.17 14.8701Z" fill="white"/>
<path d="M368.17 17.2949L368.344 17.6647L368.741 17.7225L368.456 18.0115L368.517 18.416L368.17 18.2195L367.811 18.416L367.873 18.0115L367.587 17.7225L367.984 17.6647L368.17 17.2949Z" fill="white"/>
<path d="M368.17 19.7227L368.344 20.0925L368.741 20.1618L368.456 20.4392L368.517 20.8437L368.17 20.6588L367.811 20.8437L367.873 20.4392L367.587 20.1618L367.984 20.0925L368.17 19.7227Z" fill="white"/>
<path d="M368.17 22.1602L368.344 22.53L368.741 22.5878L368.456 22.8767L368.517 23.2812L368.17 23.0847L367.811 23.2812L367.873 22.8767L367.587 22.5878L367.984 22.53L368.17 22.1602Z" fill="white"/>
<path d="M370.03 13.8516L370.204 14.2214L370.613 14.2792L370.315 14.5681L370.39 14.9726L370.03 14.7877L369.67 14.9726L369.745 14.5681L369.447 14.2792L369.857 14.2214L370.03 13.8516Z" fill="white"/>
<path d="M370.03 16.29L370.204 16.6599L370.613 16.7177L370.315 17.0066L370.39 17.4111L370.03 17.2146L369.67 17.4111L369.745 17.0066L369.447 16.7177L369.857 16.6599L370.03 16.29Z" fill="white"/>
<path d="M370.03 18.7178L370.204 19.0876L370.613 19.1454L370.315 19.4343L370.39 19.8388L370.03 19.6539L369.67 19.8388L369.745 19.4343L369.447 19.1454L369.857 19.0876L370.03 18.7178Z" fill="white"/>
<path d="M370.03 21.1445L370.204 21.5144L370.613 21.5722L370.315 21.8611L370.39 22.2656L370.03 22.0807L369.67 22.2656L369.745 21.8611L369.447 21.5722L369.857 21.5144L370.03 21.1445Z" fill="white"/>
<path d="M371.89 12.4297L372.076 12.7995L372.473 12.8573L372.188 13.1462L372.25 13.5507L371.89 13.3658L371.543 13.5507L371.605 13.1462L371.32 12.8573L371.717 12.7995L371.89 12.4297Z" fill="white"/>
<path d="M371.89 14.8701L372.076 15.2399L372.473 15.2977L372.188 15.5867L372.25 15.9912L371.89 15.7947L371.543 15.9912L371.605 15.5867L371.32 15.2977L371.717 15.2399L371.89 14.8701Z" fill="white"/>
<path d="M371.89 17.2949L372.076 17.6647L372.473 17.7225L372.188 18.0115L372.25 18.416L371.89 18.2195L371.543 18.416L371.605 18.0115L371.32 17.7225L371.717 17.6647L371.89 17.2949Z" fill="white"/>
<path d="M371.89 19.7227L372.076 20.0925L372.473 20.1618L372.188 20.4392L372.25 20.8437L371.89 20.6588L371.543 20.8437L371.605 20.4392L371.32 20.1618L371.717 20.0925L371.89 19.7227Z" fill="white"/>
<path d="M371.89 22.1602L372.076 22.53L372.473 22.5878L372.188 22.8767L372.25 23.2812L371.89 23.0847L371.543 23.2812L371.605 22.8767L371.32 22.5878L371.717 22.53L371.89 22.1602Z" fill="white"/>
<path d="M373.764 13.8516L373.937 14.2214L374.334 14.2792L374.049 14.5681L374.123 14.9726L373.764 14.7877L373.404 14.9726L373.466 14.5681L373.181 14.2792L373.578 14.2214L373.764 13.8516Z" fill="white"/>
<path d="M373.764 16.29L373.937 16.6599L374.334 16.7177L374.049 17.0066L374.123 17.4111L373.764 17.2146L373.404 17.4111L373.466 17.0066L373.181 16.7177L373.578 16.6599L373.764 16.29Z" fill="white"/>
<path d="M373.764 18.7178L373.937 19.0876L374.334 19.1454L374.049 19.4343L374.123 19.8388L373.764 19.6539L373.404 19.8388L373.466 19.4343L373.181 19.1454L373.578 19.0876L373.764 18.7178Z" fill="white"/>
<path d="M373.764 21.1445L373.937 21.5144L374.334 21.5722L374.049 21.8611L374.123 22.2656L373.764 22.0807L373.404 22.2656L373.466 21.8611L373.181 21.5722L373.578 21.5144L373.764 21.1445Z" fill="white"/>
<path d="M375.624 12.4297L375.81 12.7995L376.207 12.8573L375.921 13.1462L375.983 13.5507L375.624 13.3658L375.264 13.5507L375.338 13.1462L375.053 12.8573L375.45 12.7995L375.624 12.4297Z" fill="white"/>
<path d="M375.624 14.8701L375.81 15.2399L376.207 15.2977L375.921 15.5867L375.983 15.9912L375.624 15.7947L375.264 15.9912L375.338 15.5867L375.053 15.2977L375.45 15.2399L375.624 14.8701Z" fill="white"/>
<path d="M375.624 17.2949L375.81 17.6647L376.207 17.7225L375.921 18.0115L375.983 18.416L375.624 18.2195L375.264 18.416L375.338 18.0115L375.053 17.7225L375.45 17.6647L375.624 17.2949Z" fill="white"/>
<path d="M375.624 19.7227L375.81 20.0925L376.207 20.1618L375.921 20.4392L375.983 20.8437L375.624 20.6588L375.264 20.8437L375.338 20.4392L375.053 20.1618L375.45 20.0925L375.624 19.7227Z" fill="white"/>
<path d="M375.624 22.1602L375.81 22.53L376.207 22.5878L375.921 22.8767L375.983 23.2812L375.624 23.0847L375.264 23.2812L375.338 22.8767L375.053 22.5878L375.45 22.53L375.624 22.1602Z" fill="white"/>
<path d="M3.57198 22.7852L4.60129 24.7152L6.87073 25.0157L5.22135 26.5181L5.61819 28.6215L3.57198 27.6276L1.53817 28.6215L1.93501 26.5181L0.285645 25.0157L2.55507 24.7152L3.57198 22.7852Z" fill="white"/>
<path d="M10.1824 22.0342L10.7156 23.0281L11.8814 23.1899L11.0381 23.9527L11.2365 25.0391L10.1824 24.5305L9.14067 25.0391L9.33909 23.9527L8.4834 23.1899L9.66153 23.0281L10.1824 22.0342Z" fill="white"/>
<path d="M11.6086 27.0508L12.1295 28.0447L13.3076 28.195L12.4519 28.9693L12.6504 30.0557L11.6086 29.5471L10.5545 30.0557L10.753 28.9693L9.90967 28.195L11.0754 28.0447L11.6086 27.0508Z" fill="white"/>
<path d="M8.11158 30.333L8.63243 31.3154L9.81055 31.4772L8.96727 32.2515L9.16569 33.3379L8.11158 32.8178L7.06986 33.3379L7.26829 32.2515L6.4126 31.4772L7.59073 31.3154L8.11158 30.333Z" fill="white"/>
<path d="M3.26245 31.835L3.78331 32.8173L4.96143 32.9791L4.11814 33.7535L4.31656 34.8398L3.26245 34.3313L2.22074 34.8398L2.41916 33.7535L1.56348 32.9791L2.7416 32.8173L3.26245 31.835Z" fill="white"/>
</svg>
