<svg width="105" height="74" viewBox="0 0 105 74" fill="none" xmlns="http://www.w3.org/2000/svg">
<path d="M78.5682 1.06938H45.4939C38.8073 1.06938 32.3946 3.54482 27.6665 7.95115C22.9383 12.3575 20.2821 18.3337 20.2821 24.5652V33.2447L3.80078 32.6553L20.3317 42.7101V49.2168C20.3317 55.4494 22.9875 61.4268 27.7153 65.835C32.4431 70.2431 38.8558 72.7212 45.5435 72.7242H78.6177C85.3055 72.7212 91.7182 70.2431 96.446 65.835C101.174 61.4268 103.83 55.4494 103.83 49.2168V24.5652C103.83 21.4758 103.176 18.4167 101.906 15.5631C100.636 12.7094 98.7741 10.1172 96.4277 7.93479C94.0813 5.75239 91.2961 4.02268 88.2315 2.84462C85.167 1.66656 81.8832 1.0633 78.5682 1.06938Z" fill="white" stroke="#83F4BA" stroke-width="2" stroke-miterlimit="10"/>
<path d="M49.0038 44.9072H50.1075C50.1487 44.9056 50.1898 44.912 50.2282 44.9259C50.2666 44.9398 50.3015 44.9611 50.3306 44.9882C50.3598 45.0154 50.3825 45.0479 50.3975 45.0837C50.4125 45.1195 50.4193 45.1578 50.4175 45.1962V60.5904C50.4211 60.6297 50.4156 60.6693 50.4015 60.7065C50.3873 60.7437 50.3649 60.7776 50.3355 60.8061C50.3062 60.8345 50.2706 60.8568 50.2313 60.8714C50.192 60.886 50.1498 60.8927 50.1075 60.8909H49.0038C48.9605 60.8944 48.9169 60.8891 48.8761 60.8752C48.8352 60.8614 48.7981 60.8393 48.7674 60.8107C48.7366 60.7821 48.713 60.7475 48.6982 60.7094C48.6833 60.6714 48.6776 60.6308 48.6813 60.5904V53.6561C48.6833 53.6404 48.6815 53.6246 48.676 53.6097C48.6704 53.5949 48.6614 53.5814 48.6494 53.5702C48.6375 53.5591 48.623 53.5506 48.6071 53.5455C48.5911 53.5403 48.5741 53.5386 48.5573 53.5405H40.7941C40.7773 53.5386 40.7604 53.5403 40.7444 53.5455C40.7285 53.5506 40.714 53.5591 40.702 53.5702C40.6901 53.5814 40.681 53.5949 40.6755 53.6097C40.6699 53.6246 40.6681 53.6404 40.6701 53.6561V60.5904C40.6739 60.6308 40.6682 60.6714 40.6533 60.7094C40.6384 60.7475 40.6148 60.7821 40.5841 60.8107C40.5533 60.8393 40.5163 60.8614 40.4754 60.8752C40.4346 60.8891 40.391 60.8944 40.3477 60.8909H39.244C39.2007 60.8944 39.1571 60.8891 39.1162 60.8752C39.0754 60.8614 39.0383 60.8393 39.0076 60.8107C38.9768 60.7821 38.9532 60.7475 38.9383 60.7094C38.9235 60.6714 38.9178 60.6308 38.9215 60.5904V45.1962C38.9196 45.1568 38.9267 45.1174 38.9424 45.0808C38.9581 45.0441 38.982 45.011 39.0126 44.9837C39.0431 44.9563 39.0795 44.9354 39.1194 44.9222C39.1593 44.909 39.2018 44.9039 39.244 44.9072H40.3477C40.3899 44.9039 40.4323 44.909 40.4722 44.9222C40.5121 44.9354 40.5486 44.9563 40.5791 44.9837C40.6096 45.011 40.6335 45.0441 40.6492 45.0808C40.6649 45.1174 40.672 45.1568 40.6701 45.1962V52.0265C40.6681 52.0421 40.6699 52.058 40.6755 52.0728C40.681 52.0877 40.6901 52.1012 40.702 52.1123C40.714 52.1235 40.7285 52.1319 40.7444 52.1371C40.7604 52.1422 40.7773 52.1439 40.7941 52.1421H48.5573C48.5741 52.1439 48.5911 52.1422 48.6071 52.1371C48.623 52.1319 48.6375 52.1235 48.6494 52.1123C48.6614 52.1012 48.6704 52.0877 48.676 52.0728C48.6815 52.058 48.6833 52.0421 48.6813 52.0265V45.1962C48.6794 45.1568 48.6866 45.1174 48.7023 45.0808C48.718 45.0441 48.7419 45.011 48.7724 44.9837C48.8029 44.9563 48.8393 44.9354 48.8792 44.9222C48.9191 44.909 48.9616 44.9039 49.0038 44.9072Z" fill="#473C4B"/>
<path d="M62.5708 57.9654C62.5848 57.9275 62.6077 57.893 62.638 57.8646C62.6683 57.8361 62.705 57.8144 62.7456 57.8011C62.7861 57.7877 62.8294 57.7831 62.8722 57.7875C62.9149 57.792 62.956 57.8054 62.9924 57.8267L63.6993 58.1966C63.8729 58.289 63.9473 58.4277 63.8481 58.5779C63.4358 59.3642 62.7845 60.0201 61.9753 60.4639C61.166 60.9078 60.2346 61.1201 59.2968 61.0743C58.3013 61.1363 57.3118 60.89 56.482 60.3737C55.6522 59.8575 55.0287 59.1002 54.7083 58.2197C54.3484 57.203 54.1887 56.1341 54.2371 55.0645C54.1914 54.1771 54.2664 53.2878 54.4603 52.4179C54.7206 51.4455 55.3354 50.5875 56.1996 49.9908C57.0637 49.3942 58.1236 49.096 59.1976 49.1472C60.406 49.0644 61.6003 49.4316 62.5186 50.1682C63.4368 50.9048 64.0042 51.9508 64.0961 53.0767C64.2257 53.8409 64.2755 54.615 64.2449 55.3881C64.2491 55.428 64.2435 55.4683 64.2285 55.5059C64.2136 55.5435 64.1897 55.5775 64.1587 55.6053C64.1277 55.6331 64.0904 55.654 64.0495 55.6664C64.0085 55.6788 63.9652 55.6825 63.9225 55.6771H56.0849C56.0681 55.6752 56.0511 55.6769 56.0352 55.6821C56.0192 55.6872 56.0047 55.6957 55.9928 55.7068C55.9808 55.7179 55.9718 55.7314 55.9663 55.7463C55.9607 55.7612 55.9589 55.777 55.9609 55.7926C55.9411 56.3547 55.991 56.917 56.1097 57.4684C56.2897 58.1472 56.7228 58.7443 57.3316 59.1529C57.9405 59.5615 58.6854 59.755 59.4332 59.699C60.0798 59.7221 60.7198 59.5709 61.2763 59.2634C61.8329 58.9559 62.2824 58.5052 62.5708 57.9654ZM56.1593 52.7069C56.0252 53.2175 55.9585 53.7414 55.9609 54.2671C55.9589 54.2827 55.9607 54.2986 55.9663 54.3134C55.9718 54.3283 55.9808 54.3418 55.9928 54.3529C56.0047 54.3641 56.0192 54.3725 56.0352 54.3777C56.0511 54.3828 56.0681 54.3845 56.0849 54.3827H62.3847C62.4005 54.3828 62.4161 54.3797 62.4305 54.3738C62.4449 54.3679 62.4579 54.3591 62.4684 54.3482C62.479 54.3373 62.4869 54.3244 62.4917 54.3104C62.4965 54.2965 62.4981 54.2817 62.4963 54.2671C62.4834 53.7757 62.4379 53.2855 62.3599 52.7993C62.2023 52.1384 61.7977 51.5513 61.2184 51.1427C60.6392 50.7341 59.923 50.5307 59.1976 50.5688C58.4997 50.524 57.8079 50.7157 57.2496 51.1086C56.6914 51.5014 56.3041 52.069 56.1593 52.7069Z" fill="#473C4B"/>
<path d="M67.6925 60.5896V45.1953C67.6906 45.1559 67.6978 45.1165 67.7135 45.0799C67.7292 45.0433 67.7531 45.0102 67.7836 44.9828C67.8141 44.9555 67.8505 44.9345 67.8904 44.9213C67.9303 44.9081 67.9728 44.9031 68.015 44.9064H69.1187C69.1604 44.9028 69.2024 44.9079 69.2417 44.9211C69.2811 44.9344 69.3168 44.9556 69.3464 44.9831C69.3759 45.0107 69.3987 45.044 69.4129 45.0807C69.4272 45.1173 69.4326 45.1565 69.4287 45.1953V60.5896C69.4346 60.6293 69.4306 60.6697 69.4173 60.7078C69.4039 60.746 69.3816 60.7808 69.3517 60.8097C69.3219 60.8386 69.2854 60.8608 69.2451 60.8747C69.2047 60.8887 69.1615 60.8939 69.1187 60.89H68.015C67.9717 60.8935 67.9281 60.8882 67.8873 60.8744C67.8464 60.8605 67.8093 60.8385 67.7786 60.8098C67.7479 60.7812 67.7242 60.7466 67.7094 60.7086C67.6945 60.6705 67.6887 60.6299 67.6925 60.5896Z" fill="#473C4B"/>
<path d="M73.3848 60.5904V45.1962C73.3831 45.1578 73.3899 45.1195 73.4049 45.0837C73.4199 45.0479 73.4426 45.0154 73.4718 44.9882C73.5009 44.9611 73.5358 44.9398 73.5742 44.9259C73.6126 44.912 73.6537 44.9056 73.6949 44.9072H74.7986C74.8408 44.9039 74.8833 44.909 74.9232 44.9222C74.9631 44.9354 74.9995 44.9563 75.03 44.9837C75.0605 45.011 75.0844 45.0441 75.1001 45.0808C75.1158 45.1174 75.123 45.1568 75.1211 45.1962V60.5904C75.1248 60.6308 75.1191 60.6714 75.1042 60.7094C75.0894 60.7475 75.0657 60.7821 75.035 60.8107C75.0043 60.8393 74.9672 60.8614 74.9263 60.8752C74.8855 60.8891 74.8419 60.8944 74.7986 60.8909H73.6949C73.6526 60.8927 73.6104 60.886 73.5711 60.8714C73.5318 60.8568 73.4962 60.8345 73.4669 60.8061C73.4376 60.7776 73.415 60.7437 73.4009 60.7065C73.3868 60.6693 73.3813 60.6297 73.3848 60.5904Z" fill="#473C4B"/>
<path d="M79.0148 57.8962C78.755 56.9804 78.6381 56.0346 78.6675 55.0878C78.6397 54.1501 78.7482 53.2131 78.99 52.3025C79.3463 51.3843 79.9977 50.5907 80.8553 50.0298C81.713 49.4689 82.7353 49.168 83.7831 49.168C84.8308 49.168 85.8531 49.4689 86.7108 50.0298C87.5685 50.5907 88.2198 51.3843 88.5762 52.3025C88.8281 53.2195 88.9408 54.1648 88.911 55.1109C88.944 56.0571 88.8312 57.0029 88.5762 57.9193C88.2317 58.8454 87.5863 59.6484 86.7295 60.2167C85.8727 60.785 84.8471 61.0904 83.7955 61.0904C82.7438 61.0904 81.7183 60.785 80.8615 60.2167C80.0047 59.6484 79.3592 58.8454 79.0148 57.9193V57.8962ZM86.9516 57.4224C87.1079 56.6609 87.1744 55.8858 87.15 55.1109C87.1817 54.3358 87.1151 53.56 86.9516 52.7995C86.7611 52.1556 86.3492 51.5879 85.779 51.1832C85.2089 50.7786 84.5121 50.5595 83.7955 50.5595C83.0789 50.5595 82.382 50.7786 81.8119 51.1832C81.2418 51.5879 80.8298 52.1556 80.6393 52.7995C80.4783 53.5603 80.4117 54.3359 80.4409 55.1109C80.4105 55.886 80.4771 56.6617 80.6393 57.4224C80.8298 58.0662 81.2418 58.634 81.8119 59.0386C82.382 59.4432 83.0789 59.6623 83.7955 59.6623C84.5121 59.6623 85.2089 59.4432 85.779 59.0386C86.3492 58.634 86.7611 58.0662 86.9516 57.4224Z" fill="#473C4B"/>
<path d="M83.2811 11.3203H41.1787V36.0297H83.2811V11.3203Z" fill="white" stroke="#473C4B" stroke-linecap="round" stroke-linejoin="round"/>
<path d="M83.5037 11.3203H41.4014V13.7127H83.5037V11.3203Z" fill="#473C4B"/>
<path d="M83.5037 15.0654H41.4014V17.4578H83.5037V15.0654Z" fill="#473C4B"/>
<path d="M83.5037 18.7969H41.4014V21.1892H83.5037V18.7969Z" fill="#473C4B"/>
<path d="M83.5037 22.542H41.4014V24.9343H83.5037V22.542Z" fill="#473C4B"/>
<path d="M83.5037 26.2881H41.4014V28.6804H83.5037V26.2881Z" fill="#473C4B"/>
<path d="M83.5037 30.0312H41.4014V32.4236H83.5037V30.0312Z" fill="#473C4B"/>
<path d="M83.5037 33.7764H41.4014V36.1687H83.5037V33.7764Z" fill="#473C4B"/>
<path d="M61.5912 11.3203H41.1787V24.484H61.5912V11.3203Z" fill="#473C4B"/>
<path d="M41.9718 12.4297L42.1578 12.7995L42.5547 12.8573L42.2694 13.1462L42.3315 13.5507L41.9718 13.3658L41.6246 13.5507L41.6866 13.1462L41.4014 12.8573L41.7982 12.7995L41.9718 12.4297Z" fill="white"/>
<path d="M41.9718 14.8701L42.1578 15.2399L42.5547 15.2977L42.2694 15.5867L42.3315 15.9912L41.9718 15.7947L41.6246 15.9912L41.6866 15.5867L41.4014 15.2977L41.7982 15.2399L41.9718 14.8701Z" fill="white"/>
<path d="M41.9718 17.2949L42.1578 17.6647L42.5547 17.7225L42.2694 18.0115L42.3315 18.416L41.9718 18.2195L41.6246 18.416L41.6866 18.0115L41.4014 17.7225L41.7982 17.6647L41.9718 17.2949Z" fill="white"/>
<path d="M41.9718 19.7227L42.1578 20.0925L42.5547 20.1618L42.2694 20.4392L42.3315 20.8437L41.9718 20.6588L41.6246 20.8437L41.6866 20.4392L41.4014 20.1618L41.7982 20.0925L41.9718 19.7227Z" fill="white"/>
<path d="M41.9718 22.1602L42.1578 22.53L42.5547 22.5878L42.2694 22.8767L42.3315 23.2812L41.9718 23.0847L41.6246 23.2812L41.6866 22.8767L41.4014 22.5878L41.7982 22.53L41.9718 22.1602Z" fill="white"/>
<path d="M43.8441 13.8516L44.0177 14.2214L44.4145 14.2792L44.1293 14.5681L44.1913 14.9726L43.8441 14.7877L43.4844 14.9726L43.5464 14.5681L43.2612 14.2792L43.6581 14.2214L43.8441 13.8516Z" fill="white"/>
<path d="M43.8441 16.29L44.0177 16.6599L44.4145 16.7177L44.1293 17.0066L44.1913 17.4111L43.8441 17.2146L43.4844 17.4111L43.5464 17.0066L43.2612 16.7177L43.6581 16.6599L43.8441 16.29Z" fill="white"/>
<path d="M43.8441 18.7178L44.0177 19.0876L44.4145 19.1454L44.1293 19.4343L44.1913 19.8388L43.8441 19.6539L43.4844 19.8388L43.5464 19.4343L43.2612 19.1454L43.6581 19.0876L43.8441 18.7178Z" fill="white"/>
<path d="M43.8441 21.1445L44.0177 21.5144L44.4145 21.5722L44.1293 21.8611L44.1913 22.2656L43.8441 22.0807L43.4844 22.2656L43.5464 21.8611L43.2612 21.5722L43.6581 21.5144L43.8441 21.1445Z" fill="white"/>
<path d="M45.7049 12.4297L45.8909 12.7995L46.2878 12.8573L45.9901 13.1462L46.0645 13.5507L45.7049 13.3658L45.3453 13.5507L45.4197 13.1462L45.1221 12.8573L45.5313 12.7995L45.7049 12.4297Z" fill="white"/>
<path d="M45.7049 14.8701L45.8909 15.2399L46.2878 15.2977L45.9901 15.5867L46.0645 15.9912L45.7049 15.7947L45.3453 15.9912L45.4197 15.5867L45.1221 15.2977L45.5313 15.2399L45.7049 14.8701Z" fill="white"/>
<path d="M45.7049 17.2949L45.8909 17.6647L46.2878 17.7225L45.9901 18.0115L46.0645 18.416L45.7049 18.2195L45.3453 18.416L45.4197 18.0115L45.1221 17.7225L45.5313 17.6647L45.7049 17.2949Z" fill="white"/>
<path d="M45.7049 19.7227L45.8909 20.0925L46.2878 20.1618L45.9901 20.4392L46.0645 20.8437L45.7049 20.6588L45.3453 20.8437L45.4197 20.4392L45.1221 20.1618L45.5313 20.0925L45.7049 19.7227Z" fill="white"/>
<path d="M45.7049 22.1602L45.8909 22.53L46.2878 22.5878L45.9901 22.8767L46.0645 23.2812L45.7049 23.0847L45.3453 23.2812L45.4197 22.8767L45.1221 22.5878L45.5313 22.53L45.7049 22.1602Z" fill="white"/>
<path d="M47.577 13.8516L47.7506 14.2214L48.1475 14.2792L47.8622 14.5681L47.9242 14.9726L47.577 14.7877L47.2174 14.9726L47.2794 14.5681L46.9941 14.2792L47.391 14.2214L47.577 13.8516Z" fill="white"/>
<path d="M47.577 16.29L47.7506 16.6599L48.1475 16.7177L47.8622 17.0066L47.9242 17.4111L47.577 17.2146L47.2174 17.4111L47.2794 17.0066L46.9941 16.7177L47.391 16.6599L47.577 16.29Z" fill="white"/>
<path d="M47.577 18.7178L47.7506 19.0876L48.1475 19.1454L47.8622 19.4343L47.9242 19.8388L47.577 19.6539L47.2174 19.8388L47.2794 19.4343L46.9941 19.1454L47.391 19.0876L47.577 18.7178Z" fill="white"/>
<path d="M47.577 21.1445L47.7506 21.5144L48.1475 21.5722L47.8622 21.8611L47.9242 22.2656L47.577 22.0807L47.2174 22.2656L47.2794 21.8611L46.9941 21.5722L47.391 21.5144L47.577 21.1445Z" fill="white"/>
<path d="M49.4378 12.4297L49.6115 12.7995L50.0083 12.8573L49.7231 13.1462L49.7975 13.5507L49.4378 13.3658L49.0782 13.5507L49.1402 13.1462L48.855 12.8573L49.2518 12.7995L49.4378 12.4297Z" fill="white"/>
<path d="M49.4378 14.8701L49.6115 15.2399L50.0083 15.2977L49.7231 15.5867L49.7975 15.9912L49.4378 15.7947L49.0782 15.9912L49.1402 15.5867L48.855 15.2977L49.2518 15.2399L49.4378 14.8701Z" fill="white"/>
<path d="M49.4378 17.2949L49.6115 17.6647L50.0083 17.7225L49.7231 18.0115L49.7975 18.416L49.4378 18.2195L49.0782 18.416L49.1402 18.0115L48.855 17.7225L49.2518 17.6647L49.4378 17.2949Z" fill="white"/>
<path d="M49.4378 19.7227L49.6115 20.0925L50.0083 20.1618L49.7231 20.4392L49.7975 20.8437L49.4378 20.6588L49.0782 20.8437L49.1402 20.4392L48.855 20.1618L49.2518 20.0925L49.4378 19.7227Z" fill="white"/>
<path d="M49.4378 22.1602L49.6115 22.53L50.0083 22.5878L49.7231 22.8767L49.7975 23.2812L49.4378 23.0847L49.0782 23.2812L49.1402 22.8767L48.855 22.5878L49.2518 22.53L49.4378 22.1602Z" fill="white"/>
<path d="M51.298 13.8516L51.484 14.2214L51.8808 14.2792L51.5956 14.5681L51.6576 14.9726L51.298 14.7877L50.9384 14.9726L51.0128 14.5681L50.7275 14.2792L51.1244 14.2214L51.298 13.8516Z" fill="white"/>
<path d="M51.298 16.29L51.484 16.6599L51.8808 16.7177L51.5956 17.0066L51.6576 17.4111L51.298 17.2146L50.9384 17.4111L51.0128 17.0066L50.7275 16.7177L51.1244 16.6599L51.298 16.29Z" fill="white"/>
<path d="M51.298 18.7178L51.484 19.0876L51.8808 19.1454L51.5956 19.4343L51.6576 19.8388L51.298 19.6539L50.9384 19.8388L51.0128 19.4343L50.7275 19.1454L51.1244 19.0876L51.298 18.7178Z" fill="white"/>
<path d="M51.298 21.1445L51.484 21.5144L51.8808 21.5722L51.5956 21.8611L51.6576 22.2656L51.298 22.0807L50.9384 22.2656L51.0128 21.8611L50.7275 21.5722L51.1244 21.5144L51.298 21.1445Z" fill="white"/>
<path d="M53.1703 12.4297L53.3439 12.7995L53.7407 12.8573L53.4555 13.1462L53.5175 13.5507L53.1703 13.3658L52.8106 13.5507L52.8726 13.1462L52.5874 12.8573L52.9843 12.7995L53.1703 12.4297Z" fill="white"/>
<path d="M53.1703 14.8701L53.3439 15.2399L53.7407 15.2977L53.4555 15.5867L53.5175 15.9912L53.1703 15.7947L52.8106 15.9912L52.8726 15.5867L52.5874 15.2977L52.9843 15.2399L53.1703 14.8701Z" fill="white"/>
<path d="M53.1703 17.2949L53.3439 17.6647L53.7407 17.7225L53.4555 18.0115L53.5175 18.416L53.1703 18.2195L52.8106 18.416L52.8726 18.0115L52.5874 17.7225L52.9843 17.6647L53.1703 17.2949Z" fill="white"/>
<path d="M53.1703 19.7227L53.3439 20.0925L53.7407 20.1618L53.4555 20.4392L53.5175 20.8437L53.1703 20.6588L52.8106 20.8437L52.8726 20.4392L52.5874 20.1618L52.9843 20.0925L53.1703 19.7227Z" fill="white"/>
<path d="M53.1703 22.1602L53.3439 22.53L53.7407 22.5878L53.4555 22.8767L53.5175 23.2812L53.1703 23.0847L52.8106 23.2812L52.8726 22.8767L52.5874 22.5878L52.9843 22.53L53.1703 22.1602Z" fill="white"/>
<path d="M55.0306 13.8516L55.2043 14.2214L55.6135 14.2792L55.3159 14.5681L55.3903 14.9726L55.0306 14.7877L54.671 14.9726L54.7454 14.5681L54.4478 14.2792L54.857 14.2214L55.0306 13.8516Z" fill="white"/>
<path d="M55.0306 16.29L55.2043 16.6599L55.6135 16.7177L55.3159 17.0066L55.3903 17.4111L55.0306 17.2146L54.671 17.4111L54.7454 17.0066L54.4478 16.7177L54.857 16.6599L55.0306 16.29Z" fill="white"/>
<path d="M55.0306 18.7178L55.2043 19.0876L55.6135 19.1454L55.3159 19.4343L55.3903 19.8388L55.0306 19.6539L54.671 19.8388L54.7454 19.4343L54.4478 19.1454L54.857 19.0876L55.0306 18.7178Z" fill="white"/>
<path d="M55.0306 21.1445L55.2043 21.5144L55.6135 21.5722L55.3159 21.8611L55.3903 22.2656L55.0306 22.0807L54.671 22.2656L54.7454 21.8611L54.4478 21.5722L54.857 21.5144L55.0306 21.1445Z" fill="white"/>
<path d="M56.8908 12.4297L57.0768 12.7995L57.4736 12.8573L57.1884 13.1462L57.2504 13.5507L56.8908 13.3658L56.5435 13.5507L56.6055 13.1462L56.3203 12.8573L56.7172 12.7995L56.8908 12.4297Z" fill="white"/>
<path d="M56.8908 14.8701L57.0768 15.2399L57.4736 15.2977L57.1884 15.5867L57.2504 15.9912L56.8908 15.7947L56.5435 15.9912L56.6055 15.5867L56.3203 15.2977L56.7172 15.2399L56.8908 14.8701Z" fill="white"/>
<path d="M56.8908 17.2949L57.0768 17.6647L57.4736 17.7225L57.1884 18.0115L57.2504 18.416L56.8908 18.2195L56.5435 18.416L56.6055 18.0115L56.3203 17.7225L56.7172 17.6647L56.8908 17.2949Z" fill="white"/>
<path d="M56.8908 19.7227L57.0768 20.0925L57.4736 20.1618L57.1884 20.4392L57.2504 20.8437L56.8908 20.6588L56.5435 20.8437L56.6055 20.4392L56.3203 20.1618L56.7172 20.0925L56.8908 19.7227Z" fill="white"/>
<path d="M56.8908 22.1602L57.0768 22.53L57.4736 22.5878L57.1884 22.8767L57.2504 23.2812L56.8908 23.0847L56.5435 23.2812L56.6055 22.8767L56.3203 22.5878L56.7172 22.53L56.8908 22.1602Z" fill="white"/>
<path d="M58.7635 13.8516L58.9371 14.2214L59.334 14.2792L59.0487 14.5681L59.1231 14.9726L58.7635 14.7877L58.4039 14.9726L58.4659 14.5681L58.1807 14.2792L58.5775 14.2214L58.7635 13.8516Z" fill="white"/>
<path d="M58.7635 16.29L58.9371 16.6599L59.334 16.7177L59.0487 17.0066L59.1231 17.4111L58.7635 17.2146L58.4039 17.4111L58.4659 17.0066L58.1807 16.7177L58.5775 16.6599L58.7635 16.29Z" fill="white"/>
<path d="M58.7635 18.7178L58.9371 19.0876L59.334 19.1454L59.0487 19.4343L59.1231 19.8388L58.7635 19.6539L58.4039 19.8388L58.4659 19.4343L58.1807 19.1454L58.5775 19.0876L58.7635 18.7178Z" fill="white"/>
<path d="M58.7635 21.1445L58.9371 21.5144L59.334 21.5722L59.0487 21.8611L59.1231 22.2656L58.7635 22.0807L58.4039 22.2656L58.4659 21.8611L58.1807 21.5722L58.5775 21.5144L58.7635 21.1445Z" fill="white"/>
<path d="M60.6237 12.4297L60.8097 12.7995L61.2066 12.8573L60.9213 13.1462L60.9833 13.5507L60.6237 13.3658L60.2641 13.5507L60.3385 13.1462L60.0532 12.8573L60.4501 12.7995L60.6237 12.4297Z" fill="white"/>
<path d="M60.6237 14.8701L60.8097 15.2399L61.2066 15.2977L60.9213 15.5867L60.9833 15.9912L60.6237 15.7947L60.2641 15.9912L60.3385 15.5867L60.0532 15.2977L60.4501 15.2399L60.6237 14.8701Z" fill="white"/>
<path d="M60.6237 17.2949L60.8097 17.6647L61.2066 17.7225L60.9213 18.0115L60.9833 18.416L60.6237 18.2195L60.2641 18.416L60.3385 18.0115L60.0532 17.7225L60.4501 17.6647L60.6237 17.2949Z" fill="white"/>
<path d="M60.6237 19.7227L60.8097 20.0925L61.2066 20.1618L60.9213 20.4392L60.9833 20.8437L60.6237 20.6588L60.2641 20.8437L60.3385 20.4392L60.0532 20.1618L60.4501 20.0925L60.6237 19.7227Z" fill="white"/>
<path d="M60.6237 22.1602L60.8097 22.53L61.2066 22.5878L60.9213 22.8767L60.9833 23.2812L60.6237 23.0847L60.2641 23.2812L60.3385 22.8767L60.0532 22.5878L60.4501 22.53L60.6237 22.1602Z" fill="white"/>
</svg>
