<svg width="128" height="128" viewBox="0 0 128 128" fill="none" xmlns="http://www.w3.org/2000/svg">
<path d="M29.1458 72.5781C29.1458 69.2644 31.832 66.5781 35.1458 66.5781H108.946C109.997 66.5781 110.54 68.3301 109.788 69.0642C107.907 70.8995 105.928 73.7541 105.928 77.6388C105.928 81.6486 108.037 84.6213 109.969 86.5033C110.713 87.2281 110.182 88.9054 109.143 88.9054H35.1458C31.832 88.9054 29.1458 86.2191 29.1458 82.9054V72.5781Z" fill="#83F4BA"/>
<path d="M71.1729 30.4598C71.1729 36.2251 66.8957 42.9866 58.3412 42.9866C49.7868 42.9866 45.5095 36.2251 45.5095 30.4598C45.5095 24.2442 49.5601 22.8952 53.9507 23.0263C55.7526 23.0801 58.3412 24.4519 58.3412 24.4519C58.3412 24.4519 60.9298 23.0801 62.7318 23.0263C67.1223 22.8952 71.1729 24.1963 71.1729 30.4598Z" fill="#473C4B" stroke="black" stroke-width="2" stroke-linecap="round" stroke-linejoin="round"/>
<path d="M62.1372 39.2435C63.4738 38.7267 66.3931 36.6985 67.3768 32.7207" stroke="black" stroke-width="2" stroke-linecap="round" stroke-linejoin="round"/>
<path d="M58.6726 24.0341C56.036 24.059 53.6247 22.2709 52.988 17.1699C55.5 18.1491 59.5911 17.6903 58.6726 24.0341Z" fill="#473C4B" stroke="black" stroke-width="2" stroke-linecap="round" stroke-linejoin="round"/>
<path d="M58.7156 23.9528C59.8918 22.4825 61.6562 17.9379 60.1324 14.623" stroke="black" stroke-width="2" stroke-linecap="round" stroke-linejoin="round"/>
<path d="M51.2845 32.1699C50.7356 31.1412 50.5806 29.4444 51.1411 28.1398" stroke="black" stroke-width="2" stroke-linecap="round" stroke-linejoin="round"/>
<path d="M22.0247 50.1055C22.0247 46.7918 24.7109 44.1055 28.0247 44.1055H99.553C99.553 44.1055 94.014 47.6806 93.4374 54.4371C92.8607 61.1936 99.553 64.7218 99.553 64.7218H28.0247C24.711 64.7218 22.0247 62.0356 22.0247 58.7218V50.1055Z" fill="white"/>
<path fill-rule="evenodd" clip-rule="evenodd" d="M100.642 45.7833C100.641 45.7839 100.64 45.7844 100.639 45.785L100.62 45.7982C100.594 45.8157 100.55 45.8462 100.49 45.8898C100.37 45.9772 100.187 46.116 99.9598 46.3054C99.5041 46.6855 98.8824 47.2609 98.2443 48.0222C96.9639 49.5501 95.6734 51.7569 95.4301 54.6072C95.2061 57.2324 96.3736 59.2738 97.7455 60.7533C98.429 61.4904 99.1343 62.0533 99.6694 62.4308C99.9351 62.6183 100.154 62.7565 100.299 62.8444C100.372 62.8882 100.426 62.9193 100.459 62.9374C100.475 62.9465 100.485 62.9523 100.49 62.9548L100.488 62.954L100.487 62.9534C100.489 62.9542 100.49 62.9551 100.492 62.956C101.301 63.3863 101.715 64.312 101.494 65.2023C101.274 66.0949 100.473 66.7218 99.553 66.7218H28.0247C23.6064 66.7218 20.0247 63.1401 20.0247 58.7218V50.1055C20.0247 45.6872 23.6064 42.1055 28.0247 42.1055H99.553C100.44 42.1055 101.221 42.6895 101.471 43.5401C101.721 44.3883 101.385 45.2997 100.644 45.7817C100.643 45.7822 100.642 45.7827 100.642 45.7833ZM96.8802 62.7218C98.2726 64.0468 99.553 64.7218 99.553 64.7218H28.0247C24.711 64.7218 22.0247 62.0356 22.0247 58.7218V50.1055C22.0247 46.7918 24.7109 44.1055 28.0247 44.1055H99.553C99.553 44.1055 98.5034 44.783 97.2704 46.1055C95.671 47.821 93.763 50.6219 93.4374 54.4371C93.1129 58.2383 95.0892 61.0177 96.8802 62.7218Z" fill="black"/>
<path d="M16.8921 96.7598C16.8921 93.4461 19.5784 90.7598 22.8921 90.7598H94.4205C94.4205 90.7598 89.3968 93.9006 88.5625 100.937C87.7281 107.973 94.4205 111.376 94.4205 111.376H22.8921C19.5784 111.376 16.8921 108.69 16.8921 105.376V96.7598Z" fill="white"/>
<path fill-rule="evenodd" clip-rule="evenodd" d="M95.4857 92.4525C95.4855 92.4526 95.4859 92.4524 95.4857 92.4525C95.4846 92.4532 95.4835 92.4539 95.4824 92.4546C95.4823 92.4546 95.4824 92.4545 95.4824 92.4546M92.1875 92.7598C93.3915 91.4031 94.4205 90.7598 94.4205 90.7598H22.8921C19.5784 90.7598 16.8921 93.4461 16.8921 96.7598V105.376C16.8921 108.69 19.5784 111.376 22.8921 111.376H94.4205C94.4205 111.376 93.1224 110.716 91.7408 109.376C89.9855 107.674 88.0956 104.874 88.5625 100.937C89.0192 97.0851 90.7313 94.4007 92.1875 92.7598ZM95.3285 109.594C95.3305 109.595 95.3324 109.596 95.3343 109.597C95.3353 109.598 95.3351 109.598 95.3343 109.597C96.1541 110.018 96.5803 110.945 96.3654 111.842C96.1498 112.742 95.3455 113.376 94.4205 113.376H22.8921C18.4738 113.376 14.8921 109.794 14.8921 105.376V96.7598C14.8921 92.3415 18.4738 88.7598 22.8921 88.7598H94.4205C95.3126 88.7598 96.0969 89.3507 96.3429 90.2083C96.5878 91.062 96.2403 91.9744 95.4908 92.4492C95.4893 92.4502 95.4872 92.4515 95.4857 92.4525M95.3331 109.596C95.3291 109.594 95.3191 109.589 95.3037 109.581C95.2729 109.564 95.2204 109.535 95.1494 109.493C95.0071 109.409 94.793 109.276 94.5328 109.095C94.0087 108.729 93.3203 108.18 92.6603 107.452C91.3488 106.005 90.2196 103.947 90.5486 101.172C90.9122 98.1059 92.1819 95.9085 93.3531 94.4752C93.9408 93.7559 94.5017 93.2321 94.9048 92.8953C95.1059 92.7273 95.266 92.6072 95.3681 92.534C95.4191 92.4975 95.4555 92.4727 95.475 92.4597L95.4857 92.4525L95.4836 92.4538L95.4824 92.4546M95.3331 109.596L95.332 109.596L95.3298 109.595" fill="black"/>
<path d="M35.1372 72.6211H81.7591" stroke="white" stroke-width="2" stroke-linecap="round" stroke-linejoin="round"/>
<path d="M35.1372 77.7422H60.5868" stroke="white" stroke-width="2" stroke-linecap="round" stroke-linejoin="round"/>
<path d="M76.9473 43.4199H85.2341V55.6803C85.2341 56.5712 84.1569 57.0173 83.527 56.3874L81.7978 54.6582C81.4073 54.2677 80.7741 54.2677 80.3836 54.6582L78.6544 56.3874C78.0244 57.0173 76.9473 56.5712 76.9473 55.6803V43.4199Z" fill="#83F4BA"/>
<path d="M21.45 95.9473H68.0718" stroke="black" stroke-width="2" stroke-linecap="round" stroke-linejoin="round"/>
<path d="M21.45 101.068H46.8995" stroke="black" stroke-width="2" stroke-linecap="round" stroke-linejoin="round"/>
<path d="M27.4382 49.4531H66.575" stroke="black" stroke-width="2" stroke-linecap="round" stroke-linejoin="round"/>
</svg>
