<svg width="97" height="84" viewBox="0 0 97 84" fill="none" xmlns="http://www.w3.org/2000/svg">
<path d="M42.567 27.3164C49.4266 27.3164 54.9874 32.8772 54.9874 39.7368V61.4631C54.9874 68.3227 49.4266 73.8835 42.567 73.8835H29.2365L21.4146 83.5387C20.8728 84.2075 19.7914 83.8244 19.7914 82.9637V73.8835H19.7578C12.8982 73.8835 7.3374 68.3227 7.3374 61.4631V39.7369C7.3374 32.8772 12.8982 27.3164 19.7579 27.3164H42.567Z" fill="black"/>
<path d="M56.1739 6.39648C49.3142 6.39648 43.7534 11.9573 43.7534 18.8169V52.4556C43.7534 59.3153 49.3142 64.8761 56.1739 64.8761H72.4038L82.7413 77.6364C83.2831 78.3052 84.3645 77.9221 84.3645 77.0615V64.8761H84.3978C91.2574 64.8761 96.8182 59.3153 96.8182 52.4556V18.8169C96.8182 11.9573 91.2574 6.39648 84.3978 6.39648H56.1739Z" fill="black"/>
<path fill-rule="evenodd" clip-rule="evenodd" d="M36.8704 23.75C43.933 23.75 49.6584 29.4754 49.6584 36.5381V57.529C49.6584 64.5917 43.933 70.3171 36.8704 70.3171H23.9073L14.462 81.9761V70.3128C7.55396 70.1355 2.0084 64.4799 2.0084 57.529V36.5381C2.0084 29.4754 7.73383 23.75 14.7965 23.75H36.8704Z" fill="white"/>
<path fill-rule="evenodd" clip-rule="evenodd" d="M23.9073 70.3178H36.8704C43.9331 70.3178 49.6585 64.5924 49.6585 57.5297V36.5388C49.6585 29.4761 43.9331 23.7507 36.8704 23.7507H14.7965C7.73386 23.7507 2.00844 29.4761 2.00844 36.5388V57.5297C2.00844 64.4806 7.55399 70.1362 14.4621 70.3135V81.9768L23.9073 70.3178ZM12.6352 71.9859C5.58807 70.941 0.181568 64.867 0.181568 57.5297V36.5388C0.181568 28.4672 6.72491 21.9238 14.7965 21.9238H36.8704C44.942 21.9238 51.4854 28.4672 51.4854 36.5388V57.5297C51.4854 65.6013 44.942 72.1447 36.8704 72.1447H24.7785L15.8816 83.1268C15.3945 83.728 14.5815 83.9572 13.8521 83.6988C13.1227 83.4404 12.6352 82.7506 12.6352 81.9768V71.9859Z" fill="#83F4BA"/>
<path fill-rule="evenodd" clip-rule="evenodd" d="M3.00537 36.8766C3.00537 30.3184 8.32183 25.002 14.88 25.002H36.7867C43.3449 25.002 48.6614 30.3184 48.6614 36.8766V57.3583C48.6614 63.9165 43.3449 69.233 36.7867 69.233H23.6989C23.1944 69.233 22.7854 68.824 22.7854 68.3196C22.7854 67.8151 23.1944 67.4061 23.6989 67.4061H36.7867C42.336 67.4061 46.8345 62.9076 46.8345 57.3583V36.8766C46.8345 31.3274 42.336 26.8288 36.7867 26.8288H14.88C9.33079 26.8288 4.83224 31.3274 4.83224 36.8766V57.3584C4.83224 62.9076 9.33079 67.4061 14.88 67.4061H15.774C16.2785 67.4061 16.6874 67.8151 16.6874 68.3196C16.6874 68.824 16.2785 69.233 15.774 69.233H14.88C8.32184 69.233 3.00537 63.9165 3.00537 57.3584V36.8766Z" fill="#83F4BA"/>
<path fill-rule="evenodd" clip-rule="evenodd" d="M9.38696 43.3875C9.38696 42.6308 10.0004 42.0174 10.7571 42.0174H22.0304C22.7871 42.0174 23.4005 42.6308 23.4005 43.3875C23.4005 44.1442 22.7871 44.7577 22.0304 44.7577H10.7571C10.0004 44.7577 9.38696 44.1442 9.38696 43.3875Z" fill="black"/>
<path fill-rule="evenodd" clip-rule="evenodd" d="M9.38696 34.7237C9.38696 33.967 10.0004 33.3535 10.7571 33.3535H37.3211C38.0778 33.3535 38.6913 33.967 38.6913 34.7237C38.6913 35.4804 38.0778 36.0938 37.3211 36.0938H10.7571C10.0004 36.0938 9.38696 35.4804 9.38696 34.7237Z" fill="black"/>
<path fill-rule="evenodd" clip-rule="evenodd" d="M9.38696 51.5096C9.38696 50.7529 10.0004 50.1395 10.7571 50.1395H15.4471C16.2038 50.1395 16.8173 50.7529 16.8173 51.5096C16.8173 52.2663 16.2038 52.8798 15.4471 52.8798H10.7571C10.0004 52.8798 9.38696 52.2663 9.38696 51.5096Z" fill="black"/>
<path fill-rule="evenodd" clip-rule="evenodd" d="M49.4502 1.94727C42.3875 1.94727 36.6621 7.67269 36.6621 14.7354V47.6388C36.6621 54.7015 42.3875 60.4269 49.4502 60.4269H65.3129L77.2735 75.1908V60.4226C84.1815 60.2451 89.7269 54.5895 89.7269 47.6388V14.7354C89.7269 7.67269 84.0015 1.94727 76.9389 1.94727H49.4502Z" fill="white"/>
<path fill-rule="evenodd" clip-rule="evenodd" d="M65.3129 60.4276H49.4502C42.3875 60.4276 36.6621 54.7021 36.6621 47.6395V14.7361C36.6621 7.67339 42.3875 1.94796 49.4502 1.94796H76.9388C84.0015 1.94796 89.7269 7.67339 89.7269 14.7361V47.6395C89.7269 54.5902 84.1815 60.2458 77.2735 60.4233V75.1915L65.3129 60.4276ZM79.1004 62.0956C86.1474 61.0507 91.5538 54.9767 91.5538 47.6395V14.7361C91.5538 6.66444 85.0104 0.121094 76.9388 0.121094H49.4502C41.3785 0.121094 34.8352 6.66444 34.8352 14.7361V47.6395C34.8352 55.7111 41.3785 62.2544 49.4502 62.2544H64.4417L75.854 76.3415C76.3411 76.9427 77.1541 77.1719 77.8835 76.9135C78.6129 76.6552 79.1004 75.9653 79.1004 75.1915V62.0956Z" fill="#83F4BA"/>
<path fill-rule="evenodd" clip-rule="evenodd" d="M37.8152 15.3336C37.8152 8.77544 43.1317 3.45898 49.6898 3.45898H76.5647C83.1229 3.45898 88.4393 8.77545 88.4393 15.3336V46.7743C88.4393 53.3325 83.1229 58.6489 76.5647 58.6489H76.2425C75.7381 58.6489 75.3291 58.24 75.3291 57.7355C75.3291 57.231 75.7381 56.8221 76.2425 56.8221H76.5647C82.1139 56.8221 86.6124 52.3235 86.6124 46.7743V15.3336C86.6124 9.7844 82.1139 5.28585 76.5647 5.28585H49.6898C44.1406 5.28585 39.6421 9.78439 39.6421 15.3336V46.7743C39.6421 52.3235 44.1406 56.8221 49.6898 56.8221H66.0509C66.5554 56.8221 66.9643 57.231 66.9643 57.7355C66.9643 58.24 66.5554 58.6489 66.0509 58.6489H49.6898C43.1317 58.6489 37.8152 53.3325 37.8152 46.7743V15.3336Z" fill="#83F4BA"/>
<path fill-rule="evenodd" clip-rule="evenodd" d="M46.2968 33.8612C46.2968 32.8522 47.1147 32.0343 48.1237 32.0343H78.278C79.2869 32.0343 80.1048 32.8522 80.1048 33.8612C80.1048 34.8701 79.2869 35.688 78.278 35.688H48.1237C47.1147 35.688 46.2968 34.8701 46.2968 33.8612Z" fill="black"/>
<path fill-rule="evenodd" clip-rule="evenodd" d="M46.2968 24.3684C46.2968 23.3594 47.1147 22.5415 48.1237 22.5415H78.278C79.2869 22.5415 80.1048 23.3594 80.1048 24.3684C80.1048 25.3773 79.2869 26.1952 78.278 26.1952H48.1237C47.1147 26.1952 46.2968 25.3773 46.2968 24.3684Z" fill="black"/>
<path fill-rule="evenodd" clip-rule="evenodd" d="M46.2966 15.2351C46.2966 14.2261 47.1145 13.4082 48.1235 13.4082H78.2778C79.2868 13.4082 80.1047 14.2261 80.1047 15.2351C80.1047 16.244 79.2868 17.0619 78.2778 17.0619H48.1235C47.1145 17.0619 46.2966 16.244 46.2966 15.2351Z" fill="black"/>
<path fill-rule="evenodd" clip-rule="evenodd" d="M46.2968 42.7595C46.2968 41.7506 47.1147 40.9326 48.1237 40.9326H64.4932C65.5021 40.9326 66.32 41.7506 66.32 42.7595C66.32 43.7685 65.5021 44.5864 64.4932 44.5864H48.1237C47.1147 44.5864 46.2968 43.7685 46.2968 42.7595Z" fill="black"/>
</svg>
