<svg width="532" height="598" viewBox="0 0 532 598" fill="none" xmlns="http://www.w3.org/2000/svg">
<path d="M2.86865 423.146H524.553" stroke="#473C4B" stroke-linecap="round" stroke-linejoin="round"/>
<path opacity="0.28" d="M238.605 512.414L289.191 542.746L291.111 561.411L353.68 515.774L356.437 489.223L238.605 512.414Z" fill="#473C4B"/>
<path d="M296.178 533.289L238.605 512.415L300.481 477.06L356.437 489.223L296.178 533.289Z" fill="white"/>
<path opacity="0.15" d="M296.178 533.288L238.605 512.414L300.481 477.059L356.437 489.222L296.178 533.288Z" fill="#473C4B"/>
<path d="M296.178 533.289L238.605 512.415L300.481 477.06L356.437 489.223L296.178 533.289Z" stroke="#473C4B" stroke-linecap="round" stroke-linejoin="round"/>
<path d="M307.483 493.283L290.404 488.818L270.842 499.987L288.109 504.886L307.483 493.283Z" stroke="#473C4B" stroke-linecap="round" stroke-linejoin="round"/>
<path d="M318.238 487.496L268.201 516.474L296.482 526.911L343.084 492.847L318.238 487.496Z" fill="#473C4B"/>
<path d="M323.074 450.973L296.179 533.288L356.437 489.222L380.114 420.237L323.074 450.973Z" fill="white"/>
<path opacity="0.15" d="M323.074 450.973L296.179 533.288L356.437 489.222L380.114 420.237L323.074 450.973Z" fill="#473C4B"/>
<path d="M323.074 450.973L296.179 533.288L356.437 489.222L380.114 420.237L323.074 450.973Z" stroke="#473C4B" stroke-linecap="round" stroke-linejoin="round"/>
<path d="M129.103 534.938L165.367 590.67L223.504 567.696L183.5 519.43L129.103 534.938Z" fill="white" stroke="#473C4B" stroke-linecap="round" stroke-linejoin="round"/>
<path d="M210.699 520.005L262.425 566.544L190.964 597L147.769 537.815L210.699 520.005Z" fill="white" stroke="#473C4B" stroke-linecap="round" stroke-linejoin="round"/>
<path d="M401.322 0H287.604V158.081H401.322V0Z" fill="#83F4BA"/>
<path opacity="0.5" d="M401.322 0H287.604V158.081H401.322V0Z" fill="white"/>
<path d="M386.148 21.0771H302.762V137.005H386.148V21.0771Z" fill="white"/>
<path d="M511.069 105.134H436.215V209.209H511.069V105.134Z" fill="#83F4BA"/>
<path opacity="0.5" d="M511.069 105.134H436.215V209.209H511.069V105.134Z" fill="white"/>
<path d="M501.093 119.009H446.19V195.335H501.093V119.009Z" fill="white"/>
<path d="M249.75 105.134H174.896V209.209H249.75V105.134Z" fill="#83F4BA"/>
<path opacity="0.5" d="M249.75 105.134H174.896V209.209H249.75V105.134Z" fill="white"/>
<path d="M239.789 119.009H184.886V195.335H239.789V119.009Z" fill="white"/>
<path opacity="0.28" d="M511.603 425.994H310.167V431.547H511.603V425.994Z" fill="#473C4B"/>
<path d="M450.463 270.945H472.118L489.139 313.907H467.484L450.463 270.945Z" fill="#473C4B" stroke="#473C4B" stroke-linecap="round" stroke-linejoin="round"/>
<path d="M479.25 259.528H445.945L426.744 313.907H460.049L479.25 259.528Z" fill="white" stroke="#473C4B" stroke-linecap="round" stroke-linejoin="round"/>
<path d="M472.941 266.062H447.634L433.052 307.374H458.36L472.941 266.062Z" fill="white" stroke="#473C4B" stroke-linecap="round" stroke-linejoin="round"/>
<path d="M394.146 227.859C394.146 227.859 404.844 223.022 393.785 222.711C382.727 222.4 368.536 239.401 369.546 237.768C370.557 236.134 374.224 224.468 367.395 232.261C360.567 240.054 355.846 264.568 355.846 264.568C356.693 259.529 357.089 254.414 357.03 249.294C356.813 241.734 352.121 222.617 344.975 221.14C340.297 220.16 342.275 226.008 344.195 230.193C341.683 225.962 336.732 219.615 328.907 217.749C316.867 214.918 308.147 227.704 300.755 233.988C293.364 240.272 304.047 235.45 312.305 232.883C320.562 230.317 320.967 235.45 320.967 235.45C320.967 235.45 310.182 234.423 310.067 239.774C309.951 245.125 333.166 232.915 339.157 248.469C345.148 264.024 345.899 282.611 345.899 282.611L353.536 279.749C354.526 277.702 355.343 275.562 355.976 273.356C356.596 270.712 364.898 268.146 371.221 264.708C377.544 261.271 367.669 259.824 369.07 259.186C370.47 258.549 384.243 258.829 390.725 257.102C397.207 255.375 378.786 248.92 378.786 248.92C378.786 248.92 411.99 255.718 411.99 246.929C411.99 238.141 394.146 227.859 394.146 227.859Z" fill="#83F4BA"/>
<path d="M338.68 246.415C331.62 240.442 332.631 248.593 332.631 248.593C327.351 245.782 321.437 244.649 315.581 245.326C305.476 246.415 308.522 248.593 308.522 248.593C308.522 248.593 304.479 246.96 297.42 256.744C290.36 266.527 291.371 273.605 293.883 271.427C296.395 269.249 312.059 260.01 312.059 260.01C312.059 260.01 299.946 269.249 306.501 271.971C311.423 274.009 321.731 269.327 326.582 266.854C323.695 268.549 320.244 271.24 325.687 271.971C333.757 273.06 342.838 284.415 342.838 284.415L345.364 279.515C345.364 279.515 345.797 252.404 338.68 246.415Z" fill="#83F4BA"/>
<path d="M359.771 314.39H334.334L331.158 277.961H362.948L359.771 314.39Z" fill="#473C4B" stroke="#473C4B" stroke-linecap="round" stroke-linejoin="round"/>
<path d="M319.768 429.711H315.74L313.719 336.741H321.789L319.768 429.711Z" fill="#473C4B" stroke="#473C4B" stroke-linecap="round" stroke-linejoin="round"/>
<path d="M504.977 429.711H500.935L498.913 336.741H506.998L504.977 429.711Z" fill="#473C4B" stroke="#473C4B" stroke-linecap="round" stroke-linejoin="round"/>
<path d="M510.014 317.158H310.687V343.803H348.352L350.807 344.348C362.919 347.07 371.494 355.236 390.681 354.131C401.176 353.54 407.11 350.025 410.358 346.945C413.606 350.056 419.54 353.54 430.035 354.131C449.207 355.22 457.797 347.07 469.909 344.348L472.363 343.803H510.014V317.158Z" fill="white" stroke="#473C4B" stroke-linecap="round" stroke-linejoin="round"/>
<path d="M510.014 317.158H310.687V323.442H510.014V317.158Z" fill="#473C4B" stroke="#473C4B" stroke-linecap="round" stroke-linejoin="round"/>
<path d="M516.237 313.238H304.119V319.071H516.237V313.238Z" fill="white" stroke="#473C4B" stroke-linecap="round" stroke-linejoin="round"/>
<path opacity="0.28" d="M159.478 501.603C225.153 501.603 278.393 485.063 278.393 464.661C278.393 444.258 225.153 427.719 159.478 427.719C93.803 427.719 40.563 444.258 40.563 464.661C40.563 485.063 93.803 501.603 159.478 501.603Z" fill="#473C4B"/>
<path d="M305.866 406.332C305.866 406.332 298.864 394.728 276.805 397.637C254.745 400.546 207.393 410.36 188.539 413.86C169.684 417.36 140.667 439.914 134.214 454.442C127.76 468.97 132.597 477.634 173.496 479.952C214.395 482.269 270.828 446.323 288.643 435.248C306.458 424.173 304.783 412.118 305.866 406.332Z" fill="#473C4B" stroke="#473C4B" stroke-linecap="round" stroke-linejoin="round"/>
<path d="M195.453 243.196C195.453 243.196 184.02 266.917 179.79 271.49C177.538 274.148 174.785 276.257 171.715 277.673C168.645 279.09 165.328 279.782 161.989 279.703C153.529 279.703 123.4 275.379 113.237 296.377C103.073 317.376 100.576 379.641 101.009 383.296C101.442 386.952 75.167 411.139 76.0188 440.848C76.8706 470.558 106.09 487.388 147.177 481.01C188.264 474.633 198.846 441.75 198.846 422.587C198.846 403.424 207.739 392.925 217.484 372.813C227.229 352.701 241.622 331.749 236.959 313.939C232.296 296.129 214.524 287.916 208.591 285.629C202.657 283.343 219.606 262.297 215.362 251.86C211.117 241.423 202.657 237.255 195.453 243.196Z" fill="#7A4AE6"/>
<path opacity="0.13" d="M194.082 375.051C176.051 382.253 161.152 375.533 141.33 369.296C121.509 363.059 129.969 347.706 129.969 331.887C129.969 316.068 112.645 337.642 112.645 337.642L102.958 348.624C101.755 360.137 101.114 371.71 101.038 383.295C101.413 386.562 80.4654 406.238 76.6396 431.514C86.3716 432.735 96.163 433.322 105.961 433.272C146.701 433.272 195.367 410.733 200.117 400.172C204.578 390.232 211.868 365.952 212.72 363.043C212.258 364.256 209.616 368.845 194.082 375.051Z" fill="#473C4B"/>
<path d="M195.453 243.196C195.453 243.196 184.02 266.917 179.79 271.49C177.538 274.148 174.785 276.257 171.715 277.673C168.645 279.09 165.328 279.782 161.989 279.703C153.529 279.703 123.4 275.379 113.237 296.377C103.073 317.376 100.576 379.641 101.009 383.296C101.442 386.952 75.167 411.139 76.0188 440.848C76.8706 470.558 106.09 487.388 147.177 481.01C188.264 474.633 198.846 441.75 198.846 422.587C198.846 403.424 207.739 392.925 217.484 372.813C227.229 352.701 241.622 331.749 236.959 313.939C232.296 296.129 214.524 287.916 208.591 285.629C202.657 283.343 219.606 262.297 215.362 251.86C211.117 241.423 202.657 237.255 195.453 243.196Z" stroke="#473C4B" stroke-linecap="round" stroke-linejoin="round"/>
<path d="M223.836 335.838C223.836 335.838 214.091 342.682 213.24 349.059C212.388 355.437 214.51 369.14 206.469 376.451C198.428 383.762 192.494 383.746 192.494 383.746" stroke="#473C4B" stroke-linecap="round" stroke-linejoin="round"/>
<path d="M120.282 358.439C120.282 358.439 120.282 374.896 138.501 376.156" stroke="#473C4B" stroke-linecap="round" stroke-linejoin="round"/>
<path d="M176.123 334.999C178.787 341.777 180.945 348.773 182.576 355.92" stroke="#473C4B" stroke-linecap="round" stroke-linejoin="round"/>
<path d="M199.467 414.28C201.618 399.939 209.241 389.797 217.484 372.796C218.783 370.105 220.184 367.399 221.599 364.677C213.889 367.928 212.619 365.812 212.619 365.812C208.966 374.989 204.087 378.489 204.087 378.489L190.82 417.827L199.467 414.28Z" fill="white" stroke="#473C4B" stroke-linecap="round" stroke-linejoin="round"/>
<path d="M81.028 416.224C77.6338 423.895 75.9199 432.303 76.0184 440.8C76.8557 470.463 106.09 487.339 147.177 480.962C188.264 474.585 198.846 441.702 198.846 422.539C198.819 416.652 199.763 410.806 201.632 405.273C124.338 423.892 93.2558 420.797 81.028 416.224Z" fill="#473C4B" stroke="#473C4B" stroke-linecap="round" stroke-linejoin="round"/>
<path d="M169.67 381.833L159.088 356.946C159.008 356.76 158.895 356.593 158.756 356.454C158.616 356.315 158.452 356.207 158.274 356.136C157.914 355.993 157.516 356.01 157.167 356.184C156.819 356.357 156.549 356.672 156.416 357.06C156.283 357.448 156.299 357.877 156.46 358.252L167.057 383.046L169.67 381.833Z" fill="white" stroke="#473C4B" stroke-linecap="round" stroke-linejoin="round"/>
<path d="M167.057 383.124L169.612 385.395L169.67 381.833L167.057 383.124Z" stroke="#473C4B" stroke-linecap="round" stroke-linejoin="round"/>
<path d="M157.167 356.262C156.995 356.347 156.839 356.469 156.71 356.619C156.581 356.769 156.48 356.946 156.415 357.138C156.349 357.33 156.319 357.534 156.327 357.739C156.335 357.944 156.38 358.145 156.46 358.331L157.528 360.835L160.156 359.544L159.087 357.024C159.008 356.838 158.895 356.67 158.756 356.531C158.616 356.392 158.453 356.284 158.274 356.213C158.096 356.142 157.906 356.11 157.716 356.118C157.526 356.127 157.34 356.176 157.167 356.262Z" fill="white" stroke="#473C4B" stroke-linecap="round" stroke-linejoin="round"/>
<path d="M154.367 282.44C148.858 280.394 142.993 279.701 137.203 280.411C131.413 281.122 125.844 283.218 120.903 286.546C103.968 297.948 88.911 331.841 82.5589 343.709C76.2067 355.577 55.1292 406.332 59.9655 407.483C62.4774 408.09 141.663 391.928 148.448 391.509C155.233 391.089 164.53 386.484 164.53 386.484C164.53 386.484 168.775 391.509 170.897 389.222C173.019 386.935 167.071 375.083 164.112 371.428C161.152 367.772 157.341 366.403 155.219 368.239C153.096 370.074 139.974 383.296 139.974 383.296L89.0121 381.398L131.081 322.135" fill="#7A4AE6"/>
<path opacity="0.13" d="M161.109 375.534C154.641 369.701 150.022 378.816 144.796 383.42C139.569 388.024 130.561 387.511 103.045 387.511C75.5283 387.511 74.561 388.537 72.1934 390.062C69.8258 391.586 76.9431 368.596 94.4981 347.116C112.053 325.635 122.967 307.763 122.967 293.95C122.967 289.501 121.524 287.728 119.604 287.448C103.175 299.643 88.709 332.152 82.5156 343.709C76.1635 355.577 55.086 406.332 59.9222 407.483C62.4342 408.09 141.619 391.928 148.405 391.508C155.19 391.088 164.487 386.484 164.487 386.484C165.094 387.172 165.75 387.807 166.451 388.382C167.129 383.918 165.252 379.251 161.109 375.534Z" fill="#473C4B"/>
<path d="M154.367 282.44C148.858 280.394 142.993 279.701 137.203 280.411C131.413 281.122 125.844 283.218 120.903 286.546C103.968 297.948 88.911 331.841 82.5589 343.709C76.2067 355.577 55.1292 406.332 59.9655 407.483C62.4774 408.09 141.663 391.928 148.448 391.509C155.233 391.089 164.53 386.484 164.53 386.484C164.53 386.484 168.775 391.509 170.897 389.222C173.019 386.935 167.071 375.083 164.112 371.428C161.152 367.772 157.341 366.403 155.219 368.239C153.096 370.074 139.974 383.296 139.974 383.296L89.0121 381.398L131.081 322.135" stroke="#473C4B" stroke-linecap="round" stroke-linejoin="round"/>
<path d="M164.53 386.485C164.53 386.485 168.775 391.509 170.897 389.223C173.019 386.936 167.071 375.083 164.112 371.428C161.152 367.773 157.341 366.404 155.219 368.239C153.096 370.075 139.973 383.296 139.973 383.296L89.012 381.399L101.76 363.433C93.3685 361.359 85.5244 357.259 78.8197 351.44C70.4319 369.764 55.8509 406.504 59.9654 407.437C62.4773 408.044 141.663 391.882 148.448 391.462C155.233 391.042 164.53 386.485 164.53 386.485Z" fill="white"/>
<path d="M161.109 375.535C154.641 369.702 150.021 378.817 144.795 383.421C139.569 388.025 130.561 387.512 103.044 387.512C75.5279 387.512 74.5607 388.538 72.1931 390.063C70.2008 391.354 74.9216 375.27 86.9474 357.398C84.0599 355.71 81.3245 353.737 78.7762 351.503C70.3885 369.826 55.8074 406.566 59.9219 407.499C62.4339 408.106 141.619 391.945 148.404 391.525C155.19 391.105 164.487 386.501 164.487 386.501C165.093 387.189 165.75 387.823 166.45 388.398C167.129 383.919 165.252 379.252 161.109 375.535Z" fill="#7A4AE6"/>
<path opacity="0.7" d="M161.109 375.535C154.641 369.702 150.021 378.817 144.795 383.421C139.569 388.025 130.561 387.512 103.044 387.512C75.5279 387.512 74.5607 388.538 72.1931 390.063C70.2008 391.354 74.9216 375.27 86.9474 357.398C84.0599 355.71 81.3245 353.737 78.7762 351.503C70.3885 369.826 55.8074 406.566 59.9219 407.499C62.4339 408.106 141.619 391.945 148.404 391.525C155.19 391.105 164.487 386.501 164.487 386.501C165.093 387.189 165.75 387.823 166.45 388.398C167.129 383.919 165.252 379.252 161.109 375.535Z" fill="white"/>
<path d="M164.53 386.485C164.53 386.485 168.775 391.509 170.897 389.223C173.019 386.936 167.071 375.083 164.112 371.428C161.152 367.773 157.341 366.404 155.219 368.239C153.096 370.075 139.973 383.296 139.973 383.296L89.012 381.399L101.76 363.433C93.3685 361.359 85.5244 357.259 78.8197 351.44C70.4319 369.764 55.8509 406.504 59.9654 407.437C62.4773 408.044 141.663 391.882 148.448 391.462C155.233 391.042 164.53 386.485 164.53 386.485Z" stroke="#473C4B" stroke-linecap="round" stroke-linejoin="round"/>
<path d="M161.989 383.295L127.688 420.253L181.897 427.563L211.969 399.721L161.989 383.295Z" fill="white"/>
<path opacity="0.36" d="M161.989 383.296L127.688 420.254L181.897 427.564L211.969 399.722L161.989 383.296Z" fill="#473C4B"/>
<path d="M161.989 383.295L127.688 420.253L181.897 427.563L211.969 399.721L161.989 383.295Z" stroke="#473C4B" stroke-linecap="round" stroke-linejoin="round"/>
<path d="M161.152 375.533L161.989 383.295L127.688 420.253L125.999 416.146L161.152 375.533Z" fill="white" stroke="#473C4B" stroke-linecap="round" stroke-linejoin="round"/>
<path d="M161.989 383.295L211.969 399.721L214.525 394.245L161.152 375.533L161.989 383.295Z" fill="white" stroke="#473C4B" stroke-linecap="round" stroke-linejoin="round"/>
<path d="M199.135 415.338C199.135 415.338 190.589 416.442 190.82 417.827C191.051 419.211 198.038 418.931 199.583 418.931C201.127 418.931 203.625 415.027 199.135 415.338Z" fill="white" stroke="#473C4B" stroke-linecap="round" stroke-linejoin="round"/>
<path d="M202.152 411.713C202.152 411.713 191.382 412.942 191.657 414.467C191.931 415.991 200.737 415.68 202.715 415.68C204.693 415.68 207.811 411.402 202.152 411.713Z" fill="white" stroke="#473C4B" stroke-linecap="round" stroke-linejoin="round"/>
<path d="M205.862 408.042C205.862 408.042 195.093 409.271 195.367 410.795C195.641 412.319 204.448 412.024 206.425 412.024C208.403 412.024 211.507 407.746 205.862 408.042Z" fill="white" stroke="#473C4B" stroke-linecap="round" stroke-linejoin="round"/>
<path d="M206.397 404.388C206.397 404.388 195.627 405.601 195.916 407.141C196.205 408.681 204.982 408.354 206.96 408.354C208.938 408.354 212.07 404.139 206.397 404.388Z" fill="white" stroke="#473C4B" stroke-linecap="round" stroke-linejoin="round"/>
<path d="M78.3291 446.914C78.3291 446.914 73.4928 434.159 88.5647 423.147C103.637 412.134 160.041 405.166 173.496 410.967C186.951 416.769 238.071 461.986 238.071 461.986L231.603 468.939C231.603 468.939 192.321 470.09 175.647 465.455C158.972 460.82 152.447 458.58 152.447 458.58C152.447 458.58 138.458 480.03 119.084 480.605" fill="#473C4B"/>
<path d="M78.3291 446.914C78.3291 446.914 73.4928 434.159 88.5647 423.147C103.637 412.134 160.041 405.166 173.496 410.967C186.951 416.769 238.071 461.986 238.071 461.986L231.603 468.939C231.603 468.939 192.321 470.09 175.647 465.455C158.972 460.82 152.447 458.58 152.447 458.58C152.447 458.58 138.458 480.03 119.084 480.605" stroke="#473C4B" stroke-linecap="round" stroke-linejoin="round"/>
<path d="M232.151 472.998C243.503 477.944 255.461 481.088 267.651 482.331C287.025 484.073 292.944 467.258 292.944 462.11C292.944 456.961 284.874 458.05 276.804 459.201C268.734 460.352 248.826 461.519 243.975 460.943C239.124 460.368 226.232 462.561 232.151 472.998Z" fill="white" stroke="#473C4B" stroke-linecap="round" stroke-linejoin="round"/>
<path d="M278.956 404.59C278.956 404.59 255.857 403.999 243.442 417.345C231.026 430.691 203.625 467.773 197.172 474.741C190.719 481.71 164.892 479.952 159.507 479.408C154.122 478.863 148.737 474.741 141.215 478.241C133.694 481.741 123.992 487.574 122.375 495.056C120.759 502.537 119.69 505.493 122.91 506.068C126.129 506.644 143.366 503.688 152.447 503.688C161.528 503.688 183.659 501.946 196.58 497.902C209.501 493.858 246.618 470.059 261.141 460.789C275.664 451.518 301.564 434.704 305.808 419.056C310.052 403.408 298.806 399.924 292.353 401.075" fill="#473C4B"/>
<path d="M278.956 404.59C278.956 404.59 255.857 403.999 243.442 417.345C231.026 430.691 203.625 467.773 197.172 474.741C190.719 481.71 164.892 479.952 159.507 479.408C154.122 478.863 148.737 474.741 141.215 478.241C133.694 481.741 123.992 487.574 122.375 495.056C120.759 502.537 119.69 505.493 122.91 506.068C126.129 506.644 143.366 503.688 152.447 503.688C161.528 503.688 183.659 501.946 196.58 497.902C209.501 493.858 246.618 470.059 261.141 460.789C275.664 451.518 301.564 434.704 305.808 419.056C310.052 403.408 298.806 399.924 292.353 401.075" stroke="#473C4B" stroke-linecap="round" stroke-linejoin="round"/>
<path d="M204.058 471.117C204.058 471.117 235.096 421.342 250.977 412.009C266.857 402.677 284.181 404.232 284.181 404.232" stroke="white" stroke-linecap="round" stroke-linejoin="round"/>
<path d="M192.105 477.666C182.172 481.103 163.924 479.844 159.507 479.377C154.122 478.801 148.737 474.711 141.215 478.21C133.694 481.71 123.992 487.543 122.375 495.025C120.759 502.507 119.69 505.462 122.91 506.037C126.129 506.613 143.366 503.689 152.447 503.689C161.528 503.689 183.659 501.947 196.58 497.902C200.231 496.626 203.792 495.067 207.234 493.236C203.539 485.972 196.797 480.683 192.105 477.666Z" fill="white" stroke="#473C4B" stroke-linecap="round" stroke-linejoin="round"/>
<path d="M175.646 479.376C175.646 479.376 185.333 484.042 187.484 489.222C189.635 494.401 191.252 499.083 191.252 500.825C191.252 502.568 209.009 497.932 214.351 492.13C219.692 486.329 205.689 470.681 200.896 470.681C196.103 470.681 194.977 472.423 189.058 474.149C183.139 475.876 174.563 474.74 175.646 479.376Z" fill="white" stroke="#473C4B" stroke-linecap="round" stroke-linejoin="round"/>
<path d="M152.447 458.58C152.447 458.58 140.609 452.202 140.075 444.083" stroke="white" stroke-linecap="round" stroke-linejoin="round"/>
<path d="M130.431 477.339C139.82 473.029 148.574 467.264 156.417 460.229C156.417 460.229 179.516 468.006 194.674 468.006" stroke="white" stroke-linecap="round" stroke-linejoin="round"/>
<path d="M216.473 289.409C213.931 287.954 211.297 286.691 208.591 285.629C202.658 283.358 219.606 262.297 215.362 251.86C211.117 241.423 202.658 237.255 195.454 243.196C195.454 243.196 184.02 266.917 179.79 271.49C177.539 274.148 174.785 276.257 171.715 277.673C168.645 279.09 165.329 279.782 161.989 279.703C160.386 279.724 158.785 279.854 157.196 280.092C156.388 290.202 157.038 314.421 180.627 321.234C202.845 327.642 212.345 307.888 216.473 289.409Z" fill="white"/>
<path d="M195.454 243.196C195.454 243.196 184.02 266.916 179.79 271.489C177.539 274.148 174.785 276.256 171.715 277.672C168.645 279.089 165.329 279.781 161.989 279.702C160.386 279.723 158.785 279.853 157.196 280.091C157.095 281.366 157.023 282.875 157.009 284.555C159.376 291.166 163.938 299.783 171.893 301.665C185.175 304.776 194.66 294.51 196.565 290.933C198.269 287.697 205.805 254.83 203.784 240.598C202.305 240.409 200.805 240.542 199.375 240.988C197.944 241.434 196.611 242.185 195.454 243.196Z" fill="#7A4AE6"/>
<path opacity="0.7" d="M195.454 243.196C195.454 243.196 184.02 266.916 179.79 271.489C177.539 274.148 174.785 276.256 171.715 277.672C168.645 279.089 165.329 279.781 161.989 279.702C160.386 279.723 158.785 279.853 157.196 280.091C157.095 281.366 157.023 282.875 157.009 284.555C159.376 291.166 163.938 299.783 171.893 301.665C185.175 304.776 194.66 294.51 196.565 290.933C198.269 287.697 205.805 254.83 203.784 240.598C202.305 240.409 200.805 240.542 199.375 240.988C197.944 241.434 196.611 242.185 195.454 243.196Z" fill="white"/>
<path d="M216.473 289.409C213.931 287.954 211.297 286.691 208.591 285.629C202.658 283.358 219.606 262.297 215.362 251.86C211.117 241.423 202.658 237.255 195.454 243.196C195.454 243.196 184.02 266.917 179.79 271.49C177.539 274.148 174.785 276.257 171.715 277.673C168.645 279.09 165.329 279.782 161.989 279.703C160.386 279.724 158.785 279.854 157.196 280.092C156.388 290.202 157.038 314.421 180.627 321.234C202.845 327.642 212.345 307.888 216.473 289.409Z" stroke="#473C4B" stroke-linecap="round" stroke-linejoin="round"/>
<path d="M195.179 294.401C195.179 294.401 189.953 297.046 188.25 305.29" stroke="#473C4B" stroke-linecap="round" stroke-linejoin="round"/>
<path d="M208.158 214.902C208.158 214.902 210.699 205.771 204.78 202.583C198.861 199.394 175.978 208.96 170.897 224.934C165.815 240.909 187.412 247.302 199.265 238.171C211.117 229.041 209.01 216.722 209.01 216.722L208.158 214.902Z" fill="#473C4B" stroke="#473C4B" stroke-linecap="round" stroke-linejoin="round"/>
<path d="M170.897 224.935C170.897 224.935 166.118 238.747 174.939 245.715C183.76 252.684 196.68 239.385 196.68 239.385" stroke="#473C4B" stroke-linecap="round" stroke-linejoin="round"/>
<path d="M195.887 258.704C195.887 258.704 186.142 247.302 192.869 226.817C199.597 206.331 217.412 200.825 238.663 202.069C265.371 203.625 267.839 233.661 267.002 240.956C266.473 245.432 265.624 249.858 264.461 254.193C264.461 254.193 275.043 268.332 269.11 277.011C263.176 285.691 242.431 281.569 234.375 269.701C226.319 257.833 202.196 261.488 200.925 262.406C199.655 263.323 195.887 258.704 195.887 258.704Z" fill="#473C4B" stroke="#473C4B" stroke-linecap="round" stroke-linejoin="round"/>
<path d="M250.977 277.928C249.765 277.383 248.684 276.548 247.815 275.486" stroke="white" stroke-linecap="round" stroke-linejoin="round"/>
<path d="M244.841 252.685C244.841 252.685 265.399 270.417 258.946 276.11C258.328 276.658 257.66 277.137 256.953 277.541" stroke="white" stroke-linecap="round" stroke-linejoin="round"/>
<path d="M241.954 247.613C248.842 247.419 255.678 248.936 261.934 252.046" stroke="white" stroke-linecap="round" stroke-linejoin="round"/>
<path d="M241.94 239.385L237.234 215.322" stroke="white" stroke-linecap="round" stroke-linejoin="round"/>
<path d="M201.676 239.136C200.882 238.841 200.088 238.514 199.265 238.172" stroke="white" stroke-linecap="round" stroke-linejoin="round"/>
<path d="M240.179 236.228C240.179 236.228 228.629 245.747 209.14 241.376" stroke="white" stroke-linecap="round" stroke-linejoin="round"/>
<path d="M237.825 226.723C237.825 226.723 230.78 230.518 219.057 230.518" stroke="white" stroke-linecap="round" stroke-linejoin="round"/>
<path d="M191.642 259.622C191.642 259.622 190.372 272.392 192.494 281.071C194.616 289.751 195.035 303.439 202.6 304.808C210.164 306.177 235.212 291.104 239.875 285.629C243.157 281.952 244.979 277.042 244.957 271.941C244.957 269.203 240.727 250.04 240.727 250.04C233.593 251.782 226.358 253.003 219.072 253.695C211.185 254.516 203.228 253.421 195.785 250.491C195.785 250.491 189.982 254.598 191.642 259.622Z" fill="white"/>
<path d="M195.886 250.49C195.886 250.49 189.953 254.597 191.642 259.621C191.642 259.621 190.372 272.391 192.494 281.071C194.226 288.148 194.818 298.569 199.135 302.847C195.569 294.432 193.735 274.024 202.729 265.252C212.691 255.545 237.378 250.941 237.378 250.941V250.786C233.725 251.579 227.373 252.777 219.216 253.632C211.319 254.48 203.347 253.406 195.886 250.49Z" fill="#7A4AE6"/>
<path opacity="0.7" d="M195.886 250.49C195.886 250.49 189.953 254.597 191.642 259.621C191.642 259.621 190.372 272.391 192.494 281.071C194.226 288.148 194.818 298.569 199.135 302.847C195.569 294.432 193.735 274.024 202.729 265.252C212.691 255.545 237.378 250.941 237.378 250.941V250.786C233.725 251.579 227.373 252.777 219.216 253.632C211.319 254.48 203.347 253.406 195.886 250.49Z" fill="white"/>
<path d="M191.642 259.622C191.642 259.622 190.372 272.392 192.494 281.071C194.616 289.751 195.035 303.439 202.6 304.808C210.164 306.177 235.212 291.104 239.875 285.629C243.157 281.952 244.979 277.042 244.957 271.941C244.957 269.203 240.727 250.04 240.727 250.04C233.593 251.782 226.358 253.003 219.072 253.695C211.185 254.516 203.228 253.421 195.785 250.491C195.785 250.491 189.982 254.598 191.642 259.622Z" stroke="#473C4B" stroke-linecap="round" stroke-linejoin="round"/>
<path d="M196.724 255.064C196.724 255.064 197.157 243.646 192.061 243.646C186.965 243.646 183.601 262.312 193.346 264.645" fill="white"/>
<path d="M196.724 255.063C196.724 255.063 197.157 243.646 192.061 243.646C186.965 243.646 183.601 262.311 193.346 264.644" fill="#7A4AE6"/>
<path opacity="0.7" d="M196.724 255.063C196.724 255.063 197.157 243.646 192.061 243.646C186.965 243.646 183.601 262.311 193.346 264.644" fill="white"/>
<path d="M196.724 255.064C196.724 255.064 197.157 243.646 192.061 243.646C186.965 243.646 183.601 262.312 193.346 264.645" stroke="#473C4B" stroke-linecap="round" stroke-linejoin="round"/>
<path d="M228.961 275.146C228.961 275.146 218.856 292.473 216.676 292.473C214.496 292.473 213.283 288.834 213.283 288.834" stroke="#473C4B" stroke-linecap="round" stroke-linejoin="round"/>
<path d="M209.861 268.285C210.052 270.31 210.941 272.185 212.352 273.538C213.763 274.891 215.594 275.626 217.483 275.596" stroke="#473C4B" stroke-linecap="round" stroke-linejoin="round"/>
<path d="M228.066 282.439C228.066 282.439 228.499 288.366 235.688 286.546" stroke="#473C4B" stroke-linecap="round" stroke-linejoin="round"/>
<path d="M225.106 269.203C225.106 269.203 222.147 260.99 215.362 260.539" stroke="#473C4B" stroke-width="1.5" stroke-linecap="round" stroke-linejoin="round"/>
<path d="M239.933 278.785C236.959 273.31 231.04 274.678 231.04 274.678" stroke="#473C4B" stroke-width="1.5" stroke-linecap="round" stroke-linejoin="round"/>
<path d="M204.809 290.793C204.914 291.997 205.379 293.132 206.134 294.026C206.889 294.921 207.893 295.528 208.996 295.755" stroke="#473C4B" stroke-linecap="round" stroke-linejoin="round"/>
<path d="M234.895 297.015C234.895 297.015 236.064 303.968 243.109 290.046C250.155 276.125 240.785 250.04 240.785 250.04" stroke="#473C4B" stroke-linecap="round" stroke-linejoin="round"/>
<path opacity="0.13" d="M212.69 363.107C212.728 363.016 212.757 362.923 212.778 362.826L212.69 363.107Z" fill="#473C4B"/>
</svg>
