<svg width="622" height="591" viewBox="0 0 622 591" fill="none" xmlns="http://www.w3.org/2000/svg">
<g opacity="0.7" filter="url(#filter0_f_411_997)">
<path d="M537.882 346.808C522.602 389.487 491.399 435.684 447.488 449.366C381.099 470.039 373.215 525.837 254.378 520.663C237.019 519.996 219.781 517.361 202.968 512.805C194.76 510.542 186.698 507.74 178.829 504.416C109.4 475.072 73.1864 410.497 70.1885 342.933C66.2258 254.058 125.644 211.704 164.264 186.906C202.885 162.108 249.43 66.0456 366.286 70.1262C384.131 70.6849 401.855 73.387 419.107 78.1792C458.432 89.2846 498.401 113.844 521.637 149.747C523.38 152.453 525.047 155.21 526.637 158.017C557.737 213.057 558.701 288.619 537.882 346.808Z" fill="#83F4BA"/>
</g>
<g opacity="0.3">
<path d="M60.2169 321.488L62.4391 328.605H69.6249L63.8098 333.006L66.032 340.123L60.2169 335.721L54.4017 340.123L56.624 333.006L50.8088 328.605H57.9947L60.2169 321.488Z" stroke="#473C4B" stroke-miterlimit="10"/>
<path d="M83.4464 321.488L85.6686 328.605H92.8544L87.0393 333.006L89.2615 340.123L83.4464 335.721L77.6312 340.123L79.8535 333.006L74.0383 328.605H81.2242L83.4464 321.488Z" stroke="#473C4B" stroke-miterlimit="10"/>
<path d="M106.675 321.488L108.898 328.605H116.083L110.268 333.006L112.49 340.123L106.675 335.721L100.86 340.123L103.082 333.006L97.2673 328.605H104.453L106.675 321.488Z" stroke="#473C4B" stroke-miterlimit="10"/>
<path d="M129.905 321.488L132.127 328.605H139.313L133.498 333.006L135.72 340.123L129.905 335.721L124.09 340.123L126.312 333.006L120.497 328.605H127.683L129.905 321.488Z" stroke="#473C4B" stroke-miterlimit="10"/>
<path d="M153.144 321.488L155.356 328.605H162.542L156.727 333.006L158.949 340.123L153.144 335.721L147.329 340.123L149.551 333.006L143.736 328.605H150.922L153.144 321.488Z" stroke="#473C4B" stroke-miterlimit="10"/>
<path d="M128.69 314.621H160.881C162.946 314.621 164.927 315.476 166.388 316.997C167.848 318.518 168.669 320.581 168.669 322.733V341.118C168.669 343.27 167.848 345.333 166.388 346.854C164.927 348.375 162.946 349.23 160.881 349.23H99.3027" stroke="#473C4B" stroke-miterlimit="10"/>
<path d="M112.916 314.621H122.958" stroke="#473C4B" stroke-miterlimit="10"/>
<path d="M93.903 349.23H50.7881C48.7226 349.23 46.7416 348.375 45.2811 346.854C43.8205 345.333 43 343.27 43 341.118V322.733C43 320.581 43.8205 318.518 45.2811 316.997C46.7416 315.476 48.7226 314.621 50.7881 314.621H105.388" stroke="#473C4B" stroke-miterlimit="10"/>
</g>
<g opacity="0.3">
<path d="M486.436 214.66L487.402 222.079L494.473 223.42L487.994 226.665L488.959 234.084L483.996 228.666L477.516 231.921L480.922 225.324L475.958 219.916L483.03 221.257L486.436 214.66Z" stroke="#473C4B" stroke-miterlimit="10"/>
<path d="M509.292 218.984L510.257 226.404L517.329 227.745L510.849 230.989L511.815 238.409L506.851 232.99L500.372 236.235L503.778 229.648L498.814 224.241L505.886 225.582L509.292 218.984Z" stroke="#473C4B" stroke-miterlimit="10"/>
<path d="M532.147 223.312L533.113 230.732L540.185 232.073L533.705 235.317L534.671 242.737L529.707 237.318L523.238 240.563L526.644 233.976L521.67 228.569L528.741 229.899L532.147 223.312Z" stroke="#473C4B" stroke-miterlimit="10"/>
<path d="M555.013 227.637L555.968 235.056L563.04 236.397L556.571 239.642L557.526 247.05L552.562 241.642L546.093 244.887L549.499 238.301L544.535 232.893L551.597 234.223L555.013 227.637Z" stroke="#473C4B" stroke-miterlimit="10"/>
<path d="M577.868 231.965L578.834 239.384L585.895 240.714L579.426 243.97L580.392 251.378L575.418 245.971L568.948 249.215L572.354 242.629L567.391 237.221L574.462 238.551L577.868 231.965Z" stroke="#473C4B" stroke-miterlimit="10"/>
<path d="M574.494 224.34L586.643 226.643C588.668 227.038 590.461 228.251 591.628 230.019C592.796 231.786 593.244 233.964 592.874 236.074L589.758 254.168C589.38 256.277 588.215 258.144 586.518 259.36C584.82 260.576 582.73 261.043 580.703 260.657L500.631 245.516" stroke="#473C4B" stroke-miterlimit="10"/>
<path d="M492.459 244.001L472.407 240.204C470.382 239.81 468.59 238.597 467.422 236.829C466.254 235.062 465.806 232.884 466.177 230.774L469.292 212.68C469.67 210.571 470.836 208.704 472.533 207.488C474.23 206.271 476.32 205.805 478.347 206.191L569.447 223.387" stroke="#473C4B" stroke-miterlimit="10"/>
</g>
<path d="M503.211 346.24C503.534 345.771 503.765 345.24 503.891 344.677C504.016 344.114 504.034 343.53 503.942 342.96C503.631 341.761 502.879 340.739 501.851 340.117L501.684 340.019L490.235 342.085C490.5 339.909 490.546 337.71 490.371 335.525C490.047 333.556 488.761 330.232 487.036 329.336C486.416 329.054 485.737 328.946 485.065 329.025C484.394 329.104 483.754 329.366 483.209 329.784C482.85 330.087 482.589 330.498 482.46 330.961C482.331 331.425 482.34 331.918 482.488 332.376C483.063 334.562 483.042 338.695 481.264 343.561C479.686 347.858 477.563 347.989 477.438 347.989H477.323L477.176 348.066C476.986 347.924 476.771 347.823 476.543 347.768C476.315 347.714 476.079 347.707 475.848 347.749L467.484 349.258C467.25 349.3 467.027 349.39 466.827 349.523C466.628 349.656 466.455 349.83 466.32 350.033C466.185 350.237 466.089 350.466 466.04 350.709C465.99 350.951 465.987 351.201 466.031 351.445L468.509 366.446C468.548 366.691 468.633 366.925 468.76 367.135C468.887 367.345 469.053 367.526 469.247 367.668C469.442 367.809 469.662 367.909 469.895 367.96C470.127 368.011 470.367 368.013 470.6 367.966L478.964 366.457C479.197 366.415 479.42 366.325 479.62 366.192C479.819 366.058 479.991 365.885 480.125 365.681C480.26 365.477 480.354 365.248 480.402 365.005C480.451 364.763 480.452 364.513 480.407 364.27L480.323 363.756L480.877 363.822C482.425 364.041 485.06 364.161 485.164 364.161L500.848 361.329H500.921C501.504 361.081 502.025 360.698 502.447 360.21C502.869 359.721 503.18 359.14 503.357 358.508C503.485 357.758 503.359 356.985 503.001 356.321C503.445 355.485 503.678 354.544 503.678 353.588C503.678 352.631 503.445 351.69 503.001 350.854C503.482 350.199 503.76 349.406 503.798 348.581C503.835 347.757 503.63 346.94 503.211 346.24ZM502.06 350.395L501.799 350.712L502.029 351.073C502.46 351.802 502.689 352.643 502.689 353.5C502.689 354.358 502.46 355.198 502.029 355.928L501.82 356.267L502.05 356.584C502.214 356.821 502.331 357.09 502.394 357.376C502.457 357.661 502.465 357.957 502.416 358.246C502.274 358.697 502.039 359.111 501.728 359.459C501.418 359.806 501.039 360.079 500.618 360.258L485.175 363.046C484.767 363.046 482.414 362.904 480.992 362.718L480.114 362.608L477.919 349.291C477.919 349.214 477.919 349.149 477.919 349.083C478.797 348.886 480.857 347.989 482.32 343.988C484.192 338.87 484.202 334.497 483.575 332.102C483.487 331.855 483.475 331.585 483.541 331.33C483.606 331.076 483.746 330.848 483.941 330.681C484.325 330.401 484.771 330.226 485.237 330.172C485.703 330.119 486.174 330.188 486.607 330.375C487.778 330.976 489.033 333.655 489.367 335.732C489.5 338.046 489.423 340.367 489.137 342.665L489.043 343.419L501.527 341.167C501.912 341.396 502.24 341.715 502.488 342.099C502.735 342.483 502.895 342.921 502.955 343.38C503.014 343.839 502.972 344.306 502.832 344.745C502.691 345.184 502.456 345.583 502.144 345.912L501.893 346.262L502.165 346.601C502.575 347.146 502.789 347.824 502.77 348.518C502.751 349.211 502.5 349.875 502.06 350.395Z" fill="#473C4B"/>
<path d="M529.211 132.798C529.534 132.341 529.765 131.823 529.891 131.275C530.016 130.726 530.034 130.157 529.942 129.602C529.631 128.434 528.879 127.438 527.851 126.832L527.684 126.736L516.235 128.75C516.5 126.63 516.546 124.487 516.371 122.357C516.047 120.44 514.761 117.201 513.036 116.327C512.416 116.052 511.737 115.948 511.065 116.024C510.394 116.101 509.754 116.356 509.209 116.764C508.85 117.059 508.589 117.46 508.46 117.911C508.331 118.363 508.34 118.843 508.488 119.289C509.063 121.42 509.042 125.447 507.264 130.188C505.686 134.375 503.563 134.503 503.438 134.503H503.323L503.176 134.577C502.986 134.439 502.771 134.34 502.543 134.287C502.315 134.234 502.079 134.228 501.848 134.268L493.484 135.738C493.25 135.779 493.027 135.867 492.827 135.997C492.628 136.127 492.455 136.296 492.32 136.494C492.185 136.692 492.089 136.916 492.04 137.152C491.99 137.388 491.987 137.632 492.031 137.869L494.509 152.486C494.548 152.725 494.633 152.953 494.76 153.157C494.887 153.362 495.053 153.538 495.247 153.676C495.442 153.814 495.662 153.911 495.895 153.961C496.127 154.011 496.367 154.013 496.6 153.967L504.964 152.497C505.197 152.456 505.42 152.368 505.62 152.238C505.819 152.108 505.991 151.939 506.125 151.741C506.26 151.542 506.354 151.318 506.402 151.082C506.451 150.846 506.452 150.603 506.407 150.366L506.323 149.865L506.877 149.929C508.425 150.142 511.06 150.259 511.164 150.259L526.848 147.5H526.921C527.504 147.258 528.025 146.886 528.447 146.41C528.869 145.934 529.18 145.367 529.357 144.752C529.485 144.021 529.359 143.267 529.001 142.621C529.445 141.806 529.678 140.889 529.678 139.957C529.678 139.025 529.445 138.109 529.001 137.294C529.482 136.656 529.76 135.883 529.798 135.079C529.835 134.276 529.63 133.48 529.211 132.798ZM528.06 136.846L527.799 137.155L528.029 137.507C528.46 138.218 528.689 139.037 528.689 139.872C528.689 140.708 528.46 141.527 528.029 142.237L527.82 142.567L528.05 142.876C528.214 143.108 528.331 143.37 528.394 143.648C528.457 143.926 528.465 144.215 528.416 144.496C528.274 144.936 528.039 145.339 527.728 145.678C527.418 146.016 527.039 146.282 526.618 146.456L511.175 149.173C510.767 149.173 508.414 149.034 506.992 148.853L506.114 148.747L503.919 135.77C503.919 135.696 503.919 135.632 503.919 135.568C504.797 135.376 506.857 134.503 508.32 130.603C510.192 125.617 510.202 121.356 509.575 119.023C509.487 118.782 509.475 118.519 509.541 118.271C509.606 118.022 509.746 117.801 509.941 117.638C510.325 117.365 510.771 117.194 511.237 117.142C511.703 117.09 512.174 117.158 512.607 117.339C513.778 117.925 515.033 120.536 515.367 122.56C515.5 124.814 515.423 127.075 515.137 129.314L515.043 130.049L527.527 127.855C527.912 128.078 528.24 128.389 528.488 128.763C528.735 129.137 528.895 129.564 528.955 130.011C529.014 130.458 528.972 130.913 528.832 131.341C528.691 131.769 528.456 132.158 528.144 132.478L527.893 132.819L528.165 133.15C528.575 133.681 528.789 134.342 528.77 135.017C528.751 135.693 528.5 136.34 528.06 136.846Z" fill="#473C4B"/>
<path d="M209.389 386.14C209.112 385.64 208.933 385.085 208.865 384.509C208.797 383.933 208.84 383.349 208.992 382.791C209.396 381.648 210.21 380.721 211.255 380.212L211.428 380.126L222.346 383.377C222.29 381.219 222.447 379.062 222.815 376.94C223.314 375.043 224.854 371.89 226.627 371.196C227.255 370.979 227.927 370.941 228.573 371.088C229.219 371.234 229.817 371.56 230.307 372.031C230.625 372.369 230.84 372.802 230.922 373.272C231.003 373.742 230.949 374.227 230.766 374.664C230.001 376.831 229.635 380.841 230.899 385.815C232.03 390.225 234.079 390.572 234.201 390.583H234.314L234.446 390.669C234.847 390.433 235.318 390.371 235.761 390.496L243.723 392.858C243.943 392.921 244.149 393.03 244.33 393.178C244.51 393.326 244.661 393.511 244.774 393.721C244.887 393.932 244.96 394.164 244.987 394.405C245.015 394.646 244.997 394.89 244.936 395.123L241.133 409.655C241.01 410.124 240.716 410.522 240.317 410.762C239.917 411.002 239.445 411.063 239.003 410.933L231.031 408.582C230.594 408.45 230.223 408.141 229.998 407.722C229.773 407.302 229.712 406.806 229.828 406.339L229.961 405.829H229.42C227.891 405.829 225.343 405.71 225.231 405.71H225.17L210.184 401.278L210.113 401.224C209.571 400.919 209.1 400.487 208.737 399.962C208.373 399.437 208.126 398.831 208.013 398.19C207.945 397.419 208.144 396.648 208.574 396.023C208.209 395.152 208.06 394.197 208.142 393.248C208.224 392.3 208.534 391.389 209.043 390.604C208.673 389.909 208.509 389.111 208.57 388.315C208.632 387.519 208.917 386.761 209.389 386.14ZM210.113 390.355L210.327 390.702L210.082 391.027C209.598 391.704 209.302 392.511 209.226 393.357C209.15 394.203 209.299 395.055 209.654 395.817L209.828 396.174L209.573 396.456C209.39 396.675 209.25 396.93 209.162 397.208C209.075 397.485 209.041 397.779 209.063 398.071C209.164 398.529 209.355 398.959 209.624 399.332C209.893 399.706 210.233 400.014 210.623 400.238L225.343 404.572C225.73 404.572 228.034 404.724 229.42 404.681H230.287L233.6 391.764C233.611 391.699 233.632 391.637 233.661 391.58C232.825 391.287 230.909 390.203 229.859 386.086C228.513 380.852 228.921 376.539 229.747 374.242C229.86 374.008 229.9 373.743 229.861 373.484C229.823 373.225 229.708 372.985 229.533 372.8C229.185 372.485 228.77 372.266 228.323 372.164C227.876 372.062 227.413 372.079 226.974 372.215C225.781 372.692 224.313 375.249 223.793 377.222C223.45 379.489 223.31 381.786 223.375 384.081V384.829L211.479 381.318C211.088 381.508 210.743 381.791 210.47 382.145C210.197 382.499 210.005 382.915 209.906 383.361C209.808 383.806 209.807 384.269 209.903 384.715C209.998 385.161 210.189 385.578 210.46 385.934L210.674 386.302L210.378 386.606C209.934 387.104 209.669 387.752 209.628 388.437C209.587 389.122 209.773 389.801 210.154 390.355H210.113Z" fill="#473C4B"/>
<path d="M154.494 127.882C154.249 127.506 154.098 127.091 154.048 126.662C153.998 126.234 154.051 125.801 154.204 125.39C154.609 124.543 155.386 123.868 156.366 123.511L156.525 123.455L166.473 126.092C166.473 124.488 166.668 122.888 167.053 121.318C167.559 119.907 169.056 117.6 170.694 117.117C171.276 116.972 171.891 116.962 172.479 117.086C173.067 117.211 173.607 117.466 174.044 117.826C174.329 118.084 174.515 118.411 174.579 118.762C174.642 119.114 174.58 119.474 174.4 119.794C173.651 121.358 173.221 124.358 174.269 128.092C175.205 131.39 177.077 131.697 177.179 131.705H177.282L177.404 131.769C177.589 131.683 177.792 131.631 178.001 131.614C178.21 131.597 178.421 131.617 178.621 131.672L185.874 133.592C186.277 133.698 186.615 133.937 186.813 134.258C187.011 134.578 187.054 134.954 186.931 135.301L183.104 146.035C183.042 146.207 182.941 146.367 182.807 146.505C182.674 146.644 182.509 146.759 182.324 146.842C182.139 146.926 181.937 146.978 181.728 146.994C181.52 147.011 181.31 146.992 181.11 146.938L173.857 145.019C173.454 144.912 173.116 144.673 172.918 144.352C172.72 144.032 172.677 143.657 172.8 143.309L172.94 142.938H172.444C171.04 142.938 168.7 142.777 168.597 142.769L154.943 139.156H154.878C154.384 138.918 153.958 138.587 153.634 138.188C153.31 137.788 153.095 137.331 153.006 136.85C152.963 136.271 153.162 135.699 153.567 135.237C153.263 134.589 153.154 133.885 153.251 133.192C153.347 132.498 153.646 131.837 154.119 131.269C153.773 130.739 153.623 130.131 153.689 129.525C153.756 128.919 154.037 128.346 154.494 127.882ZM155.055 131.035L155.252 131.301L155.009 131.535C154.55 132.028 154.259 132.621 154.17 133.247C154.081 133.874 154.196 134.51 154.503 135.084L154.662 135.358L154.419 135.567C154.246 135.726 154.113 135.912 154.026 136.116C153.939 136.319 153.901 136.536 153.914 136.753C153.997 137.091 154.164 137.411 154.403 137.689C154.642 137.967 154.947 138.198 155.299 138.366L168.7 141.914C169.056 141.914 171.162 142.083 172.444 142.083H173.211L176.609 132.551C176.625 132.504 176.647 132.458 176.674 132.414C175.907 132.18 174.185 131.326 173.314 128.245C172.21 124.318 172.678 121.116 173.492 119.431C173.599 119.258 173.64 119.061 173.609 118.867C173.579 118.674 173.479 118.493 173.324 118.35C173.011 118.109 172.633 117.938 172.225 117.853C171.816 117.769 171.39 117.773 170.984 117.867C169.88 118.189 168.476 120.068 167.961 121.52C167.589 123.199 167.404 124.906 167.409 126.616V127.173L156.571 124.302C155.916 124.574 155.4 125.045 155.121 125.624C155.009 125.976 154.986 126.344 155.052 126.704C155.118 127.064 155.272 127.408 155.505 127.713L155.692 127.995L155.411 128.221C154.975 128.579 154.702 129.059 154.642 129.576C154.582 130.092 154.738 130.61 155.083 131.035H155.055Z" fill="#473C4B"/>
<path d="M79.2061 257.941C78.8119 257.535 78.5017 257.049 78.2944 256.514C78.0871 255.979 77.9872 255.405 78.0009 254.828C78.1098 253.612 78.667 252.487 79.5556 251.69L79.7123 251.564H91.2823C90.6683 249.522 90.2643 247.419 90.0771 245.288C90.0771 243.305 90.8002 239.828 92.3428 238.66C92.9056 238.274 93.5558 238.049 94.2285 238.007C94.9011 237.965 95.5725 238.108 96.1754 238.422C96.5771 238.653 96.9011 239.006 97.1037 239.435C97.3063 239.864 97.3777 240.347 97.3083 240.819C97.0914 243.091 97.7783 247.096 100.309 251.539C102.551 255.455 104.66 255.204 104.781 255.192H104.889H105.046C105.363 254.853 105.797 254.659 106.251 254.652H114.687C114.919 254.65 115.15 254.697 115.364 254.788C115.579 254.879 115.775 255.014 115.939 255.184C116.104 255.355 116.235 255.557 116.324 255.78C116.413 256.004 116.459 256.243 116.459 256.485V271.547C116.459 272.037 116.272 272.506 115.94 272.852C115.608 273.198 115.157 273.393 114.687 273.393H106.251C105.781 273.393 105.33 273.198 104.998 272.852C104.666 272.506 104.479 272.037 104.479 271.547V271.033L103.949 271.196C102.467 271.673 99.9115 272.25 99.8031 272.276H83.8221H83.7497C83.1373 272.135 82.5633 271.852 82.0707 271.448C81.5782 271.043 81.1798 270.528 80.9055 269.941C80.6426 269.217 80.6426 268.418 80.9055 267.694C80.3327 266.965 79.948 266.096 79.7877 265.169C79.6275 264.242 79.6969 263.288 79.9895 262.397C79.4393 261.825 79.0695 261.092 78.9295 260.296C78.7896 259.5 78.886 258.678 79.2061 257.941ZM80.9898 261.794L81.3032 262.07L81.1465 262.447C80.8404 263.237 80.7538 264.101 80.8966 264.94C81.0394 265.779 81.4058 266.559 81.954 267.192L82.2191 267.481L82.0384 267.832C81.9151 268.094 81.8441 268.379 81.8296 268.67C81.8151 268.962 81.8574 269.253 81.954 269.527C82.1686 269.94 82.4657 270.3 82.8253 270.584C83.185 270.868 83.5988 271.068 84.039 271.171H99.6464C100.032 271.083 102.322 270.556 103.648 270.129L104.491 269.865V256.46C104.486 256.393 104.486 256.326 104.491 256.259C103.587 256.259 101.43 255.719 99.3451 252.054C96.6695 247.384 95.9585 243.116 96.1875 240.669C96.2353 240.41 96.204 240.143 96.098 239.904C95.9921 239.666 95.8168 239.468 95.5969 239.338C95.1738 239.135 94.7088 239.045 94.2438 239.075C93.7789 239.106 93.3285 239.257 92.9334 239.514C91.8849 240.305 91.1015 243.192 91.1015 245.238C91.3427 247.519 91.7907 249.772 92.4393 251.966L92.6562 252.681H80.0498C79.4564 253.256 79.0874 254.038 79.0133 254.878C79.0296 255.362 79.1456 255.837 79.3536 256.27C79.5615 256.703 79.8565 257.084 80.2185 257.388L80.5198 257.69L80.3149 258.066C79.9836 258.67 79.8696 259.377 79.9933 260.06C80.117 260.743 80.4703 261.358 80.9898 261.794Z" fill="#473C4B"/>
<path d="M190.482 217.925L161.812 212.106C160.573 211.854 159.279 212.131 158.215 212.874C157.151 213.618 156.403 214.768 156.136 216.072L152.589 233.551C152.326 234.856 152.566 236.206 153.256 237.306C153.946 238.406 155.03 239.165 156.269 239.416L168.017 241.801L169.662 247.108L173.254 242.864L184.918 245.231C186.157 245.482 187.45 245.206 188.513 244.462C189.576 243.717 190.322 242.567 190.587 241.263L194.134 223.785C194.398 222.485 194.162 221.138 193.477 220.04C192.793 218.942 191.716 218.181 190.482 217.925Z" fill="white" stroke="#473C4B" stroke-linecap="round" stroke-linejoin="round"/>
<path d="M272.589 267.855L245.897 279.829C244.743 280.347 243.853 281.326 243.421 282.55C242.989 283.774 243.052 285.145 243.595 286.36L250.895 302.633C251.442 303.846 252.424 304.804 253.625 305.296C254.827 305.788 256.15 305.773 257.304 305.256L268.241 300.349L272.67 303.704L273.117 298.162L283.975 293.29C285.129 292.773 286.019 291.795 286.449 290.57C286.88 289.346 286.815 287.977 286.271 286.763L278.971 270.49C278.428 269.28 277.452 268.323 276.256 267.829C275.059 267.336 273.741 267.345 272.589 267.855Z" fill="white" stroke="#473C4B" stroke-linecap="round" stroke-linejoin="round"/>
<path d="M286.998 67.8545L257.404 86.974C256.125 87.8006 255.24 89.1222 254.943 90.6487C254.645 92.1752 254.961 93.7817 255.82 95.1155L267.355 112.97C268.218 114.301 269.553 115.249 271.067 115.606C272.58 115.962 274.149 115.698 275.428 114.872L287.555 107.037L293.406 110.172L292.961 103.545L305 95.7661C306.279 94.94 307.164 93.6186 307.459 92.0926C307.755 90.5667 307.438 88.9612 306.577 87.6293L295.042 69.7751C294.184 68.4472 292.856 67.4995 291.349 67.1396C289.841 66.7796 288.277 67.0367 286.998 67.8545Z" fill="white" stroke="#473C4B" stroke-linecap="round" stroke-linejoin="round"/>
<path d="M130.933 438.562L93.8539 448.374C92.2509 448.798 90.8876 449.863 90.0635 451.336C89.2394 452.808 89.0217 454.568 89.4584 456.228L95.3416 478.46C95.7831 480.119 96.8425 481.54 98.2871 482.413C99.7318 483.285 101.444 483.536 103.047 483.112L118.24 479.092L123.23 484.272L125.014 477.299L140.099 473.307C141.701 472.883 143.063 471.818 143.886 470.346C144.708 468.873 144.924 467.114 144.485 465.456L138.602 443.223C138.164 441.57 137.112 440.151 135.675 439.277C134.237 438.404 132.532 438.146 130.933 438.562Z" fill="white" stroke="#473C4B" stroke-linecap="round" stroke-linejoin="round"/>
<path d="M515.291 421.205L473.769 411.795C471.974 411.388 470.084 411.74 468.515 412.773C466.945 413.807 465.824 415.437 465.397 417.306L459.72 442.357C459.299 444.227 459.608 446.181 460.579 447.79C461.55 449.399 463.103 450.531 464.899 450.938L481.913 454.794L484.149 462.498L489.498 456.513L506.39 460.341C508.184 460.748 510.073 460.395 511.642 459.361C513.21 458.328 514.329 456.697 514.752 454.828L520.429 429.777C520.852 427.914 520.548 425.966 519.585 424.36C518.622 422.753 517.078 421.619 515.291 421.205Z" fill="white" stroke="#473C4B" stroke-linecap="round" stroke-linejoin="round"/>
<path d="M184.496 227.959C184.343 228.713 184.056 229.432 183.652 230.075C183.248 230.718 182.734 231.272 182.14 231.706L180.475 232.925L171.424 239.554L165.667 229.919L164.609 228.148C164.003 226.879 163.86 225.392 164.209 223.977C164.559 222.561 165.375 221.32 166.498 220.493C167.622 219.667 168.973 219.316 170.287 219.507C171.602 219.699 172.786 220.421 173.608 221.531L174.666 223.302L176.331 222.084C177.227 221.427 178.272 221.069 179.334 221.053C180.395 221.038 181.426 221.366 182.295 221.997C183.164 222.627 183.832 223.532 184.214 224.595C184.597 225.659 184.676 226.834 184.443 227.971L184.496 227.959Z" fill="#7A4AE6" stroke="#473C4B" stroke-linecap="round" stroke-linejoin="round"/>
<path d="M273.568 279.497C273.884 280.199 274.069 280.951 274.116 281.709C274.162 282.467 274.067 283.217 273.837 283.916L273.194 285.876L269.7 296.537L259.408 292.06L257.516 291.237C256.284 290.559 255.301 289.434 254.761 288.08C254.22 286.727 254.16 285.242 254.592 283.916C255.024 282.589 255.917 281.517 257.097 280.907C258.277 280.297 259.659 280.194 260.975 280.617L262.867 281.44L263.51 279.479C263.856 278.424 264.496 277.524 265.35 276.893C266.204 276.261 267.233 275.928 268.306 275.934C269.38 275.941 270.449 276.286 271.38 276.928C272.311 277.57 273.06 278.478 273.533 279.538L273.568 279.497Z" fill="#7A4AE6" stroke="#473C4B" stroke-linecap="round" stroke-linejoin="round"/>
<path d="M290.45 81.4471C290.94 82.2051 291.282 83.0485 291.456 83.929C291.63 84.8095 291.632 85.7098 291.463 86.5783L290.991 89.0145L288.43 102.263L275.292 99.1572L272.877 98.5863C271.282 98.0479 269.92 96.9316 269.055 95.4552C268.191 93.9788 267.887 92.2482 268.202 90.6007C268.517 88.9533 269.43 87.5072 270.761 86.5445C272.092 85.5818 273.747 85.1714 275.403 85.3934L277.818 85.9643L278.29 83.5281C278.544 82.2166 279.177 81.0257 280.111 80.1063C281.045 79.1868 282.236 78.5801 283.535 78.3632C284.833 78.1462 286.18 78.3287 287.405 78.8875C288.629 79.4464 289.677 80.3564 290.414 81.5023L290.45 81.4471Z" fill="#7A4AE6" stroke="#473C4B" stroke-linecap="round" stroke-linejoin="round"/>
<path d="M129.77 453.632C130.018 454.569 130.086 455.545 129.97 456.502C129.853 457.46 129.555 458.381 129.091 459.213L127.792 461.546L120.735 474.235L108.316 466.7L106.034 465.314C104.58 464.234 103.557 462.641 103.166 460.845C102.775 459.049 103.042 457.179 103.916 455.6C104.791 454.021 106.209 452.846 107.895 452.304C109.581 451.762 111.413 451.892 113.035 452.669L115.318 454.054L116.617 451.721C117.316 450.465 118.363 449.458 119.627 448.829C120.892 448.199 122.315 447.975 123.718 448.184C125.121 448.393 126.439 449.027 127.507 450.005C128.574 450.983 129.343 452.26 129.715 453.676L129.77 453.632Z" fill="#7A4AE6" stroke="#473C4B" stroke-linecap="round" stroke-linejoin="round"/>
<path d="M506.465 435.673C506.225 436.737 505.785 437.745 505.171 438.639C504.557 439.533 503.782 440.296 502.889 440.884L500.385 442.534L486.776 451.516L478.358 437.543L476.811 434.974C475.928 433.141 475.741 431.021 476.286 429.027C476.831 427.032 478.069 425.307 479.759 424.188C481.449 423.068 483.469 422.635 485.425 422.971C487.382 423.308 489.135 424.391 490.342 426.008L491.889 428.577L494.393 426.927C495.74 426.037 497.304 425.579 498.888 425.608C500.471 425.638 502.002 426.155 503.286 427.093C504.571 428.032 505.551 429.349 506.103 430.879C506.655 432.41 506.754 434.083 506.387 435.689L506.465 435.673Z" fill="#7A4AE6" stroke="#473C4B" stroke-linecap="round" stroke-linejoin="round"/>
<path d="M448.981 63.0402L419.169 57.092C417.878 56.8354 416.542 57.1207 415.454 57.8853C414.366 58.6499 413.614 59.8314 413.365 61.1704L410.088 79.0807C409.841 80.419 410.117 81.8043 410.853 82.9321C411.59 84.0598 412.728 84.8377 414.018 85.0945L426.248 87.5329L428.06 93L431.694 88.6263L443.798 91.0428C445.088 91.2993 446.424 91.014 447.512 90.2494C448.601 89.4848 449.352 88.3034 449.602 86.9643L452.91 69.054C453.034 68.3912 453.03 67.7096 452.899 67.0483C452.769 66.3869 452.513 65.7588 452.148 65.2001C451.783 64.6414 451.316 64.1629 450.772 63.7923C450.228 63.4216 449.62 63.166 448.981 63.0402Z" fill="white" stroke="#473C4B" stroke-linecap="round" stroke-linejoin="round"/>
<path d="M442.898 73.251C442.763 74.0244 442.484 74.7619 442.076 75.4209C441.669 76.0799 441.142 76.6473 440.526 77.0905L438.778 78.3411L429.467 85L423.151 75.1269L421.965 73.2839C421.128 71.9746 420.818 70.3682 421.104 68.818C421.39 67.2678 422.248 65.9009 423.49 65.0179C424.731 64.1348 426.255 63.8081 427.725 64.1095C429.195 64.4109 430.492 65.3157 431.329 66.625L432.505 68.468L434.211 67.2174C435.133 66.558 436.219 66.2017 437.333 66.1937C438.446 66.1856 439.537 66.5261 440.468 67.1721C441.398 67.8181 442.125 68.7405 442.558 69.8226C442.991 70.9047 443.109 72.0978 442.898 73.251Z" fill="#7A4AE6" stroke="#473C4B" stroke-linecap="round" stroke-linejoin="round"/>
<path d="M87 547H454" stroke="#473C4B" stroke-miterlimit="10"/>
<path d="M360.634 417.649C360.634 419.742 360.525 422.245 360.485 424.968C360.62 417.02 360.81 411.193 360.81 411.193V367.893L395.569 369.474L386.937 418.747C380.916 420.46 369.023 422.787 360.634 417.649Z" fill="white" stroke="#473C4B" stroke-linecap="round" stroke-linejoin="round"/>
<path d="M366.465 513.985C366.465 513.985 360.336 455.079 360.336 440.455C360.336 431.833 360.498 423.24 360.634 417.619C369.022 422.757 380.929 420.43 386.937 418.717V419.039C386.937 419.039 390.793 449.78 387.41 464.419C384.028 479.057 373.19 515.463 373.19 518.083C373.19 520.704 383.27 533.966 383.27 545.033C383.27 548.166 371.796 549.79 369.915 542.471C369.361 540.275 369.049 538.372 368.738 536.616V543.467H366.357L366.059 522.973L366.655 525.447C365.477 517.161 366.465 513.985 366.465 513.985Z" fill="#473C4B" stroke="#473C4B" stroke-linecap="round" stroke-linejoin="round"/>
<path d="M343.287 419.084C343.071 421.178 342.827 423.666 342.53 426.404C343.368 418.484 343.883 412.702 343.883 412.702L349.214 369.738L314.589 366.283L317.065 416.376C322.843 418.953 334.344 422.978 343.287 419.084Z" fill="white" stroke="#473C4B" stroke-linecap="round" stroke-linejoin="round"/>
<path d="M325.806 543.744C324.115 522.694 325.63 513.75 325.63 513.75C325.63 513.75 338.971 456.249 340.771 441.757C341.84 433.223 342.733 424.674 343.287 419.082C334.344 422.976 322.843 418.95 317.079 416.389V416.711C317.079 416.711 309.461 446.69 311.004 461.666C312.546 476.641 316.023 511.437 315.699 513.984C315.374 516.531 311.166 533.321 309.799 544.286C309.448 547.389 326.415 551.327 325.806 543.744Z" fill="#473C4B" stroke="#473C4B" stroke-linecap="round" stroke-linejoin="round"/>
<path d="M306.268 271.291H407.625V373.644H306.268V271.291Z" fill="#473C4B" stroke="#473C4B" stroke-linecap="round" stroke-linejoin="round"/>
<path d="M346.332 166.465H381.944V286.735H346.332V166.465Z" fill="white" stroke="#473C4B" stroke-linecap="round" stroke-linejoin="round"/>
<path d="M372.649 168.484L369.78 349.226L420.587 350.632L414.945 183.372L380.645 165.527L372.649 168.484Z" fill="#8F8F8F" stroke="#473C4B" stroke-linecap="round" stroke-linejoin="round"/>
<path d="M376.302 299.895H412.78V304.594H376.302V299.895Z" fill="#8F8F8F" stroke="#473C4B" stroke-linecap="round" stroke-linejoin="round"/>
<path d="M383.04 163.272C383.04 163.272 412.347 175.861 410.168 180.092C407.99 184.322 397.139 189.021 397.139 189.021C397.139 189.021 412.78 202.196 407.571 206.866C402.361 211.535 370.66 235.528 370.66 235.528L370.227 165.995C370.227 165.995 378.047 161.032 383.04 163.272Z" fill="white" stroke="#473C4B" stroke-linecap="round" stroke-linejoin="round"/>
<path d="M383.04 163.275L386.585 238.927L367.832 239.484L369.347 170.961L383.04 163.275Z" fill="#7A4AE6" stroke="#473C4B" stroke-linecap="round" stroke-linejoin="round"/>
<path d="M372.649 168.482L369.347 225.5L351.108 224.68L361.5 170.122L372.649 168.482Z" fill="#7A4AE6" stroke="#473C4B" stroke-linecap="round" stroke-linejoin="round"/>
<path d="M349.092 150.174L352.19 159.586L371.444 158.239L371.133 145.475L349.092 150.174Z" fill="white" stroke="#473C4B" stroke-linecap="round" stroke-linejoin="round"/>
<path d="M347.306 155.338C347.306 155.338 345.033 163.843 347.062 167.678C349.092 171.514 351.622 177.267 364.787 175.086C377.953 172.904 392.917 165.205 391.645 157.519C390.373 149.834 384.447 151.518 377.344 151.518C370.24 151.518 347.306 155.338 347.306 155.338Z" fill="#7A4AE6" stroke="#473C4B" stroke-linecap="round" stroke-linejoin="round"/>
<path d="M365.085 89.0859C365.085 89.0859 356.642 94.59 353.463 97.8691C350.283 101.148 349.187 108.833 348.172 110.81C347.157 112.786 340.595 112.874 339.445 115.391C338.295 117.909 340.013 122.711 340.013 122.711C340.013 122.711 336.428 137.349 336.428 141.536C336.428 145.722 346.4 149.411 349.092 150.187C351.785 150.963 365.681 150.539 365.681 150.539C365.681 150.539 367.778 149.441 372.202 141.082C376.627 132.723 374.638 113.122 373.163 104.193C371.688 95.2634 365.085 89.0859 365.085 89.0859Z" fill="white" stroke="#473C4B" stroke-linecap="round" stroke-linejoin="round"/>
<path d="M340.73 128.303C340.73 128.303 342.192 129.854 346.86 130.059C349.453 130.246 352.054 129.836 354.491 128.859C354.491 128.859 348.24 136.178 345.493 135.622C342.746 135.066 340.73 128.303 340.73 128.303Z" stroke="#473C4B" stroke-linecap="round" stroke-linejoin="round"/>
<path d="M357.751 117.881C356.397 115.878 354.399 114.494 352.15 114.002" stroke="#473C4B" stroke-linecap="round" stroke-linejoin="round"/>
<path d="M360.904 110.283C360.904 110.283 360.593 106.228 355.492 104.75" stroke="#473C4B" stroke-linecap="round" stroke-linejoin="round"/>
<path d="M252.566 190.619L244.447 177.445C244.447 177.445 241.85 172.643 240.74 172.233C238.112 171.423 235.864 169.566 234.448 167.037C232.595 163.436 227.426 158.254 226.682 162.235C225.938 166.217 230.376 172.233 230.376 172.233L232.216 175.835L221.851 173.024C221.851 173.024 215.573 161.02 214.085 163.816C212.597 166.612 214.829 178.235 216.683 182.627C218.537 187.018 225.924 193.035 229.632 195.45C233.339 197.866 248.872 200.647 248.872 200.647L252.566 190.619Z" fill="#7A4AE6" stroke="#473C4B" stroke-linecap="round" stroke-linejoin="round"/>
<path d="M235.802 190.123L226.046 184.019C226.046 184.019 219.876 170.668 217.833 171.781C215.79 172.893 214.87 175.411 215.776 179.012" fill="#7A4AE6"/>
<path d="M235.802 190.123L226.046 184.019C226.046 184.019 219.876 170.668 217.833 171.781C215.79 172.893 214.87 175.411 215.776 179.012" stroke="#473C4B" stroke-linecap="round" stroke-linejoin="round"/>
<path d="M331.34 172.07L317.485 175.832L280.479 203.572L251.267 186.592L239.576 204.861L274.133 236.48C275.78 237.989 277.784 238.97 279.918 239.314C282.053 239.658 284.234 239.351 286.216 238.427L310.99 226.877L315.807 220.787" fill="#8F8F8F"/>
<path d="M331.34 172.07L317.485 175.832L280.479 203.572L251.267 186.592L239.576 204.861L274.133 236.48C275.78 237.989 277.784 238.97 279.918 239.314C282.053 239.658 284.234 239.351 286.216 238.427L310.99 226.877L315.807 220.787" stroke="#473C4B" stroke-linecap="round" stroke-linejoin="round"/>
<path d="M351.541 170.228L348.077 348.818L296.404 345.525C296.404 345.525 313.575 181.573 315.347 177.752C317.12 173.932 352.015 165.119 352.015 165.119L351.541 170.228Z" fill="#8F8F8F" stroke="#473C4B" stroke-linecap="round" stroke-linejoin="round"/>
<path d="M305.943 298.477H341.989V303.176H305.943V298.477Z" fill="#8F8F8F" stroke="#473C4B" stroke-linecap="round" stroke-linejoin="round"/>
<path d="M351.108 235.064C351.108 235.064 325.928 199.361 325.495 195.13C325.062 190.9 333.316 182.907 333.316 182.907C333.316 182.907 325.278 176.759 324.845 174.417C324.412 172.074 351.988 165.062 351.988 165.062L351.108 235.064Z" fill="white" stroke="#473C4B" stroke-linecap="round" stroke-linejoin="round"/>
<path d="M410.169 180.092C410.169 180.092 421.899 184.322 422.765 188.538C423.631 192.754 431.019 280.629 429.707 282.503C428.394 284.377 383.703 293.789 383.703 293.789L380.402 254.046L404.553 250.093L407.151 232.395" fill="#8F8F8F"/>
<path d="M410.169 180.092C410.169 180.092 421.899 184.322 422.765 188.538C423.631 192.754 431.019 280.629 429.707 282.503C428.394 284.377 383.703 293.789 383.703 293.789L380.402 254.046L404.553 250.093L407.151 232.395" stroke="#473C4B" stroke-linecap="round" stroke-linejoin="round"/>
<path d="M404.526 250.097C404.526 250.097 414.079 248.633 423.347 263.726" stroke="#473C4B" stroke-linecap="round" stroke-linejoin="round"/>
<path d="M380.375 254.047L383.676 293.791C381.213 286.099 379.184 278.253 377.601 270.296C375.003 257.136 378.237 254.793 380.375 254.047Z" stroke="#473C4B" stroke-linecap="round" stroke-linejoin="round"/>
<path d="M369.428 261.526L352.123 238.119L336.969 245.131L357.319 271.363L369.428 261.526Z" fill="#473C4B" stroke="#473C4B" stroke-linecap="round" stroke-linejoin="round"/>
<path d="M380.686 255.906C380.686 255.906 373.325 252.159 372.026 251.222C370.727 250.285 367.696 248.426 367.696 248.426H358.604L365.098 255.906L345.195 259.654L346.548 264.338C348.548 265.162 350.44 266.264 352.177 267.617C354.342 269.491 356.926 272.77 359.957 273.707C363.367 274.535 366.886 274.694 370.348 274.175C371.701 273.707 382.039 271.364 382.039 271.364L380.686 255.906Z" fill="#7A4AE6" stroke="#473C4B" stroke-linecap="round" stroke-linejoin="round"/>
<path d="M362.623 86.2025C362.623 86.2025 365.004 111.776 367.818 128.566C370.633 145.357 362.704 158.092 357.711 158.985C352.718 159.878 348.497 155.867 348.497 155.867C348.497 155.867 345.899 166.392 352.935 173.112C359.971 179.831 391.51 180.226 401.266 167.051C411.021 153.876 414.485 124.116 405.947 109.434C397.409 94.7514 371.431 82.1476 362.623 86.2025Z" fill="#473C4B" stroke="#473C4B" stroke-linecap="round" stroke-linejoin="round"/>
<defs>
<filter id="filter0_f_411_997" x="0" y="0" width="622" height="591" filterUnits="userSpaceOnUse" color-interpolation-filters="sRGB">
<feFlood flood-opacity="0" result="BackgroundImageFix"/>
<feBlend mode="normal" in="SourceGraphic" in2="BackgroundImageFix" result="shape"/>
<feGaussianBlur stdDeviation="35" result="effect1_foregroundBlur_411_997"/>
</filter>
</defs>
</svg>
