<svg width="582" height="424" viewBox="0 0 582 424" fill="none" xmlns="http://www.w3.org/2000/svg">
<path d="M76.4496 147.977C101.304 147.977 121.452 130.97 121.452 109.991C121.452 89.0111 101.304 72.0039 76.4496 72.0039C51.5955 72.0039 31.4473 89.0111 31.4473 109.991C31.4473 130.97 51.5955 147.977 76.4496 147.977Z" fill="white" stroke="#473C4B" stroke-linecap="round" stroke-linejoin="round"/>
<path d="M73.1 144.202C97.9541 144.202 118.102 127.195 118.102 106.215C118.102 85.2357 97.9541 68.2285 73.1 68.2285C48.2459 68.2285 28.0977 85.2357 28.0977 106.215C28.0977 127.195 48.2459 144.202 73.1 144.202Z" fill="white" stroke="#473C4B" stroke-linecap="round" stroke-linejoin="round"/>
<path d="M73.1004 140.431C95.4857 140.431 113.632 125.113 113.632 106.217C113.632 87.3217 95.4857 72.0039 73.1004 72.0039C50.7152 72.0039 32.5684 87.3217 32.5684 106.217C32.5684 125.113 50.7152 140.431 73.1004 140.431Z" fill="#473C4B" stroke="#473C4B" stroke-linecap="round" stroke-linejoin="round"/>
<path d="M68.3434 80.499C68.3434 80.499 63.8731 71.0601 56.0534 64.4595C48.2337 57.8588 16.3555 53.6014 16.3555 53.6014C21.5031 57.7924 26.1841 62.3734 30.3397 67.2868C37.599 75.7796 61.6184 95.1304 61.6184 95.1304C61.6184 95.1304 49.8889 86.6376 39.2541 85.6915C28.6193 84.7454 1.7978 89.4649 0.155666 89.4649C-1.48647 89.4649 10.217 93.2383 18.6101 96.5386C27.0033 99.8389 59.4159 102.677 59.4159 102.677C59.4159 102.677 45.4447 105.977 35.9568 108.816C26.4689 111.654 17.4763 132.402 17.4763 132.402C17.4763 132.402 29.7793 122.963 40.401 120.609C51.0228 118.255 66.1148 114.008 66.1148 114.008C66.1148 114.008 56.6138 122.974 54.3852 129.113C52.1566 135.251 53.8248 149.399 53.8248 149.399C53.8248 149.399 58.8555 136.197 65.007 130.994C71.1585 125.79 77.8443 116.891 77.8443 116.891C80.9408 121.151 83.7431 125.559 86.2374 130.092C90.7077 138.112 93.4967 149.894 93.4967 149.894C93.4967 149.894 100.769 136.692 100.209 130.092C99.6482 123.491 91.2681 111.687 91.2681 111.687C91.2681 111.687 96.8592 108.387 105.239 111.214C113.619 114.041 128.164 125.845 128.164 125.845C128.164 125.845 124.802 110.268 119.21 104.14C113.619 98.0127 89.5869 96.1095 89.5869 96.1095C89.5869 96.1095 103.011 89.5089 111.391 88.0898C119.771 86.6706 130.94 89.9819 130.94 89.9819C130.94 89.9819 118.09 74.8775 108.028 73.9314C97.967 72.9853 82.875 86.1646 82.875 86.1646L87.3583 67.2868C88.466 62.5673 86.2374 50.7852 86.2374 50.7852C86.2374 50.7852 80.0859 53.6124 72.8136 62.5783C70.6853 65.1607 69.193 68.0776 68.4251 71.1559C67.6572 74.2343 67.6294 77.4114 68.3434 80.499Z" fill="#83F4BA"/>
<path opacity="0.5" d="M68.3434 80.499C68.3434 80.499 63.8731 71.0601 56.0534 64.4595C48.2337 57.8588 16.3555 53.6014 16.3555 53.6014C21.5031 57.7924 26.1841 62.3734 30.3397 67.2868C37.599 75.7796 61.6184 95.1304 61.6184 95.1304C61.6184 95.1304 49.8889 86.6376 39.2541 85.6915C28.6193 84.7454 1.7978 89.4649 0.155666 89.4649C-1.48647 89.4649 10.217 93.2383 18.6101 96.5386C27.0033 99.8389 59.4159 102.677 59.4159 102.677C59.4159 102.677 45.4447 105.977 35.9568 108.816C26.4689 111.654 17.4763 132.402 17.4763 132.402C17.4763 132.402 29.7793 122.963 40.401 120.609C51.0228 118.255 66.1148 114.008 66.1148 114.008C66.1148 114.008 56.6138 122.974 54.3852 129.113C52.1566 135.251 53.8248 149.399 53.8248 149.399C53.8248 149.399 58.8555 136.197 65.007 130.994C71.1585 125.79 77.8443 116.891 77.8443 116.891C80.9408 121.151 83.7431 125.559 86.2374 130.092C90.7077 138.112 93.4967 149.894 93.4967 149.894C93.4967 149.894 100.769 136.692 100.209 130.092C99.6482 123.491 91.2681 111.687 91.2681 111.687C91.2681 111.687 96.8592 108.387 105.239 111.214C113.619 114.041 128.164 125.845 128.164 125.845C128.164 125.845 124.802 110.268 119.21 104.14C113.619 98.0127 89.5869 96.1095 89.5869 96.1095C89.5869 96.1095 103.011 89.5089 111.391 88.0898C119.771 86.6706 130.94 89.9819 130.94 89.9819C130.94 89.9819 118.09 74.8775 108.028 73.9314C97.967 72.9853 82.875 86.1646 82.875 86.1646L87.3583 67.2868C88.466 62.5673 86.2374 50.7852 86.2374 50.7852C86.2374 50.7852 80.0859 53.6124 72.8136 62.5783C70.6853 65.1607 69.193 68.0776 68.4251 71.1559C67.6572 74.2343 67.6294 77.4114 68.3434 80.499Z" fill="black"/>
<path d="M79.3564 66.1311C79.7474 64.778 80.1775 63.4249 80.6597 62.0938" stroke="#473C4B" stroke-width="0.5" stroke-linecap="round" stroke-linejoin="round"/>
<path d="M42.0171 66.1309C47.2302 69.3542 53.7466 73.8316 57.1612 77.671C63.3127 84.7447 75.6157 99.8491 75.6157 99.8491C75.2633 89.7041 76.2159 79.5567 78.4569 69.5852" stroke="#473C4B" stroke-width="0.5" stroke-linecap="round" stroke-linejoin="round"/>
<path d="M34.25 61.6211C34.25 61.6211 35.8791 62.5012 38.3162 63.9203" stroke="#473C4B" stroke-width="0.5" stroke-linecap="round" stroke-linejoin="round"/>
<path d="M75.6157 99.8466C75.6157 99.8466 96.8592 81.9149 105.8 80.4957C114.74 79.0766 122.573 84.7421 122.573 84.7421" stroke="#473C4B" stroke-width="0.5" stroke-linecap="round" stroke-linejoin="round"/>
<path d="M37.651 114.842C32.4379 117.614 32.0078 119.242 32.0078 119.242" stroke="#473C4B" stroke-width="0.5" stroke-linecap="round" stroke-linejoin="round"/>
<path d="M122.013 116.363C122.013 116.363 118.663 109.279 106.921 105.978C95.1784 102.678 76.7499 102.205 76.7499 102.205C76.7499 102.205 50.8798 109.356 41.418 113.085" stroke="#473C4B" stroke-width="0.5" stroke-linecap="round" stroke-linejoin="round"/>
<path d="M65.4365 99.5078C71.6923 101.048 76.736 102.203 76.736 102.203" stroke="#473C4B" stroke-width="0.5" stroke-linecap="round" stroke-linejoin="round"/>
<path d="M26.0649 91.125C32.1382 91.433 39.9579 92.1371 44.3109 93.7102C47.8558 94.9974 54.8414 96.8566 61.436 98.5177" stroke="#473C4B" stroke-width="0.5" stroke-linecap="round" stroke-linejoin="round"/>
<path d="M17.4766 90.8809C17.4766 90.8809 19.5227 90.8809 22.5333 90.9805" stroke="#473C4B" stroke-width="0.5" stroke-linecap="round" stroke-linejoin="round"/>
<path d="M75.6157 105.029C75.6157 105.029 59.9764 124.831 58.8425 129.573C58.1708 132.37 57.7957 135.212 57.7217 138.065" stroke="#473C4B" stroke-width="0.5" stroke-linecap="round" stroke-linejoin="round"/>
<path d="M82.5752 111.268C85.5858 114.568 89.1959 118.968 90.7077 122.489C92.4674 126.784 93.7758 131.201 94.6175 135.69" stroke="#473C4B" stroke-width="0.5" stroke-linecap="round" stroke-linejoin="round"/>
<path d="M77.8438 106.451C77.8438 106.451 79.147 107.617 80.8283 109.41" stroke="#473C4B" stroke-width="0.5" stroke-linecap="round" stroke-linejoin="round"/>
<path d="M61.2407 84.5667C61.2407 84.5667 58.3604 74.6658 60.1459 65.4799C61.9314 56.294 84.9083 37.1191 84.9083 37.1191C83.6313 43.0574 82.9987 49.0816 83.0185 55.1169C83.0185 65.5899 76.8279 93.1366 76.8279 93.1366C76.8279 93.1366 80.4901 80.4633 88.4662 74.4348C96.4423 68.4062 121.504 59.0333 122.86 58.2302C124.215 57.4271 117.295 66.25 112.772 73.0706C108.25 79.8913 83.8396 98.1861 83.8396 98.1861C83.8396 98.1861 97.4719 93.9836 107.142 91.5854C116.813 89.1872 138.421 101.662 138.421 101.662C138.421 101.662 121.908 100.056 111.652 103.368C101.395 106.679 86.1985 110.661 86.1985 110.661C86.1985 110.661 100.118 113.269 106.165 117.152C112.212 121.035 120.657 133.389 120.657 133.389C120.657 133.389 107.442 125.128 98.8534 123.94C90.2648 122.751 78.6265 118.78 78.6265 118.78C79.0679 123.763 79.8424 128.722 80.9463 133.631C82.8621 142.355 88.766 153.312 88.766 153.312C88.766 153.312 73.7391 146.162 69.6208 140.518C65.5024 134.875 64.1731 121.167 64.1731 121.167C64.1731 121.167 57.3439 121.233 52.4435 127.658C47.5432 134.083 43.9331 150.826 43.9331 150.826C43.9331 150.826 35.9049 136.525 36.2046 128.824C36.5044 121.123 54.7243 107.724 54.7243 107.724C54.7243 107.724 39.2673 108.967 31.4737 111.937C23.6801 114.908 16.877 123.103 16.877 123.103C16.877 123.103 16.877 104.512 24.4099 98.7911C31.9429 93.0706 53.3297 96.3709 53.3297 96.3709L36.6477 83.2466C32.4772 79.9463 26.1433 69.2753 26.1433 69.2753C26.1433 69.2753 33.1028 68.5492 45.1973 72.2565C48.7127 73.2955 51.9447 74.9207 54.7009 77.0356C57.457 79.1504 59.6811 81.7116 61.2407 84.5667Z" fill="#83F4BA"/>
<path d="M42.3688 78.3192C41.0655 77.4061 39.8404 76.5261 38.5371 75.668" stroke="#473C4B" stroke-width="0.5" stroke-linecap="round" stroke-linejoin="round"/>
<path d="M72.6963 59.9355C70.6762 65.128 68.4215 71.9597 68.3694 76.7562C68.2651 85.557 68.7082 103.852 68.7082 103.852C61.9813 95.4402 54.1895 87.6717 45.4707 80.6835" stroke="#473C4B" stroke-width="0.5" stroke-linecap="round" stroke-linejoin="round"/>
<path d="M75.9025 52.4473C75.9025 52.4473 75.1726 53.9654 74.1821 56.3086" stroke="#473C4B" stroke-width="0.5" stroke-linecap="round" stroke-linejoin="round"/>
<path d="M68.7081 103.849C68.7081 103.849 39.0584 99.7459 30.8217 103.002C22.5849 106.259 20.1348 114.685 20.1348 114.685" stroke="#473C4B" stroke-width="0.5" stroke-linecap="round" stroke-linejoin="round"/>
<path d="M109.918 97.3367C116.03 97.0507 117.49 98.0958 117.49 98.0958" stroke="#473C4B" stroke-width="0.5" stroke-linecap="round" stroke-linejoin="round"/>
<path d="M42.4342 140.113C42.4342 140.113 40.2708 132.709 47.517 124.249C54.7633 115.789 69.4383 106.328 69.4383 106.328C69.4383 106.328 95.3866 99.3867 105.643 97.7695" stroke="#473C4B" stroke-width="0.5" stroke-linecap="round" stroke-linejoin="round"/>
<path d="M76.7495 98.5684C72.7354 102.892 69.4512 106.324 69.4512 106.324" stroke="#473C4B" stroke-width="0.5" stroke-linecap="round" stroke-linejoin="round"/>
<path d="M102.933 72.3809C98.2148 75.6812 92.35 80.0816 89.8999 83.4589C87.9059 86.2532 83.5138 91.1597 79.3042 95.7911" stroke="#473C4B" stroke-width="0.5" stroke-linecap="round" stroke-linejoin="round"/>
<path d="M109.735 67.9473C109.735 67.9473 108.08 68.9594 105.695 70.5215" stroke="#473C4B" stroke-width="0.5" stroke-linecap="round" stroke-linejoin="round"/>
<path d="M72.292 108.088C72.292 108.088 98.7095 116.471 102.867 119.76C105.346 121.701 107.614 123.825 109.644 126.108" stroke="#473C4B" stroke-width="0.5" stroke-linecap="round" stroke-linejoin="round"/>
<path d="M70.9499 116.559C70.7675 120.717 70.8587 126.053 72.0968 129.683C73.6333 134.044 75.6265 138.282 78.0528 142.345" stroke="#473C4B" stroke-width="0.5" stroke-linecap="round" stroke-linejoin="round"/>
<path d="M71.4574 110.291C71.4574 110.291 71.2493 111.853 71.0933 114.163" stroke="#473C4B" stroke-width="0.5" stroke-linecap="round" stroke-linejoin="round"/>
<path d="M148.209 134.973H443.624C447.312 134.973 450.849 136.209 453.457 138.411C456.065 140.612 457.53 143.598 457.53 146.711V308.426C457.53 310.112 457.136 311.782 456.372 313.339C455.608 314.897 454.487 316.312 453.075 317.504C451.663 318.697 449.986 319.642 448.141 320.287C446.295 320.933 444.318 321.265 442.32 321.265H149.512C147.515 321.265 145.537 320.933 143.692 320.287C141.846 319.642 140.17 318.697 138.757 317.504C137.345 316.312 136.225 314.897 135.46 313.339C134.696 311.782 134.303 310.112 134.303 308.426V146.711C134.303 143.598 135.768 140.612 138.376 138.411C140.984 136.209 144.521 134.973 148.209 134.973Z" fill="white" stroke="#473C4B" stroke-linecap="round" stroke-linejoin="round"/>
<path d="M256.329 153.307H238.135V163.395H256.329V153.307Z" fill="#473C4B"/>
<path d="M197.381 215.545H180.491V229.692H197.381V215.545Z" fill="#473C4B"/>
<path d="M272.007 165.82H254.986V179.968H272.007V165.82Z" fill="#473C4B"/>
<path d="M235.255 153.307H217.062V163.395H235.255V153.307Z" fill="#473C4B"/>
<path d="M291.895 165.82H274.875V179.968H291.895V165.82Z" fill="#473C4B"/>
<path d="M277.39 153.307H259.196V163.395H277.39V153.307Z" fill="#473C4B"/>
<path d="M187.177 198.965H155.168V213.112H187.177V198.965Z" fill="#473C4B"/>
<path d="M232.218 165.82H215.197V179.968H232.218V165.82Z" fill="#473C4B"/>
<path d="M177.624 215.545H155.168V229.692H177.624V215.545Z" fill="#473C4B"/>
<path d="M298.464 153.307H280.27V163.395H298.464V153.307Z" fill="#473C4B"/>
<path d="M192.429 165.82H175.408V179.968H192.429V165.82Z" fill="#473C4B"/>
<path d="M193.12 153.307H174.926V163.395H193.12V153.307Z" fill="#473C4B"/>
<path d="M214.194 153.307H196V163.395H214.194V153.307Z" fill="#473C4B"/>
<path d="M212.317 165.82H195.296V179.968H212.317V165.82Z" fill="#473C4B"/>
<path d="M252.106 165.82H235.085V179.968H252.106V165.82Z" fill="#473C4B"/>
<path d="M382.747 153.307H364.553V163.395H382.747V153.307Z" fill="#473C4B"/>
<path d="M403.808 153.307H385.614V163.395H403.808V153.307Z" fill="#473C4B"/>
<path d="M391.375 165.82H374.354V179.968H391.375V165.82Z" fill="#473C4B"/>
<path d="M411.276 165.82H394.255V179.968H411.276V165.82Z" fill="#473C4B"/>
<path d="M442.751 215.545H417.688V229.692H442.751V215.545Z" fill="#473C4B"/>
<path d="M424.882 153.307H406.688V163.395H424.882V153.307Z" fill="#473C4B"/>
<path d="M172.541 165.82H155.168V179.968H172.541V165.82Z" fill="#473C4B"/>
<path d="M319.539 153.307H301.345V163.395H319.539V153.307Z" fill="#473C4B"/>
<path d="M340.599 153.307H322.405V163.395H340.599V153.307Z" fill="#473C4B"/>
<path d="M331.698 165.82H314.677V179.968H331.698V165.82Z" fill="#473C4B"/>
<path d="M371.487 165.82H354.466V179.968H371.487V165.82Z" fill="#473C4B"/>
<path d="M311.796 165.82H294.775V179.968H311.796V165.82Z" fill="#473C4B"/>
<path d="M351.585 165.82H334.564V179.968H351.585V165.82Z" fill="#473C4B"/>
<path d="M361.673 153.307H343.479V163.395H361.673V153.307Z" fill="#473C4B"/>
<path d="M335.751 215.545H318.86V229.692H335.751V215.545Z" fill="#473C4B"/>
<path d="M424.374 198.965H407.483V213.112H424.374V198.965Z" fill="#473C4B"/>
<path d="M404.603 198.965H387.713V213.112H404.603V198.965Z" fill="#473C4B"/>
<path d="M414.808 215.545H397.917V229.692H414.808V215.545Z" fill="#473C4B"/>
<path d="M395.05 215.545H378.16V229.692H395.05V215.545Z" fill="#473C4B"/>
<path d="M355.509 215.545H338.618V229.692H355.509V215.545Z" fill="#473C4B"/>
<path d="M375.279 215.545H358.389V229.692H375.279V215.545Z" fill="#473C4B"/>
<path d="M384.832 198.965H367.941V213.112H384.832V198.965Z" fill="#473C4B"/>
<path d="M365.075 198.965H348.184V213.112H365.075V198.965Z" fill="#473C4B"/>
<path d="M442.763 153.307H427.763V163.395H442.763V153.307Z" fill="#473C4B"/>
<path d="M172.059 153.307H155.168V163.395H172.059V153.307Z" fill="#473C4B"/>
<path d="M442.763 232.111H155.168V246.82H442.763V232.111Z" fill="#473C4B"/>
<path d="M442.751 165.82H414.144V179.968H442.751V165.82Z" fill="#473C4B"/>
<path d="M442.75 198.965H427.241V213.112H442.75V198.965Z" fill="#473C4B"/>
<path d="M422.471 196.434H419.591V182.396H402.7V196.434H399.833V182.396H382.943V196.434H380.062V182.396H363.172V196.434H360.292V182.396H343.401V196.434H340.534V182.396H323.643V196.434H320.763V182.396H303.872V196.434H300.992V182.396H284.102V196.434H281.234V182.396H264.344V196.434H261.464V182.396H244.573V196.434H241.693V182.396H224.802V196.434H221.935V182.396H205.045V196.434H202.164V182.396H185.274V196.434H182.394V182.396H155.168V196.544H442.75V182.396H422.471V196.434Z" fill="#473C4B"/>
<path d="M286.004 198.965H269.114V213.112H286.004V198.965Z" fill="#473C4B"/>
<path d="M345.304 198.965H328.413V213.112H345.304V198.965Z" fill="#473C4B"/>
<path d="M246.476 198.965H229.586V213.112H246.476V198.965Z" fill="#473C4B"/>
<path d="M256.681 215.545H239.791V229.692H256.681V215.545Z" fill="#473C4B"/>
<path d="M266.234 198.965H249.343V213.112H266.234V198.965Z" fill="#473C4B"/>
<path d="M226.705 198.965H209.814V213.112H226.705V198.965Z" fill="#473C4B"/>
<path d="M217.152 215.545H200.262V229.692H217.152V215.545Z" fill="#473C4B"/>
<path d="M236.91 215.545H220.019V229.692H236.91V215.545Z" fill="#473C4B"/>
<path d="M305.775 198.965H288.885V213.112H305.775V198.965Z" fill="#473C4B"/>
<path d="M315.98 215.545H299.09V229.692H315.98V215.545Z" fill="#473C4B"/>
<path d="M325.533 198.965H308.642V213.112H325.533V198.965Z" fill="#473C4B"/>
<path d="M276.452 215.545H259.561V229.692H276.452V215.545Z" fill="#473C4B"/>
<path d="M296.209 215.545H279.318V229.692H296.209V215.545Z" fill="#473C4B"/>
<path d="M206.934 198.965H190.044V213.112H206.934V198.965Z" fill="#473C4B"/>
<path d="M475.984 33.7617H114.114C112.34 33.7629 110.589 34.1085 108.998 34.7719C107.407 35.4353 106.018 36.3987 104.938 37.5875C103.859 38.7764 103.118 40.1589 102.772 41.6281C102.426 43.0974 102.486 44.6141 102.945 46.0609L129.402 129.207C130.061 131.282 131.513 133.117 133.532 134.425C135.551 135.734 138.025 136.444 140.571 136.446H177.506V142.199H414.299V136.479H449.488C452.034 136.477 454.508 135.767 456.527 134.458C458.546 133.15 459.998 131.315 460.657 129.24L487.114 46.0939C487.58 44.6476 487.645 43.1302 487.305 41.6592C486.965 40.1881 486.228 38.8029 485.152 37.6106C484.076 36.4184 482.689 35.4511 481.1 34.7837C479.51 34.1163 477.759 33.7666 475.984 33.7617Z" fill="#473C4B" stroke="#473C4B" stroke-linecap="round" stroke-linejoin="round"/>
<path d="M435.061 129.106H155.038L127.03 44.0352H463.055L435.061 129.106Z" fill="#7A4AE6" stroke="#473C4B" stroke-linecap="round" stroke-linejoin="round"/>
<path d="M173.623 91.7754V92.8755H168.683V91.7754H173.623Z" fill="#473C4B"/>
<path d="M179.774 91.7754V92.8755H174.821V91.7754H179.774Z" fill="#473C4B"/>
<path d="M185.926 91.7754V92.8755H181.012V91.7754H185.926Z" fill="#473C4B"/>
<path d="M192.064 91.7754V92.8755H187.125V91.7754H192.064Z" fill="#473C4B"/>
<path d="M198.215 91.7754V92.8755H193.263V91.7754H198.215Z" fill="#473C4B"/>
<path d="M204.367 91.7754V92.8755H199.414V91.7754H204.367Z" fill="#473C4B"/>
<path d="M210.505 91.7754V92.8755H205.566V91.7754H210.505Z" fill="#473C4B"/>
<path d="M216.592 97.5657L211.144 85.3105H212.447L217.895 97.5657H216.592Z" fill="#473C4B"/>
<path d="M168.644 73.9277V75.0278H163.704V73.9277H168.644Z" fill="#473C4B"/>
<path d="M174.795 73.9277V75.0278H169.856V73.9277H174.795Z" fill="#473C4B"/>
<path d="M181.012 73.9277V75.0278H176.06V73.9277H181.012Z" fill="#473C4B"/>
<path d="M187.098 73.9277V75.0278H182.146V73.9277H187.098Z" fill="#473C4B"/>
<path d="M193.237 73.9277V75.0278H188.297V73.9277H193.237Z" fill="#473C4B"/>
<path d="M203.637 73.9277V75.0278H198.685V73.9277H203.637Z" fill="#473C4B"/>
<path d="M209.775 73.9277V75.0278H204.836V73.9277H209.775Z" fill="#473C4B"/>
<path d="M215.927 73.9277V75.0278H210.987V73.9277H215.927Z" fill="#473C4B"/>
<path d="M222.078 73.9277V75.0278H217.126V73.9277H222.078Z" fill="#473C4B"/>
<path d="M228.217 73.9277V75.0278H223.277V73.9277H228.217Z" fill="#473C4B"/>
<path d="M234.368 73.9277V75.0278H229.429V73.9277H234.368Z" fill="#473C4B"/>
<path d="M240.52 73.9277V75.0278H235.567V73.9277H240.52Z" fill="#473C4B"/>
<path d="M250.907 73.9277V75.0278H245.968V73.9277H250.907Z" fill="#473C4B"/>
<path d="M257.058 73.9277V75.0278H252.106V73.9277H257.058Z" fill="#473C4B"/>
<path d="M263.21 73.9277V75.0278H258.258V73.9277H263.21Z" fill="#473C4B"/>
<path d="M273.545 73.9277V75.0278H268.605V73.9277H273.545Z" fill="#473C4B"/>
<path d="M279.749 73.9277V75.0278H274.849V73.9277H279.749Z" fill="#473C4B"/>
<path d="M285.901 73.9277V75.0278H280.948V73.9277H285.901Z" fill="#473C4B"/>
<path d="M309.021 73.9277V75.0278H304.081V73.9277H309.021Z" fill="#473C4B"/>
<path d="M315.172 73.9277V75.0278H310.219V73.9277H315.172Z" fill="#473C4B"/>
<path d="M321.324 73.9277V75.0278H316.371V73.9277H321.324Z" fill="#473C4B"/>
<path d="M327.462 73.9277V75.0278H322.522V73.9277H327.462Z" fill="#473C4B"/>
<path d="M333.614 73.9277V75.0278H328.661V73.9277H333.614Z" fill="#473C4B"/>
<path d="M344.001 73.9277V75.0278H339.062V73.9277H344.001Z" fill="#473C4B"/>
<path d="M350.152 73.9277V75.0278H345.226V73.9277H350.152Z" fill="#473C4B"/>
<path d="M356.304 73.9277V75.0278H351.351V73.9277H356.304Z" fill="#473C4B"/>
<path d="M366.69 73.9277V75.0278H361.751V73.9277H366.69Z" fill="#473C4B"/>
<path d="M377.091 73.9277V75.0278H372.139V73.9277H377.091Z" fill="#473C4B"/>
<path d="M459.511 254.727L445.565 300.139L458.755 303.406L459.511 254.727Z" fill="white" stroke="#473C4B" stroke-linecap="round" stroke-linejoin="round"/>
<path d="M465.766 206.727C464.193 204.686 463.618 202.21 464.163 199.818C464.88 195.341 471.279 194.318 471.279 194.318C471.279 194.318 472.674 193.427 477.796 195.066C482.918 196.705 522.524 201.238 547.834 204.131C573.144 207.024 581.341 205.154 580.989 212.492C580.638 219.829 558.43 285.682 558.091 287.75C557.752 289.818 465.766 206.727 465.766 206.727Z" fill="white" stroke="#473C4B" stroke-miterlimit="10"/>
<path d="M572.224 218.911L465.755 206.729L448.551 313.856L555.02 326.039L572.224 218.911Z" fill="white" stroke="#473C4B" stroke-linecap="round" stroke-linejoin="round"/>
<path d="M552.435 240.279L558.625 240.994" stroke="#473C4B" stroke-width="0.5" stroke-linecap="round" stroke-linejoin="round"/>
<path d="M513.662 235.848L547.534 239.731" stroke="#473C4B" stroke-width="0.5" stroke-linecap="round" stroke-linejoin="round"/>
<path d="M472.608 231.15L508.761 235.287" stroke="#473C4B" stroke-width="0.5" stroke-linecap="round" stroke-linejoin="round"/>
<path d="M542.738 248.873L557.1 250.523" stroke="#473C4B" stroke-width="0.5" stroke-linecap="round" stroke-linejoin="round"/>
<path d="M471.084 240.678L528.05 247.19" stroke="#473C4B" stroke-width="0.5" stroke-linecap="round" stroke-linejoin="round"/>
<path d="M499.99 253.682L555.575 260.04" stroke="#473C4B" stroke-width="0.5" stroke-linecap="round" stroke-linejoin="round"/>
<path d="M469.546 250.191L494.269 253.03" stroke="#473C4B" stroke-width="0.5" stroke-linecap="round" stroke-linejoin="round"/>
<path d="M518.458 265.498L554.038 269.568" stroke="#473C4B" stroke-width="0.5" stroke-linecap="round" stroke-linejoin="round"/>
<path d="M488.261 262.031L514.379 265.024" stroke="#473C4B" stroke-width="0.5" stroke-linecap="round" stroke-linejoin="round"/>
<path d="M468.021 259.721L483.765 261.525" stroke="#473C4B" stroke-width="0.5" stroke-linecap="round" stroke-linejoin="round"/>
<path d="M539.78 277.629L552.513 279.081" stroke="#473C4B" stroke-width="0.5" stroke-linecap="round" stroke-linejoin="round"/>
<path d="M466.496 269.248L531.217 276.652" stroke="#473C4B" stroke-width="0.5" stroke-linecap="round" stroke-linejoin="round"/>
<path d="M514.991 284.482L550.988 288.608" stroke="#473C4B" stroke-width="0.5" stroke-linecap="round" stroke-linejoin="round"/>
<path d="M464.958 278.762L508.866 283.789" stroke="#473C4B" stroke-width="0.5" stroke-linecap="round" stroke-linejoin="round"/>
<path d="M526.108 295.459L549.45 298.121" stroke="#473C4B" stroke-width="0.5" stroke-linecap="round" stroke-linejoin="round"/>
<path d="M478.773 290.039L520.4 294.803" stroke="#473C4B" stroke-width="0.5" stroke-linecap="round" stroke-linejoin="round"/>
<path d="M463.434 288.285L473.873 289.473" stroke="#473C4B" stroke-width="0.5" stroke-linecap="round" stroke-linejoin="round"/>
<path d="M572.231 218.915C572.231 218.915 574.056 203.976 580.572 209.983" stroke="#473C4B" stroke-linecap="round" stroke-linejoin="round"/>
<path d="M536.131 333.999L536.013 343.493L529.458 335.682L503.145 260.974L509.817 259.291L536.131 333.999Z" fill="white" stroke="#473C4B" stroke-linecap="round" stroke-linejoin="round"/>
<path d="M507.206 262.479L503.565 263.375L529.419 338.2L533.06 337.303L507.206 262.479Z" fill="#83F4BA" stroke="#473C4B" stroke-width="0.5" stroke-linecap="round" stroke-linejoin="round"/>
<path d="M536.13 334.021L529.471 335.694L536.013 343.493L536.13 334.021Z" stroke="#473C4B" stroke-linecap="round" stroke-linejoin="round"/>
<path d="M532.742 339.586L536.013 343.491L536.078 338.75L532.742 339.586Z" fill="#473C4B" stroke="#473C4B" stroke-linecap="round" stroke-linejoin="round"/>
<path d="M503.536 251.763C502.653 251.988 501.911 252.497 501.471 253.182C501.032 253.866 500.931 254.669 501.19 255.416L503.145 260.971L509.817 259.299L507.863 253.744C507.597 252.998 506.993 252.372 506.183 252.001C505.372 251.63 504.42 251.545 503.536 251.763Z" fill="white" stroke="#473C4B" stroke-linecap="round" stroke-linejoin="round"/>
<path d="M503.536 251.763C502.653 251.988 501.911 252.497 501.471 253.182C501.032 253.866 500.931 254.669 501.19 255.416L502.128 258.067L508.788 256.395L507.863 253.744C507.597 252.998 506.993 252.372 506.183 252.001C505.372 251.63 504.42 251.545 503.536 251.763Z" fill="#473C4B" stroke="#473C4B" stroke-linecap="round" stroke-linejoin="round"/>
<path d="M175.343 207.639C174.509 208.629 173.688 209.663 172.867 210.752" stroke="white" stroke-linecap="round" stroke-linejoin="round"/>
<path d="M188.975 194.396C185.344 197.238 181.984 200.317 178.927 203.604" stroke="white" stroke-linecap="round" stroke-linejoin="round"/>
<path d="M174.183 200.242C170.622 204.458 167.396 208.868 164.526 213.443" stroke="white" stroke-linecap="round" stroke-linejoin="round"/>
<path d="M266.103 224.426C265.282 225.416 264.448 226.45 263.627 227.528" stroke="white" stroke-linecap="round" stroke-linejoin="round"/>
<path d="M279.736 211.186C276.111 214.029 272.756 217.108 269.701 220.393" stroke="white" stroke-linecap="round" stroke-linejoin="round"/>
<path d="M264.957 217.006C261.398 221.246 258.172 225.678 255.299 230.273" stroke="white" stroke-linecap="round" stroke-linejoin="round"/>
<path d="M396.197 197.2C395.011 196.518 393.76 195.836 392.47 195.154" stroke="white" stroke-linecap="round" stroke-linejoin="round"/>
<path d="M412.097 208.507C408.67 205.494 404.97 202.71 401.032 200.18" stroke="white" stroke-linecap="round" stroke-linejoin="round"/>
<path d="M404.955 196.1C399.883 193.16 394.589 190.503 389.107 188.146" stroke="white" stroke-linecap="round" stroke-linejoin="round"/>
<path d="M262.141 265.41C261.464 269.547 260.447 275.311 259.431 278.732" stroke="#473C4B" stroke-linecap="round" stroke-linejoin="round"/>
<path d="M262.897 260.379C262.897 260.379 262.793 261.16 262.598 262.425" stroke="#473C4B" stroke-linecap="round" stroke-linejoin="round"/>
<path d="M266.377 272.113C264.954 276.12 263.213 280.042 261.164 283.851" stroke="#473C4B" stroke-linecap="round" stroke-linejoin="round"/>
<path d="M331.541 277.979C331.541 277.979 332.414 287.516 338.487 292.654" stroke="#473C4B" stroke-linecap="round" stroke-linejoin="round"/>
<path d="M330.669 287.521C330.669 287.521 333.276 294.122 338.489 297.059" stroke="#473C4B" stroke-linecap="round" stroke-linejoin="round"/>
<g style="mix-blend-mode:multiply">
<path d="M153.644 338.497C153.644 338.497 159.43 334.57 159.43 300.808C159.43 267.045 166.09 242.381 174.301 231.567C182.511 220.753 190.188 216.418 193.785 216.418C197.382 216.418 194.801 220.313 189.679 225.934C184.557 231.556 179.944 234.592 177.885 241.523C175.825 248.454 175.838 257.1 178.406 256.231C180.973 255.362 185.066 238.057 188.65 231.567C192.234 225.076 200.966 216.847 206.088 212.953C211.21 209.059 222.496 197.376 227.618 200.401C232.74 203.426 229.677 207.761 226.601 209.488C223.526 211.215 211.21 221.589 205.579 228.102C199.949 234.614 196.352 251.039 199.428 251.468C202.504 251.897 211.731 227.673 216.853 222.48C221.975 217.287 242.488 202.997 247.102 202.568C251.716 202.139 252.237 208.19 248.131 211.226C244.026 214.262 230.185 227.232 225.572 235.021C220.958 242.81 218.899 257.1 222.965 253.635C227.031 250.17 233.73 235.89 239.373 231.127C245.017 226.363 261.933 211.226 266.039 212.953C270.144 214.68 269.114 219.015 265.53 222.04C261.946 225.065 248.092 241.523 244.508 250.17C240.924 258.816 236.806 283.063 238.865 279.609C240.924 276.154 247.584 258.398 251.168 251.006C254.752 243.613 261.933 240.192 262.963 243.646C263.992 247.1 261.933 248.839 259.366 256.638C256.798 264.438 256.759 285.241 249.122 296.88C241.485 308.519 210.832 333.426 206.739 342.073C203.775 348.028 200.235 353.768 196.157 359.234" fill="#7A4AE6"/>
</g>
<g style="mix-blend-mode:multiply">
<path d="M438.476 341.423C438.476 341.423 432.546 334.57 432.546 300.808C432.546 267.045 425.873 242.381 417.675 231.567C409.478 220.753 401.775 216.418 398.191 216.418C394.607 216.418 397.162 220.313 402.296 225.934C407.431 231.556 412.032 234.592 414.026 241.523C416.02 248.454 416.085 257.1 413.518 256.231C410.95 255.362 406.858 238.057 403.261 231.567C399.664 225.076 390.958 216.847 385.836 212.953C380.714 209.059 369.428 197.376 364.293 200.401C359.158 203.426 362.247 207.761 365.322 209.488C368.398 211.215 380.701 221.589 386.344 228.102C391.987 234.614 395.572 251.039 392.496 251.468C389.42 251.897 380.232 227.672 375.11 222.502C369.988 217.331 349.461 203.019 344.848 202.59C340.234 202.161 339.726 208.212 343.831 211.248C347.937 214.284 361.777 227.254 366.391 235.043C371.005 242.832 373.051 257.122 368.998 253.657C364.944 250.192 358.233 235.912 352.602 231.149C346.972 226.385 330.043 211.248 325.937 212.975C321.832 214.702 322.861 219.037 326.445 222.062C330.029 225.087 343.883 241.545 347.467 250.192C351.051 258.839 355.157 283.085 353.111 279.631C351.064 276.176 344.392 258.42 340.808 251.028C337.224 243.635 330.043 240.214 329.013 243.668C327.983 247.122 330.043 248.861 332.597 256.66C335.151 264.46 335.204 285.263 342.854 296.902C350.504 308.541 380.284 331.259 384.389 339.916C388.495 348.574 395.923 362.215 395.923 362.215" fill="#7A4AE6"/>
</g>
<path d="M151.688 346.817C151.688 346.817 159.378 325.618 159.378 291.811C159.378 258.005 166.038 233.385 174.248 222.571C182.459 211.757 190.135 207.422 193.732 207.422C197.329 207.422 194.749 211.317 189.627 216.938C184.505 222.56 179.891 225.596 177.832 232.516C175.773 239.435 175.786 248.104 178.354 247.235C180.921 246.366 185.013 229.061 188.597 222.571C192.181 216.08 200.913 207.851 206.035 203.957C211.157 200.063 222.444 188.379 227.566 191.405C232.687 194.43 229.625 198.764 226.549 200.492C223.473 202.219 211.157 212.593 205.527 219.105C199.897 225.618 196.3 242.043 199.376 242.472C202.451 242.901 211.679 218.676 216.8 213.473C221.922 208.269 242.436 194.001 247.05 193.572C251.663 193.143 252.185 199.194 248.079 202.23C243.974 205.266 230.133 218.236 225.519 226.025C220.906 233.814 218.847 248.104 222.913 244.639C226.979 241.174 233.678 226.894 239.321 222.131C244.964 217.367 261.881 202.23 265.986 203.957C270.092 205.684 269.062 210.019 265.478 213.044C261.894 216.069 248.04 232.516 244.456 241.174C240.872 249.831 236.754 274.067 238.813 270.601C240.872 267.136 247.532 249.402 251.116 241.999C254.7 234.595 261.881 231.174 262.911 234.639C263.94 238.104 261.881 239.831 259.314 247.62C256.746 255.409 256.707 276.223 249.07 287.873C241.432 299.523 211.639 331.151 207.534 339.809C203.429 348.467 194.202 367.51 194.202 367.51" fill="white"/>
<path d="M151.688 346.817C151.688 346.817 159.378 325.618 159.378 291.811C159.378 258.005 166.038 233.385 174.248 222.571C182.459 211.757 190.135 207.422 193.732 207.422C197.329 207.422 194.749 211.317 189.627 216.938C184.505 222.56 179.891 225.596 177.832 232.516C175.773 239.435 175.786 248.104 178.354 247.235C180.921 246.366 185.013 229.061 188.597 222.571C192.181 216.08 200.913 207.851 206.035 203.957C211.157 200.063 222.444 188.379 227.566 191.405C232.687 194.43 229.625 198.764 226.549 200.492C223.473 202.219 211.157 212.593 205.527 219.105C199.897 225.618 196.3 242.043 199.376 242.472C202.451 242.901 211.679 218.676 216.8 213.473C221.922 208.269 242.436 194.001 247.05 193.572C251.663 193.143 252.185 199.194 248.079 202.23C243.974 205.266 230.133 218.236 225.519 226.025C220.906 233.814 218.847 248.104 222.913 244.639C226.979 241.174 233.678 226.894 239.321 222.131C244.964 217.367 261.881 202.23 265.986 203.957C270.092 205.684 269.062 210.019 265.478 213.044C261.894 216.069 248.04 232.516 244.456 241.174C240.872 249.831 236.754 274.067 238.813 270.601C240.872 267.136 247.532 249.402 251.116 241.999C254.7 234.595 261.881 231.174 262.911 234.639C263.94 238.104 261.881 239.831 259.314 247.62C256.746 255.409 256.707 276.223 249.07 287.873C241.432 299.523 211.639 331.151 207.534 339.809C203.429 348.467 194.202 367.51 194.202 367.51" stroke="#473C4B" stroke-linecap="round" stroke-linejoin="round"/>
<path d="M440.222 346.817C440.222 346.817 432.533 325.618 432.533 291.811C432.533 258.005 425.86 233.385 417.663 222.571C409.465 211.757 401.763 207.422 398.178 207.422C394.594 207.422 397.149 211.317 402.284 216.938C407.419 222.56 412.019 225.596 414.013 232.516C416.007 239.435 416.073 248.104 413.505 247.235C410.938 246.366 406.845 229.061 403.248 222.571C399.651 216.08 390.945 207.851 385.823 203.957C380.701 200.063 369.415 188.379 364.28 191.405C359.145 194.43 362.234 198.764 365.31 200.492C368.385 202.219 380.688 212.593 386.332 219.105C391.975 225.618 395.559 242.043 392.483 242.472C389.407 242.901 380.18 218.676 375.058 213.473C369.936 208.269 349.41 194.001 344.796 193.572C340.182 193.143 339.674 199.194 343.78 202.23C347.885 205.266 361.726 218.236 366.339 226.025C370.953 233.814 372.999 248.104 368.946 244.639C364.893 241.174 358.181 226.894 352.551 222.131C346.92 217.367 329.991 202.23 325.885 203.957C321.78 205.684 322.81 210.019 326.394 213.044C329.978 216.069 343.832 232.516 347.416 241.174C351 249.831 355.105 274.067 353.059 270.601C351.013 267.136 344.34 249.402 340.756 241.999C337.172 234.595 329.991 231.174 328.961 234.639C327.932 238.104 329.991 239.831 332.545 247.62C335.1 255.409 335.152 276.223 342.802 287.873C350.452 299.523 380.232 331.151 384.338 339.809C388.443 348.467 397.67 367.51 397.67 367.51" fill="white"/>
<path d="M440.222 346.817C440.222 346.817 432.533 325.618 432.533 291.811C432.533 258.005 425.86 233.385 417.663 222.571C409.465 211.757 401.763 207.422 398.178 207.422C394.594 207.422 397.149 211.317 402.284 216.938C407.419 222.56 412.019 225.596 414.013 232.516C416.007 239.435 416.073 248.104 413.505 247.235C410.938 246.366 406.845 229.061 403.248 222.571C399.651 216.08 390.945 207.851 385.823 203.957C380.701 200.063 369.415 188.379 364.28 191.405C359.145 194.43 362.234 198.764 365.31 200.492C368.385 202.219 380.688 212.593 386.332 219.105C391.975 225.618 395.559 242.043 392.483 242.472C389.407 242.901 380.18 218.676 375.058 213.473C369.936 208.269 349.41 194.001 344.796 193.572C340.182 193.143 339.674 199.194 343.78 202.23C347.885 205.266 361.726 218.236 366.339 226.025C370.953 233.814 372.999 248.104 368.946 244.639C364.893 241.174 358.181 226.894 352.551 222.131C346.92 217.367 329.991 202.23 325.885 203.957C321.78 205.684 322.81 210.019 326.394 213.044C329.978 216.069 343.832 232.516 347.416 241.174C351 249.831 355.105 274.067 353.059 270.601C351.013 267.136 344.34 249.402 340.756 241.999C337.172 234.595 329.991 231.174 328.961 234.639C327.932 238.104 329.991 239.831 332.545 247.62C335.1 255.409 335.152 276.223 342.802 287.873C350.452 299.523 380.232 331.151 384.338 339.809C388.443 348.467 397.67 367.51 397.67 367.51" stroke="#473C4B" stroke-linecap="round" stroke-linejoin="round"/>
<path d="M119.237 412.82H197.434C198.451 409.52 199.728 405.823 201.344 401.819C207.496 386.263 227.41 366.813 227.41 366.813C213.137 356.203 196.366 348.262 178.198 343.513C148.222 335.724 126.275 338.013 126.275 338.013C130.315 352.074 130.76 366.7 127.578 380.917C123.668 396.934 121.062 407.066 119.237 412.82Z" fill="#473C4B"/>
<path d="M393.969 412.819H475.215C472.609 407.12 466.979 394.744 461.349 382.368C453.659 365.514 456.735 342.83 453.659 342.83C450.583 342.83 416.033 340.883 399.143 345.415C382.252 349.948 363.042 362.918 363.042 362.918C371.738 371.447 379.214 380.811 385.315 390.817C389.237 397.83 392.142 405.218 393.969 412.819Z" fill="#473C4B"/>
<path d="M168.084 351.434C167.523 349.563 159.182 352.38 159.182 352.38C159.182 352.38 161.971 343.469 157.527 343.469C153.083 343.469 152.523 350.069 152.523 350.069C152.523 350.069 144.182 347.264 144.182 351.478C144.182 355.691 149.734 355.614 149.734 355.614C149.734 355.614 143.061 362.655 148.065 364.052C153.07 365.449 156.393 360.3 156.393 360.3C156.393 360.3 159.73 364.998 164.213 363.117C168.696 361.235 165.321 357.022 165.321 357.022C165.321 357.022 168.631 353.315 168.084 351.434ZM156.967 358.474C156.547 358.395 156.163 358.218 155.857 357.963C155.552 357.708 155.338 357.385 155.241 357.032C155.143 356.678 155.166 356.309 155.306 355.966C155.447 355.623 155.699 355.321 156.034 355.094C156.369 354.867 156.774 354.724 157.201 354.682C157.627 354.641 158.06 354.702 158.447 354.859C158.835 355.015 159.162 355.261 159.391 355.568C159.62 355.875 159.742 356.23 159.743 356.593C159.649 357.145 159.31 357.647 158.794 357.996C158.279 358.345 157.626 358.516 156.967 358.474ZM180.309 404.019C179.748 402.148 171.407 404.965 171.407 404.965C171.407 404.965 174.196 396.054 169.739 396.054C165.282 396.054 164.747 402.654 164.747 402.654C164.747 402.654 156.406 399.838 156.406 404.052C156.406 408.265 161.971 408.276 161.971 408.276C161.971 408.276 155.299 415.317 160.303 416.725C165.308 418.133 168.631 412.962 168.631 412.962C168.631 412.962 171.967 417.66 176.451 415.779C180.934 413.898 177.559 409.684 177.559 409.684C177.559 409.684 180.856 405.845 180.309 404.019ZM169.191 411.059C168.772 410.981 168.387 410.803 168.082 410.548C167.777 410.293 167.563 409.97 167.465 409.617C167.368 409.263 167.391 408.894 167.531 408.551C167.672 408.208 167.924 407.906 168.259 407.679C168.594 407.452 168.998 407.309 169.425 407.268C169.852 407.226 170.284 407.287 170.672 407.444C171.06 407.6 171.387 407.846 171.616 408.153C171.845 408.46 171.967 408.815 171.967 409.178C171.873 409.726 171.532 410.222 171.015 410.562C170.497 410.903 169.844 411.061 169.191 411.004V411.059ZM131.396 411.059C130.836 409.178 122.508 411.994 122.508 411.994C122.508 411.994 125.284 403.084 120.84 403.084C116.396 403.084 115.835 409.684 115.835 409.684C115.835 409.684 107.494 406.868 107.494 411.092C107.494 415.317 113.059 415.317 113.059 415.317C113.059 415.317 106.386 422.346 111.391 423.755C116.396 425.163 119.719 420.003 119.719 420.003C119.719 420.003 123.055 424.69 127.539 422.819C132.022 420.949 128.659 416.725 128.659 416.725C128.659 416.725 131.957 412.874 131.409 411.004L131.396 411.059ZM120.279 418.089C119.859 418.01 119.474 417.833 119.169 417.577C118.863 417.321 118.65 416.998 118.553 416.644C118.456 416.29 118.479 415.92 118.621 415.577C118.762 415.234 119.016 414.932 119.352 414.705C119.688 414.478 120.094 414.337 120.521 414.296C120.949 414.256 121.381 414.319 121.769 414.477C122.156 414.635 122.482 414.883 122.71 415.191C122.938 415.499 123.057 415.856 123.055 416.219C122.958 416.763 122.617 417.254 122.103 417.592C121.589 417.93 120.941 418.088 120.292 418.034L120.279 418.089ZM191.96 374.47H198.072C202.516 374.47 205.292 378.694 205.292 378.694C195.857 380.982 191.973 374.415 191.973 374.415L191.96 374.47ZM185.847 411.059H191.96C196.404 411.059 199.18 415.284 199.18 415.284C189.744 417.572 185.86 411.004 185.86 411.004L185.847 411.059ZM132.517 404.019H138.63C143.074 404.019 145.85 408.243 145.85 408.243C136.401 410.531 132.517 404.019 132.517 404.019ZM162.063 370.916L165.634 375.108C168.24 378.166 165.777 382.523 165.777 382.523C158.009 377.363 162.063 370.861 162.063 370.861V370.916ZM131.488 384.932L134.277 380.344C136.323 377.044 142.031 376.846 142.031 376.846C140.115 385.009 131.488 384.932 131.488 384.932Z" fill="white"/>
<path d="M429.796 360.342C429.236 358.472 420.895 361.288 420.895 361.288C420.895 361.288 423.684 352.377 419.24 352.377C414.795 352.377 414.235 358.978 414.235 358.978C414.235 358.978 405.894 356.172 405.894 360.386C405.894 364.599 411.459 364.61 411.459 364.61C411.459 364.61 404.786 371.651 409.791 373.059C414.795 374.467 418.119 369.297 418.119 369.297C418.119 369.297 421.455 373.994 425.938 372.113C430.422 370.232 427.046 366.018 427.046 366.018C427.046 366.018 430.344 362.212 429.796 360.342ZM418.679 367.382C418.26 367.304 417.875 367.126 417.57 366.871C417.264 366.616 417.051 366.293 416.953 365.94C416.856 365.586 416.878 365.217 417.019 364.874C417.159 364.531 417.411 364.229 417.747 364.002C418.082 363.775 418.486 363.632 418.913 363.591C419.34 363.549 419.772 363.61 420.16 363.767C420.547 363.924 420.874 364.169 421.104 364.476C421.333 364.783 421.455 365.138 421.455 365.501C421.376 366.059 421.042 366.569 420.523 366.921C420.003 367.272 419.342 367.438 418.679 367.382ZM455.901 396.931C455.354 395.05 447.013 397.866 447.013 397.866C447.013 397.866 449.788 388.955 445.344 388.955C440.9 388.955 440.353 395.556 440.353 395.556C440.353 395.556 432.012 392.74 432.012 396.964C432.012 401.189 437.564 401.189 437.564 401.189C437.564 401.189 430.904 408.218 435.909 409.627C440.913 411.035 444.237 405.875 444.237 405.875C444.237 405.875 447.573 410.562 452.056 408.691C456.539 406.821 453.164 402.597 453.164 402.597C453.164 402.597 456.461 398.801 455.901 396.931ZM444.797 404.016C444.377 403.937 443.992 403.76 443.686 403.504C443.381 403.248 443.167 402.924 443.07 402.571C442.973 402.217 442.997 401.847 443.138 401.504C443.28 401.161 443.533 400.859 443.869 400.632C444.206 400.405 444.611 400.264 445.039 400.223C445.466 400.183 445.899 400.246 446.286 400.404C446.674 400.562 447 400.81 447.228 401.118C447.455 401.426 447.575 401.783 447.573 402.146C447.491 402.702 447.155 403.209 446.636 403.558C446.117 403.908 445.457 404.072 444.797 404.016ZM428.128 411.057C427.568 409.175 419.24 411.992 419.24 411.992C419.24 411.992 422.016 403.081 417.571 403.081C413.127 403.081 412.567 409.681 412.567 409.681C412.567 409.681 404.226 406.865 404.226 411.09C404.226 415.314 409.791 415.314 409.791 415.314C409.791 415.314 403.118 422.344 408.123 423.752C413.127 425.16 416.451 420 416.451 420C416.451 420 419.787 424.687 424.27 422.817C428.754 420.947 425.391 416.722 425.391 416.722C425.391 416.722 428.636 412.872 428.128 411.002V411.057ZM417.011 418.086C416.591 418.007 416.206 417.83 415.9 417.574C415.595 417.318 415.381 416.995 415.284 416.641C415.187 416.287 415.211 415.917 415.352 415.574C415.494 415.231 415.747 414.929 416.083 414.702C416.42 414.476 416.825 414.334 417.253 414.294C417.681 414.253 418.113 414.316 418.5 414.474C418.888 414.633 419.214 414.88 419.442 415.188C419.669 415.497 419.789 415.853 419.787 416.216C419.69 416.762 419.347 417.255 418.83 417.593C418.313 417.932 417.661 418.088 417.011 418.031V418.086ZM453.685 383.378H459.798C464.242 383.378 467.018 387.602 467.018 387.602C457.569 389.891 453.685 383.323 453.685 383.323V383.378ZM388.117 410.067H394.23C398.674 410.067 401.45 414.28 401.45 414.28C392.001 416.634 388.117 410.067 388.117 410.067ZM423.775 379.814L427.346 384.005C429.953 387.063 427.489 391.42 427.489 391.42C419.722 386.271 423.775 379.814 423.775 379.814ZM459.915 406.04L463.473 410.232C466.08 413.279 463.616 417.646 463.616 417.646C455.849 412.531 459.915 406.04 459.915 406.04ZM393.148 393.84L395.937 389.253C397.983 385.952 403.757 385.754 403.757 385.754C401.828 393.917 393.135 393.84 393.135 393.84H393.148Z" fill="white"/>
</svg>
