<svg width="40" height="40" viewBox="0 0 40 40" fill="none" xmlns="http://www.w3.org/2000/svg">
<g clip-path="url(#clip0_701_4250)">
<path fill-rule="evenodd" clip-rule="evenodd" d="M28.0721 10.9125C26.0071 8.94299 23.2512 7.87005 20.3999 7.91415C15.1822 7.91415 10.7508 11.4342 9.1708 16.1742C8.33303 18.6582 8.33303 21.3479 9.17079 23.8319H9.17813C10.7655 28.5645 15.1895 32.0847 20.4072 32.0847C23.1006 32.0847 25.4129 31.3957 27.205 30.1789V30.174C29.3141 28.7777 30.7545 26.5804 31.2028 24.0965H20.3999V16.3948H39.2645C39.4997 17.7323 39.6099 19.0992 39.6099 20.4588C39.6099 26.5418 37.436 31.6848 33.6533 35.1681L33.6573 35.1712C30.3429 38.2283 25.794 39.9994 20.3999 39.9994C12.8379 39.9994 5.92257 35.7371 2.52738 28.9834C-0.309265 23.3322 -0.309258 16.6741 2.52741 11.0228C5.92259 4.2618 12.8379 -0.000605348 20.3999 -0.000605348C25.3677 -0.0593965 30.1666 1.80722 33.7822 5.20241L28.0721 10.9125Z" fill="#7A4AE6"/>
</g>
<defs>
<clipPath id="clip0_701_4250">
<rect width="40" height="40" fill="white"/>
</clipPath>
</defs>
</svg>
