<svg width="478" height="456" viewBox="0 0 478 456" fill="none" xmlns="http://www.w3.org/2000/svg">
<path d="M238.508 455.005C106.783 455.005 -0.000427246 394.855 -0.000427246 320.657C-0.000427246 246.458 106.783 186.309 238.508 186.309C370.232 186.309 477.016 246.458 477.016 320.657C477.016 394.855 370.232 455.005 238.508 455.005Z" fill="#FAFAFA"/>
<path d="M378.348 151.431L376.033 152.733L328.576 126.796L330.891 125.484L378.348 151.431Z" fill="#FAFAFA"/>
<path d="M330.889 125.478L376.031 150.152V34.3715L330.889 9.70703V125.478Z" fill="white"/>
<path d="M324.21 1.27734L380.4 31.9907V159.898L324.21 129.184V1.27734ZM328.577 126.801L376.034 152.739V34.3835L328.577 8.43647V126.801Z" fill="#F0F0F0"/>
<path d="M328.576 126.794L330.891 125.483V9.7122L328.576 8.42969V126.794Z" fill="#D9D9D9"/>
<path d="M324.209 1.27294L326.564 0L382.744 30.7134L380.399 31.9863L324.209 1.27294Z" fill="#FAFAFA"/>
<path d="M382.744 30.7109L380.399 31.9839V159.891L382.744 158.618V30.7109Z" fill="#D9D9D9"/>
<path d="M334.277 122.934L372.646 143.904V38.2396L334.277 17.2695V122.934Z" fill="#F0F0F0"/>
<path d="M334.277 122.934L372.646 143.904V38.2396L334.277 17.2695V122.934Z" fill="#F0F0F0"/>
<path d="M372.646 108.669C370.819 108.798 368.985 108.798 367.158 108.669C360.774 108.217 354.488 106.929 348.478 104.84C343.829 103.223 339.189 101.117 334.277 101.012V123.025L339.472 125.896C341.502 124.132 343.944 122.846 346.598 122.145C353.987 120.307 361.568 123.829 369.169 124.652C370.324 124.769 371.485 124.823 372.646 124.815V108.669Z" fill="#FAFAFA"/>
<path d="M372.646 82.3615C364.065 79.9592 355.251 77.9493 349.125 71.9865C344.193 67.201 341.868 60.5013 340.24 53.993C338.613 47.4847 337.501 40.7276 334.378 34.7074L334.277 34.5352V83.1272C334.752 83.8068 335.237 84.4863 335.752 85.1467C341.382 92.3824 349.691 98.4217 359.173 98.8907C363.63 99.1108 368.27 98.1154 372.646 98.1346V82.3615Z" fill="#FAFAFA"/>
<path d="M372.646 58.1844C369.335 55.4129 366.818 51.8922 365.332 47.9508C363.845 44.0094 363.437 39.7757 364.146 35.6447C364.267 35.0321 364.419 34.4292 364.58 33.8357L349.813 25.7578C349.873 26.7149 349.924 27.605 349.944 28.5143C350.106 33.8549 349.944 39.2529 351.157 44.4692C352.241 48.8393 354.304 52.938 357.206 56.4881C360.108 60.0382 363.781 62.9569 367.977 65.0468C369.479 65.7781 371.041 66.3958 372.646 66.894V58.1844Z" fill="#FAFAFA"/>
<path d="M457.502 208.22L455.187 209.522L407.74 183.585L410.055 182.273L457.502 208.22Z" fill="#FAFAFA"/>
<path d="M410.055 182.267L455.188 206.941V91.1606L410.045 66.4961L410.055 182.267Z" fill="white"/>
<path d="M403.376 58.0664L459.557 88.7798V216.687L403.376 185.973V58.0664ZM407.743 183.59L455.2 209.528V91.1726L407.743 65.2734V183.59Z" fill="#F0F0F0"/>
<path d="M407.742 183.584L410.057 182.272L410.047 66.5013L407.742 65.2188V183.584Z" fill="#D9D9D9"/>
<path d="M403.375 58.062L405.72 56.7891L461.91 87.5025L459.555 88.7754L403.375 58.062Z" fill="#FAFAFA"/>
<path d="M461.91 87.5L459.555 88.7729V216.68L461.91 215.407V87.5Z" fill="#D9D9D9"/>
<path d="M413.433 179.715L451.803 200.695V95.0209L413.433 74.0508V179.715Z" fill="#F0F0F0"/>
<path d="M413.433 179.715L451.803 200.695V95.0209L413.433 74.0508V179.715Z" fill="#F0F0F0"/>
<path d="M451.781 165.458C449.958 165.587 448.126 165.587 446.303 165.458C439.916 165.006 433.626 163.717 427.613 161.629C422.973 160.002 418.334 157.896 413.462 157.801V179.814L418.657 182.685C420.675 180.929 423.098 179.645 425.733 178.934C433.132 177.096 440.713 180.618 448.304 181.441C449.459 181.557 450.62 181.612 451.781 181.604V165.458Z" fill="#FAFAFA"/>
<path d="M451.783 139.151C443.201 136.748 434.397 134.748 428.271 128.776C423.329 123.99 421.004 117.29 419.376 110.782C417.749 104.274 416.637 97.5167 413.514 91.4965C413.484 91.4371 413.45 91.3796 413.413 91.3242V139.926C413.898 140.605 414.423 141.285 414.888 141.945C420.549 149.171 428.858 155.239 438.339 155.68C442.786 155.9 447.436 154.904 451.803 154.924L451.783 139.151Z" fill="#FAFAFA"/>
<path d="M451.781 114.972C448.471 112.199 445.955 108.678 444.469 104.737C442.983 100.796 442.574 96.563 443.28 92.432C443.402 91.8194 443.553 91.2165 443.715 90.6231L428.957 82.5547C429.018 83.5118 429.058 84.3923 429.089 85.3016C429.24 90.6422 429.089 96.0498 430.302 101.256C431.384 105.627 433.446 109.727 436.348 113.277C439.25 116.827 442.924 119.746 447.121 121.834C448.621 122.558 450.179 123.166 451.781 123.653V114.972Z" fill="#FAFAFA"/>
<path d="M424.97 281.716C375.573 254.707 282.983 261.541 218.181 296.963L203.13 304.936C138.318 340.348 125.824 390.979 175.232 417.988C224.64 444.998 317.219 438.164 382.042 402.732L397.072 394.769C461.895 359.347 474.378 308.726 424.97 281.716Z" fill="#D9D9D9"/>
<path d="M447.318 320.962C447.318 342.976 426.91 367.267 392.735 385.95L378.17 393.941C342.62 413.361 297.498 424.511 254.316 424.511C224.387 424.511 198.723 419.113 180.083 408.92C162.293 399.205 152.903 386.112 152.903 371.067C152.903 349.053 173.311 324.762 207.486 306.089L222.072 298.097C257.602 278.678 302.744 267.527 345.925 267.527C375.835 267.527 401.519 272.925 420.148 283.119C437.928 292.833 447.318 305.926 447.318 320.962Z" fill="#83F4BA"/>
<path d="M254.318 424.502C224.409 424.502 198.724 419.113 180.085 408.92C162.315 399.205 152.915 386.112 152.915 371.067C152.915 349.053 173.313 324.762 207.498 306.089L222.074 298.097C257.603 278.668 302.756 267.527 345.927 267.527C375.846 267.527 401.521 272.916 420.16 283.109C437.94 292.833 447.33 305.917 447.33 320.972C447.33 342.985 426.932 367.267 392.747 385.95L378.171 393.941C342.642 413.361 297.499 424.502 254.328 424.502H254.318Z" fill="#83F4BA"/>
<path opacity="0.85" d="M447.318 320.962C447.318 342.976 426.91 367.267 392.735 385.95L378.17 393.941C342.62 413.361 297.498 424.511 254.316 424.511C224.387 424.511 198.723 419.113 180.083 408.92C162.293 399.205 152.903 386.112 152.903 371.067C152.903 349.053 173.311 324.762 207.486 306.089L222.072 298.097C257.602 278.678 302.744 267.527 345.925 267.527C375.835 267.527 401.519 272.925 420.148 283.119C437.928 292.833 447.318 305.926 447.318 320.962Z" fill="white"/>
<path d="M362.17 383.029L370.772 378.243C397.437 363.695 413.377 344.678 413.377 327.383C413.377 315.467 405.978 305.111 391.968 297.454C377.433 289.51 357.46 285.309 334.201 285.309C300.693 285.309 265.659 293.923 238.084 309.035L229.482 313.754C202.818 328.33 186.897 347.358 186.897 364.643C186.897 376.568 194.296 386.915 208.306 394.571C222.841 402.525 242.825 406.727 266.083 406.727C299.571 406.727 334.595 398.074 362.17 383.029ZM209.125 393.241C195.661 385.881 188.545 376.013 188.545 364.671C188.545 347.951 204.152 329.441 230.291 315.141L238.893 310.423C266.184 295.483 300.956 286.907 334.181 286.907C357.146 286.907 376.837 291.042 391.119 298.852C404.583 306.212 411.699 316.079 411.699 327.412C411.699 344.132 396.092 362.652 369.943 376.942L361.341 381.67C334.049 396.61 299.288 405.176 266.073 405.176C243.088 405.147 223.407 401.022 209.125 393.212V393.241Z" fill="white"/>
<path opacity="0.2" d="M273.724 393.818C255.044 393.818 239.013 390.449 227.368 384.084C216.25 378.016 210.407 369.842 210.407 360.453C210.407 346.709 223.143 331.539 244.481 319.881L249.181 317.288C271.368 305.152 299.56 298.203 326.518 298.203C345.197 298.203 361.218 301.563 372.863 307.927C383.981 313.995 389.834 322.169 389.834 331.568C389.834 345.302 377.088 360.472 355.75 372.139L351.05 374.733C328.812 386.859 300.682 393.818 273.724 393.818Z" fill="#83F4BA"/>
<path opacity="0.4" d="M281.377 381.703C267.135 381.703 254.914 379.138 245.999 374.285C237.538 369.662 233.061 363.432 233.061 356.263C233.061 345.792 242.774 334.25 259.048 325.329L259.857 324.86C276.767 315.615 298.267 310.312 318.817 310.312C333.059 310.312 345.279 312.878 354.195 317.73C362.665 322.362 367.133 328.593 367.133 335.752C367.133 346.233 357.419 357.766 341.155 366.686L340.347 367.155C323.426 376.4 301.936 381.703 281.387 381.703H281.377Z" fill="white"/>
<path d="M395.245 390.043L380.68 398.035C316.999 432.826 226.098 439.535 177.6 413.014C129.102 386.492 141.353 336.781 204.993 301.99L219.579 294.017C283.259 259.227 374.14 252.517 422.638 279.039C471.136 305.56 458.865 355.272 395.245 390.043ZM447.322 320.96C447.322 305.924 437.931 292.83 420.151 283.116C401.502 272.923 375.838 267.525 345.929 267.525C302.747 267.525 257.605 278.675 222.075 298.095L207.49 306.086C173.325 324.759 152.906 349.051 152.906 371.064C152.906 386.11 162.297 399.203 180.087 408.917C198.726 419.111 224.39 424.509 254.32 424.509C297.501 424.509 342.623 413.358 378.173 393.939L392.739 385.947C426.914 367.264 447.322 342.983 447.322 320.96Z" fill="#83F4BA"/>
<path opacity="0.7" d="M395.245 390.043L380.68 398.035C316.999 432.826 226.098 439.535 177.6 413.014C129.102 386.492 141.353 336.781 204.993 301.99L219.579 294.017C283.259 259.227 374.14 252.517 422.638 279.039C471.136 305.56 458.865 355.272 395.245 390.043ZM447.322 320.96C447.322 305.924 437.931 292.83 420.151 283.116C401.502 272.923 375.838 267.525 345.929 267.525C302.747 267.525 257.605 278.675 222.075 298.095L207.49 306.086C173.325 324.759 152.906 349.051 152.906 371.064C152.906 386.11 162.297 399.203 180.087 408.917C198.726 419.111 224.39 424.509 254.32 424.509C297.501 424.509 342.623 413.358 378.173 393.939L392.739 385.947C426.914 367.264 447.322 342.983 447.322 320.96Z" fill="white"/>
<path d="M121.805 125.733L19.7848 181.503V66.0285L121.805 10.2773V125.733Z" fill="white"/>
<path d="M17.3418 182.845L19.7879 184.223L124.254 127.122L121.808 125.734L17.3418 182.845Z" fill="#FAFAFA"/>
<path d="M128.871 129.638L15.1158 191.792V63.5401L128.871 1.34766V129.638ZM124.282 8.91833L19.7857 66.0286V184.221L124.282 127.111V8.91833Z" fill="#F0F0F0"/>
<path d="M124.254 127.124L121.808 125.736V10.281L124.254 8.92188V127.124Z" fill="#D9D9D9"/>
<path d="M128.871 1.34951L126.385 0L12.6899 62.1638L15.1664 63.5037L128.871 1.34951Z" fill="#FAFAFA"/>
<path d="M12.6896 62.168L15.166 63.5079V191.798L12.6896 190.458V62.168Z" fill="#D9D9D9"/>
<path d="M21.8196 141.383V144.101L124.254 88.0149L121.808 86.6367L21.8196 141.383Z" fill="#FAFAFA"/>
<path d="M68.0818 39.6481L70.5684 38.2891V156.491L68.0818 155.142V39.6481Z" fill="#D9D9D9"/>
<path d="M75.1875 35.7617L70.5681 38.2789V156.481L75.1875 153.945V35.7617Z" fill="#F0F0F0"/>
<path d="M124.254 88.0117V93.0556L19.7374 150.453V145.409L124.254 88.0117Z" fill="#F0F0F0"/>
<path d="M70.5684 117.492L68.0818 116.047L19.7858 142.492V145.411L70.5684 117.492Z" fill="#FAFAFA"/>
<path d="M61.3213 366.288L8.04216 337.192C7.77219 337.103 7.53809 336.937 7.37241 336.717C7.20671 336.496 7.11766 336.232 7.11766 335.962C7.11766 335.691 7.20671 335.427 7.37241 335.207C7.53809 334.987 7.77219 334.82 8.04216 334.732L139.78 262.432C140.475 262.099 141.244 261.926 142.023 261.926C142.803 261.926 143.572 262.099 144.267 262.432L197.587 291.528C198.83 292.198 198.83 293.299 197.587 293.988L65.8093 366.288C65.1143 366.623 64.3453 366.798 63.5653 366.798C62.7853 366.798 62.0163 366.623 61.3213 366.288Z" fill="#E6E6E6"/>
<path d="M72.6016 338.146L68.0226 359.652L63.5751 362.083L59.158 359.671L54.5487 338.146L63.5751 333.207L72.6016 338.146Z" fill="#D9D9D9"/>
<path opacity="0.05" d="M72.6016 338.146L68.0226 359.652L63.5751 362.083L59.158 359.671L54.5487 338.146L63.5751 333.207L72.6016 338.146Z" fill="black"/>
<path d="M63.5751 362.086V343.078L72.6016 338.148L68.0226 359.655L63.5751 362.086Z" fill="#EBEBEB"/>
<path opacity="0.05" d="M72.6016 338.146L69.65 352.033L63.5751 355.354L57.5306 352.043L54.5487 338.146L63.5751 333.207L72.6016 338.146Z" fill="black"/>
<path d="M32.8984 316.45L28.3195 337.956L23.8619 340.387L19.4548 337.976L14.8355 316.45L23.872 311.512L32.8984 316.45Z" fill="#D9D9D9"/>
<path opacity="0.05" d="M32.8984 316.45L28.3195 337.956L23.8619 340.387L19.4548 337.976L14.8355 316.45L23.872 311.512L32.8984 316.45Z" fill="black"/>
<path d="M23.8619 340.379V321.37L32.8984 316.441L28.3195 337.947L23.8619 340.379Z" fill="#EBEBEB"/>
<path opacity="0.05" d="M32.8984 316.45L29.9368 330.338L23.8619 333.659L17.8173 330.348L14.8355 316.45L23.872 311.512L32.8984 316.45Z" fill="black"/>
<path opacity="0.05" d="M190.064 273.927L185.486 295.443L181.038 297.874L176.621 295.462L172.001 273.927L181.038 268.988L190.064 273.927Z" fill="black"/>
<path d="M181.038 297.876V278.868L190.064 273.93L185.486 295.445L181.038 297.876Z" fill="#EBEBEB"/>
<path opacity="0.05" d="M190.064 273.927L187.113 287.814L181.038 291.136L174.993 287.834L172.001 273.927L181.038 268.988L190.064 273.927Z" fill="black"/>
<path d="M63.5762 351.891L14.3604 324.987V224.137L63.5762 251.041V351.891Z" fill="#D9D9D9"/>
<path d="M63.576 251.044L192.625 180.496L192.635 281.346L63.576 351.894V251.044Z" fill="#EBEBEB"/>
<path d="M192.625 180.498L63.5764 251.046L14.3606 224.142L143.419 153.594L192.625 180.498Z" fill="#F5F5F5"/>
<path d="M70.6022 301.003L185.601 238.141V275.152L186.895 275.86L71.896 338.722L70.6022 338.014V301.003Z" fill="#D9D9D9"/>
<path d="M71.896 301.71L186.895 238.848V275.859L71.896 338.721V301.71Z" fill="#F5F5F5"/>
<path d="M127.184 278.486L136.746 273.26C137.99 272.58 138.99 272.887 138.99 273.949C138.9 274.603 138.65 275.227 138.261 275.774C137.871 276.32 137.353 276.774 136.746 277.098L127.184 282.324C125.941 283.003 124.93 282.697 124.93 281.634C125.022 280.98 125.274 280.355 125.665 279.808C126.056 279.262 126.576 278.809 127.184 278.486Z" fill="#D9D9D9"/>
<path d="M70.6022 256.321L185.601 193.449V230.46L186.895 231.169L71.896 294.031L70.6022 293.332V256.321Z" fill="#D9D9D9"/>
<path d="M71.896 257.019L186.895 194.156V231.167L71.896 294.03V257.019Z" fill="#F5F5F5"/>
<path d="M127.184 233.801L136.746 228.566C137.99 227.886 138.99 228.202 138.99 229.264C138.898 229.918 138.648 230.542 138.259 231.088C137.869 231.634 137.352 232.088 136.746 232.413L127.174 237.639C125.941 238.318 124.93 238.012 124.93 236.95C125.022 236.295 125.273 235.67 125.664 235.123C126.055 234.577 126.576 234.124 127.184 233.801Z" fill="#D9D9D9"/>
<path d="M160.605 170.663C166.569 173.927 166.569 179.219 160.605 182.474C154.642 185.728 144.968 185.737 139.005 182.474C133.041 179.21 133.041 173.927 139.005 170.663C144.968 167.399 154.611 167.409 160.605 170.663Z" fill="#D9D9D9"/>
<path d="M140.296 177.304C135.1 172.28 132.058 159.751 137.122 155.77H162.907C167.961 159.742 164.929 172.27 159.733 177.295L159.582 177.429L159.41 177.601C159.258 177.735 159.107 177.869 158.935 177.993L158.814 178.089L158.419 178.367C158.207 178.514 157.984 178.649 157.752 178.769C155.356 179.925 152.704 180.528 150.015 180.528C147.325 180.528 144.673 179.925 142.277 178.769C142.043 178.647 141.817 178.513 141.6 178.367C141.472 178.285 141.351 178.196 141.236 178.099L141.084 177.984L140.629 177.611L140.417 177.419L140.296 177.304Z" fill="#EBEBEB"/>
<path d="M160.672 154.162C166.555 157.378 166.555 162.594 160.672 165.81C154.789 169.026 145.247 169.026 139.364 165.81C133.481 162.594 133.481 157.378 139.364 154.162C145.247 150.946 154.779 150.946 160.672 154.162Z" fill="#FAFAFA"/>
<path d="M156.49 156.441C160.079 158.403 160.079 161.571 156.49 163.533C154.482 164.496 152.262 164.998 150.011 164.998C147.76 164.998 145.54 164.496 143.532 163.533C139.954 161.619 139.954 158.403 143.532 156.441C145.54 155.478 147.76 154.977 150.011 154.977C152.262 154.977 154.482 155.478 156.49 156.441Z" fill="#F5F5F5"/>
<path d="M143.49 159.811C145.497 158.844 147.717 158.34 149.969 158.34C152.221 158.34 154.442 158.844 156.449 159.811C157.32 160.249 158.06 160.888 158.602 161.668C158.058 162.449 157.318 163.091 156.449 163.535C154.44 164.497 152.221 164.999 149.969 164.999C147.718 164.999 145.499 164.497 143.49 163.535C142.626 163.086 141.891 162.446 141.347 161.668C141.887 160.89 142.624 160.252 143.49 159.811Z" fill="#EBEBEB"/>
<path d="M155.7 161.666C157.533 159.906 159.11 157.924 160.39 155.77C162.554 152.143 162.958 147.28 161.836 146.687C160.714 146.094 156.165 150.927 156.165 150.927C156.58 148.878 156.736 146.79 156.63 144.706C156.438 141.48 155.619 138.542 154.609 137.949C153.598 137.355 151.455 141.433 150.565 144.38C149.676 147.328 149.069 149.759 149.069 149.759C148.695 147.457 148.134 145.185 147.392 142.964C146.249 139.901 145.218 139.212 144.42 139.518C143.621 139.825 143.096 141.251 142.863 145.328C142.78 147.276 142.844 149.227 143.055 151.166C143.055 151.166 141.448 149.501 139.669 147.874C137.708 146.094 136.869 145.845 136.313 146.189C135.757 146.534 135.596 149.3 138.628 154.497C140.137 157.138 142.066 159.543 144.349 161.627C144.349 161.627 148.544 164.231 155.7 161.666Z" fill="#D9D9D9"/>
<path d="M23.1942 224.972L48.6057 238.86L86.9453 217.899L61.5439 204.012L23.1942 224.972Z" fill="#D9D9D9"/>
<path d="M49.0776 229.828L50.9981 230.709L76.9453 216.486L75.0248 215.605L49.0776 229.828Z" fill="#FAFAFA"/>
<path d="M75.0273 215.607L50.8086 228.882L46.9878 191.89L71.1964 178.625L75.0273 215.607Z" fill="white"/>
<path d="M80.5547 218.083L48.0777 235.876L43.3674 190.299L75.8444 172.516L80.5547 218.083ZM72.9232 177.674L46.9861 191.897L51.0293 230.717L76.9462 216.494L72.9232 177.674Z" fill="#F0F0F0"/>
<path d="M76.9453 216.484L75.0248 215.604L71.1939 178.621L72.9223 177.664L76.9453 216.484Z" fill="#D9D9D9"/>
<path d="M75.8438 172.512L73.903 171.66L41.4261 189.453L43.3668 190.295L75.8438 172.512Z" fill="#FAFAFA"/>
<path d="M41.4287 189.453L43.3694 190.295L48.0898 235.873L46.139 235.021L41.4287 189.453Z" fill="#D9D9D9"/>
<path d="M73.541 214.705L51.9605 226.544L51.1316 218.486L53.5171 202.646L58.0859 207.249L57.995 212.58L63.5746 188.863L71.7822 197.535L73.541 214.705Z" fill="#F0F0F0"/>
<path d="M54.3563 192.442C53.7143 192.832 53.1904 193.373 52.8359 194.012C52.4815 194.652 52.3088 195.367 52.3347 196.089C52.4762 197.4 53.6184 197.908 54.8819 197.209C55.5245 196.822 56.0491 196.283 56.4037 195.645C56.7583 195.007 56.9306 194.292 56.9035 193.572C56.762 192.251 55.6299 191.753 54.3563 192.442Z" fill="#F0F0F0"/>
<path d="M120.786 191.066C128.337 195.192 128.337 201.891 120.786 206.016C113.236 210.142 100.985 210.151 93.434 206.016C85.8833 201.882 85.8833 195.192 93.434 191.066C100.985 186.941 113.236 186.941 120.786 191.066Z" fill="#D9D9D9"/>
<path d="M123.111 190.355C123.111 188.106 121.524 185.848 118.381 184.134C112.073 180.679 101.854 180.679 95.5469 184.134C92.4033 185.848 90.8264 188.106 90.8163 190.355V197.055C90.8163 199.314 92.3932 201.582 95.5469 203.305C101.854 206.751 112.073 206.751 118.381 203.305C121.534 201.582 123.111 199.314 123.111 197.055V190.355Z" fill="#83F4BA"/>
<path d="M123.111 190.355C123.111 188.106 121.524 185.848 118.381 184.134C112.073 180.679 101.854 180.679 95.5469 184.134C92.4033 185.848 90.8264 188.106 90.8163 190.355V197.055C90.8163 199.314 92.3932 201.582 95.5469 203.305C101.854 206.751 112.073 206.751 118.381 203.305C121.534 201.582 123.111 199.314 123.111 197.055V190.355Z" fill="#83F4BA"/>
<path opacity="0.2" d="M123.111 190.355C123.111 188.106 121.524 185.848 118.381 184.134C112.073 180.679 101.854 180.679 95.5469 184.134C92.4033 185.848 90.8264 188.106 90.8163 190.355V197.055C90.8163 199.314 92.3932 201.582 95.5469 203.305C101.854 206.751 112.073 206.751 118.381 203.305C121.534 201.582 123.111 199.314 123.111 197.055V190.355Z" fill="white"/>
<path d="M106.969 199.2C98.0477 199.2 90.816 195.249 90.816 190.375C90.816 185.502 98.0477 181.551 106.969 181.551C115.889 181.551 123.121 185.502 123.121 190.375C123.121 195.249 115.889 199.2 106.969 199.2Z" fill="#83F4BA"/>
<path opacity="0.15" d="M106.969 199.2C98.0477 199.2 90.816 195.249 90.816 190.375C90.816 185.502 98.0477 181.551 106.969 181.551C115.889 181.551 123.121 185.502 123.121 190.375C123.121 195.249 115.889 199.2 106.969 199.2Z" fill="black"/>
<path opacity="0.4" d="M118.633 203.182L118.38 203.325C112.083 206.771 101.854 206.771 95.5462 203.325C93.9206 202.505 92.5587 201.285 91.6041 199.793V193.094C92.5658 194.575 93.9263 195.787 95.5462 196.606L96.1021 196.893C96.2798 198.566 96.991 200.148 98.1412 201.428C99.2913 202.709 100.826 203.627 102.541 204.062C107.868 205.393 113.503 205.085 118.633 203.182Z" fill="#83F4BA"/>
<path opacity="0.1" d="M93.6562 195.37C92.8436 194.735 92.1587 193.967 91.6347 193.102V199.801C92.1578 200.673 92.8426 201.448 93.6562 202.089V195.37Z" fill="black"/>
<path d="M120.523 183.637C120.523 182.211 119.27 180.708 117.087 179.521C113.947 178.04 110.487 177.27 106.979 177.27C103.471 177.27 100.011 178.04 96.8708 179.521C94.6975 180.708 93.4441 182.211 93.4441 183.637V190.336C93.4441 191.753 94.6975 193.208 96.8708 194.452C100.013 195.926 103.472 196.693 106.979 196.693C110.485 196.693 113.945 195.926 117.087 194.452C119.27 193.256 120.523 191.753 120.523 190.336V183.637Z" fill="#263238"/>
<path d="M120.523 183.637V190.336C120.523 191.753 119.27 193.208 117.087 194.452C113.945 195.926 110.485 196.694 106.979 196.694C103.472 196.694 100.013 195.926 96.8708 194.452C94.6975 193.256 93.4441 191.753 93.4441 190.336V183.637C93.4441 185.053 94.6975 186.556 96.8708 187.752C100.013 189.227 103.472 189.994 106.979 189.994C110.485 189.994 113.945 189.227 117.087 187.752C119.23 186.556 120.523 185.053 120.523 183.637ZM93.7575 191.16C93.682 191.033 93.6145 190.902 93.5553 190.767C93.5944 190.997 93.6623 191.222 93.7575 191.437V191.16ZM93.7575 190.413C93.6766 190.279 93.616 190.145 93.5553 190.021C93.5944 190.251 93.6623 190.476 93.7575 190.691V190.413ZM93.7575 189.657C93.6821 189.533 93.6146 189.405 93.5553 189.274C93.5958 189.504 93.6636 189.729 93.7575 189.944V189.657ZM93.7575 188.91C93.68 188.784 93.6125 188.653 93.5553 188.518C93.5944 188.751 93.6622 188.979 93.7575 189.197V188.91ZM93.7575 188.164C93.682 188.037 93.6145 187.906 93.5553 187.771C93.5944 188.002 93.6623 188.226 93.7575 188.441V188.164ZM93.7575 187.417C93.682 187.29 93.6145 187.159 93.5553 187.025C93.5944 187.255 93.6623 187.48 93.7575 187.695V187.417ZM93.7575 186.661C93.6821 186.537 93.6146 186.41 93.5553 186.278C93.5944 186.508 93.6623 186.733 93.7575 186.948V186.661ZM93.7575 185.915C93.68 185.789 93.6125 185.658 93.5553 185.522C93.5944 185.755 93.6622 185.984 93.7575 186.202V185.915ZM93.7575 185.168C93.682 185.041 93.6145 184.91 93.5553 184.776C93.5944 185.009 93.6622 185.237 93.7575 185.455V185.168ZM95.0513 192.653C94.642 192.31 94.2788 191.921 93.9698 191.495V191.858C94.2628 192.327 94.6272 192.753 95.0513 193.122V192.653ZM95.0513 191.906C94.6409 191.562 94.2745 191.173 93.9597 190.748V191.112C94.255 191.579 94.6192 192.005 95.0412 192.375L95.0513 191.906ZM95.0513 191.16C94.6444 190.815 94.2815 190.426 93.9698 190.001V190.356C94.2625 190.828 94.6269 191.257 95.0513 191.629V191.16ZM95.0513 190.413C94.6444 190.068 94.2815 189.679 93.9698 189.255V189.609C94.2652 190.079 94.6293 190.508 95.0513 190.882V190.413ZM95.0513 189.657C94.642 189.314 94.2788 188.925 93.9698 188.499V188.863C94.2652 189.333 94.6293 189.761 95.0513 190.135V189.657ZM95.0513 188.91C94.6427 188.575 94.2764 188.196 93.9597 187.781V188.145C94.255 188.612 94.6192 189.038 95.0412 189.408L95.0513 188.91ZM95.0513 188.164C94.6444 187.819 94.2815 187.43 93.9698 187.006V187.369C94.2652 187.837 94.6293 188.262 95.0513 188.633V188.164ZM95.0513 187.417C94.6444 187.072 94.2815 186.684 93.9698 186.259V186.613C94.2652 187.084 94.6293 187.512 95.0513 187.886V187.417ZM95.0513 186.661C94.642 186.319 94.2788 185.93 93.9698 185.503V185.867C94.2652 186.337 94.6293 186.766 95.0513 187.14V186.661ZM96.992 193.926L96.8 193.83C96.2684 193.55 95.7613 193.23 95.2838 192.873V193.351C95.7845 193.765 96.33 194.128 96.9112 194.433L96.992 194.481V193.926ZM96.992 193.179L96.8 193.074C96.2662 192.797 95.7589 192.477 95.2838 192.117V192.595C95.787 193.006 96.3321 193.368 96.9112 193.677L96.992 193.725V193.179ZM96.992 192.432L96.8 192.327C96.2642 192.054 95.7565 191.733 95.2838 191.37V191.849C95.7866 192.263 96.3318 192.628 96.9112 192.94L96.992 192.988V192.432ZM96.992 191.686L96.8 191.581C96.2684 191.301 95.7613 190.98 95.2838 190.624V191.102C95.7866 191.516 96.3318 191.882 96.9112 192.193H96.992V191.686ZM96.992 190.93L96.8 190.834C96.2684 190.554 95.7613 190.234 95.2838 189.877V190.356C95.7845 190.769 96.33 191.132 96.9112 191.437L96.992 191.485V190.93ZM96.992 190.183L96.8 190.088C96.2684 189.807 95.7613 189.487 95.2838 189.13V189.609C95.787 190.02 96.3321 190.382 96.9112 190.691L96.992 190.738V190.183ZM96.992 189.437L96.8 189.331C96.2642 189.058 95.7565 188.738 95.2838 188.374V188.853C95.7866 189.267 96.3318 189.632 96.9112 189.944L96.992 189.992V189.437ZM96.992 188.69L96.8 188.585C96.2663 188.308 95.759 187.988 95.2838 187.628V188.106C95.7866 188.52 96.3318 188.886 96.9112 189.197H96.992V188.69ZM96.992 187.934L96.8 187.838C96.2684 187.558 95.7613 187.238 95.2838 186.881V187.36C95.7866 187.774 96.3318 188.139 96.9112 188.451H96.992V187.934ZM98.67 194.682C98.1545 194.481 97.6592 194.27 97.2144 194.04V194.557C97.6693 194.787 98.1545 195.007 98.67 195.208V194.682ZM98.67 193.926C98.1723 193.742 97.6863 193.531 97.2144 193.294V193.811C97.6693 194.04 98.1545 194.261 98.67 194.462V193.926ZM98.67 193.179C98.1723 192.995 97.6863 192.784 97.2144 192.547V193.055C97.6838 193.302 98.17 193.519 98.67 193.705V193.179ZM98.67 192.432C98.1721 192.246 97.6861 192.032 97.2144 191.791V192.308C97.6859 192.552 98.1719 192.769 98.67 192.959V192.432ZM98.67 191.686C98.1545 191.485 97.6592 191.274 97.2144 191.045V191.609C97.6693 191.839 98.1545 192.059 98.67 192.26V191.686ZM98.67 190.93C98.1723 190.746 97.6863 190.535 97.2144 190.298V190.815C97.6693 191.045 98.1545 191.265 98.67 191.466V190.93ZM98.67 190.183C98.1723 190 97.6863 189.789 97.2144 189.552V190.059C97.6838 190.306 98.17 190.524 98.67 190.71V190.183ZM98.67 189.437C98.1721 189.25 97.6861 189.036 97.2144 188.795V189.312C97.6859 189.556 98.1719 189.773 98.67 189.963V189.437ZM98.67 188.69C98.1545 188.489 97.6592 188.279 97.2144 188.049V188.566C97.6859 188.809 98.1719 189.027 98.67 189.217V188.69ZM100.53 195.275C99.9638 195.122 99.4079 194.95 98.8822 194.758V195.285C99.4213 195.487 99.9713 195.663 100.53 195.811V195.275ZM100.53 194.529C99.9638 194.375 99.4079 194.203 98.8822 194.012V194.538C99.4213 194.741 99.9713 194.916 100.53 195.065V194.529ZM100.53 193.782C99.9638 193.629 99.4079 193.457 98.8822 193.265V193.792C99.4079 193.983 99.9638 194.165 100.53 194.318V193.782ZM100.53 193.035C99.9713 192.887 99.4213 192.712 98.8822 192.509V193.045C99.4079 193.236 99.9638 193.409 100.53 193.571V193.035ZM100.53 192.279C99.9638 192.126 99.4079 191.954 98.8822 191.763V192.289C99.4213 192.492 99.9713 192.667 100.53 192.815V192.279ZM100.53 191.533C99.9638 191.38 99.4079 191.207 98.8822 191.016V191.542C99.4213 191.745 99.9713 191.921 100.53 192.069V191.533ZM100.53 190.786C99.9638 190.633 99.4079 190.461 98.8822 190.269V190.796C99.4079 190.987 99.9638 191.169 100.53 191.322V190.786ZM100.53 190.04C99.9638 189.887 99.4079 189.714 98.8822 189.523V190.049C99.4079 190.241 99.9638 190.413 100.53 190.576V190.04ZM100.53 189.284C99.9638 189.13 99.4079 188.958 98.8822 188.767V189.293C99.4213 189.496 99.9713 189.672 100.53 189.82V189.284ZM102.551 195.715C101.935 195.61 101.328 195.486 100.752 195.333V195.868C101.328 196.022 101.935 196.156 102.551 196.261V195.715ZM102.551 194.969C101.935 194.864 101.328 194.739 100.752 194.586V195.122C101.328 195.275 101.935 195.4 102.551 195.514V194.969ZM102.551 194.222C101.935 194.117 101.328 193.993 100.752 193.839V194.375C101.328 194.529 101.935 194.653 102.551 194.768V194.222ZM102.551 193.476C101.935 193.37 101.328 193.236 100.752 193.093V193.629C101.328 193.772 101.935 193.906 102.551 194.012V193.476ZM102.551 192.729C101.935 192.614 101.328 192.49 100.752 192.337V192.873C101.328 193.026 101.935 193.16 102.551 193.265V192.729ZM102.551 191.973C101.935 191.868 101.328 191.743 100.752 191.59V192.126C101.328 192.279 101.935 192.413 102.551 192.519V191.973ZM102.551 191.227C101.935 191.121 101.328 190.997 100.752 190.844V191.38C101.328 191.533 101.935 191.657 102.551 191.772V191.227ZM102.551 190.48C101.935 190.375 101.328 190.241 100.752 190.097V190.652C101.328 190.805 101.935 190.93 102.551 191.035V190.48ZM102.551 189.733C101.935 189.619 101.328 189.494 100.752 189.351V189.887C101.328 190.03 101.935 190.164 102.551 190.269V189.733ZM104.674 195.993C104 195.935 103.363 195.859 102.764 195.763V196.299C103.39 196.404 104.027 196.481 104.674 196.538V195.993ZM104.674 195.246C104.027 195.189 103.39 195.112 102.764 195.007V195.553C103.39 195.658 104.027 195.734 104.674 195.792V195.246ZM104.674 194.5C104.027 194.442 103.39 194.366 102.764 194.261V194.806C103.39 194.902 104.027 194.988 104.674 195.045V194.5ZM104.674 193.753C104.027 193.696 103.39 193.61 102.764 193.514V194.05C103.39 194.155 104.027 194.232 104.674 194.289V193.753ZM104.674 192.997C104 192.94 103.363 192.863 102.764 192.767V193.303C103.39 193.409 104.027 193.485 104.674 193.543V192.997ZM104.674 192.251C104.027 192.193 103.39 192.117 102.764 192.011V192.566C103.39 192.672 104.027 192.748 104.674 192.806V192.251ZM104.674 191.504C104.027 191.447 103.39 191.37 102.764 191.265V191.81C103.39 191.906 104.027 191.992 104.674 192.05V191.504ZM104.674 190.758C104.027 190.7 103.39 190.624 102.764 190.518V191.054C103.39 191.16 104.027 191.236 104.674 191.294V190.758ZM104.674 190.001C104.027 190.001 103.39 189.867 102.764 189.772V190.308C103.39 190.413 104.027 190.49 104.674 190.547V190.001ZM106.868 196.098C106.2 196.098 105.543 196.098 104.846 196.012V196.558C105.503 196.605 106.16 196.634 106.868 196.644V196.098ZM106.868 195.352C106.2 195.352 105.543 195.352 104.846 195.266V195.811C105.503 195.859 106.16 195.888 106.868 195.888V195.352ZM106.868 194.596C106.2 194.596 105.543 194.596 104.846 194.519V195.065C105.503 195.065 106.16 195.141 106.868 195.141V194.596ZM106.868 193.849C106.2 193.849 105.543 193.849 104.846 193.772V194.308C105.503 194.366 106.16 194.395 106.868 194.395V193.849ZM106.868 193.102C106.2 193.102 105.543 193.102 104.846 193.016V193.524C105.503 193.581 106.16 193.6 106.868 193.61V193.102ZM106.868 192.356C106.2 192.356 105.543 192.356 104.846 192.27V192.815C105.503 192.863 106.16 192.892 106.868 192.892V192.356ZM106.868 191.6C106.2 191.6 105.543 191.6 104.846 191.523V192.069C105.503 192.117 106.16 192.145 106.868 192.145V191.6ZM106.868 190.853C106.2 190.853 105.543 190.853 104.846 190.777V191.313C105.503 191.37 106.16 191.399 106.868 191.399V190.853ZM106.868 190.107C106.2 190.107 105.543 190.107 104.846 190.021V190.566C105.503 190.624 106.16 190.643 106.868 190.652V190.107ZM109.061 196.012C108.414 196.069 107.747 196.089 107.039 196.098V196.644C107.707 196.644 108.374 196.644 109.061 196.558V196.012ZM109.061 195.266C108.414 195.313 107.747 195.342 107.039 195.352V195.888C107.707 195.888 108.374 195.888 109.061 195.811V195.266ZM109.061 194.519C108.414 194.567 107.747 194.596 107.039 194.596V195.141C107.707 195.141 108.374 195.141 109.061 195.065V194.519ZM109.061 193.772C108.414 193.82 107.747 193.849 107.039 193.849V194.395C107.707 194.395 108.374 194.395 109.061 194.308V193.772ZM109.061 193.016C108.414 193.074 107.747 193.102 107.039 193.102V193.648C107.707 193.648 108.374 193.648 109.061 193.562V193.016ZM109.061 192.27C108.414 192.318 107.747 192.346 107.039 192.356V192.892C107.707 192.892 108.374 192.892 109.061 192.815V192.27ZM109.061 191.523C108.414 191.571 107.747 191.6 107.039 191.6V192.145C107.707 192.145 108.374 192.145 109.061 192.069V191.523ZM109.061 190.777C108.414 190.825 107.747 190.853 107.039 190.853V191.399C107.707 191.399 108.374 191.399 109.061 191.313V190.777ZM109.061 190.021C108.414 190.078 107.747 190.107 107.039 190.107V190.652C107.707 190.652 108.374 190.652 109.061 190.566V190.021ZM111.184 195.763C110.567 195.859 109.92 195.935 109.273 195.993V196.538C109.92 196.481 110.567 196.404 111.184 196.299V195.763ZM111.184 195.007C110.567 195.112 109.92 195.189 109.273 195.246V195.792C109.92 195.734 110.567 195.658 111.184 195.553V195.007ZM111.184 194.261C110.567 194.366 109.92 194.442 109.273 194.5V195.045C109.92 194.988 110.567 194.902 111.184 194.806V194.261ZM111.184 193.514C110.567 193.61 109.92 193.696 109.273 193.753V194.289C109.92 194.232 110.567 194.155 111.184 194.05V193.514ZM111.184 192.767C110.567 192.863 109.92 192.94 109.273 192.997V193.524C109.92 193.466 110.567 193.39 111.184 193.284V192.767ZM111.184 192.011C110.567 192.117 109.92 192.193 109.273 192.251V192.796C109.92 192.739 110.567 192.662 111.184 192.557V192.011ZM111.184 191.265C110.567 191.37 109.92 191.447 109.273 191.504V192.05C109.92 191.992 110.567 191.906 111.184 191.81V191.265ZM111.184 190.518C110.567 190.624 109.92 190.7 109.273 190.758V191.294C109.92 191.236 110.567 191.16 111.184 191.054V190.518ZM111.184 189.772C110.567 189.867 109.92 189.954 109.273 190.001V190.547C109.92 190.49 110.567 190.413 111.184 190.308V189.772ZM113.205 195.333C112.619 195.486 112.023 195.61 111.406 195.715V196.261C112.023 196.156 112.619 196.022 113.205 195.868V195.333ZM113.205 194.586C112.619 194.739 112.023 194.864 111.406 194.969V195.514C112.023 195.4 112.619 195.275 113.205 195.122V194.586ZM113.205 193.839C112.619 193.993 112.023 194.117 111.406 194.222V194.768C112.023 194.653 112.619 194.529 113.205 194.375V193.839ZM113.205 193.093C112.619 193.236 112.023 193.37 111.406 193.476V194.012C112.023 193.906 112.619 193.772 113.205 193.629V193.093ZM113.205 192.337C112.619 192.49 112.023 192.614 111.406 192.729V193.265C112.023 193.16 112.619 193.026 113.205 192.873V192.337ZM113.205 191.59C112.619 191.743 112.023 191.868 111.406 191.973V192.566C112.023 192.461 112.619 192.327 113.205 192.174V191.59ZM113.205 190.844C112.619 190.997 112.023 191.121 111.406 191.227V191.772C112.023 191.657 112.619 191.533 113.205 191.38V190.844ZM113.205 190.097C112.619 190.241 112.023 190.375 111.406 190.48V191.016C112.023 190.911 112.619 190.786 113.205 190.633V190.097ZM113.205 189.351C112.619 189.494 112.023 189.619 111.406 189.733V190.269C112.023 190.164 112.619 190.03 113.205 189.887V189.351ZM115.065 194.758C114.54 194.95 113.994 195.122 113.418 195.275V195.811C113.977 195.664 114.527 195.489 115.065 195.285V194.758ZM115.065 194.012C114.54 194.203 113.994 194.375 113.418 194.529V195.065C113.977 194.918 114.527 194.742 115.065 194.538V194.012ZM115.065 193.265C114.54 193.457 113.994 193.629 113.418 193.782V194.318C113.994 194.165 114.54 193.983 115.065 193.792V193.265ZM115.065 192.509C114.527 192.713 113.977 192.889 113.418 193.035V193.571C113.994 193.409 114.54 193.236 115.065 193.045V192.509ZM115.065 191.763C114.54 191.954 113.994 192.126 113.418 192.279V192.815C113.977 192.669 114.527 192.493 115.065 192.289V191.763ZM115.065 191.016C114.54 191.207 113.994 191.38 113.418 191.533V192.069C113.977 191.922 114.527 191.746 115.065 191.542V191.016ZM115.065 190.269C114.54 190.461 113.994 190.633 113.418 190.786V191.322C113.994 191.169 114.54 190.987 115.065 190.796V190.269ZM115.065 189.523C114.54 189.714 113.994 189.887 113.418 190.04V190.576C113.994 190.413 114.54 190.241 115.065 190.049V189.523ZM115.065 188.767C114.54 188.958 113.994 189.13 113.418 189.284V189.82C113.977 189.673 114.527 189.497 115.065 189.293V188.767ZM116.743 194.04C116.278 194.27 115.793 194.481 115.288 194.682V195.208C115.793 195.007 116.298 194.787 116.743 194.557V194.04ZM116.743 193.294C116.269 193.527 115.784 193.738 115.288 193.926V194.481C115.793 194.28 116.298 194.06 116.743 193.83V193.294ZM116.743 192.547C116.269 192.781 115.784 192.992 115.288 193.179V193.705C115.786 193.516 116.272 193.298 116.743 193.055V192.547ZM116.743 191.791C116.27 192.028 115.784 192.242 115.288 192.432V192.959C115.784 192.765 116.27 192.548 116.743 192.308V191.791ZM116.743 191.045C116.278 191.274 115.793 191.485 115.288 191.686V192.212C115.793 192.011 116.298 191.791 116.743 191.562V191.045ZM116.743 190.298C116.269 190.532 115.784 190.742 115.288 190.93V191.466C115.793 191.265 116.298 191.045 116.743 190.815V190.298ZM116.743 189.552C116.269 189.785 115.784 189.996 115.288 190.183V190.71C115.786 190.52 116.272 190.303 116.743 190.059V189.552ZM116.743 188.795C116.27 189.032 115.784 189.246 115.288 189.437V189.963C115.784 189.769 116.27 189.552 116.743 189.312V188.795ZM116.743 188.049C116.278 188.279 115.793 188.489 115.288 188.69V189.217C115.784 189.023 116.27 188.806 116.743 188.566V188.049ZM118.674 192.834C118.193 193.191 117.682 193.511 117.147 193.792L116.955 193.887V194.481L117.046 194.433C117.624 194.123 118.169 193.761 118.674 193.351V192.834ZM118.674 192.088C118.195 192.448 117.684 192.768 117.147 193.045L116.955 193.15V193.667L117.046 193.619C117.622 193.306 118.167 192.944 118.674 192.538V192.088ZM118.674 191.332C118.197 191.695 117.686 192.015 117.147 192.289L116.955 192.394V192.911L117.046 192.863C117.623 192.547 118.167 192.182 118.674 191.772V191.332ZM118.674 190.585C118.193 190.942 117.682 191.262 117.147 191.542L116.955 191.648V192.155H117.046C117.623 191.839 118.167 191.473 118.674 191.064V190.585ZM118.674 189.839C118.193 190.196 117.682 190.516 117.147 190.796L116.955 190.892V191.408L117.046 191.361C117.624 191.051 118.169 190.689 118.674 190.279V189.839ZM118.674 189.092C118.193 189.449 117.682 189.769 117.147 190.049L116.955 190.145V190.662L117.046 190.614C117.622 190.301 118.167 189.939 118.674 189.532V189.092ZM118.674 188.336C118.197 188.699 117.686 189.02 117.147 189.293L116.955 189.398V189.915L117.046 189.867C117.623 189.551 118.167 189.186 118.674 188.776V188.336ZM118.674 187.59C118.195 187.95 117.684 188.27 117.147 188.547L116.955 188.652V189.159H117.046C117.623 188.843 118.167 188.478 118.674 188.068V187.59ZM118.674 186.843C118.193 187.2 117.682 187.52 117.147 187.8L116.955 187.896V188.413H117.046C117.623 188.096 118.167 187.731 118.674 187.322V186.843ZM119.968 191.495C119.665 191.926 119.301 192.315 118.886 192.653V193.122C119.316 192.758 119.681 192.332 119.968 191.858V191.495ZM119.968 190.748C119.662 191.177 119.298 191.566 118.886 191.906V192.375C119.313 192.01 119.678 191.583 119.968 191.112V190.748ZM119.968 190.001C119.662 190.43 119.298 190.82 118.886 191.16V191.609C119.316 191.243 119.681 190.813 119.968 190.336V190.001ZM119.968 189.255C119.659 189.682 119.296 190.071 118.886 190.413V190.882C119.314 190.513 119.679 190.084 119.968 189.609V189.255ZM119.968 188.499C119.665 188.93 119.301 189.319 118.886 189.657V190.135C119.314 189.767 119.679 189.337 119.968 188.863V188.499ZM119.968 187.752C119.662 188.181 119.298 188.571 118.886 188.91V189.379C119.313 189.014 119.678 188.588 119.968 188.116V187.752ZM119.968 187.006C119.662 187.435 119.298 187.824 118.886 188.164V188.633C119.313 188.267 119.678 187.841 119.968 187.369V187.006ZM119.968 186.259C119.662 186.688 119.298 187.078 118.886 187.417V187.886C119.314 187.517 119.679 187.088 119.968 186.613V186.259ZM120.19 185.455C120.282 185.237 120.346 185.009 120.382 184.776C120.326 184.91 120.262 185.041 120.19 185.168V185.455ZM120.19 186.202C120.282 185.983 120.346 185.755 120.382 185.522C120.328 185.657 120.264 185.789 120.19 185.915V186.202ZM120.19 186.948C120.282 186.733 120.347 186.508 120.382 186.278C120.326 186.41 120.262 186.537 120.19 186.661V186.948ZM120.19 187.695C120.282 187.48 120.347 187.255 120.382 187.025C120.326 187.159 120.262 187.29 120.19 187.417V187.695ZM120.19 188.441C120.282 188.226 120.347 188.001 120.382 187.771C120.326 187.906 120.262 188.037 120.19 188.164V188.441ZM120.19 189.197C120.282 188.979 120.346 188.751 120.382 188.518C120.328 188.653 120.264 188.784 120.19 188.91V189.197ZM120.19 189.944C120.281 189.728 120.345 189.504 120.382 189.274C120.326 189.405 120.262 189.533 120.19 189.657V189.944ZM120.19 190.691C120.282 190.475 120.347 190.25 120.382 190.021C120.331 190.145 120.261 190.279 120.19 190.413V190.691ZM120.19 191.437C120.282 191.222 120.347 190.997 120.382 190.767C120.326 190.901 120.262 191.033 120.19 191.16V191.437ZM118.886 186.652V187.13C119.314 186.761 119.679 186.332 119.968 185.857V185.493C119.662 185.929 119.295 186.321 118.876 186.661L118.886 186.652Z" fill="#473C4B"/>
<path d="M123.111 165.865C123.111 162.687 119.503 158.811 115.025 157.251C109.766 155.656 104.112 155.656 98.8522 157.251C94.3945 158.84 90.7658 162.716 90.7658 165.865V183.638C90.7658 185.897 92.3426 188.156 95.4963 189.878C101.804 193.324 112.023 193.324 118.33 189.878C121.484 188.156 123.061 185.897 123.061 183.638V171.636L123.111 165.865Z" fill="#83F4BA"/>
<path opacity="0.2" d="M123.111 165.865C123.111 162.687 119.503 158.811 115.025 157.251C109.766 155.656 104.112 155.656 98.8522 157.251C94.3945 158.84 90.7658 162.716 90.7658 165.865V183.638C90.7658 185.897 92.3426 188.156 95.4963 189.878C101.804 193.324 112.023 193.324 118.33 189.878C121.484 188.156 123.061 185.897 123.061 183.638V171.636L123.111 165.865Z" fill="white"/>
<path opacity="0.35" d="M96.1009 172.469C102.105 176.135 111.829 176.135 117.823 172.469C123.817 168.804 123.827 162.898 117.823 159.213C111.819 155.529 102.105 155.548 96.1009 159.213C90.0968 162.879 90.1069 168.842 96.1009 172.469Z" fill="white"/>
<path opacity="0.4" d="M96.8095 171.511C102.419 174.938 111.517 174.938 117.127 171.511C122.736 168.085 122.736 162.534 117.127 159.069C111.517 155.604 102.419 155.652 96.8095 159.069C91.1995 162.486 91.1995 168.037 96.8095 171.511Z" fill="white"/>
<path opacity="0.4" d="M117.209 190.479L114.894 190.144C110.183 189.474 105.821 187.398 102.442 184.219C99.0624 181.04 96.842 176.923 96.1035 172.467C93.0711 170.629 91.5954 168.227 91.6055 165.824V186.325C92.5608 187.814 93.9227 189.031 95.5476 189.847C101.461 193.111 110.821 193.312 117.209 190.479Z" fill="#83F4BA"/>
<path opacity="0.1" d="M93.6562 170.559C92.3867 169.286 91.6657 167.61 91.6347 165.859V186.36C92.1583 187.229 92.8431 188 93.6562 188.638V170.559Z" fill="black"/>
<path d="M110.467 165.496V164.893H110.295C110.078 164.538 109.759 164.25 109.375 164.06C108.559 163.664 107.654 163.457 106.737 163.457C105.819 163.457 104.915 163.664 104.099 164.06C103.717 164.252 103.399 164.54 103.179 164.893H103.007V165.496C103.037 165.807 103.155 166.104 103.346 166.358C103.538 166.612 103.798 166.813 104.099 166.941C104.917 167.333 105.82 167.537 106.737 167.537C107.654 167.537 108.557 167.333 109.375 166.941C109.676 166.813 109.936 166.612 110.128 166.358C110.319 166.104 110.436 165.807 110.467 165.496Z" fill="#473C4B"/>
<path d="M104.068 166.327C102.612 165.532 102.612 164.25 104.068 163.456C104.885 163.064 105.789 162.859 106.706 162.859C107.622 162.859 108.526 163.064 109.344 163.456C110.799 164.259 110.799 165.542 109.344 166.327C108.527 166.723 107.623 166.93 106.706 166.93C105.788 166.93 104.884 166.723 104.068 166.327Z" fill="#473C4B"/>
<path d="M106.715 166.007C106.249 166.015 105.788 165.906 105.381 165.691C104.815 165.384 104.613 164.906 104.886 164.475C104.896 164.455 104.911 164.437 104.929 164.423C104.947 164.408 104.969 164.398 104.991 164.391C105.014 164.385 105.038 164.383 105.062 164.386C105.085 164.389 105.108 164.397 105.128 164.408C105.15 164.419 105.169 164.434 105.184 164.452C105.2 164.47 105.211 164.491 105.217 164.514C105.224 164.536 105.226 164.559 105.223 164.582C105.219 164.605 105.211 164.628 105.199 164.648C105.037 164.906 105.199 165.184 105.563 165.394C105.922 165.564 106.318 165.653 106.72 165.653C107.122 165.653 107.518 165.564 107.878 165.394C107.992 165.348 108.091 165.274 108.166 165.18C108.24 165.086 108.287 164.975 108.302 164.858C108.287 164.743 108.239 164.633 108.165 164.541C108.09 164.448 107.991 164.376 107.878 164.332C107.37 164.086 106.79 164.008 106.23 164.112C106.206 164.115 106.182 164.115 106.158 164.109C106.134 164.104 106.112 164.095 106.092 164.081C106.073 164.068 106.056 164.051 106.043 164.032C106.03 164.012 106.022 163.991 106.018 163.968C106.014 163.945 106.015 163.922 106.02 163.9C106.025 163.878 106.036 163.856 106.05 163.838C106.064 163.819 106.081 163.803 106.102 163.791C106.123 163.779 106.145 163.771 106.169 163.767C106.812 163.652 107.477 163.743 108.06 164.025C108.233 164.097 108.381 164.213 108.488 164.36C108.596 164.507 108.657 164.68 108.666 164.858C108.657 165.037 108.596 165.209 108.488 165.356C108.381 165.504 108.233 165.619 108.06 165.691C107.648 165.906 107.185 166.015 106.715 166.007Z" fill="#83F4BA"/>
<path d="M106.362 164.814H106.271L104.856 164.038C104.834 164.027 104.815 164.012 104.8 163.994C104.785 163.976 104.773 163.955 104.767 163.933C104.76 163.911 104.758 163.887 104.761 163.864C104.765 163.841 104.773 163.819 104.785 163.799C104.812 163.761 104.853 163.734 104.9 163.724C104.946 163.713 104.996 163.72 105.038 163.742L106.453 164.507C106.474 164.518 106.494 164.533 106.509 164.551C106.524 164.57 106.535 164.59 106.542 164.613C106.549 164.635 106.55 164.658 106.547 164.681C106.544 164.704 106.536 164.727 106.524 164.747C106.504 164.769 106.48 164.787 106.451 164.799C106.423 164.81 106.393 164.816 106.362 164.814Z" fill="#83F4BA"/>
<path d="M112.75 163.031V162.447C112.679 162.335 112.578 162.242 112.457 162.179C112.202 162.056 111.919 161.992 111.633 161.992C111.347 161.992 111.065 162.056 110.809 162.179C110.691 162.243 110.594 162.335 110.526 162.447V163.031C110.535 163.127 110.57 163.219 110.629 163.298C110.687 163.377 110.767 163.44 110.86 163.481C111.115 163.603 111.397 163.667 111.684 163.667C111.97 163.667 112.252 163.603 112.507 163.481C112.583 163.43 112.645 163.362 112.687 163.284C112.729 163.206 112.751 163.119 112.75 163.031Z" fill="#473C4B"/>
<path d="M110.758 162.899C110.66 162.865 110.576 162.804 110.516 162.724C110.457 162.643 110.425 162.547 110.425 162.449C110.425 162.351 110.457 162.255 110.516 162.174C110.576 162.094 110.66 162.033 110.758 161.999C111.013 161.876 111.295 161.813 111.582 161.812C111.868 161.813 112.15 161.876 112.405 161.999C112.503 162.033 112.587 162.094 112.647 162.174C112.706 162.255 112.738 162.351 112.738 162.449C112.738 162.547 112.706 162.643 112.647 162.724C112.587 162.804 112.503 162.865 112.405 162.899C112.15 163.022 111.868 163.086 111.582 163.086C111.295 163.086 111.013 163.022 110.758 162.899Z" fill="#473C4B"/>
<path d="M103.514 168.076V167.492H103.463C103.391 167.383 103.29 167.294 103.17 167.234C102.915 167.111 102.632 167.047 102.346 167.047C102.06 167.047 101.778 167.111 101.522 167.234C101.403 167.291 101.304 167.381 101.239 167.492H101.179V168.076C101.19 168.174 101.227 168.268 101.287 168.348C101.347 168.429 101.428 168.493 101.522 168.535C101.779 168.653 102.061 168.714 102.346 168.714C102.632 168.714 102.913 168.653 103.17 168.535C103.265 168.495 103.347 168.431 103.408 168.35C103.468 168.269 103.505 168.174 103.514 168.076Z" fill="#473C4B"/>
<path d="M101.521 167.938C101.424 167.904 101.34 167.843 101.28 167.763C101.22 167.682 101.188 167.586 101.188 167.488C101.188 167.39 101.22 167.294 101.28 167.213C101.34 167.133 101.424 167.072 101.521 167.038C101.777 166.916 102.059 166.852 102.345 166.852C102.631 166.852 102.914 166.916 103.169 167.038C103.267 167.072 103.351 167.133 103.41 167.213C103.47 167.294 103.502 167.39 103.502 167.488C103.502 167.586 103.47 167.682 103.41 167.763C103.351 167.843 103.267 167.904 103.169 167.938C102.914 168.061 102.631 168.125 102.345 168.125C102.059 168.125 101.777 168.061 101.521 167.938Z" fill="#473C4B"/>
<path d="M116.834 181.084L119.513 179.62C119.553 179.591 119.585 179.553 119.606 179.51C119.627 179.466 119.637 179.419 119.634 179.371V177.926C119.675 177.465 119.522 177.008 119.21 176.653C119.075 176.535 118.901 176.463 118.717 176.451C118.533 176.439 118.35 176.487 118.199 176.586C117.733 176.937 117.359 177.384 117.104 177.894C116.85 178.403 116.723 178.961 116.733 179.524V180.97C116.703 181.084 116.764 181.084 116.834 181.084Z" fill="#473C4B"/>
<path d="M119.501 180.043L116.833 181.498C116.792 181.532 116.76 181.575 116.739 181.623C116.718 181.672 116.708 181.723 116.712 181.775C116.782 182.819 117.409 183.326 118.167 182.914C118.608 182.588 118.968 182.173 119.222 181.7C119.475 181.227 119.615 180.707 119.633 180.177C119.633 180.062 119.572 180.005 119.501 180.043Z" fill="#473C4B"/>
<path d="M118.382 183.649C119.065 183.208 119.611 182.604 119.966 181.898C120.321 181.191 120.472 180.409 120.404 179.629C120.404 179.578 120.382 179.53 120.345 179.494C120.307 179.458 120.255 179.438 120.202 179.438C120.174 179.436 120.147 179.44 120.121 179.449C120.095 179.459 120.072 179.472 120.052 179.49C120.032 179.508 120.016 179.53 120.006 179.554C119.995 179.577 119.989 179.603 119.989 179.629C120.051 180.344 119.911 181.062 119.585 181.709C119.258 182.357 118.756 182.91 118.129 183.314C117.983 183.41 117.812 183.468 117.635 183.481C117.457 183.494 117.279 183.463 117.119 183.391C116.859 183.202 116.651 182.956 116.514 182.674C116.376 182.392 116.313 182.083 116.33 181.773C116.33 181.722 116.309 181.674 116.271 181.638C116.233 181.602 116.182 181.582 116.128 181.582C116.074 181.582 116.023 181.602 115.985 181.638C115.947 181.674 115.926 181.722 115.926 181.773C115.912 182.147 115.998 182.518 116.174 182.852C116.351 183.186 116.613 183.473 116.937 183.687C117.113 183.78 117.311 183.829 117.513 183.831C117.643 183.829 117.772 183.81 117.897 183.773V184.998L117.321 185.314C117.273 185.34 117.238 185.383 117.223 185.433C117.208 185.483 117.214 185.536 117.24 185.582C117.258 185.612 117.285 185.637 117.317 185.654C117.349 185.671 117.385 185.679 117.422 185.678H117.523L118.888 184.932C118.933 184.904 118.966 184.861 118.979 184.811C118.992 184.761 118.985 184.708 118.958 184.664C118.945 184.641 118.927 184.622 118.905 184.606C118.883 184.59 118.858 184.579 118.832 184.573C118.805 184.567 118.778 184.565 118.751 184.57C118.724 184.574 118.698 184.583 118.675 184.597L118.311 184.798V183.63L118.382 183.649Z" fill="#473C4B"/>
<path d="M103.505 114.32L107.104 116.302L103.768 125.413C103.715 125.556 103.63 125.685 103.518 125.793C103.406 125.901 103.27 125.984 103.12 126.036C102.971 126.088 102.811 126.108 102.652 126.095C102.493 126.081 102.339 126.035 102.201 125.959L98.5926 123.987C98.4333 123.895 98.3011 123.767 98.2085 123.614L95.2772 118.828L103.505 114.32Z" fill="#473C4B"/>
<path d="M107.104 116.309L103.768 125.42C103.702 125.604 103.581 125.767 103.419 125.888C103.258 126.009 103.064 126.083 102.859 126.102C102.655 126.121 102.449 126.085 102.266 125.996C102.083 125.907 101.93 125.77 101.827 125.602L98.8958 120.817L107.104 116.309Z" fill="#473C4B"/>
<path d="M141.165 56.3115L48.4752 106.971C48.2281 107.125 48.0226 107.331 47.8751 107.574C47.7277 107.817 47.6424 108.089 47.6262 108.368V142.795C47.641 143.075 47.7269 143.347 47.8764 143.589C48.026 143.83 48.2349 144.034 48.4853 144.183L51.5177 145.848C51.7832 145.973 52.0755 146.038 52.3719 146.038C52.6682 146.038 52.9606 145.973 53.226 145.848L145.916 95.1411C146.166 94.9889 146.374 94.783 146.523 94.5401C146.672 94.2972 146.759 94.0243 146.775 93.7437V59.2881C146.761 59.0084 146.675 58.7362 146.525 58.4946C146.376 58.2531 146.167 58.0492 145.916 57.9003L142.884 56.2828C142.616 56.1563 142.32 56.0929 142.021 56.0979C141.722 56.1029 141.428 56.1762 141.165 56.3115Z" fill="#473C4B"/>
<path d="M146.754 59.1552C146.693 58.7532 146.339 58.6096 145.915 58.8393L53.2449 109.508C52.995 109.658 52.7896 109.865 52.6486 110.111L47.8978 107.546C48.0448 107.315 48.2452 107.119 48.4841 106.972L141.164 56.303C141.43 56.1782 141.722 56.1133 142.018 56.1133C142.315 56.1133 142.607 56.1782 142.872 56.303L145.905 57.9205C146.133 58.0551 146.327 58.2354 146.474 58.4487C146.621 58.662 146.716 58.9031 146.754 59.1552Z" fill="#473C4B"/>
<path d="M52.3971 145.343V110.888C52.4134 110.608 52.4986 110.336 52.6461 110.093C52.7936 109.851 52.9991 109.644 53.2462 109.49L145.916 58.8406C146.391 58.5822 146.775 58.8406 146.775 59.3096V93.7652C146.759 94.0458 146.672 94.3188 146.523 94.5616C146.374 94.8045 146.166 95.0104 145.916 95.1626L53.2462 145.832C52.7812 146.071 52.3971 145.86 52.3971 145.343Z" fill="#473C4B"/>
<path opacity="0.2" d="M53.25 145.809C52.9839 145.932 52.6918 145.996 52.3959 145.996C52.0999 145.996 51.8078 145.932 51.5417 145.809L48.5094 144.144C48.2589 143.995 48.05 143.791 47.9004 143.55C47.7509 143.308 47.665 143.036 47.6502 142.756V108.339C47.6597 108.046 47.7542 107.761 47.9231 107.516L52.6638 110.081C52.5053 110.319 52.418 110.594 52.4111 110.875V145.331C52.4009 145.809 52.7446 146.087 53.25 145.809Z" fill="#263238"/>
<path d="M138.324 90.3071C138.319 90.3158 138.316 90.3257 138.316 90.3358C138.316 90.3459 138.319 90.3558 138.324 90.3645H138.435L138.941 90.0774C138.971 90.0627 138.996 90.0393 139.011 90.0104C139.02 89.9823 139.02 89.9524 139.011 89.9243V89.4457C139.017 89.437 139.02 89.4271 139.02 89.417C139.02 89.4069 139.017 89.397 139.011 89.3883C138.988 89.381 138.964 89.381 138.941 89.3883L138.435 89.6658C138.402 89.68 138.374 89.7033 138.354 89.7328C138.346 89.761 138.346 89.7909 138.354 89.819L138.324 90.3071ZM138.324 91.5896C138.319 91.5984 138.316 91.6083 138.316 91.6183C138.316 91.6284 138.319 91.6383 138.324 91.647C138.35 91.6558 138.379 91.6558 138.405 91.647L138.91 91.3695C138.941 91.3509 138.966 91.3243 138.981 91.2929C138.99 91.2648 138.99 91.2349 138.981 91.2068V90.7282C138.971 90.7212 138.958 90.7174 138.946 90.7174C138.933 90.7174 138.921 90.7212 138.91 90.7282L138.405 91.0058C138.371 91.0199 138.343 91.0433 138.324 91.0728C138.315 91.1009 138.315 91.1308 138.324 91.1589V91.5896Z" fill="white"/>
<path d="M136.414 92.7592C136.442 92.742 136.467 92.7191 136.485 92.6922C136.494 92.6641 136.494 92.6342 136.485 92.606V92.2328L137.708 91.5628C137.738 91.5481 137.763 91.5247 137.779 91.4958C137.787 91.4677 137.787 91.4378 137.779 91.4097V91.0173C137.781 90.9942 137.777 90.9711 137.768 90.9496C137.76 90.928 137.746 90.9086 137.728 90.8928L136.566 90.1367H136.505H136.424L135.838 90.4526C135.812 90.4724 135.788 90.4949 135.767 90.5196C135.761 90.548 135.761 90.5773 135.767 90.6057V92.0701L135.434 92.2519C135.403 92.2666 135.378 92.2901 135.363 92.3189C135.354 92.347 135.354 92.3769 135.363 92.405V92.7879C135.357 92.7966 135.355 92.8065 135.355 92.8166C135.355 92.8267 135.357 92.8366 135.363 92.8453C135.373 92.8523 135.385 92.8561 135.398 92.8561C135.411 92.8561 135.423 92.8523 135.434 92.8453L135.767 92.6635V93.0272C135.777 93.0342 135.79 93.0379 135.802 93.0379C135.815 93.0379 135.828 93.0342 135.838 93.0272L136.414 92.7592ZM136.495 91.6585V90.979L137.061 91.3427L136.495 91.6585Z" fill="white"/>
<path d="M134.578 93.6601L133.739 92.2627L134.891 91.631C134.924 91.6169 134.953 91.5935 134.972 91.564C134.98 91.5359 134.98 91.506 134.972 91.4779V91.0855C134.976 91.0782 134.979 91.0699 134.979 91.0615C134.979 91.0531 134.976 91.0449 134.972 91.0376C134.959 91.0309 134.946 91.0273 134.931 91.0273C134.917 91.0273 134.903 91.0309 134.891 91.0376L133.041 92.0521C133.011 92.0668 132.986 92.0903 132.97 92.1191C132.962 92.1473 132.962 92.1771 132.97 92.2053V92.5498C132.977 92.6048 132.998 92.6574 133.031 92.703L133.87 94.0908C133.88 94.0978 133.893 94.1015 133.905 94.1015C133.918 94.1015 133.93 94.0978 133.941 94.0908L134.487 93.7941C134.517 93.7837 134.542 93.7633 134.557 93.7366C134.568 93.7121 134.574 93.6863 134.578 93.6601Z" fill="white"/>
<path d="M64.2738 131.315C64.2657 131.433 64.2976 131.55 64.3648 131.65C64.4265 131.728 64.5164 131.783 64.6175 131.803C64.7411 131.825 64.8679 131.825 64.9915 131.803C65.1434 131.759 65.2893 131.698 65.4261 131.621C65.587 131.536 65.7363 131.434 65.8709 131.315C66.0084 131.199 66.1337 131.071 66.2449 130.932C66.3462 130.801 66.431 130.66 66.4976 130.511C66.556 130.371 66.5869 130.221 66.5886 130.071C66.6007 130.007 66.6007 129.942 66.5886 129.879C66.5711 129.832 66.5474 129.787 66.5178 129.745L66.4268 129.64C66.3889 129.62 66.3547 129.594 66.3257 129.563L65.5878 129.027C65.5878 129.027 65.5879 129.027 65.507 129.027L64.8904 129.362C64.8654 129.376 64.8445 129.396 64.8297 129.42C64.8238 129.442 64.8238 129.465 64.8297 129.487L65.3351 129.85C65.2002 129.944 65.0719 130.047 64.951 130.157C64.8328 130.267 64.7278 130.389 64.6377 130.52C64.5514 130.64 64.4801 130.768 64.4254 130.903C64.3497 131.031 64.2984 131.17 64.2738 131.315ZM65.8709 130.444C65.8838 130.497 65.8838 130.553 65.8709 130.607C65.8449 130.665 65.8109 130.719 65.7698 130.769L65.6283 130.903C65.5814 130.95 65.5268 130.989 65.4666 131.018L65.3048 131.085C65.2615 131.094 65.2167 131.094 65.1734 131.085C65.1347 131.081 65.0989 131.064 65.0724 131.037C65.055 130.997 65.055 130.953 65.0724 130.913C65.0582 130.859 65.0582 130.804 65.0724 130.75C65.0983 130.692 65.1323 130.637 65.1734 130.587C65.2089 130.536 65.2534 130.491 65.3048 130.453L65.4666 130.339L65.6283 130.272C65.6749 130.262 65.7231 130.262 65.7698 130.272C65.7895 130.271 65.809 130.275 65.8266 130.284C65.8442 130.292 65.8594 130.304 65.8709 130.319C65.8832 130.354 65.8832 130.391 65.8709 130.425V130.444Z" fill="white"/>
<path d="M63.0413 131.462C63.036 131.471 63.0331 131.481 63.0331 131.491C63.0331 131.501 63.036 131.511 63.0413 131.52C63.0413 131.52 63.0413 131.52 63.112 131.52L63.6174 131.242C63.6488 131.225 63.6763 131.203 63.6983 131.175C63.7043 131.147 63.7043 131.118 63.6983 131.089V130.601C63.7027 130.594 63.7051 130.586 63.7051 130.577C63.7051 130.569 63.7027 130.561 63.6983 130.553C63.686 130.547 63.672 130.543 63.6579 130.543C63.6437 130.543 63.6297 130.547 63.6174 130.553L63.112 130.831C63.0836 130.848 63.0594 130.871 63.0413 130.898C63.0326 130.926 63.0326 130.956 63.0413 130.984V131.462ZM63.0413 132.755C63.0368 132.762 63.0345 132.77 63.0345 132.778C63.0345 132.787 63.0368 132.795 63.0413 132.802C63.0516 132.809 63.064 132.813 63.0767 132.813C63.0894 132.813 63.1017 132.809 63.112 132.802L63.6174 132.525C63.6488 132.508 63.6763 132.485 63.6983 132.458C63.7043 132.429 63.7043 132.4 63.6983 132.372V131.884C63.7027 131.876 63.7051 131.868 63.7051 131.86C63.7051 131.851 63.7027 131.843 63.6983 131.836C63.686 131.829 63.672 131.825 63.6579 131.825C63.6437 131.825 63.6297 131.829 63.6174 131.836L63.112 132.113C63.0836 132.131 63.0594 132.153 63.0413 132.18C63.0353 132.209 63.0353 132.238 63.0413 132.266V132.755Z" fill="white"/>
<path d="M60.4217 131.714C60.3932 131.731 60.3691 131.754 60.3509 131.781C60.3436 131.809 60.3436 131.839 60.3509 131.867V132.269C60.343 132.287 60.343 132.308 60.3509 132.326H60.4014L60.8765 132.518C60.6877 132.668 60.5211 132.842 60.3812 133.035C60.2619 133.202 60.1953 133.398 60.1892 133.599C60.1892 133.874 60.2903 134.027 60.4924 134.059C60.7971 134.06 61.0943 133.969 61.3415 133.8C61.516 133.705 61.6816 133.596 61.8368 133.475C61.9655 133.364 62.0839 133.242 62.1906 133.111C62.2841 133 62.3622 132.878 62.423 132.748C62.4701 132.651 62.4976 132.547 62.5039 132.441H62.4433L61.9479 132.709C61.9008 132.737 61.8596 132.773 61.8267 132.815L61.7357 132.939L61.5942 133.092C61.5236 133.155 61.4456 133.209 61.3617 133.255C61.2672 133.312 61.16 133.348 61.0484 133.36C60.9675 133.36 60.9271 133.322 60.9271 133.245C60.9322 133.148 60.9754 133.056 61.0484 132.987C61.1408 132.899 61.2463 132.825 61.3617 132.767L61.6852 132.585L61.7559 132.518C61.7646 132.49 61.7646 132.46 61.7559 132.432V132.116C61.7612 132.107 61.764 132.097 61.764 132.087C61.764 132.077 61.7612 132.067 61.7559 132.058H61.7054L61.2909 131.886L62.3017 131.341C62.3336 131.32 62.361 131.294 62.3826 131.264C62.3913 131.236 62.3913 131.206 62.3826 131.178V130.795C62.3879 130.786 62.3907 130.776 62.3907 130.766C62.3907 130.756 62.3879 130.746 62.3826 130.738C62.3566 130.728 62.3277 130.728 62.3017 130.738L60.4217 131.714Z" fill="white"/>
<path d="M58.4831 132.738C58.3023 132.834 58.1357 132.953 57.9878 133.092C57.856 133.211 57.7405 133.347 57.6442 133.494C57.557 133.629 57.4858 133.774 57.4319 133.924C57.3894 134.061 57.3657 134.203 57.3612 134.345C57.3612 134.46 57.3612 134.566 57.3612 134.68C57.3612 134.795 57.3612 134.901 57.3612 135.006C57.3633 135.121 57.3873 135.234 57.4319 135.341C57.4752 135.43 57.5505 135.501 57.6442 135.542C57.7564 135.573 57.8756 135.573 57.9878 135.542C58.164 135.508 58.3319 135.443 58.4831 135.35C58.6665 135.253 58.8363 135.134 58.9885 134.996C59.1207 134.873 59.2361 134.735 59.3322 134.585C59.422 134.455 59.4902 134.313 59.5344 134.164C59.5839 134.025 59.6112 133.879 59.6152 133.733C59.6152 133.628 59.6152 133.522 59.6152 133.407C59.6152 133.293 59.6152 133.187 59.6152 133.082C59.6161 132.966 59.5885 132.851 59.5344 132.747C59.4977 132.657 59.425 132.585 59.3322 132.546C59.2216 132.505 59.0991 132.505 58.9885 132.546C58.8097 132.582 58.6387 132.647 58.4831 132.738ZM58.0687 134.594C58.0687 134.393 58.0687 134.183 58.0687 133.972V133.79C58.0879 133.731 58.1115 133.674 58.1395 133.618C58.1707 133.561 58.2117 133.509 58.2607 133.465C58.3184 133.41 58.3829 133.362 58.4528 133.321C58.5147 133.286 58.5835 133.264 58.655 133.254C58.6939 133.239 58.7374 133.239 58.7763 133.254C58.8098 133.278 58.8346 133.312 58.847 133.35C58.8532 133.401 58.8532 133.452 58.847 133.503C58.8672 133.707 58.8672 133.912 58.847 134.116C58.8525 134.176 58.8525 134.237 58.847 134.298C58.8342 134.358 58.8102 134.417 58.7763 134.47C58.7452 134.53 58.7042 134.585 58.655 134.633C58.5954 134.687 58.5272 134.732 58.4528 134.767C58.3954 134.805 58.3299 134.831 58.2607 134.843C58.2218 134.858 58.1784 134.858 58.1395 134.843C58.1048 134.82 58.0798 134.786 58.0687 134.747C58.063 134.697 58.063 134.645 58.0687 134.594Z" fill="white"/>
<path opacity="0.3" d="M127.926 93.9817L71.4826 124.839C71.0033 125.123 70.6016 125.511 70.3101 125.97C70.0186 126.429 69.8454 126.946 69.8047 127.48C69.8047 128.437 70.5527 128.792 71.4826 128.284L127.926 97.4177C128.405 97.1338 128.808 96.7466 129.099 96.2875C129.391 95.8284 129.564 95.3105 129.604 94.7761C129.604 93.8286 128.856 93.4649 127.926 93.9817Z" fill="white"/>
<path d="M127.926 93.9817L85.5428 117.153C85.0577 117.439 84.6516 117.831 84.358 118.295C84.0645 118.76 83.8919 119.283 83.8548 119.823C83.8548 120.781 84.6028 121.135 85.5327 120.627L127.926 97.4177C128.405 97.1338 128.808 96.7466 129.099 96.2875C129.391 95.8284 129.564 95.3105 129.604 94.7761C129.604 93.8286 128.856 93.4649 127.926 93.9817Z" fill="white"/>
<path d="M84.4883 103.907C84.407 103.952 84.3458 104.024 84.3165 104.108C84.2693 104.197 84.2451 104.296 84.2457 104.395V105.697C84.2417 105.735 84.2458 105.773 84.258 105.809C84.2702 105.845 84.2901 105.879 84.3165 105.908C84.3277 105.918 84.3411 105.927 84.3559 105.933C84.3706 105.938 84.3864 105.941 84.4024 105.941C84.4184 105.941 84.4341 105.938 84.4489 105.933C84.4636 105.927 84.477 105.918 84.4883 105.908L85.3374 105.448C85.4117 105.396 85.4709 105.327 85.5092 105.247C85.5564 105.158 85.5806 105.06 85.58 104.96V103.658C85.5847 103.621 85.5808 103.582 85.5686 103.546C85.5564 103.51 85.5362 103.476 85.5092 103.448C85.498 103.437 85.4846 103.429 85.4698 103.423C85.4551 103.417 85.4393 103.414 85.4233 103.414C85.4073 103.414 85.3915 103.417 85.3768 103.423C85.362 103.429 85.3487 103.437 85.3374 103.448L84.4883 103.907ZM84.4883 108.549C84.407 108.594 84.3458 108.666 84.3165 108.75C84.2693 108.839 84.2451 108.938 84.2457 109.037V110.339C84.2417 110.377 84.2458 110.415 84.258 110.451C84.2702 110.487 84.2901 110.521 84.3165 110.55C84.3277 110.56 84.3411 110.569 84.3559 110.575C84.3706 110.58 84.3864 110.583 84.4024 110.583C84.4184 110.583 84.4341 110.58 84.4489 110.575C84.4636 110.569 84.477 110.56 84.4883 110.55L85.3374 110.09C85.4117 110.038 85.4709 109.969 85.5092 109.889C85.5576 109.797 85.5819 109.695 85.58 109.592V108.339C85.5848 108.299 85.5811 108.259 85.5689 108.222C85.5567 108.184 85.5364 108.149 85.5092 108.119C85.4846 108.101 85.4543 108.091 85.4233 108.091C85.3922 108.091 85.3621 108.101 85.3374 108.119L84.4883 108.549Z" fill="white"/>
<path d="M83.1678 111.807C83.0743 111.855 82.968 111.876 82.8621 111.867C82.7562 111.859 82.6551 111.821 82.5715 111.759C82.3729 111.569 82.2421 111.324 82.1974 111.06C82.0938 110.629 82.0296 110.191 82.0054 109.749C82.0054 109.213 81.9549 108.581 81.9549 107.835C81.9549 107.088 81.9549 106.457 82.0054 105.921C82.036 105.41 82.1001 104.902 82.1974 104.399C82.2685 104.021 82.3943 103.653 82.5715 103.308C82.7054 103.031 82.9105 102.791 83.1678 102.609C83.2458 102.556 83.3056 102.483 83.3396 102.399C83.39 102.31 83.4177 102.212 83.4205 102.111V101.24C83.4246 101.202 83.4194 101.163 83.4054 101.126C83.3914 101.09 83.3689 101.057 83.3396 101.03C83.3284 101.019 83.315 101.011 83.3002 101.005C83.2855 100.999 83.2697 100.996 83.2537 100.996C83.2378 100.996 83.222 100.999 83.2072 101.005C83.1925 101.011 83.1791 101.019 83.1678 101.03C82.7079 101.286 82.317 101.64 82.0256 102.064C81.7006 102.56 81.4522 103.099 81.2877 103.662C81.0863 104.37 80.9544 105.094 80.8935 105.825C80.8127 106.648 80.7722 107.548 80.7722 108.543C80.7657 109.406 80.8062 110.268 80.8935 111.127C80.9365 111.717 81.0693 112.297 81.2877 112.85C81.3468 113.023 81.4428 113.183 81.5697 113.32C81.6966 113.456 81.8518 113.567 82.0256 113.644C82.2206 113.691 82.4241 113.697 82.6216 113.66C82.8191 113.624 83.0056 113.547 83.1678 113.434C83.2474 113.387 83.308 113.316 83.3396 113.233C83.3912 113.142 83.4189 113.04 83.4205 112.936V112.065C83.4238 112.028 83.4182 111.991 83.4042 111.956C83.3902 111.921 83.3681 111.89 83.3396 111.864C83.3396 111.864 83.2386 111.778 83.1678 111.807Z" fill="white"/>
<path d="M135.403 74.4854L138.192 75.6435C138.234 75.673 138.268 75.7123 138.289 75.7576C138.31 75.8028 138.319 75.8526 138.314 75.9019V79.0986C138.309 79.2371 138.267 79.3721 138.192 79.491L135.403 83.7023C135.099 84.1713 134.685 84.0755 134.685 83.5396V75.4329C134.715 74.8969 135.13 74.3514 135.403 74.4854ZM139.274 75.1649L139.749 74.9065C139.961 74.7917 140.123 74.9065 140.123 75.2511V77.7778C140.124 77.9208 140.09 78.0621 140.026 78.1913C139.961 78.3204 139.866 78.4343 139.749 78.5243L139.274 78.7828C139.072 78.8976 138.9 78.7828 138.9 78.4382V75.921C138.902 75.7741 138.939 75.6294 139.009 75.4983C139.079 75.3672 139.18 75.2531 139.304 75.1649H139.274ZM134.008 78.0362V81.5392C133.583 81.4339 133.29 80.9362 133.29 80.1801C133.319 79.4215 133.578 78.6869 134.038 78.0649L134.008 78.0362Z" fill="#FAFAFA"/>
<path d="M63.0727 111.835L64.0026 111.328C64.3059 111.166 64.5586 111.328 64.5586 111.721V121.091C64.5482 121.28 64.4928 121.464 64.3965 121.63C64.3002 121.795 64.1656 121.938 64.0026 122.048L63.0727 122.555C62.7695 122.727 62.5269 122.555 62.5269 122.163V112.793C62.5361 112.604 62.59 112.421 62.6845 112.255C62.779 112.089 62.9117 111.946 63.0727 111.835ZM58.6757 114.238L59.6057 113.731C59.9089 113.568 60.1616 113.731 60.1616 114.123V123.493C60.1512 123.682 60.0958 123.866 59.9995 124.032C59.9032 124.198 59.7686 124.341 59.6057 124.45L58.6757 124.957C58.3725 125.13 58.1299 124.957 58.1299 124.565V115.233C58.133 115.039 58.184 114.847 58.2787 114.675C58.3735 114.502 58.5094 114.352 58.6757 114.238Z" fill="#FAFAFA"/>
<path opacity="0.3" d="M312.427 399.553C283.566 399.553 260.169 386.762 260.169 370.984C260.169 355.205 283.566 342.414 312.427 342.414C341.289 342.414 364.686 355.205 364.686 370.984C364.686 386.762 341.289 399.553 312.427 399.553Z" fill="#83F4BA"/>
<path d="M256.967 196.021C270.39 170.552 277.749 162.656 287.887 152.367C291.243 163.584 296.156 184.497 296.156 184.497L298.491 207.468C298.491 207.468 291.617 218.867 285.724 228.112C289.03 229.155 291.931 230.572 296.651 233.415C304.06 237.894 313.006 247.876 322.315 255.313C329.128 260.74 330.533 260.874 332.565 260.883C333.737 260.883 335.142 260.836 335.142 260.836C335.142 260.836 343.229 257.007 345.756 260.96C347.615 263.831 348.212 270.244 354.57 273.785C362.11 277.987 364.607 278.819 365.133 285.175C365.587 290.611 363.111 300.393 357.814 304.585C357.208 304.812 356.54 304.849 355.91 304.688C355.28 304.528 354.721 304.179 354.317 303.695C352.356 301.244 352.811 299.493 351.537 296.325C350.264 293.157 346.069 289.214 343.168 286.62C339.693 283.731 335.755 281.383 331.503 279.662C327.743 278.178 322.184 275.919 316.341 273.919C302.888 269.229 265.427 256.548 249.568 243.885C236.872 233.721 244.11 220.417 256.967 196.021Z" fill="#AF6152"/>
<path opacity="0.2" d="M272.176 239.198C278.817 237.15 283.548 231.541 285.569 228.277H286.085C287.096 228.603 288.016 228.957 288.996 229.378C285.701 234.087 279.333 238.901 272.176 239.198Z" fill="black"/>
<path d="M357.166 305.746C359.582 306.952 361.674 306.177 364.241 301.487C367.197 295.872 369.203 289.852 370.185 283.647C370.761 278.412 367.688 275.693 362.644 273.214C357.6 270.736 354.386 269.175 352.728 268.113C351.071 267.051 349.837 263.567 348.998 262.237C348.672 261.59 348.152 261.048 347.504 260.679C346.855 260.31 346.106 260.129 345.35 260.16C348.23 262.16 348.625 267.453 353.537 270.362C357.813 272.889 363.19 274.794 366.374 278.096C369.558 281.398 367.223 288.758 363.119 297.668C360.421 303.593 358.793 305.431 357.166 305.746Z" fill="#83F4BA"/>
<path opacity="0.2" d="M357.166 305.746C359.582 306.952 361.674 306.177 364.241 301.487C367.197 295.872 369.203 289.852 370.185 283.647C370.761 278.412 367.688 275.693 362.644 273.214C357.6 270.736 354.386 269.175 352.728 268.113C351.071 267.051 349.837 263.567 348.998 262.237C348.672 261.59 348.152 261.048 347.504 260.679C346.855 260.31 346.106 260.129 345.35 260.16C348.23 262.16 348.625 267.453 353.537 270.362C357.813 272.889 363.19 274.794 366.374 278.096C369.558 281.398 367.223 288.758 363.119 297.668C360.421 303.593 358.793 305.431 357.166 305.746Z" fill="black"/>
<path d="M343.783 259.504C347.25 262.126 345.471 266.204 350.404 270.664C355.337 275.124 359.552 277.44 360.36 279.995C355.499 281.91 351.112 285.135 349.191 292.189C347.271 299.243 351.587 304.373 354.498 305.33C357.409 306.287 359.026 306.574 363.13 297.673C367.234 288.772 369.569 281.402 366.385 278.1C363.201 274.798 357.823 272.894 353.548 270.367C347.837 266.988 348.332 260.442 343.783 259.504Z" fill="#83F4BA"/>
<path d="M310.226 364.117C311.237 360.346 311.328 353.063 311.096 347.847C310.368 331.576 307.214 310.73 305.091 294.728C300.634 261.085 299.128 254.587 297.915 240.01C296.49 222.964 296.591 203.87 296.591 203.87C296.591 203.87 289.202 201.439 282.52 189.331C280.226 185.178 277.952 180.842 273.544 168.122C274.009 162.217 274.343 159.231 274.414 154.723C274.414 154.723 283.723 164.399 303.545 163.911C320.486 163.499 329.209 155.546 329.209 155.546C329.288 157.539 329.666 159.511 330.331 161.403C332.814 167.224 335.945 172.778 339.671 177.971C342.986 182.756 347.373 190.049 346.231 199.706C345.192 209.395 343.467 219.007 341.066 228.477C337.498 243.637 332.747 268.675 332.747 268.675C336.396 277.902 338.195 283.338 334.617 302.92C332.595 313.965 329.088 332.437 329.725 337.989C330.107 339.701 330.958 341.288 332.191 342.592C333.343 343.913 335.971 346.162 335.517 350.479C335.618 353.762 328.916 357.485 328.087 365.792C327.248 374.291 327.632 378.665 322.154 380.867C316.675 383.068 303.959 382.647 302.494 382.618C295.833 382.522 300.26 376.359 300.26 376.359C302.079 373.755 309.266 367.888 310.226 364.117Z" fill="#C8856A"/>
<path d="M297.729 382.349C297.658 384.933 299.326 386.359 304.906 386.455C311.535 386.479 318.126 385.51 324.434 383.584C329.63 381.746 330.843 377.927 330.944 372.558C331.045 367.188 331.086 363.752 331.358 361.867C331.631 359.981 334.391 357.397 335.25 356.124C335.716 355.569 335.997 354.894 336.056 354.187C336.116 353.479 335.951 352.771 335.584 352.152H335.452C334.846 355.483 330.156 358.106 329.59 363.571C329.104 368.356 329.691 373.725 327.982 377.927C326.274 382.129 318.279 383.383 308.019 383.871C301.247 384.129 298.76 383.584 297.729 382.349Z" fill="#83F4BA"/>
<path opacity="0.2" d="M297.729 382.349C297.658 384.933 299.326 386.359 304.906 386.455C311.535 386.479 318.126 385.51 324.434 383.584C329.63 381.746 330.843 377.927 330.944 372.558C331.045 367.188 331.086 363.752 331.358 361.867C331.631 359.981 334.391 357.397 335.25 356.124C335.716 355.569 335.997 354.894 336.056 354.187C336.116 353.479 335.951 352.771 335.584 352.152H335.452C334.846 355.483 330.156 358.106 329.59 363.571C329.104 368.356 329.691 373.725 327.982 377.927C326.274 382.129 318.279 383.383 308.019 383.871C301.247 384.129 298.76 383.584 297.729 382.349Z" fill="black"/>
<path d="M335.545 350.426C334.605 354.532 329.925 354.857 327.933 361.002C325.942 367.146 325.598 371.779 323.536 373.597C319.493 370.353 314.561 368.046 307.03 369.549C299.5 371.051 296.578 377.005 296.922 379.895C297.266 382.785 297.761 384.288 308.041 383.809C318.321 383.331 326.235 382.029 327.994 377.866C329.753 373.702 329.106 368.295 329.601 363.509C330.238 357.183 336.657 354.704 335.545 350.426Z" fill="#83F4BA"/>
<path d="M331.016 163.794C332.391 162.062 333.463 166.512 335.696 168.58C338.729 171.451 337.051 172.667 337.051 172.667C340.997 176.831 344.135 181.623 346.32 186.822C349.504 194.862 349.029 203.801 348.463 211.18C347.897 218.56 346.835 229.27 346.835 229.27C346.835 229.27 339.467 232.677 336.606 233.309C337.204 228.965 336.964 224.555 335.899 220.292C335.623 225.058 334.713 229.773 333.19 234.323C326.447 235.66 319.54 236.092 312.67 235.606C299.934 234.476 296.265 231.356 296.265 231.356L295.588 220.101L288.937 230.964C288.937 230.964 256.591 230.696 249.576 208.242C257.744 193.78 268.782 174.954 268.782 174.954C268.782 174.954 267.457 173.528 270.298 169.996C273.138 166.465 271.743 163.067 273.836 164.254C276.615 168.082 285.773 171.997 299.944 172.035C309.193 172.064 323.607 170.169 331.016 163.794Z" fill="#83F4BA"/>
<path d="M327.611 176.658L328.541 176.055C331.351 179.883 334.717 185.205 335.687 192.086C336.946 202.676 337.251 213.348 336.597 223.986C336.435 222.828 336.213 221.613 335.9 220.282C335.799 221.584 335.647 223.068 335.445 224.618C336.092 213.353 335.819 201.102 334.565 192.23C333.625 185.568 330.35 180.41 327.611 176.658Z" fill="white"/>
<path d="M270.287 169.988C273.178 166.39 271.733 163.059 273.825 164.246C276.605 168.074 285.762 171.989 299.934 172.027C309.193 172.027 323.607 170.113 331.016 163.786C332.391 162.054 333.462 166.505 335.696 168.572C338.172 170.888 337.525 172.132 337.192 172.525L337.05 172.659C331.693 177.731 319.533 181.962 301.531 182.622C283.529 183.283 273.087 178.411 268.771 174.965C268.771 174.946 267.447 173.52 270.287 169.988Z" fill="#83F4BA"/>
<path opacity="0.15" d="M270.287 169.988C273.178 166.39 271.733 163.059 273.825 164.246C276.605 168.074 285.762 171.989 299.934 172.027C309.193 172.027 323.607 170.113 331.016 163.786C332.391 162.054 333.462 166.505 335.696 168.572C338.172 170.888 337.525 172.132 337.192 172.525L337.05 172.659C331.693 177.731 319.533 181.962 301.531 182.622C283.529 183.283 273.087 178.411 268.771 174.965C268.771 174.946 267.447 173.52 270.287 169.988Z" fill="black"/>
<g opacity="0.1">
<path d="M337.049 172.684C335.006 174.441 332.638 175.827 330.064 176.77C327.222 177.922 324.284 178.851 321.28 179.546C315.271 180.968 309.124 181.801 302.934 182.034C296.764 182.436 290.565 182.017 284.518 180.79C281.635 180.305 278.806 179.568 276.067 178.589C273.458 177.721 270.999 176.492 268.769 174.942C273.5 178.838 278.271 180.139 284.315 181.585C287.359 182.31 290.464 182.781 293.595 182.992C295.161 183.145 296.728 183.154 298.295 183.212C299.862 183.269 301.438 183.212 302.995 183.116C306.12 182.945 309.234 182.626 312.325 182.159C315.425 181.74 318.491 181.123 321.503 180.312C324.519 179.508 327.46 178.471 330.297 177.211C332.84 176.137 335.135 174.599 337.049 172.684Z" fill="black"/>
</g>
<path opacity="0.1" d="M295.588 220.092L294.88 207.535C294.88 207.535 286.066 206.214 278.384 196.48C279.749 205.946 290.372 211.153 290.372 211.153L291.585 221.844L288.937 230.955L295.588 220.092Z" fill="black"/>
<path d="M281.416 186.699C281.438 186.435 281.475 186.173 281.527 185.914C281.629 185.656 281.77 185.407 281.891 185.158C282.114 184.727 282.326 184.306 282.569 183.895C283.054 183.091 283.579 182.287 284.105 181.521C284.742 180.62 285.539 179.83 286.46 179.186C284.156 178.066 280.456 175.817 283.074 173.96C283.648 173.62 284.32 173.46 284.995 173.503C285.67 173.546 286.314 173.79 286.834 174.199C287.335 174.541 287.748 174.986 288.044 175.499C288.339 176.013 288.51 176.582 288.542 177.166C289.063 176.494 289.721 175.928 290.479 175.504C291.236 175.079 292.077 174.805 292.949 174.697C294.243 174.477 296.659 174.381 296.932 176.056C297.165 177.539 295.426 178.477 294.173 178.822C293.187 179.095 292.167 179.24 291.14 179.253C291.752 180.559 291.965 182.001 291.757 183.416C291.605 184.756 291.282 186.077 291.15 187.417C291.118 189.166 291.416 190.906 292.03 192.556C292.1 192.786 291.827 193.351 291.544 193.044C289.584 190.958 289.371 188.364 289.836 185.732C290.124 184.546 290.266 183.332 290.261 182.114C290.257 181.573 290.135 181.038 289.901 180.544C289.668 180.05 289.329 179.607 288.906 179.243C288.751 179.467 288.535 179.645 288.28 179.76C287.007 180.321 285.948 181.24 285.247 182.392C284.853 182.947 284.499 183.531 284.145 184.115C283.792 184.699 283.579 185.072 283.306 185.493C283.135 185.77 282.983 186.077 282.781 186.345C282.579 186.613 282.346 186.775 282.164 187.024C281.851 187.474 281.285 187.235 281.416 186.699ZM286.329 175.577C285.823 175.195 284.449 174.438 283.782 174.936C283.114 175.434 285.379 176.601 285.692 176.793C286.39 177.218 287.116 177.602 287.865 177.941V177.894C287.627 176.986 287.089 176.174 286.329 175.577ZM292.454 177.827C293.071 177.76 296.103 177.377 295.436 176.343C294.931 175.539 292.939 175.874 292.191 176.046C290.986 176.418 289.843 176.95 288.795 177.626L289.129 177.693C290.224 177.895 291.345 177.94 292.454 177.827Z" fill="#263238"/>
<path d="M267.576 43.7031C277.441 41.4922 282.97 43.1001 295.302 43.5213C305.41 43.8754 308.25 43.7605 311.667 43.0714C314.071 42.5142 316.434 41.8108 318.742 40.9658C321.894 39.6742 325.268 38.9348 328.699 38.7836C331.967 38.6603 335.233 39.0583 338.362 39.9609C339.605 40.2671 340.282 41.3008 340.141 41.8751C341.268 42.0165 342.337 42.4319 343.244 43.081C343.9 43.7074 344.468 44.412 344.932 45.1771C345.781 46.2873 346.954 46.4979 348.349 46.7084C349.013 46.7425 349.66 46.9227 350.239 47.2348C351.098 47.8378 350.795 48.5748 350.239 49.149C349.369 50.0481 348.224 50.6672 346.964 50.9197C344.956 51.1973 342.928 51.3317 340.899 51.3216C337.816 51.5609 332.813 51.9055 330.275 53.6474C329.76 54.0015 328.79 54.8916 329.952 55.0639C331.484 55.2203 332.998 55.4989 334.48 55.8966C335.217 56.094 335.901 56.4342 336.491 56.8955C337.081 57.3569 337.563 57.9293 337.907 58.5765C338.114 58.9754 338.153 59.4335 338.018 59.859C337.796 60.4428 337.361 60.4333 336.836 60.395C336.289 60.3854 335.742 60.4046 335.198 60.4524L331.792 60.6438C325.181 60.9597 322.695 61.4286 316.63 58.5382C315.76 58.1171 312.364 56.0593 309.15 56.0593C305.935 56.0593 281.515 60.9597 281.515 60.9597C284.197 70.0447 287.382 78.99 291.057 87.7585C291.916 89.7589 293.573 91.5008 296.303 94.9176C297.637 96.583 299.001 98.1144 300.417 98.6312L275.44 118.539C275.905 112.117 275.44 109.14 272.812 101.416C268.667 89.2133 261.693 71.2007 260.409 59.1316C258.974 45.1771 261.369 45.0909 267.576 43.7031Z" fill="#C8856A"/>
<path d="M326.729 52.9122C325.407 51.6049 323.774 50.6161 321.966 50.0283C320.159 49.4405 318.229 49.2709 316.338 49.5336C316.338 49.5336 319.37 47.964 322.099 48.8732C323.136 49.1839 324.089 49.7068 324.889 50.4047C325.689 51.1027 326.317 51.9588 326.729 52.9122Z" fill="#AF6152"/>
<path d="M378.847 37.7605C380.151 38.1721 379.969 35.7314 380.039 34.9945C380.125 33.6857 380.084 32.3722 379.918 31.0704C379.766 29.6156 379.696 27.3759 379.655 24.8109C379.608 22.976 379.877 21.1461 380.454 19.3937C380.577 18.8909 380.824 18.423 381.176 18.0286C381.527 17.6342 381.973 17.3246 382.475 17.1254C383.749 16.7425 384.103 18.0825 384.275 19.1832C384.836 19.2726 385.387 19.4103 385.922 19.5947C386.372 19.7745 386.767 20.0593 387.069 20.4224C387.371 20.7856 387.571 21.2154 387.651 21.6716C388.596 21.7419 389.494 22.0908 390.219 22.6693C390.945 23.2478 391.46 24.0269 391.694 24.8971C391.866 25.6436 391.947 25.5957 392.705 25.8542C394.029 26.4093 394.15 27.6535 394.514 28.8403C395.636 32.5539 396.354 34.6404 396.323 38.5166C396.323 43.6945 394.18 48.6906 393.291 53.7345C392.943 55.5011 392.851 57.3043 393.018 59.0943C393.513 64.2818 393.675 67.6029 394.029 72.8C394.241 75.7957 394.868 82.0935 395.04 86.3526C395.383 96.249 395.333 95.5407 386.013 102.623C371.255 113.764 343.347 123.881 335.948 136.916C325.84 137.806 320.21 118.664 329.722 103.542C333.118 103.963 335.271 102.528 339.83 100.987C343.246 99.8573 347.572 98.2589 350.393 96.9764C357.054 93.9424 374.359 85.4912 374.359 85.4912C374.359 85.4912 377.583 63.5735 378.048 58.9316C378.513 54.2897 378.594 54.1461 378.25 50.3177C377.381 48.4035 374.541 45.6279 373.621 43.2256" fill="#C8856A"/>
<path d="M374.36 85.5078C374.259 87.7187 374.492 94.7917 377.615 96.8016C372.703 95.2894 372.501 88.5514 372.733 86.2735L374.36 85.5078Z" fill="#AF6152"/>
<path d="M383.637 38.75C386.255 41.8223 386.67 47.2778 384.648 51.9197C388.105 49.7758 389.672 41.6692 383.637 38.75Z" fill="#AF6152"/>
<path d="M405.632 50.8039L407.31 31.1259C407.341 30.815 407.287 30.5017 407.152 30.2166C407.017 29.9314 406.807 29.6842 406.542 29.4988L372.043 6.83467C371.789 6.66517 371.499 6.5507 371.194 6.49942C370.888 6.44813 370.574 6.4613 370.274 6.53797L368.92 7.14094C368.637 7.31114 368.399 7.54011 368.224 7.81043C368.049 8.08076 367.941 8.38534 367.909 8.70102L366.191 28.3025C366.181 28.6434 366.256 28.9817 366.409 29.2907C366.561 29.5996 366.788 29.8707 367.07 30.0827L401.437 52.6703C401.721 52.8459 402.044 52.9571 402.38 52.9953C402.717 53.0334 403.058 52.9976 403.378 52.8904L404.763 52.2683C405.012 52.0999 405.22 51.8813 405.37 51.6282C405.52 51.375 405.61 51.0936 405.632 50.8039Z" fill="#473C4B"/>
<path opacity="0.4" d="M407.31 31.1233L405.591 50.8013C405.572 51.0894 405.485 51.3698 405.339 51.6229C405.192 51.8759 404.988 52.0953 404.742 52.2657L403.357 52.8878C403.038 52.9949 402.696 53.0308 402.36 52.9926C402.023 52.9545 401.7 52.8433 401.417 52.6677L383.344 40.7996L407.168 30.1758C407.306 30.4733 407.355 30.8012 407.31 31.1233Z" fill="#263238"/>
<path d="M404.28 32.0425C404.29 31.7413 404.225 31.4422 404.09 31.1694C403.954 30.8967 403.753 30.658 403.502 30.4728L369.377 8.04795C368.65 7.55983 367.982 7.85653 367.912 8.69878L366.193 28.3098C366.182 28.6511 366.256 28.9901 366.408 29.2994C366.561 29.6087 366.789 29.8796 367.073 30.09L401.44 52.6776C401.976 53.0317 402.451 52.8116 402.521 52.1895L404.28 32.0425Z" fill="#473C4B"/>
<path d="M401.669 31.3853C401.679 31.0619 401.608 30.7407 401.462 30.4481C401.317 30.1554 401.1 29.8994 400.83 29.7008L371.446 10.3961C370.931 10.0611 370.435 10.2621 370.435 10.8555L368.818 29.2988C368.808 29.6237 368.879 29.9462 369.025 30.2404C369.17 30.5346 369.387 30.7924 369.657 30.9929L399.021 50.2976C399.536 50.6326 400.032 50.4221 400.032 49.8287L401.669 31.3853Z" fill="#473C4B"/>
<path d="M368.979 30.1889C368.846 29.9097 368.784 29.6049 368.797 29.2988L370.415 10.8555C370.415 10.2621 370.93 10.0611 371.425 10.3961L374.609 12.4921L372.416 28.648L368.979 30.1889Z" fill="#473C4B"/>
<path d="M370.314 30.7015C370.045 30.5005 369.828 30.2426 369.683 29.9485C369.537 29.6544 369.466 29.3322 369.475 29.0074L371.092 10.5641C371.098 10.459 371.122 10.3555 371.163 10.2578C371.264 10.2881 371.36 10.3333 371.446 10.3918L400.83 29.6966C401.1 29.8951 401.317 30.1511 401.462 30.4438C401.608 30.7365 401.679 31.0576 401.669 31.381L400.052 49.8244C400.044 49.9302 400.017 50.0339 399.971 50.1307C399.873 50.0994 399.781 50.0543 399.698 49.9967L370.314 30.7015Z" fill="#263238"/>
<path d="M368.898 18.0071L368.615 21.2708C368.615 21.4718 368.453 21.5388 368.291 21.4335C368.206 21.3702 368.139 21.2884 368.095 21.195C368.051 21.1017 368.032 20.9996 368.038 20.8975L368.321 17.6243C368.321 17.4328 368.483 17.3563 368.645 17.4615C368.729 17.5279 368.795 17.6116 368.839 17.7063C368.883 17.8009 368.903 17.9039 368.898 18.0071Z" fill="#263238"/>
<path d="M368.432 23.6119C368.432 23.7938 368.27 23.8608 368.108 23.7555C368.026 23.6941 367.961 23.6153 367.917 23.5256C367.873 23.4358 367.852 23.3375 367.855 23.2386C367.855 23.0472 368.007 22.9898 368.169 23.0951C368.252 23.156 368.319 23.2344 368.365 23.3241C368.41 23.4138 368.433 23.5124 368.432 23.6119Z" fill="#263238"/>
<path d="M368.31 24.9436C368.31 25.1255 368.159 25.1829 367.997 25.0776C367.913 25.0172 367.846 24.9389 367.8 24.8491C367.754 24.7592 367.732 24.6605 367.734 24.5608C367.734 24.3789 367.896 24.3119 368.057 24.4172C368.14 24.4806 368.205 24.5611 368.249 24.6524C368.293 24.7437 368.314 24.8434 368.31 24.9436Z" fill="#263238"/>
<path d="M369.242 14.3421C369.242 14.5239 369.09 14.5909 368.928 14.4856C368.845 14.4227 368.778 14.3426 368.732 14.2513C368.687 14.1601 368.664 14.0601 368.666 13.9592C368.666 13.7774 368.827 13.7104 368.989 13.8157C369.071 13.879 369.137 13.9595 369.181 14.0508C369.224 14.1421 369.245 14.2418 369.242 14.3421Z" fill="#263238"/>
<path d="M369.133 15.6606C369.133 15.8425 368.971 15.9095 368.809 15.8042C368.726 15.7439 368.66 15.6653 368.616 15.5753C368.572 15.4852 368.551 15.3864 368.557 15.2873C368.557 15.1055 368.708 15.0385 368.87 15.1438C368.953 15.2047 369.02 15.2831 369.066 15.3728C369.111 15.4625 369.134 15.5611 369.133 15.6606Z" fill="#263238"/>
<path d="M381.798 15.1058C381.907 15.1704 382.031 15.2101 382.159 15.2217C382.287 15.2334 382.416 15.2166 382.536 15.1728C382.575 15.1571 382.61 15.1322 382.636 15.1004C382.663 15.0686 382.681 15.0309 382.688 14.9909C382.688 14.9431 382.688 14.7612 382.688 14.7038C382.686 14.6586 382.673 14.6145 382.648 14.5758C382.623 14.5372 382.588 14.5054 382.546 14.4837L377.886 11.4209C377.778 11.3585 377.656 11.32 377.53 11.3084C377.404 11.2968 377.277 11.3124 377.158 11.3539C377.12 11.368 377.085 11.3912 377.059 11.4214C377.032 11.4515 377.014 11.4876 377.007 11.5262C377.007 11.5741 377.007 11.7655 377.007 11.8229C377.009 11.8679 377.023 11.9117 377.048 11.9502C377.073 11.9886 377.107 12.0206 377.148 12.0431L381.798 15.1058Z" fill="#473C4B"/>
<path d="M381.826 14.8187L377.166 11.7559C376.964 11.6219 376.974 11.4497 377.166 11.3539C377.285 11.3124 377.412 11.2968 377.538 11.3084C377.664 11.32 377.785 11.3585 377.894 11.4209L382.553 14.4837C382.755 14.6177 382.745 14.7995 382.553 14.8856C382.435 14.9294 382.307 14.9461 382.181 14.9345C382.055 14.9228 381.933 14.8832 381.826 14.8187Z" fill="#473C4B"/>
<path d="M375.56 11.011C375.668 11.0728 375.79 11.1109 375.916 11.1225C376.042 11.1341 376.169 11.1189 376.287 11.078C376.329 11.0636 376.366 11.0393 376.394 11.0074C376.422 10.9755 376.441 10.9372 376.449 10.8961C376.449 10.8483 376.449 10.6664 376.449 10.609C376.449 10.5636 376.436 10.519 376.411 10.4802C376.386 10.4414 376.35 10.4098 376.308 10.3889L374.114 8.94365C374.007 8.87914 373.885 8.83945 373.759 8.82781C373.632 8.81617 373.505 8.8329 373.387 8.87665C373.346 8.88933 373.31 8.91194 373.281 8.94219C373.253 8.97245 373.233 9.00927 373.225 9.04893C373.225 9.09679 373.225 9.28821 373.225 9.34563C373.226 9.39084 373.24 9.43496 373.264 9.47359C373.289 9.51222 373.324 9.54401 373.366 9.56577L375.56 11.011Z" fill="#473C4B"/>
<path d="M375.59 10.7239L373.386 9.27864C373.194 9.14464 373.194 8.97236 373.386 8.87665C373.504 8.8329 373.632 8.81617 373.758 8.82781C373.885 8.83945 374.007 8.87914 374.114 8.94365L376.307 10.3889C376.509 10.5229 376.499 10.6951 376.307 10.7909C376.19 10.8309 376.065 10.8457 375.94 10.8341C375.816 10.8225 375.696 10.7848 375.59 10.7239Z" fill="#473C4B"/>
<path d="M373.61 31.0078C374.614 31.4951 375.439 32.2593 375.975 33.1995C376.673 34.4916 377.37 36.9801 378.785 37.7936L373.59 43.2012C372.735 41.0825 372.208 38.8584 372.023 36.5972C371.869 35.151 371.508 33.7311 370.951 32.3764C370.345 30.6249 372.458 30.4622 373.61 31.0078Z" fill="#C8856A"/>
<path d="M389.217 27.7456C389.154 28.2739 389.223 28.8088 389.418 29.3073C389.613 29.8059 389.928 30.2544 390.339 30.6169C391.056 31.0859 391.713 30.6169 391.804 29.4876C391.866 28.9593 391.797 28.4247 391.602 27.9263C391.407 27.4278 391.092 26.9793 390.682 26.6163C389.975 26.1473 389.318 26.6545 389.217 27.7456Z" fill="#83F4BA"/>
<path d="M381.513 22.687C381.451 23.2153 381.521 23.7499 381.715 24.2483C381.91 24.7468 382.225 25.1953 382.635 25.5583C383.343 26.0273 384 25.5583 384.101 24.429C384.163 23.9007 384.094 23.3658 383.899 22.8673C383.705 22.3687 383.389 21.9202 382.979 21.5577C382.271 21.0887 381.614 21.5959 381.513 22.687Z" fill="#83F4BA"/>
<path d="M389.331 38.8066C390.484 38.8838 391.64 38.6922 392.698 38.2483C393.755 37.8045 394.681 37.122 395.395 36.2607C395.487 36.1485 395.555 36.0202 395.594 35.8832C395.633 35.7462 395.643 35.6032 395.623 35.4626C395.603 35.3219 395.554 35.1863 395.479 35.0637C395.403 34.9411 395.303 34.834 395.183 34.7484C395.07 34.6575 394.94 34.5885 394.799 34.5455C394.658 34.5025 394.51 34.4863 394.362 34.4979C394.215 34.5094 394.071 34.5485 393.94 34.6129C393.808 34.6772 393.691 34.7656 393.596 34.8729C391.575 37.0742 388.977 37.2752 386.177 35.4376C383.144 33.4468 380.385 29.2642 378.798 24.2682C378.756 24.1332 378.687 24.0074 378.593 23.8981C378.5 23.7888 378.385 23.6981 378.254 23.6313C378.123 23.5646 377.98 23.523 377.832 23.5091C377.684 23.4952 377.535 23.5092 377.393 23.5503C377.107 23.6323 376.866 23.8182 376.724 24.0675C376.582 24.3167 376.55 24.6091 376.635 24.8807C378.394 30.4128 381.396 34.9016 384.893 37.1986C386.198 38.0941 387.728 38.6487 389.331 38.8066Z" fill="#83F4BA"/>
<path d="M273.267 116.405C282.203 106.47 295.323 99.3876 300.437 98.6602C301.072 98.869 301.73 99.0072 302.398 99.0717C306.987 99.6747 312.931 100.9 319.784 101.139C319.784 101.139 323.918 101.991 328.457 103.216C329.795 103.591 331.206 103.67 332.581 103.446C326.516 109.495 325.273 120.195 326.354 126.206C327.365 131.575 329.387 136.896 335.906 136.916C332.49 146.219 329.387 151.1 329.841 157.388C315.144 167.552 277.543 166.959 273.429 154.899C273.429 154.899 273.237 146.707 273.975 138.351C265.797 131.805 268.304 121.918 273.267 116.405Z" fill="#EBEBEB"/>
<path d="M311.287 142.437C310.298 142.796 309.329 143.205 308.386 143.662C307.511 144.007 306.604 144.273 305.677 144.456C303.929 144.799 302.13 144.831 300.37 144.552C296.098 143.836 292.266 141.626 289.636 138.359C289.636 138.359 289.534 138.359 289.555 138.446C290.452 140.479 291.846 142.281 293.623 143.703C295.399 145.126 297.508 146.129 299.774 146.629C301.927 147.062 304.151 147.085 306.314 146.696C308.265 146.351 311.499 145.624 312.601 143.891C313.046 143.135 312.075 142.226 311.287 142.437Z" fill="#D9D9D9"/>
<path d="M296.022 88.6175C295.073 88.0278 294.325 87.19 293.869 86.2056C292.929 84.2914 292.939 81.9943 292.313 79.9748C291.777 78.2138 290.483 76.692 289.513 75.1223C288.912 74.2402 288.512 73.2494 288.338 72.213C288.164 71.1765 288.22 70.1171 288.502 69.1022C288.918 67.6896 289.822 66.4496 291.07 65.58C292.384 64.6804 293.809 64.3741 294.668 62.9289C295.447 61.4425 295.596 59.73 295.082 58.1434C294.628 56.411 294.072 54.5159 295.173 52.8793C296.092 51.4207 297.446 50.2519 299.065 49.5199C300.03 49.0767 301.022 48.6899 302.037 48.3618C303.002 48.1704 303.939 47.8682 304.826 47.4621C305.635 46.974 306.454 46.4284 307.212 45.8637C308.736 44.5091 310.394 43.2975 312.165 42.2459C313.705 41.5146 315.387 41.0911 317.108 41.0017C318.638 40.8778 320.179 41.0672 321.626 41.5568C323.525 42.1876 325.314 43.0844 326.933 44.2175C327.84 45.0447 328.947 45.6493 330.157 45.9786C332.32 46.2753 334.251 46.5146 335.049 46.6677C336.817 47.0171 338.521 47.6139 340.103 48.4383C343.297 50.075 344.773 52.9176 345.481 56.1813C345.723 57.3202 345.37 58.8038 345.905 59.8853C346.441 60.9668 347.988 61.0051 348.998 61.3209C350.951 61.9756 352.718 63.0464 354.164 64.4507C354.877 65.1252 355.422 65.9415 355.762 66.8403C356.101 67.7391 356.225 68.698 356.125 69.6477C356.034 71.6481 354.719 72.6817 354.103 74.4332C353.831 75.2558 353.728 76.1199 353.8 76.9791C353.982 78.0224 355.124 78.8933 355.478 79.8504C356.227 81.9917 356.184 84.3105 355.356 86.4257C354.973 87.534 354.305 88.5348 353.412 89.3383C352.519 90.1418 351.43 90.7229 350.242 91.0294C348.17 91.6228 345.865 91.4983 344.106 92.8479C343.095 93.6518 342.509 94.8961 341.579 95.834C340.502 96.7221 339.199 97.3291 337.799 97.5951C335.989 97.9875 333.917 97.0208 332.31 96.37C329.783 95.3459 326.811 94.4558 324.092 95.1258C322.586 95.5086 321.222 96.2551 319.746 96.7146C318.507 97.0309 317.197 97.001 315.976 96.6284C313.267 95.968 310.922 94.0155 308.728 92.4172C306.588 90.834 303.982 89.9178 301.268 89.7947C299.444 89.8158 297.643 89.4115 296.022 88.6175Z" fill="#263238"/>
<path d="M341.894 77.6003C340.974 75.533 338.123 73.8676 335.768 74.8056C333.241 75.8201 332.978 76.9208 331.846 78.3181C330.714 79.7155 327.389 79.0742 327.652 72.7574C327.894 66.8616 328.733 62.0953 326.904 58.6018C324.427 53.9503 317.988 54.3619 314.319 55.7018C312.965 52.7252 310.377 51.213 307.062 52.2945C303.746 53.3761 300.683 57.3289 297.762 68.1346C294.73 79.1604 296.458 86.8555 298.844 89.1908C300.653 90.9327 302.644 92.244 307.041 93.1054L306.172 96.6849C306.099 97.0783 305.944 97.4541 305.717 97.7904C305.489 98.1266 305.193 98.4167 304.846 98.6438C304.499 98.8709 304.108 99.0304 303.695 99.1131C303.283 99.1958 302.857 99.2 302.442 99.1255C299.096 101.7 298.581 106.017 304.989 108.055C316.401 111.683 325.832 105.978 328.501 103.27C326.954 102.82 325.539 101.537 326.418 98.0344L329.602 85.5921C329.819 86.1283 330.168 86.6077 330.62 86.9905C331.072 87.3734 331.613 87.6487 332.2 87.7934C334.535 88.5878 336.638 87.7934 338.356 86.4535C342.126 83.5152 343.016 80.1175 341.894 77.6003Z" fill="#C8856A"/>
<path d="M315.277 71.0172C315.462 70.52 315.835 70.1055 316.325 69.8544C316.814 69.6032 317.385 69.5333 317.926 69.6581C318.178 69.6919 318.424 69.763 318.653 69.8687C319.826 70.3185 320.382 71.8882 321.736 71.4192C321.614 71.6286 321.443 71.8088 321.236 71.9459C321.029 72.0831 320.791 72.1736 320.542 72.2105C320.292 72.2475 320.037 72.2299 319.795 72.1591C319.554 72.0883 319.333 71.9661 319.149 71.802C318.916 71.6393 318.431 71.0938 318.017 70.9694L317.794 70.9119C316.571 70.7205 314.964 71.9743 315.277 71.0172Z" fill="#263238"/>
<path d="M305.988 69.2926C305.984 68.7666 305.776 68.2604 305.403 67.8704C305.03 67.4804 304.519 67.2337 303.967 67.1774C303.715 67.144 303.46 67.144 303.209 67.1774C301.955 67.2444 300.884 68.5556 299.762 67.6942C299.806 67.9297 299.906 68.1527 300.054 68.346C300.203 68.5393 300.397 68.6978 300.62 68.8096C300.843 68.9213 301.091 68.9832 301.343 68.9906C301.595 68.9981 301.846 68.9507 302.076 68.8523C302.504 68.6474 302.96 68.5023 303.431 68.4216H303.663C304.856 68.613 305.958 70.2688 305.988 69.2926Z" fill="#263238"/>
<path d="M301.289 64.3158L305.777 62.9471C305.7 62.6639 305.562 62.3987 305.373 62.1678C305.183 61.9369 304.946 61.7452 304.675 61.6044C304.404 61.4636 304.106 61.3768 303.798 61.3493C303.491 61.3218 303.18 61.3542 302.886 61.4445C302.279 61.6337 301.773 62.0389 301.475 62.5746C301.177 63.1102 301.111 63.7345 301.289 64.3158Z" fill="#263238"/>
<path d="M317.907 65.1191L322.223 67.6172C322.409 67.3599 322.538 67.0693 322.601 66.7632C322.665 66.4571 322.661 66.1419 322.591 65.8372C322.521 65.5324 322.386 65.2444 322.194 64.9909C322.002 64.7374 321.757 64.5237 321.475 64.363C320.892 64.0306 320.196 63.9236 319.531 64.0644C318.867 64.2052 318.285 64.5829 317.907 65.1191Z" fill="#263238"/>
<path d="M315.472 81.3477L308.679 82.0846C308.735 82.5329 308.889 82.9653 309.131 83.3543C309.373 83.7433 309.697 84.0804 310.084 84.3442C310.471 84.6079 310.912 84.7925 311.378 84.8863C311.845 84.9801 312.327 84.981 312.793 84.8889C313.217 84.8276 313.623 84.6865 313.989 84.4742C314.354 84.2619 314.671 83.9825 314.92 83.6526C315.17 83.3226 315.347 82.9487 315.442 82.5529C315.537 82.157 315.547 81.7473 315.472 81.3477Z" fill="#AF6152"/>
<path d="M310.91 84.7091C311.182 83.9063 311.757 83.2272 312.527 82.803C313.296 82.3787 314.204 82.2395 315.075 82.4121L315.398 82.5078C315.291 83.1162 314.979 83.6756 314.509 84.1031C314.04 84.5306 313.437 84.8035 312.791 84.8814C312.158 84.9719 311.513 84.9127 310.91 84.7091Z" fill="#FFA8A7"/>
<path d="M312.326 67.2812L308.667 77.8094L303.219 74.8041L312.326 67.2812Z" fill="#AF6152"/>
<path d="M306.97 93.0267C310.963 93.4803 315.011 93.1909 318.887 92.1749C321.758 91.4379 324.497 88.7006 325.963 86.0781C325.69 87.7267 324.995 89.2868 323.938 90.6217C322.88 91.9566 321.493 93.0256 319.898 93.7349C314.743 96.1373 306.333 95.563 306.333 95.563L306.97 93.0267Z" fill="#AF6152"/>
<path d="M335.869 85.3062C335.806 85.5955 335.655 85.8609 335.434 86.0688C335.212 86.2767 334.931 86.4178 334.625 86.4742C334.319 86.5307 334.002 86.5 333.714 86.386C333.427 86.272 333.181 86.0798 333.009 85.8338C332.837 85.5877 332.745 85.2989 332.747 85.0037C332.748 84.7084 332.841 84.4201 333.015 84.1752C333.189 83.9303 333.436 83.7397 333.724 83.6276C334.013 83.5154 334.33 83.4867 334.635 83.5452C335.044 83.6259 335.403 83.8561 335.634 84.1858C335.865 84.5155 335.949 84.9181 335.869 85.3062Z" fill="#FAFAFA"/>
</svg>
