<svg width="211" height="23" viewBox="0 0 211 23" fill="none" xmlns="http://www.w3.org/2000/svg">
<path d="M16.06 22H0.31V0.999999H15.73V4.87H4.63V8.92H13.57V12.73H4.63V18.13H16.06V22ZM22.1995 22H17.6695L26.6695 0.879998H30.8095L39.8095 22H35.2195L33.1495 17.14H24.2695L22.1995 22ZM28.7095 6.28L25.6195 13.57H31.7695L28.7095 6.28ZM49.5454 22.42C46.3854 22.42 43.7254 21.67 41.5654 20.17V15.67C42.4454 16.43 43.6054 17.09 45.0454 17.65C46.5054 18.19 47.9454 18.46 49.3654 18.46C50.5454 18.46 51.5154 18.25 52.2754 17.83C53.0354 17.39 53.4154 16.79 53.4154 16.03C53.4154 15.21 53.0554 14.63 52.3354 14.29C52.0354 14.11 51.6354 13.93 51.1354 13.75L50.4154 13.51L48.7354 13L47.1754 12.49C46.9554 12.43 46.4854 12.26 45.7654 11.98C45.1454 11.74 44.6954 11.53 44.4154 11.35C43.3754 10.63 42.7154 10.02 42.4354 9.52C41.9554 8.56 41.7154 7.58 41.7154 6.58C41.7154 4.72 42.4254 3.26 43.8454 2.2C45.2654 1.12 47.1954 0.579999 49.6354 0.579999C52.0954 0.579999 54.3854 1.16 56.5054 2.32V6.52C54.3654 5.2 52.0954 4.54 49.6954 4.54C47.3154 4.54 46.1254 5.23 46.1254 6.61C46.1254 7.21 46.4954 7.69 47.2354 8.05C47.6754 8.29 48.2454 8.5 48.9454 8.68C49.8854 8.94 50.6454 9.16 51.2254 9.34C52.9654 9.88 54.4854 10.61 55.7854 11.53C57.1854 12.51 57.8854 13.97 57.8854 15.91C57.8854 17.93 57.0954 19.52 55.5154 20.68C53.9354 21.84 51.9454 22.42 49.5454 22.42ZM71.3031 22H67.0131V12.58L58.8831 0.999999H63.9831L69.2031 8.47L74.4531 0.999999H79.4031L71.3031 12.49V22ZM97.4118 22H82.5618V0.999999H96.9618V3.01H84.7818V9.73H94.7718V11.74H84.7818V19.99H97.4118V22ZM103.911 22H101.751V0.999999H103.671L116.931 18.16V0.999999H119.091V22H117.201L103.911 4.78V22ZM134.853 22.36C131.833 22.36 129.283 21.34 127.203 19.3C125.163 17.26 124.143 14.66 124.143 11.5C124.143 8.36 125.163 5.77 127.203 3.73C129.263 1.67 131.833 0.64 134.913 0.64C137.573 0.64 139.793 1.31 141.573 2.65V4.9C139.633 3.44 137.453 2.71 135.033 2.71C132.573 2.71 130.513 3.54 128.853 5.2C127.213 6.84 126.393 8.95 126.393 11.53C126.393 14.07 127.203 16.17 128.823 17.83C130.463 19.47 132.473 20.29 134.853 20.29C137.373 20.29 139.363 19.56 140.823 18.1V9.94H143.013V18.97C142.093 20.01 140.913 20.84 139.473 21.46C138.053 22.06 136.513 22.36 134.853 22.36ZM162.371 22H148.421V0.999999H150.641V19.99H162.371V22ZM168.692 22H166.472V0.999999H168.692V22ZM180.999 22.36C179.479 22.36 178.019 22.16 176.619 21.76C175.239 21.34 174.109 20.8 173.229 20.14V17.65C174.069 18.37 175.159 18.99 176.499 19.51C177.939 20.03 179.389 20.29 180.849 20.29C182.509 20.29 183.869 19.93 184.929 19.21C185.989 18.49 186.519 17.53 186.519 16.33C186.639 15.21 186.059 14.26 184.779 13.48C184.519 13.28 184.099 13.08 183.519 12.88L182.199 12.43C182.139 12.41 182.019 12.38 181.839 12.34C181.659 12.28 181.459 12.22 181.239 12.16C181.039 12.08 180.829 12.01 180.609 11.95C179.369 11.59 178.629 11.37 178.389 11.29C177.749 11.07 177.129 10.82 176.529 10.54C175.869 10.22 175.349 9.87 174.969 9.49C174.089 8.57 173.649 7.43 173.649 6.07C173.649 4.49 174.289 3.19 175.569 2.17C176.849 1.15 178.629 0.64 180.909 0.64C183.429 0.64 185.609 1.22 187.449 2.38V4.66C185.369 3.36 183.209 2.71 180.969 2.71C179.349 2.71 178.099 3.03 177.219 3.67C176.339 4.31 175.899 5.13 175.899 6.13C175.779 6.93 176.229 7.72 177.249 8.5C177.409 8.64 177.739 8.8 178.239 8.98L179.259 9.37L180.549 9.73L181.809 10.09C182.909 10.43 183.599 10.65 183.879 10.75C184.459 10.95 185.069 11.22 185.709 11.56C186.369 11.9 186.909 12.28 187.329 12.7C188.309 13.6 188.799 14.8 188.799 16.3C188.799 18.18 188.039 19.66 186.519 20.74C185.019 21.82 183.179 22.36 180.999 22.36ZM195.817 22H193.597V0.999999H195.817V9.73H208.297V0.999999H210.517V22H208.297V11.74H195.817V22Z" fill="black"/>
</svg>
