<svg width="110" height="85" viewBox="0 0 110 85" fill="none" xmlns="http://www.w3.org/2000/svg">
<path d="M8.28837 23.9897C7.9367 22.9426 8.50045 21.8087 9.54754 21.457L52.6601 6.97726C53.7072 6.62558 54.8411 7.18933 55.1928 8.23642L74.0835 64.4823C74.4351 65.5293 73.8714 66.6633 72.8243 67.0149L29.7117 81.4947C28.6646 81.8463 27.5307 81.2826 27.179 80.2355L8.28837 23.9897Z" fill="black"/>
<path d="M3.34062 21.517C2.98895 20.4699 3.55269 19.336 4.59978 18.9843L47.7124 4.5046C48.7595 4.15292 49.8934 4.71667 50.2451 5.76376L69.1357 62.0096C69.4874 63.0567 68.9236 64.1906 67.8765 64.5423L24.764 79.022C23.7169 79.3737 22.5829 78.8099 22.2313 77.7629L3.34062 21.517Z" fill="white"/>
<path fill-rule="evenodd" clip-rule="evenodd" d="M3.96299 17.0878L47.0756 2.60807C49.1698 1.90472 51.4376 3.03222 52.141 5.1264L71.0316 61.3722C71.735 63.4664 70.6075 65.7343 68.5133 66.4376L25.4007 80.9173C23.3065 81.6207 21.0387 80.4932 20.3353 78.399L1.44467 22.1532C0.741318 20.059 1.86881 17.7912 3.96299 17.0878ZM4.59976 18.9837C3.55267 19.3354 2.98892 20.4693 3.34059 21.5164L22.2312 77.7623C22.5829 78.8093 23.7168 79.3731 24.7639 79.0214L67.8765 64.5417C68.9236 64.19 69.4874 63.0561 69.1357 62.009L50.245 5.76316C49.8934 4.71607 48.7594 4.15232 47.7123 4.504L4.59976 18.9837Z" fill="black"/>
<path fill-rule="evenodd" clip-rule="evenodd" d="M16.251 29.6857C16.0752 29.1622 16.3571 28.5952 16.8806 28.4194L42.5608 19.7945C43.0843 19.6187 43.6513 19.9005 43.8271 20.4241C44.003 20.9476 43.7211 21.5146 43.1976 21.6904L17.5174 30.3153C16.9938 30.4912 16.4269 30.2093 16.251 29.6857Z" fill="black"/>
<path fill-rule="evenodd" clip-rule="evenodd" d="M18.2988 35.7834C18.1229 35.2599 18.4048 34.6929 18.9283 34.5171L44.6085 25.8922C45.1321 25.7163 45.699 25.9982 45.8749 26.5217C46.0507 27.0453 45.7688 27.6122 45.2453 27.7881L19.5651 36.413C19.0416 36.5888 18.4746 36.307 18.2988 35.7834Z" fill="black"/>
<path fill-rule="evenodd" clip-rule="evenodd" d="M20.3472 41.8812C20.1713 41.3576 20.4532 40.7907 20.9768 40.6148L46.6569 31.9899C47.1805 31.8141 47.7475 32.096 47.9233 32.6195C48.0991 33.1431 47.8173 33.71 47.2937 33.8859L21.6135 42.5108C21.09 42.6866 20.523 42.4047 20.3472 41.8812Z" fill="black"/>
<path fill-rule="evenodd" clip-rule="evenodd" d="M22.3949 47.9787C22.2191 47.4552 22.501 46.8882 23.0245 46.7124L48.7047 38.0875C49.2282 37.9116 49.7952 38.1935 49.971 38.717C50.1469 39.2406 49.865 39.8076 49.3414 39.9834L23.6613 48.6083C23.1377 48.7841 22.5708 48.5023 22.3949 47.9787Z" fill="black"/>
<path fill-rule="evenodd" clip-rule="evenodd" d="M24.4426 54.0761C24.2668 53.5526 24.5487 52.9856 25.0722 52.8098L50.7524 44.1849C51.2759 44.009 51.8429 44.2909 52.0187 44.8145C52.1946 45.338 51.9127 45.905 51.3892 46.0808L25.709 54.7057C25.1854 54.8815 24.6185 54.5997 24.4426 54.0761Z" fill="black"/>
<path fill-rule="evenodd" clip-rule="evenodd" d="M38.7538 56.0467C38.93 56.5701 38.6485 57.1373 38.1251 57.3135L27.7573 60.8031C27.2339 60.9793 26.6667 60.6978 26.4906 60.1744C26.3144 59.651 26.5959 59.0838 27.1193 58.9076L37.4871 55.4179C38.0105 55.2418 38.5776 55.5233 38.7538 56.0467Z" fill="black"/>
<path d="M59.038 8.21059C59.329 7.14504 60.4287 6.51716 61.4943 6.80817L105.367 18.79C106.432 19.081 107.06 20.1807 106.769 21.2463L91.1374 78.4835C90.8463 79.549 89.7466 80.1769 88.6811 79.8859L44.8086 67.904C43.7431 67.613 43.1152 66.5133 43.4062 65.4478L59.038 8.21059Z" fill="white"/>
<path fill-rule="evenodd" clip-rule="evenodd" d="M62.0213 4.87805L105.894 16.8599C108.025 17.4419 109.281 19.6413 108.699 21.7724L93.0668 79.0096C92.4848 81.1407 90.2854 82.3965 88.1543 81.8145L44.2818 69.8326C42.1507 69.2506 40.8949 67.0512 41.4769 64.9201L57.1088 7.6829C57.6908 5.55181 59.8902 4.29604 62.0213 4.87805ZM61.4944 6.80739C60.4288 6.51638 59.3291 7.14427 59.0381 8.20982L43.4063 65.447C43.1153 66.5126 43.7432 67.6123 44.8087 67.9033L88.6812 79.8851C89.7467 80.1761 90.8464 79.5482 91.1374 78.4827L106.769 21.2455C107.06 20.1799 106.432 19.0802 105.367 18.7892L61.4944 6.80739Z" fill="black"/>
<path fill-rule="evenodd" clip-rule="evenodd" d="M80.4384 58.1382C80.8247 58.2475 81.1082 58.5773 81.1583 58.9756L82.3933 68.7968C82.4622 69.3447 82.0739 69.8448 81.5259 69.9137C80.9779 69.9826 80.4779 69.5943 80.409 69.0463L79.4683 61.5659L74.6982 67.5042C74.3523 67.9348 73.7229 68.0035 73.2923 67.6576C72.8618 67.3118 72.7931 66.6823 73.139 66.2517L79.3865 58.4741C79.6379 58.1611 80.0521 58.0288 80.4384 58.1382Z" fill="black"/>
<path fill-rule="evenodd" clip-rule="evenodd" d="M75.7378 63.4061C75.8833 62.8733 76.4331 62.5594 76.9659 62.7049L81.1389 63.8445C81.6716 63.99 81.9856 64.5399 81.8401 65.0727C81.6946 65.6054 81.1447 65.9194 80.6119 65.7739L76.439 64.6342C75.9062 64.4887 75.5923 63.9389 75.7378 63.4061Z" fill="black"/>
<path fill-rule="evenodd" clip-rule="evenodd" d="M86.4351 63.5135C86.9679 63.659 87.2818 64.2088 87.1363 64.7416L86.3504 67.6195C86.2049 68.1523 85.655 68.4662 85.1222 68.3207C84.5895 68.1752 84.2755 67.6254 84.421 67.0926L85.207 64.2147C85.3525 63.6819 85.9024 63.368 86.4351 63.5135Z" fill="black"/>
<path fill-rule="evenodd" clip-rule="evenodd" d="M88.1821 66.5721C88.0366 67.1049 87.4867 67.4188 86.954 67.2733L84.0761 66.4873C83.5433 66.3418 83.2293 65.792 83.3748 65.2592C83.5204 64.7264 84.0702 64.4125 84.603 64.558L87.4809 65.344C88.0137 65.4895 88.3276 66.0393 88.1821 66.5721Z" fill="black"/>
<path d="M88.1819 40.0536C89.0537 39.5559 89.3569 38.4457 88.8591 37.5739C88.3614 36.7021 87.2512 36.3989 86.3794 36.8967L75.6952 42.9969C74.736 43.5446 73.5144 43.211 72.9667 42.2518L69.547 36.2624C69.0493 35.3906 67.9391 35.0874 67.0673 35.5852C66.1956 36.0829 65.8924 37.1931 66.3901 38.0649L70.8002 45.7889C70.8009 45.7901 70.8005 45.7916 70.7993 45.7923C70.7981 45.793 70.7977 45.7945 70.7984 45.7957L72.5984 48.9483C72.5991 48.9495 72.6006 48.9499 72.6018 48.9493L72.6019 48.9492C72.603 48.9486 72.6045 48.949 72.6052 48.9501C72.6058 48.9513 72.6073 48.9517 72.6085 48.951L75.7612 47.151C75.7624 47.1503 75.7628 47.1488 75.7621 47.1476C75.7614 47.1465 75.7618 47.145 75.763 47.1443L88.1819 40.0536Z" fill="#7A4AE6"/>
<path fill-rule="evenodd" clip-rule="evenodd" d="M74.7037 41.2585L85.3879 35.1582C87.2189 34.1128 89.5507 34.7496 90.5961 36.5806C91.6415 38.4116 91.0047 40.7434 89.1737 41.7888L76.8726 48.8123C76.8339 48.8381 76.794 48.8628 76.753 48.8862L73.6002 50.6863C73.1237 50.9583 72.5825 51.0132 72.0912 50.8821C71.5895 50.75 71.1392 50.4244 70.8617 49.9384L69.0617 46.7858C69.038 46.7443 69.016 46.7023 68.9955 46.66L64.6534 39.0549C63.608 37.224 64.2448 34.8922 66.0758 33.8467C67.9068 32.8013 70.2386 33.4381 71.284 35.2691L74.7037 41.2585ZM88.8592 37.5723C89.357 38.4441 89.0538 39.5543 88.182 40.052L75.7631 47.1427C75.7619 47.1434 75.7615 47.1449 75.7622 47.146C75.7624 47.1465 75.7625 47.1469 75.7625 47.1474C75.7625 47.1482 75.762 47.1489 75.7613 47.1494L72.6086 48.9494C72.6074 48.9501 72.6059 48.9497 72.6053 48.9485C72.6046 48.9474 72.6031 48.947 72.602 48.9476L72.6019 48.9476C72.6007 48.9483 72.5992 48.9479 72.5985 48.9467L70.7985 45.7941C70.7978 45.7929 70.7982 45.7914 70.7994 45.7907C70.8006 45.79 70.801 45.7885 70.8003 45.7873L66.3902 38.0633C65.8925 37.1915 66.1957 36.0813 67.0674 35.5836C67.9392 35.0858 69.0494 35.389 69.5471 36.2608L72.9668 42.2502C73.5145 43.2094 74.7361 43.543 75.6953 42.9953L86.3795 36.8951C87.2513 36.3973 88.3615 36.7005 88.8592 37.5723Z" fill="#7A4AE6"/>
</svg>
