<svg width="83" height="100" viewBox="0 0 83 100" fill="none" xmlns="http://www.w3.org/2000/svg">
<path d="M0.092041 91.7659C0.092041 90.3041 1.27703 89.1191 2.73879 89.1191H80.2613C81.723 89.1191 82.908 90.3041 82.908 91.7659C82.908 93.2276 81.723 94.4126 80.2613 94.4126H2.73879C1.27703 94.4126 0.092041 93.2276 0.092041 91.7659Z" fill="black"/>
<path d="M0.092041 7.07058C0.092041 5.60882 1.27703 4.42383 2.73879 4.42383H80.2613C81.723 4.42383 82.908 5.60882 82.908 7.07058C82.908 8.53233 81.723 9.71732 80.2613 9.71732H2.73879C1.27703 9.71732 0.092041 8.53233 0.092041 7.07058Z" fill="black"/>
<path d="M9.95093 14.3413C9.95093 10.3041 13.2238 7.03125 17.261 7.03125H65.6047C69.6419 7.03125 72.9148 10.3041 72.9148 14.3413V84.756C72.9148 88.7933 69.6419 92.0661 65.6047 92.0661H17.261C13.2238 92.0661 9.95093 88.7933 9.95093 84.756V14.3413Z" fill="white"/>
<path fill-rule="evenodd" clip-rule="evenodd" d="M17.2609 5.20312H65.6046C70.6511 5.20312 74.7422 9.29418 74.7422 14.3407V84.7554C74.7422 89.802 70.6511 93.893 65.6046 93.893H17.2609C12.2143 93.893 8.12329 89.802 8.12329 84.7554V14.3407C8.12329 9.29417 12.2143 5.20312 17.2609 5.20312ZM17.2609 7.03065C13.2237 7.03065 9.95081 10.3035 9.95081 14.3407V84.7554C9.95081 88.7927 13.2236 92.0655 17.2609 92.0655H65.6046C69.6418 92.0655 72.9146 88.7927 72.9146 84.7554V14.3407C72.9146 10.3035 69.6418 7.03065 65.6046 7.03065H17.2609Z" fill="black"/>
<path d="M9.95093 81.748H72.9148V84.9413H9.95093V81.748Z" fill="black"/>
<path d="M4.01416 7.48257C4.01416 4.45463 6.46879 2 9.49673 2H73.3687C76.3966 2 78.8512 4.45463 78.8512 7.48257V7.99492C78.8512 11.0229 76.3966 13.4775 73.3687 13.4775H9.49672C6.46878 13.4775 4.01416 11.0229 4.01416 7.99492V7.48257Z" fill="white"/>
<path fill-rule="evenodd" clip-rule="evenodd" d="M9.49686 0.171875H73.3688C77.4061 0.171875 80.6789 3.44472 80.6789 7.48197V7.99431C80.6789 12.0316 77.4061 15.3044 73.3688 15.3044H9.49685C5.4596 15.3044 2.18677 12.0316 2.18677 7.99431V7.48197C2.18677 3.44472 5.45961 0.171875 9.49686 0.171875ZM9.49686 1.9994C6.46892 1.9994 4.01429 4.45403 4.01429 7.48197V7.99431C4.01429 11.0223 6.46891 13.4769 9.49685 13.4769H73.3688C76.3967 13.4769 78.8514 11.0223 78.8514 7.99431V7.48197C78.8514 4.45403 76.3968 1.9994 73.3688 1.9994H9.49686Z" fill="black"/>
<path fill-rule="evenodd" clip-rule="evenodd" d="M58.4456 4.86884C58.4456 4.36418 58.8547 3.95508 59.3593 3.95508H75.3882C75.8929 3.95508 76.302 4.36418 76.302 4.86884C76.302 5.3735 75.8929 5.7826 75.3882 5.7826H59.3593C58.8547 5.7826 58.4456 5.3735 58.4456 4.86884Z" fill="black"/>
<path d="M8.76341 13.4775H74.1019C75.8401 13.4775 77.3602 12.5437 78.1879 11.1504L4.72607 11.2306C5.56387 12.5794 7.05876 13.4775 8.76341 13.4775Z" fill="black"/>
<path d="M4.01416 91.3869C4.01416 88.3589 6.46879 85.9043 9.49673 85.9043H73.3687C76.3966 85.9043 78.8512 88.3589 78.8512 91.3869V92.5199C78.8512 95.5479 76.3966 98.0025 73.3687 98.0025H9.49672C6.46878 98.0025 4.01416 95.5479 4.01416 92.5199V91.3869Z" fill="white"/>
<path fill-rule="evenodd" clip-rule="evenodd" d="M9.49686 84.0762H73.3688C77.4061 84.0762 80.6789 87.349 80.6789 91.3863V92.5193C80.6789 96.5566 77.4061 99.8294 73.3688 99.8294H9.49685C5.4596 99.8294 2.18677 96.5566 2.18677 92.5193V91.3863C2.18677 87.349 5.4596 84.0762 9.49686 84.0762ZM9.49686 85.9037C6.46892 85.9037 4.01429 88.3583 4.01429 91.3863V92.5193C4.01429 95.5473 6.46891 98.0019 9.49685 98.0019H73.3688C76.3967 98.0019 78.8514 95.5473 78.8514 92.5193V91.3863C78.8514 88.3583 76.3968 85.9037 73.3688 85.9037H9.49686Z" fill="black"/>
<path fill-rule="evenodd" clip-rule="evenodd" d="M6.20337 89.5642C6.20337 89.0595 6.61247 88.6504 7.11713 88.6504H29.4784C29.9831 88.6504 30.3922 89.0595 30.3922 89.5642C30.3922 90.0688 29.9831 90.4779 29.4784 90.4779H7.11713C6.61247 90.4779 6.20337 90.0688 6.20337 89.5642Z" fill="black"/>
<path fill-rule="evenodd" clip-rule="evenodd" d="M68.241 94.0114C68.241 93.5068 68.6501 93.0977 69.1547 93.0977H78.8512C79.3559 93.0977 79.765 93.5068 79.765 94.0114C79.765 94.5161 79.3559 94.9252 78.8512 94.9252H69.1547C68.6501 94.9252 68.241 94.5161 68.241 94.0114Z" fill="black"/>
<path d="M8.76341 98.1728H74.1019C75.8401 98.1728 77.3602 97.239 78.1879 95.8457L4.72607 95.9259C5.56387 97.2747 7.05876 98.1728 8.76341 98.1728Z" fill="black"/>
<path fill-rule="evenodd" clip-rule="evenodd" d="M17.0872 23.4704C17.0872 22.9657 17.4963 22.5566 18.0009 22.5566H65.395C65.8997 22.5566 66.3088 22.9657 66.3088 23.4704C66.3088 23.9751 65.8997 24.3842 65.395 24.3842H18.0009C17.4963 24.3842 17.0872 23.9751 17.0872 23.4704Z" fill="black"/>
<path fill-rule="evenodd" clip-rule="evenodd" d="M17.0872 39.2024C17.0872 38.6978 17.4963 38.2887 18.0009 38.2887H65.395C65.8997 38.2887 66.3088 38.6978 66.3088 39.2024C66.3088 39.7071 65.8997 40.1162 65.395 40.1162H18.0009C17.4963 40.1162 17.0872 39.7071 17.0872 39.2024Z" fill="black"/>
<path fill-rule="evenodd" clip-rule="evenodd" d="M17.0872 44.0507C17.0872 43.546 17.4963 43.1369 18.0009 43.1369H65.395C65.8997 43.1369 66.3088 43.546 66.3088 44.0507C66.3088 44.5553 65.8997 44.9644 65.395 44.9644H18.0009C17.4963 44.9644 17.0872 44.5553 17.0872 44.0507Z" fill="black"/>
<path fill-rule="evenodd" clip-rule="evenodd" d="M17.0872 48.899C17.0872 48.3943 17.4963 47.9852 18.0009 47.9852H65.395C65.8997 47.9852 66.3088 48.3943 66.3088 48.899C66.3088 49.4037 65.8997 49.8128 65.395 49.8128H18.0009C17.4963 49.8128 17.0872 49.4037 17.0872 48.899Z" fill="black"/>
<path fill-rule="evenodd" clip-rule="evenodd" d="M17.0872 53.6483C17.0872 53.1436 17.4963 52.7345 18.0009 52.7345H46.3978C46.9025 52.7345 47.3116 53.1436 47.3116 53.6483C47.3116 54.1529 46.9025 54.562 46.3978 54.562H18.0009C17.4963 54.562 17.0872 54.1529 17.0872 53.6483Z" fill="black"/>
<path fill-rule="evenodd" clip-rule="evenodd" d="M17.0872 28.2089C17.0872 27.7042 17.4963 27.2951 18.0009 27.2951H43.872C44.3767 27.2951 44.7858 27.7042 44.7858 28.2089C44.7858 28.7135 44.3767 29.1226 43.872 29.1226H18.0009C17.4963 29.1226 17.0872 28.7135 17.0872 28.2089Z" fill="black"/>
<path fill-rule="evenodd" clip-rule="evenodd" d="M17.0872 71.6452C17.0872 71.1406 17.4963 70.7315 18.0009 70.7315H31.2072C31.7119 70.7315 32.121 71.1406 32.121 71.6452C32.121 72.1499 31.7119 72.559 31.2072 72.559H18.0009C17.4963 72.559 17.0872 72.1499 17.0872 71.6452Z" fill="black"/>
<path fill-rule="evenodd" clip-rule="evenodd" d="M54.0963 66.7013C54.439 66.3586 54.9039 66.166 55.3886 66.166H61.4936C62.5029 66.166 63.3211 66.9842 63.3211 67.9935V77.2214C63.3211 77.9116 62.9322 78.543 62.3158 78.8535C61.6993 79.1641 60.9605 79.1008 60.4058 78.69L58.4411 77.2347L56.4763 78.69C55.9216 79.1008 55.1828 79.1641 54.5664 78.8535C53.9499 78.543 53.561 77.9116 53.561 77.2214V67.9935C53.561 67.5088 53.7536 67.044 54.0963 66.7013ZM58.4411 74.9604L61.4936 77.2214V67.9935H55.3886V77.2214L58.4411 74.9604Z" fill="#83F4BA"/>
<path d="M65.5929 65.4554C65.5929 66.3311 64.5678 66.8027 64.2726 67.5746C63.9728 68.3585 64.3987 69.4405 63.8531 70.0587C63.1917 70.8081 62.0051 70.5505 61.0786 70.9601C60.2189 71.3402 59.6341 72.4147 58.6336 72.4147C57.6332 72.4147 57.0483 71.3402 56.1886 70.9601C55.2621 70.5505 54.0756 70.8081 53.4141 70.0587C52.8686 69.4405 53.2945 68.3585 52.9946 67.5746C52.6994 66.8027 51.6743 66.3311 51.6743 65.4554C51.6743 64.5797 52.6994 64.1081 52.9946 63.3362C53.2607 62.6405 52.7719 61.6322 53.2341 61.0644C53.8491 60.3092 54.6193 60.5487 55.4962 60.1051C56.439 59.6282 57.5049 58.4961 58.6336 58.4961C59.7623 58.4961 60.8283 59.6282 61.771 60.1051C62.6479 60.5487 63.4182 60.3092 64.0331 61.0644C64.4954 61.6322 64.0065 62.6405 64.2726 63.3362C64.5678 64.1081 65.5929 64.5797 65.5929 65.4554Z" fill="white"/>
<path fill-rule="evenodd" clip-rule="evenodd" d="M56.7456 60.4034C56.491 60.5797 56.2041 60.7707 55.9087 60.9202C55.4447 61.1549 54.9622 61.2549 54.654 61.3187C54.5862 61.3328 54.5268 61.3451 54.4779 61.3567C54.1961 61.4236 54.0745 61.4836 53.9521 61.6297C53.9504 61.6419 53.9258 61.7399 53.9519 62.0828C53.9545 62.1168 53.9576 62.1546 53.961 62.1954C53.9745 62.358 53.9918 62.567 53.993 62.7619C53.9945 63.0155 53.9723 63.3375 53.8481 63.6623C53.7238 63.9873 53.5351 64.2496 53.368 64.4518C53.2577 64.5851 53.1223 64.7309 53.0135 64.8479C52.9709 64.8938 52.9324 64.9353 52.9011 64.9698C52.6112 65.2901 52.588 65.3959 52.588 65.4551C52.588 65.5143 52.6112 65.6201 52.9011 65.9404C52.9324 65.9749 52.9709 66.0164 53.0135 66.0622C53.1223 66.1793 53.2577 66.3251 53.368 66.4584C53.5351 66.6606 53.7238 66.9229 53.8481 67.2479C53.9721 67.5722 54.0096 67.8954 54.0226 68.1618C54.0317 68.3491 54.0293 68.5557 54.0273 68.7235C54.0266 68.7811 54.026 68.8341 54.0259 68.8801C54.0251 69.3482 54.0809 69.433 54.0992 69.4537C54.203 69.5714 54.3776 69.6581 54.8486 69.7346C54.917 69.7457 54.9968 69.7568 55.0851 69.7691C55.4857 69.8248 56.0624 69.905 56.558 70.1241C56.8788 70.2659 57.1483 70.4606 57.3659 70.6359C57.4774 70.7258 57.6273 70.8556 57.7541 70.9654C57.83 71.0311 57.8977 71.0896 57.9438 71.1282C58.3027 71.4277 58.4804 71.5006 58.6336 71.5006C58.7867 71.5006 58.9644 71.4277 59.3233 71.1282C59.3695 71.0896 59.4371 71.0311 59.513 70.9654C59.6398 70.8556 59.7897 70.7258 59.9012 70.6359C60.1188 70.4606 60.3883 70.2659 60.7091 70.1241C61.2048 69.905 61.7814 69.8248 62.182 69.7691C62.2703 69.7568 62.3501 69.7457 62.4186 69.7346C62.8895 69.6581 63.0641 69.5714 63.168 69.4537C63.1863 69.433 63.242 69.3482 63.2412 68.8801C63.2411 68.8341 63.2405 68.7811 63.2398 68.7235C63.2379 68.5557 63.2354 68.3491 63.2446 68.1618C63.2575 67.8954 63.295 67.5722 63.4191 67.2479C63.5434 66.9229 63.732 66.6606 63.8992 66.4584C64.0094 66.3251 64.1449 66.1793 64.2536 66.0623C64.2962 66.0164 64.3347 65.9749 64.366 65.9404C64.6559 65.6201 64.6791 65.5143 64.6791 65.4551C64.6791 65.3959 64.6559 65.2901 64.366 64.9698C64.3347 64.9353 64.2962 64.8938 64.2536 64.8479C64.1449 64.7309 64.0094 64.5851 63.8992 64.4518C63.732 64.2496 63.5434 63.9873 63.4191 63.6623C63.2948 63.3375 63.2726 63.0155 63.2741 62.7619C63.2753 62.567 63.2926 62.3581 63.3061 62.1954C63.3095 62.1547 63.3127 62.1168 63.3152 62.0828C63.3413 61.7399 63.3167 61.6419 63.315 61.6297C63.1926 61.4836 63.071 61.4236 62.7892 61.3567C62.7403 61.3451 62.681 61.3328 62.6132 61.3187C62.305 61.2549 61.8224 61.1549 61.3585 60.9202C61.063 60.7707 60.7761 60.5797 60.5216 60.4034C60.4344 60.3431 60.3519 60.2851 60.2719 60.2289C60.1016 60.1092 59.9424 59.9974 59.7729 59.8868C59.2648 59.5555 58.9111 59.4096 58.6336 59.4096C58.356 59.4096 58.0023 59.5555 57.4943 59.8868C57.3248 59.9974 57.1656 60.1092 56.9953 60.2289C56.9152 60.2851 56.8327 60.3431 56.7456 60.4034ZM56.496 58.3561C57.0388 58.0021 57.7824 57.582 58.6336 57.582C59.4847 57.582 60.2283 58.0021 60.7711 58.3561C60.9679 58.4844 61.1701 58.6264 61.3524 58.7544C61.426 58.8061 61.4964 58.8556 61.5619 58.9009C61.8077 59.0711 62.0075 59.2005 62.1835 59.2895C62.412 59.4051 62.5968 59.4445 62.8722 59.5032C62.9714 59.5243 63.0823 59.5479 63.2113 59.5785C63.6803 59.6899 64.2524 59.8863 64.7416 60.4872C65.2249 61.0807 65.1673 61.8319 65.1392 62.1996C65.1386 62.207 65.138 62.2143 65.1375 62.2213C65.1328 62.2831 65.1282 62.339 65.124 62.3908C65.1117 62.5404 65.1023 62.6547 65.1016 62.7727C65.1007 62.9216 65.1172 62.9865 65.126 63.0095C65.1493 63.0705 65.1995 63.1565 65.3076 63.2873C65.3844 63.3801 65.4562 63.4572 65.5444 63.5519C65.5961 63.6074 65.6535 63.669 65.7208 63.7433C66.0173 64.0708 66.5066 64.6386 66.5066 65.4551C66.5066 66.2716 66.0173 66.8394 65.7208 67.1669C65.6535 67.2412 65.5961 67.3028 65.5444 67.3583C65.4562 67.453 65.3844 67.5301 65.3076 67.6229C65.1995 67.7537 65.1493 67.8397 65.126 67.9007C65.1001 67.9683 65.0785 68.0743 65.0699 68.2506C65.0636 68.3795 65.0651 68.4987 65.0668 68.6441C65.0676 68.7142 65.0686 68.7905 65.0687 68.8768C65.0695 69.3003 65.0654 70.0657 64.5381 70.663C63.9805 71.2948 63.2312 71.454 62.7118 71.5384C62.5574 71.5635 62.4209 71.5833 62.298 71.6011C61.9339 71.6538 61.6884 71.6893 61.4481 71.7956C61.339 71.8438 61.213 71.9259 61.0478 72.059C60.9377 72.1478 60.8597 72.2161 60.7712 72.2935C60.6955 72.3598 60.6122 72.4329 60.4944 72.5312C60.0958 72.8639 59.4808 73.3282 58.6336 73.3282C57.7863 73.3282 57.1713 72.8639 56.7727 72.5312C56.655 72.4329 56.5716 72.3598 56.4959 72.2935C56.4075 72.2161 56.3295 72.1478 56.2193 72.059C56.0541 71.9259 55.9282 71.8438 55.8191 71.7956C55.5788 71.6893 55.3332 71.6538 54.9692 71.6011C54.8462 71.5833 54.7097 71.5635 54.5553 71.5384C54.036 71.454 53.2866 71.2948 52.729 70.663C52.2017 70.0657 52.1977 69.3003 52.1984 68.8768C52.1986 68.7905 52.1995 68.7142 52.2003 68.6441C52.2021 68.4987 52.2035 68.3795 52.1972 68.2506C52.1886 68.0743 52.167 67.9683 52.1411 67.9007C52.1178 67.8397 52.0676 67.7537 51.9595 67.6229C51.8828 67.5301 51.8109 67.453 51.7227 67.3583C51.671 67.3028 51.6136 67.2412 51.5463 67.1669C51.2499 66.8394 50.7605 66.2716 50.7605 65.4551C50.7605 64.6386 51.2499 64.0708 51.5463 63.7433C51.6136 63.669 51.671 63.6074 51.7227 63.5519C51.8109 63.4572 51.8828 63.3801 51.9595 63.2873C52.0676 63.1565 52.1178 63.0705 52.1411 63.0095C52.1499 62.9865 52.1664 62.9216 52.1655 62.7727C52.1648 62.6547 52.1554 62.5404 52.1432 62.3908C52.1389 62.339 52.1343 62.2831 52.1296 62.2213C52.1291 62.2143 52.1285 62.207 52.128 62.1996C52.0998 61.8319 52.0422 61.0807 52.5255 60.4872C53.0147 59.8863 53.5868 59.6899 54.0559 59.5785C54.1848 59.5479 54.2957 59.5243 54.3949 59.5032C54.6703 59.4445 54.8551 59.4051 55.0837 59.2895C55.2596 59.2005 55.4594 59.0711 55.7052 58.9009C55.7707 58.8556 55.8411 58.8062 55.9147 58.7544C56.097 58.6264 56.2992 58.4844 56.496 58.3561Z" fill="#83F4BA"/>
<path fill-rule="evenodd" clip-rule="evenodd" d="M62.0711 65.3485C62.0711 67.2972 60.5066 68.908 58.5387 68.908C56.5708 68.908 55.0063 67.2972 55.0063 65.3485C55.0063 63.3998 56.5708 61.7891 58.5387 61.7891C60.5066 61.7891 62.0711 63.3998 62.0711 65.3485ZM58.5387 67.4876C59.7051 67.4876 60.6507 66.5299 60.6507 65.3485C60.6507 64.1671 59.7051 63.2094 58.5387 63.2094C57.3723 63.2094 56.4267 64.1671 56.4267 65.3485C56.4267 66.5299 57.3723 67.4876 58.5387 67.4876Z" fill="#83F4BA"/>
</svg>
