<svg width="27" height="28" viewBox="0 0 27 28" fill="none" xmlns="http://www.w3.org/2000/svg">
<path d="M23.4975 24.8889C23.4975 26.607 22.0947 28 20.3645 28H3.133C1.4028 28 0 26.607 0 24.8889V3.11111C0 1.393 1.4028 0 3.133 0H20.3645C22.0947 0 23.4975 1.393 23.4975 3.11111V24.8889Z" fill="#473C4B"/>
<path d="M20.3643 18.6666C20.3643 19.0967 20.0142 19.4443 19.5811 19.4443H3.91606C3.48371 19.4443 3.13281 19.0967 3.13281 18.6666C3.13281 18.2364 3.48371 17.8888 3.91606 17.8888H19.5811C20.0142 17.8888 20.3643 18.2364 20.3643 18.6666ZM7.83231 21.7777C7.83231 22.2078 7.48141 22.5554 7.04906 22.5554H3.91606C3.48371 22.5554 3.13281 22.2078 3.13281 21.7777C3.13281 21.3476 3.48371 20.9999 3.91606 20.9999H7.04906C7.48141 20.9999 7.83231 21.3476 7.83231 21.7777ZM20.3643 6.22211C20.3643 6.65145 20.0142 6.99989 19.5811 6.99989H3.91606C3.48371 6.99989 3.13281 6.65145 3.13281 6.22211C3.13281 5.79278 3.48371 5.44434 3.91606 5.44434H19.5811C20.0142 5.44434 20.3643 5.79278 20.3643 6.22211ZM20.3643 9.33322C20.3643 9.76334 20.0142 10.111 19.5811 10.111H3.91606C3.48371 10.111 3.13281 9.76334 3.13281 9.33322C3.13281 8.90311 3.48371 8.55545 3.91606 8.55545H19.5811C20.0142 8.55545 20.3643 8.90311 20.3643 9.33322ZM20.3643 12.4443C20.3643 12.8744 20.0142 13.2221 19.5811 13.2221H3.91606C3.48371 13.2221 3.13281 12.8744 3.13281 12.4443C3.13281 12.0142 3.48371 11.6666 3.91606 11.6666H19.5811C20.0142 11.6666 20.3643 12.0142 20.3643 12.4443ZM20.3643 15.5554C20.3643 15.9856 20.0142 16.3332 19.5811 16.3332H3.91606C3.48371 16.3332 3.13281 15.9856 3.13281 15.5554C3.13281 15.1253 3.48371 14.7777 3.91606 14.7777H19.5811C20.0142 14.7777 20.3643 15.1253 20.3643 15.5554Z" fill="#D9D9D9"/>
<path d="M23.4984 4.87823C22.8507 4.46212 22.0596 4.4279 21.5238 4.86034L20.9035 5.36279L19.7412 6.30468L19.6628 6.3669L17.8018 7.87423L8.4984 15.4078C8.15612 15.6855 7.87728 16.3559 7.57965 17.0209C7.28358 17.682 6.82068 19.2391 6.44942 20.4361C6.3335 20.6306 5.61526 21.8719 6.01785 22.344C6.42514 22.8223 7.83969 22.3518 8.02923 22.2849C9.3028 22.1496 10.9515 21.9948 11.6698 21.8338C12.3935 21.6697 13.1219 21.5266 13.4642 21.2489C13.4705 21.2442 13.472 21.2349 13.4775 21.231L22.7653 13.713L23.3856 13.2106L23.4984 13.1188V4.87823Z" fill="#66757F"/>
<path d="M13.4287 17.5205C13.4287 17.5205 12.4309 16.0575 11.7706 15.5348C11.2443 14.8791 9.7741 13.889 9.7741 13.889C9.42321 13.5421 8.84125 13.5157 8.49819 13.8556C8.15591 14.1962 7.87707 14.918 7.57944 15.6375C7.20974 16.5288 6.58001 18.8683 6.19465 20.1112C6.12964 20.3228 6.59959 19.7612 6.58863 19.9479C6.58079 20.0933 6.60977 20.2543 6.64659 20.3998L6.53223 20.5235L6.69515 20.5756C6.71473 20.6393 6.73431 20.6953 6.74841 20.7389L6.87295 20.6253C7.01941 20.6619 7.18155 20.6907 7.32723 20.6829C7.51521 20.672 6.94892 21.1395 7.16275 21.0741C8.41438 20.6907 10.7712 20.0661 11.668 19.699C12.3917 19.4027 13.1201 19.1266 13.4624 18.7859C13.8063 18.4476 13.7804 17.8697 13.4287 17.5205Z" fill="#D99E82"/>
<path d="M19.0429 3.3836C18.3568 4.06415 18.3568 5.16704 19.0429 5.8476L21.5235 8.3116C22.2096 8.99137 23.3202 8.99137 24.0048 8.3116L26.4869 5.8476C27.1715 5.16704 27.1715 4.06415 26.4869 3.3836L24.0048 0.919596C23.3202 0.239041 22.2096 0.239041 21.5235 0.919596L19.0429 3.3836Z" fill="#83F4BA"/>
<path d="M8.49805 13.8554L10.9809 16.321L13.4599 18.7834L22.7657 9.54421L17.8023 4.61621L8.49805 13.8554Z" fill="#FFCC4D"/>
<path d="M8.0657 20.7996C8.0657 20.7996 6.4522 21.6808 6.01672 21.2476C5.58045 20.8136 6.47178 19.2168 6.47178 19.2168C6.47178 19.2168 7.9999 19.2448 8.0657 20.7996Z" fill="white"/>
<path d="M17.8018 4.61613L20.9034 1.53613L25.8661 6.46491L22.7644 9.54491L17.8018 4.61613Z" fill="#473C4B"/>
<path d="M19.6618 2.76737L20.2821 2.15137L25.2448 7.07859L24.6244 7.69459L19.6618 2.76737ZM18.4219 3.99937L19.0414 3.38414L24.0041 8.31137L23.3838 8.92737L18.4219 3.99937Z" fill="#D9D9D9"/>
</svg>
