<svg width="261" height="185" viewBox="0 0 261 185" fill="none" xmlns="http://www.w3.org/2000/svg">
<path d="M4.20472 39.309C-0.904419 80.4616 23.6568 140.01 74.8044 134.576C121.329 129.633 126.6 124.652 141.548 110.818C157.357 96.1869 140.421 72.481 117.586 107.387C98.7918 136.117 113.246 169.52 162.755 161.185C212.264 152.85 241.708 48.7078 244.035 44.945" stroke="#7A4AE6" stroke-width="3" stroke-dasharray="15 15"/>
<path d="M205 55.0905L261 39L221.641 65.8152L205 55.0905Z" fill="#7A4AE6"/>
<path d="M261 39L248.477 86L228.256 70.1261L261 39Z" fill="#7A4AE6"/>
<path d="M221.641 65.8152L223.964 86L228.257 70.1261L261 39L221.641 65.8152Z" fill="#83F4BA"/>
<path d="M223.964 85.9989L236.124 76.3013L228.257 70.125L223.964 85.9989Z" fill="#7A4AE6"/>
</svg>
