<svg width="16" height="16" viewBox="0 0 16 16" fill="none" xmlns="http://www.w3.org/2000/svg">
<g clip-path="url(#clip0_728_7467)">
<path d="M14.5774 7.42855C14.5774 8.5378 14.5741 9.6463 14.5783 10.7556C14.5825 11.748 14.1752 12.5553 13.2877 13.1516C13.2081 13.2047 13.1502 13.2745 13.0899 13.3443C12.4438 14.0826 11.6183 14.4923 10.5607 14.4908C8.70271 14.4877 6.8456 14.4786 4.98765 14.4938C3.58308 14.5052 2.23299 13.5575 1.95141 12.2631C1.9028 12.0408 1.88185 11.8155 1.88185 11.5871C1.88352 9.34433 1.88604 7.10078 1.88185 4.85799C1.87933 3.8762 2.29919 3.08788 3.16155 2.49304C3.35849 2.35723 3.47917 2.16072 3.65097 2.00442C4.26358 1.44448 4.99938 1.14403 5.87011 1.14099C7.73477 1.13568 9.59942 1.13492 11.4641 1.14099C13.1821 1.14554 14.5447 2.3724 14.5774 3.93234C14.5774 3.95131 14.5774 3.97028 14.5774 3.98925C14.5774 5.13568 14.5774 6.28287 14.5774 7.42931V7.42855Z" fill="#734CDD"/>
<path d="M3.08008 7.40041C3.08008 6.2221 3.04656 5.04305 3.08846 3.86626C3.13958 2.43682 4.35559 1.41103 5.94452 1.40192C7.0717 1.39509 8.19887 1.40041 9.32521 1.40041C10.0275 1.40041 10.7306 1.39509 11.4329 1.40192C12.8098 1.41558 13.8993 2.21072 14.2119 3.42468C14.2638 3.62726 14.2839 3.8344 14.2839 4.04305C14.2839 6.29267 14.2864 8.54153 14.2823 10.7911C14.2797 12.304 13.0495 13.4216 11.3818 13.4254C9.57327 13.4292 7.76392 13.43 5.95542 13.4254C4.51398 13.4216 3.35999 12.5613 3.11444 11.3109C3.07505 11.1075 3.07086 10.8966 3.07002 10.6895C3.06583 9.59312 3.06834 8.49676 3.06834 7.40041C3.0717 7.40041 3.07505 7.40041 3.07756 7.40041H3.08008Z" fill="#F2F2F2"/>
<path d="M5.73145 7.40616C5.73145 6.31587 5.73145 5.22634 5.73145 4.13605C5.73145 3.84319 5.7524 3.82422 6.07085 3.82422C7.81735 3.82422 9.563 3.82422 11.3095 3.82422C11.5961 3.82422 11.612 3.83939 11.612 4.10571C11.612 4.47748 11.612 4.84926 11.612 5.22103C11.612 5.43879 11.5643 5.48203 11.3162 5.48203C10.2586 5.48279 9.20096 5.48203 8.14418 5.48203C7.96708 5.48203 7.87852 5.56499 7.87852 5.7309C7.87852 5.95775 7.88523 6.18461 7.87601 6.41147C7.87014 6.54653 7.92797 6.5837 8.07044 6.58143C8.47773 6.5746 8.88502 6.57915 9.29315 6.57915C9.90911 6.57915 10.5259 6.58446 11.1419 6.57612C11.3422 6.57308 11.4134 6.63681 11.4075 6.81815C11.3966 7.20889 11.3975 7.59964 11.4075 7.98962C11.4117 8.16109 11.3464 8.22179 11.1536 8.22027C10.1379 8.21344 9.12219 8.22179 8.10647 8.21344C7.91959 8.21193 7.86511 8.26124 7.87517 8.42589C7.88942 8.67096 7.88774 8.91754 7.87517 9.16261C7.86847 9.3098 7.91875 9.35609 8.08468 9.35457C9.1423 9.3485 10.1999 9.35153 11.2567 9.35153C11.5969 9.35153 11.612 9.36519 11.612 9.66792C11.612 10.0397 11.607 10.4115 11.6145 10.7832C11.6179 10.9433 11.5559 11.0116 11.374 11.0109C9.57892 11.0078 7.78466 11.0093 5.98956 11.0086C5.77754 11.0086 5.73228 10.9578 5.73228 10.7324C5.73228 9.62316 5.73228 8.51466 5.73228 7.4054L5.73145 7.40616Z" fill="#734CDD"/>
<path d="M4.55573 9.68705C4.55573 10.071 4.55405 10.4556 4.55573 10.8395C4.55824 11.3107 4.77195 11.6757 5.22449 11.9185C5.32087 11.9701 5.44238 12.0224 5.35942 12.1476C5.27729 12.2705 5.16499 12.1992 5.07029 12.1491C4.58087 11.8873 4.28755 11.4951 4.27079 10.9845C4.2423 10.1347 4.25906 9.28416 4.25655 8.43439C4.25655 8.33651 4.28588 8.2485 4.41075 8.25002C4.54148 8.25154 4.55489 8.34638 4.55489 8.44046C4.55489 8.85624 4.55489 9.27202 4.55489 9.68705H4.55573Z" fill="#734CDD"/>
<path d="M8.12313 12.0829C8.24129 12.0829 8.35862 12.0813 8.47678 12.0829C8.57651 12.0836 8.63517 12.1322 8.63685 12.2209C8.63769 12.3044 8.57148 12.3476 8.48768 12.3492C8.23794 12.3537 7.9882 12.3545 7.7393 12.3499C7.65717 12.3484 7.59264 12.3097 7.59181 12.2225C7.59097 12.1269 7.65298 12.0866 7.74852 12.0836C7.87339 12.0806 7.99826 12.0829 8.12313 12.0829V12.0829Z" fill="#7954DE"/>
<path d="M4.25967 6.45486C4.25967 6.34181 4.25967 6.228 4.25967 6.11495C4.25967 6.03453 4.2957 5.98142 4.39208 5.97686C4.49516 5.97231 4.55047 6.01935 4.55214 6.1104C4.55466 6.34333 4.55633 6.57626 4.55214 6.80919C4.55047 6.90479 4.49516 6.96548 4.38202 6.95866C4.26972 6.95183 4.25799 6.8752 4.25883 6.79477C4.25883 6.68172 4.25883 6.56791 4.25883 6.45486H4.25967Z" fill="#734DDD"/>
<path d="M6.47934 12.0846C6.57655 12.0846 6.67461 12.0808 6.77098 12.0861C6.86233 12.0906 6.90842 12.1437 6.90591 12.2249C6.90339 12.2993 6.85562 12.3418 6.77433 12.3433C6.57991 12.3478 6.38548 12.3531 6.19105 12.3494C6.10725 12.3478 6.04523 12.3061 6.04691 12.2189C6.04858 12.1233 6.11311 12.0861 6.20865 12.083C6.29916 12.0808 6.38967 12.083 6.48018 12.083C6.48018 12.0838 6.48018 12.0846 6.48018 12.0853L6.47934 12.0846Z" fill="#7954DE"/>
<path d="M4.2567 7.53677C4.26675 7.43055 4.22653 7.30309 4.39917 7.30081C4.5827 7.29853 4.55085 7.43055 4.55337 7.53374C4.55588 7.63617 4.56426 7.75453 4.40587 7.75984C4.21228 7.76667 4.2743 7.62175 4.25586 7.53677H4.2567Z" fill="#754EDD"/>
<path d="M6.04229 7.41436C6.04229 6.37491 6.04648 5.33545 6.0381 4.296C6.03726 4.13515 6.08168 4.08128 6.29454 4.08204C8.09467 4.08887 9.89479 4.08887 11.6941 4.08204C11.9044 4.08128 11.9631 4.12908 11.9514 4.29372C11.9346 4.52589 11.9329 4.76034 11.9514 4.99251C11.9648 5.16702 11.8801 5.20192 11.6832 5.2004C10.5141 5.19433 9.34587 5.19737 8.17679 5.19737C7.77369 5.19737 7.7519 5.21558 7.7519 5.53576C7.7519 5.8825 7.75107 6.22847 7.7519 6.57521C7.75274 6.80359 7.79548 6.83925 8.07707 6.84001C9.20675 6.84152 10.3364 6.84456 11.4661 6.83621C11.6731 6.8347 11.7368 6.87946 11.7242 7.04714C11.7058 7.29221 11.7108 7.53879 11.7234 7.78386C11.7301 7.92043 11.6664 7.95154 11.5089 7.95078C10.3792 7.94623 9.24949 7.9485 8.11897 7.9485C7.78794 7.9485 7.7519 7.97658 7.75107 8.23834C7.75023 8.61011 7.74939 8.98189 7.75107 9.35366C7.7519 9.59039 7.79883 9.62908 8.0888 9.62908C9.28721 9.62984 10.4848 9.63287 11.6832 9.62605C11.8801 9.62529 11.9648 9.65943 11.9505 9.83394C11.9321 10.0722 11.9363 10.3127 11.9497 10.5517C11.9572 10.6966 11.9078 10.7459 11.7175 10.7444C10.7437 10.7368 9.76992 10.7406 8.79527 10.7406C7.95387 10.7406 7.11247 10.7361 6.27107 10.7444C6.08168 10.7459 6.03726 10.6943 6.0381 10.5509C6.04396 9.50541 6.04145 8.45913 6.04145 7.4136L6.04229 7.41436Z" fill="#7EFAA1"/>
</g>
<defs>
<clipPath id="clip0_728_7467">
<rect width="16" height="16" fill="white"/>
</clipPath>
</defs>
</svg>
