<svg width="20" height="21" viewBox="0 0 20 21" fill="none" xmlns="http://www.w3.org/2000/svg">
<path d="M17.6095 9.13247L4.41422 1.74966C4.13758 1.5907 3.81873 1.5207 3.50094 1.54917C3.18315 1.57764 2.88182 1.70319 2.63783 1.90878C2.39385 2.11438 2.21903 2.39007 2.1371 2.69843C2.05516 3.00679 2.07009 3.33289 2.17985 3.63247L4.63297 10.4997L2.17985 17.3668C2.07039 17.6659 2.05593 17.9915 2.13843 18.2991C2.22092 18.6068 2.39636 18.8814 2.64078 19.0856C2.92321 19.3225 3.27997 19.4525 3.6486 19.4528C3.91725 19.4538 4.18139 19.3837 4.41422 19.2497L17.6095 11.8668C17.8517 11.73 18.0532 11.5314 18.1933 11.2911C18.3335 11.0509 18.4074 10.7778 18.4074 10.4997C18.4074 10.2215 18.3335 9.94839 18.1933 9.70818C18.0532 9.46796 17.8517 9.26929 17.6095 9.13247ZM4.22672 17.2106L6.28922 11.4372H10.6252C10.8738 11.4372 11.1123 11.3384 11.2881 11.1626C11.4639 10.9868 11.5627 10.7483 11.5627 10.4997C11.5627 10.251 11.4639 10.0126 11.2881 9.83675C11.1123 9.66093 10.8738 9.56216 10.6252 9.56216H6.28922L4.22672 3.78872L16.2033 10.4997L4.22672 17.2106Z" fill="white"/>
</svg>
