<svg width="100" height="86" viewBox="0 0 100 86" fill="none" xmlns="http://www.w3.org/2000/svg">
<path d="M52.5679 14.6985L90.9507 9.12332C94.2388 8.64572 97.2117 11.1329 97.322 14.4537L99.4146 77.4646C99.5149 80.4862 97.188 83.0367 94.17 83.2133L53.6945 85.5816C50.494 85.7688 47.7958 83.2238 47.7958 80.0179V20.2138C47.7958 17.4453 49.8281 15.0964 52.5679 14.6985Z" fill="black"/>
<path d="M47.4321 14.6985L9.04928 9.12332C5.76122 8.64572 2.7883 11.1329 2.67802 14.4537L0.585402 77.4646C0.485056 80.4862 2.81198 83.0367 5.83002 83.2133L46.3055 85.5816C49.506 85.7688 52.2042 83.2238 52.2042 80.0179V20.2138C52.2042 17.4453 50.1719 15.0964 47.4321 14.6985Z" fill="black"/>
<path d="M51.687 12.7267L89.3522 6.37784C90.4641 6.19041 91.4853 7.0288 91.5179 8.15598L93.4819 75.9943C93.5108 76.9924 92.7455 77.8349 91.7492 77.9017L52.12 80.5583C51.0475 80.6302 50.138 79.7796 50.138 78.7047V14.5586C50.138 13.6518 50.7928 12.8774 51.687 12.7267Z" fill="white"/>
<path fill-rule="evenodd" clip-rule="evenodd" d="M89.0433 4.54669L51.3781 10.8956C49.5897 11.197 48.2802 12.7457 48.2802 14.5594V78.7055C48.2802 80.8553 50.0992 82.5564 52.2442 82.4126L91.8733 79.756C93.866 79.6224 95.3965 77.9376 95.3387 75.9413L93.3748 8.10297C93.3095 5.84863 91.2672 4.17183 89.0433 4.54669ZM89.3521 6.37859L51.6869 12.7275C50.7927 12.8782 50.1379 13.6525 50.1379 14.5594V78.7055C50.1379 79.7804 51.0474 80.631 52.1199 80.5591L91.7491 77.9024C92.7454 77.8356 93.5107 76.9932 93.4818 75.9951L91.5178 8.15673C91.4852 7.02956 90.4641 6.19116 89.3521 6.37859Z" fill="black"/>
<path d="M52.3646 12.5785L84.7019 2.35713C85.8779 1.98539 87.0831 2.84184 87.1188 4.07473L89.0793 71.7948C89.1057 72.7055 88.4678 73.5009 87.5731 73.6729L53.2752 80.2675C52.1295 80.4878 51.0667 79.6098 51.0667 78.4432V14.3499C51.0667 13.5396 51.5919 12.8227 52.3646 12.5785Z" fill="white"/>
<path fill-rule="evenodd" clip-rule="evenodd" d="M84.1419 0.585349L51.8046 10.8067C50.2593 11.2952 49.2089 12.7288 49.2089 14.3495V78.4427C49.2089 80.7761 51.3345 82.532 53.6259 82.0914L87.9238 75.4968C89.7131 75.1528 90.9889 73.562 90.9362 71.7407L88.9756 4.02054C88.9043 1.55478 86.494 -0.158116 84.1419 0.585349ZM84.7018 2.35671L52.3645 12.5781C51.5919 12.8223 51.0666 13.5391 51.0666 14.3495V78.4427C51.0666 79.6094 52.1295 80.4873 53.2752 80.2671L87.573 73.6725C88.4677 73.5005 89.1056 72.7051 89.0792 71.7944L87.1187 4.0743C87.083 2.84142 85.8779 1.98497 84.7018 2.35671Z" fill="black"/>
<path d="M59.5496 8.97691L65.2528 7.11523V22.3828L62.4012 20.6333L59.5496 23.4849V8.97691Z" fill="#7A4AE6"/>
<path fill-rule="evenodd" clip-rule="evenodd" d="M57.6919 8.97724C57.6919 8.17335 58.209 7.46066 58.9732 7.21121L64.6764 5.34953C65.2422 5.16486 65.8621 5.26241 66.3438 5.61188C66.8255 5.96136 67.1106 6.52045 67.1106 7.11557V22.3831C67.1106 23.0557 66.7471 23.6757 66.1602 24.0042C65.5733 24.3327 64.8547 24.3183 64.2814 23.9666L62.6788 22.9833L60.8633 24.7988C60.3319 25.3302 59.5329 25.4891 58.8387 25.2015C58.1445 24.914 57.6919 24.2366 57.6919 23.4852V8.97724ZM65.2529 22.3831L62.4013 20.6336L59.5496 23.4852V8.97724L65.2529 7.11557V14.7493V22.3831Z" fill="#7A4AE6"/>
<path d="M47.4882 12.727L10.0857 6.38207C8.97304 6.19332 7.95049 7.03213 7.91804 8.16023L5.9666 75.997C5.9379 76.9947 6.70268 77.8368 7.69853 77.9039L47.0525 80.559C48.1253 80.6314 49.0353 79.7807 49.0353 78.7055V14.5585C49.0353 13.6524 48.3816 12.8785 47.4882 12.727Z" fill="white"/>
<path fill-rule="evenodd" clip-rule="evenodd" d="M10.3965 4.54931L47.799 10.8942C49.5857 11.1973 50.8931 12.7451 50.8931 14.5573V78.7043C50.8931 80.8547 49.0731 82.5561 46.9275 82.4113L7.57356 79.7563C5.58188 79.6219 4.05232 77.9378 4.10972 75.9424L6.06115 8.10562C6.12605 5.84942 8.17115 4.1718 10.3965 4.54931ZM10.0858 6.38088L47.4883 12.7258C48.3817 12.8773 49.0354 13.6512 49.0354 14.5573V78.7043C49.0354 79.7795 48.1254 80.6302 47.0526 80.5578L7.69861 77.9027C6.70277 77.8356 5.93799 76.9935 5.96669 75.9958L7.91812 8.15904C7.95058 7.03094 8.97313 6.19213 10.0858 6.38088Z" fill="black"/>
<path fill-rule="evenodd" clip-rule="evenodd" d="M38.6969 31.1547C39.9226 30.6111 41.3235 30.6637 42.3932 31.1687C42.8571 31.3877 43.0556 31.9413 42.8366 32.4052C42.6176 32.8691 42.064 33.0676 41.6001 32.8486C41.0157 32.5727 40.1792 32.5296 39.4501 32.8529C38.7662 33.1562 38.1251 33.805 37.9139 35.0432C37.7042 36.273 37.9823 37.4509 38.5963 38.2325C39.1784 38.9734 40.1256 39.4454 41.5234 39.2088C42.0292 39.1231 42.5086 39.4638 42.5943 39.9696C42.6799 40.4754 42.3392 40.9548 41.8334 41.0404C39.797 41.3851 38.158 40.6817 37.1355 39.3802C36.1449 38.1193 35.8 36.3878 36.0826 34.7309C36.395 32.8993 37.426 31.7184 38.6969 31.1547Z" fill="#7A4AE6"/>
<path fill-rule="evenodd" clip-rule="evenodd" d="M85.1514 26.5107C85.053 26.0072 84.5651 25.6788 84.0617 25.7772L54.4424 31.5633C53.939 31.6616 53.6105 32.1495 53.7089 32.653C53.8072 33.1565 54.2951 33.4849 54.7986 33.3865L84.4178 27.6004C84.9213 27.5021 85.2497 27.0142 85.1514 26.5107Z" fill="black"/>
<path fill-rule="evenodd" clip-rule="evenodd" d="M85.1514 30.7815C85.053 30.278 84.5651 29.9496 84.0617 30.0479L54.4424 35.834C53.939 35.9324 53.6105 36.4202 53.7089 36.9237C53.8072 37.4272 54.2951 37.7556 54.7986 37.6573L84.4178 31.8712C84.9213 31.7728 85.2497 31.285 85.1514 30.7815Z" fill="black"/>
<path fill-rule="evenodd" clip-rule="evenodd" d="M85.1514 47.9332C85.053 47.4297 84.5651 47.1013 84.0617 47.1997L54.4424 52.9857C53.939 53.0841 53.6105 53.572 53.7089 54.0755C53.8072 54.5789 54.2951 54.9074 54.7986 54.809L84.4178 49.0229C84.9213 48.9246 85.2497 48.4367 85.1514 47.9332Z" fill="black"/>
<path fill-rule="evenodd" clip-rule="evenodd" d="M85.1514 35.19C85.053 34.6866 84.5651 34.3581 84.0617 34.4565L54.4424 40.2426C53.939 40.3409 53.6105 40.8288 53.7089 41.3323C53.8072 41.8358 54.2951 42.1642 54.7986 42.0659L84.4178 36.2798C84.9213 36.1814 85.2497 35.6935 85.1514 35.19Z" fill="black"/>
<path fill-rule="evenodd" clip-rule="evenodd" d="M85.1514 52.3418C85.053 51.8383 84.5651 51.5099 84.0617 51.6082L54.4424 57.3943C53.939 57.4927 53.6105 57.9805 53.7089 58.484C53.8072 58.9875 54.2951 59.3159 54.7986 59.2176L84.4178 53.4315C84.9213 53.3331 85.2497 52.8453 85.1514 52.3418Z" fill="black"/>
<path fill-rule="evenodd" clip-rule="evenodd" d="M85.1514 39.7709C85.053 39.2674 84.5651 38.9389 84.0617 39.0373L54.4424 44.8234C53.939 44.9217 53.6105 45.4096 53.7089 45.9131C53.8072 46.4166 54.2951 46.745 54.7986 46.6467L84.4178 40.8606C84.9213 40.7622 85.2497 40.2743 85.1514 39.7709Z" fill="black"/>
<path fill-rule="evenodd" clip-rule="evenodd" d="M85.1514 56.9227C85.053 56.4192 84.5651 56.0908 84.0617 56.1892L54.4424 61.9752C53.939 62.0736 53.6105 62.5615 53.7089 63.065C53.8072 63.5684 54.2951 63.8969 54.7986 63.7985L84.4178 58.0124C84.9213 57.9141 85.2497 57.4262 85.1514 56.9227Z" fill="black"/>
<path fill-rule="evenodd" clip-rule="evenodd" d="M71.7228 64.3473C71.6357 63.8418 71.1552 63.5026 70.6497 63.5897L54.4624 66.3797C53.9569 66.4668 53.6177 66.9473 53.7048 67.4528C53.7919 67.9584 54.2724 68.2976 54.778 68.2104L70.9652 65.4204C71.4707 65.3333 71.8099 64.8528 71.7228 64.3473Z" fill="black"/>
<path fill-rule="evenodd" clip-rule="evenodd" d="M12.0855 46.4593C12.1324 45.9484 12.5845 45.5723 13.0953 45.6192L43.1278 48.3745C43.6387 48.4213 44.0148 48.8734 43.968 49.3843C43.9211 49.8952 43.469 50.2713 42.9581 50.2244L12.9256 47.4692C12.4148 47.4223 12.0386 46.9702 12.0855 46.4593Z" fill="black"/>
<path fill-rule="evenodd" clip-rule="evenodd" d="M12.0855 58.8547C12.1324 58.3438 12.5845 57.9677 13.0953 58.0146L43.1278 60.7698C43.6387 60.8167 44.0148 61.2688 43.968 61.7797C43.9211 62.2905 43.469 62.6667 42.9581 62.6198L12.9256 59.8645C12.4148 59.8177 12.0386 59.3655 12.0855 58.8547Z" fill="black"/>
<path fill-rule="evenodd" clip-rule="evenodd" d="M12.0837 50.8827C12.1181 50.3709 12.5609 49.9838 13.0728 50.0182L29.4667 51.1204C29.9785 51.1548 30.3656 51.5976 30.3312 52.1094C30.2967 52.6213 29.8539 53.0083 29.3421 52.9739L12.9482 51.8718C12.4363 51.8374 12.0493 51.3946 12.0837 50.8827Z" fill="black"/>
<path fill-rule="evenodd" clip-rule="evenodd" d="M12.0839 63.2757C12.1197 62.7639 12.5636 62.3781 13.0753 62.4139L36.6028 64.0609C37.1146 64.0967 37.5004 64.5406 37.4646 65.0524C37.4287 65.5641 36.9848 65.9499 36.4731 65.9141L12.9456 64.2671C12.4339 64.2313 12.048 63.7874 12.0839 63.2757Z" fill="black"/>
<path fill-rule="evenodd" clip-rule="evenodd" d="M12.0837 67.2329C12.1181 66.7211 12.5609 66.3341 13.0728 66.3685L29.4667 67.4706C29.9785 67.505 30.3656 67.9478 30.3312 68.4597C30.2967 68.9715 29.8539 69.3585 29.3421 69.3241L12.9482 68.222C12.4363 68.1876 12.0493 67.7448 12.0837 67.2329Z" fill="black"/>
<path fill-rule="evenodd" clip-rule="evenodd" d="M18.1904 19.4229C18.5867 19.4419 18.9272 19.7104 19.038 20.0913L24.5485 39.0338C24.6918 39.5264 24.4087 40.0419 23.9161 40.1852C23.4235 40.3285 22.908 40.0453 22.7647 39.5527L18.0097 23.2071L11.7766 38.8789C11.587 39.3555 11.0469 39.5883 10.5702 39.3987C10.0935 39.2091 9.86079 38.669 10.0504 38.1923L17.283 20.0075C17.4296 19.6388 17.7941 19.404 18.1904 19.4229Z" fill="#7A4AE6"/>
<path fill-rule="evenodd" clip-rule="evenodd" d="M22.2098 32.0961C22.2098 32.6091 21.7939 33.025 21.2809 33.025L13.5316 33.025C13.0186 33.025 12.6027 32.6091 12.6027 32.0961C12.6027 31.5831 13.0186 31.1673 13.5316 31.1673L21.2809 31.1673C21.7939 31.1673 22.2098 31.5831 22.2098 32.0961Z" fill="#7A4AE6"/>
<path fill-rule="evenodd" clip-rule="evenodd" d="M28.5806 27.0326V30.8275C28.8246 30.8371 29.0862 30.8642 29.3499 30.9046C29.712 30.8753 30.108 30.8115 30.4819 30.6941C30.922 30.556 31.2617 30.3651 31.4825 30.1357C31.6827 29.9276 31.8202 29.6548 31.8202 29.2366C31.8202 28.4241 31.3405 27.8793 30.4635 27.4934C29.8786 27.2361 29.1962 27.0944 28.5806 27.0326ZM32.2661 31.8888C32.4629 31.7553 32.6501 31.6014 32.8209 31.424C33.3504 30.8739 33.6779 30.141 33.6779 29.2366C33.6779 27.4041 32.4585 26.3416 31.2117 25.793C29.9849 25.2533 28.563 25.1142 27.6267 25.1395C27.1236 25.1531 26.7229 25.5648 26.7229 26.0681V39.4312C26.7229 39.8423 26.9931 40.2044 27.3871 40.3216C28.3932 40.6207 30.0376 40.73 31.5246 40.2568C32.2819 40.0158 33.0377 39.6109 33.6388 38.9624C34.2485 38.3046 34.657 37.4407 34.7745 36.3634C35.0198 34.1149 33.6852 32.6929 32.2661 31.8888ZM28.5806 32.7773C28.7891 32.7852 29.0167 32.7844 29.2559 32.7723C29.8146 32.8738 30.4624 33.0618 31.0597 33.3525C32.2791 33.9457 33.0731 34.8292 32.9277 36.1619C32.851 36.865 32.5999 37.3505 32.2763 37.6995C31.9441 38.0579 31.4929 38.3173 30.9613 38.4865C30.1624 38.7408 29.2721 38.7623 28.5806 38.6746V32.7773Z" fill="#7A4AE6"/>
</svg>
