<svg width="40" height="40" viewBox="0 0 40 40" fill="none" xmlns="http://www.w3.org/2000/svg">
<path d="M18.9975 0.00582045C15.7875 0.0445704 8.88626 0.57207 5.02626 4.11332C2.15501 6.95832 1.15251 11.1646 1.03501 16.3658C0.937511 21.5483 0.820011 31.2808 10.2013 33.9308V37.9671C10.2013 37.9671 10.1425 39.5821 11.21 39.9133C12.525 40.3296 13.2738 39.0871 14.5238 37.7521L16.855 35.1158C23.2738 35.6496 28.19 34.4196 28.7563 34.2371C30.0588 33.8208 37.395 32.8833 38.5938 23.1496C39.8238 13.0971 37.995 6.76332 34.6938 3.89832H34.6738C33.6775 2.98082 29.6738 0.0633205 20.7288 0.0308205C20.7288 0.0308205 20.065 -0.0141795 18.9975 0.00457045V0.00582045ZM19.1075 2.83207C20.0188 2.82582 20.5725 2.86457 20.5725 2.86457C28.1438 2.88457 31.7575 5.16332 32.61 5.93082C35.39 8.31332 36.8225 14.0233 35.7738 22.4158C34.7775 30.5533 28.8275 31.0683 27.7263 31.4196C27.2575 31.5696 22.9275 32.6371 17.4725 32.2858C17.4725 32.2858 13.41 37.1883 12.14 38.4508C11.9388 38.6721 11.7038 38.7371 11.5538 38.7046C11.3388 38.6521 11.2738 38.3858 11.2863 38.0208L11.325 31.3221C3.36876 29.1221 3.83751 20.8208 3.92251 16.4846C4.02001 12.1483 4.83376 8.60082 7.25626 6.19832C10.5175 3.24957 16.3775 2.85207 19.105 2.83207H19.1075ZM19.7075 7.16707C19.642 7.16641 19.5771 7.17872 19.5164 7.20328C19.4557 7.22785 19.4004 7.26418 19.3538 7.3102C19.3072 7.35621 19.2702 7.411 19.2449 7.47139C19.2195 7.53178 19.2064 7.59658 19.2063 7.66207C19.2063 7.94207 19.4338 8.16332 19.7075 8.16332C20.9469 8.13975 22.1787 8.36178 23.3318 8.8166C24.485 9.27143 25.5367 9.95005 26.4263 10.8133C28.2425 12.5771 29.1275 14.9471 29.1613 18.0458C29.1613 18.3196 29.3825 18.5471 29.6625 18.5471V18.5271C29.7945 18.5274 29.9212 18.4756 30.0151 18.3828C30.109 18.2901 30.1624 18.164 30.1638 18.0321C30.2245 16.5735 29.9879 15.1178 29.4685 13.7535C28.9492 12.3892 28.1578 11.1448 27.1425 10.0958C25.1638 8.16207 22.6563 7.16582 19.7075 7.16582V7.16707ZM13.1188 8.31332C12.7649 8.26162 12.4041 8.33265 12.0963 8.51457H12.07C11.3553 8.93349 10.7115 9.46297 10.1625 10.0833C9.70626 10.6108 9.45876 11.1446 9.39376 11.6583C9.35501 11.9646 9.38126 12.2708 9.47251 12.5633L9.50501 12.5833C10.0188 14.0933 10.69 15.5458 11.51 16.9133C12.5663 18.8345 13.8662 20.6113 15.3775 22.1996L15.4225 22.2646L15.4938 22.3171L15.5388 22.3696L15.5913 22.4146C17.1853 23.9303 18.9664 25.2363 20.8913 26.3008C23.0913 27.4983 24.4263 28.0646 25.2275 28.2996V28.3121C25.4625 28.3833 25.6763 28.4158 25.8913 28.4158C26.5741 28.3658 27.2206 28.0886 27.7275 27.6283C28.345 27.0792 28.8686 26.4327 29.2775 25.7146V25.7021C29.6613 24.9796 29.5313 24.2958 28.9775 23.8333C27.8685 22.8639 26.6693 22.0029 25.3963 21.2621C24.5438 20.7996 23.6775 21.0796 23.3263 21.5483L22.5775 22.4921C22.1938 22.9608 21.4963 22.8958 21.4963 22.8958L21.4763 22.9083C16.275 21.5796 14.8875 16.3133 14.8875 16.3133C14.8875 16.3133 14.8225 15.5971 15.3038 15.2321L16.2413 14.4771C16.69 14.1121 17.0025 13.2471 16.5213 12.3933C15.7855 11.1185 14.9264 9.91901 13.9563 8.81207C13.7442 8.55111 13.4466 8.37356 13.1163 8.31082L13.1188 8.31332ZM20.5725 9.79832C19.9088 9.79832 19.9088 10.8008 20.5788 10.8008C21.4041 10.8142 22.2187 10.9901 22.9761 11.3185C23.7334 11.6469 24.4186 12.1213 24.9925 12.7146C25.516 13.2921 25.9183 13.9688 26.1756 14.7046C26.4328 15.4404 26.5397 16.2204 26.49 16.9983C26.4923 17.13 26.546 17.2555 26.6397 17.348C26.7334 17.4405 26.8596 17.4927 26.9913 17.4933L27.0113 17.5196C27.1439 17.5186 27.2708 17.4655 27.3646 17.3717C27.4584 17.2779 27.5115 17.151 27.5125 17.0183C27.5575 15.0321 26.94 13.3658 25.7288 12.0308C24.5113 10.6958 22.8125 9.94707 20.6438 9.79832H20.5725ZM21.3938 12.4933C20.71 12.4733 20.6838 13.4958 21.3613 13.5158C23.0088 13.6008 23.8088 14.4333 23.9138 16.1458C23.916 16.2758 23.9691 16.3997 24.0616 16.4911C24.1542 16.5824 24.2788 16.6339 24.4088 16.6346H24.4288C24.4956 16.6317 24.5612 16.6156 24.6217 16.5871C24.6823 16.5586 24.7365 16.5183 24.7813 16.4686C24.8261 16.4189 24.8606 16.3608 24.8827 16.2977C24.9048 16.2345 24.9141 16.1676 24.91 16.1008C24.7925 13.8683 23.575 12.6108 21.4138 12.4946H21.3938V12.4933Z" fill="#7A4AE6"/>
</svg>
